<svg version="1.2" xmlns="http://www.w3.org/2000/svg" viewBox="0 0 64 122" width="64" height="122">
	<title>domino-161746-svg</title>
	<style>
		.s0 { fill: #000000 } 
		.s1 { fill: none;stroke: #323232;stroke-linecap: round;stroke-width: 2 } 
		.s2 { fill: none;stroke: #969696;stroke-linecap: round;stroke-width: 2 } 
		.s3 { fill: #ffffff;stroke: #323232;stroke-linecap: round;stroke-linejoin: round;stroke-width: 2 } 
		.s4 { fill: none;stroke: #969696;stroke-linecap: round;stroke-linejoin: round;stroke-width: 1.6 } 
	</style>
	<path id="Layer" class="s0" d="m-75.9 392.2v-110.4q0.1-1 0.4-1.9q0.4-0.9 1.1-1.6q0.7-0.7 1.6-1.1q1-0.4 1.9-0.4h52.2q1 0 1.9 0.4q1 0.4 1.7 1.1q0.7 0.7 1 1.6q0.4 0.9 0.4 1.9v110.4q0 1-0.4 1.9q-0.3 0.9-1 1.6q-0.7 0.7-1.7 1.1q-0.9 0.4-1.9 0.4h-52.2q-0.9 0-1.9-0.4q-0.9-0.4-1.6-1.1q-0.7-0.7-1.1-1.6q-0.3-0.9-0.4-1.9z" />
	<path id="Layer" class="s0" d="m-69.8 333.2v-50h50v50z" />
	<g id="Layer">
		<path id="Layer" class="s1" d="m-69.3 338h47.6" />
		<path id="Layer" class="s2" d="m-69.3 336h47.6" />
	</g>
	<g id="Layer">
		<path id="Layer" class="s3" d="m-60 327.4c-1.3 0-2.5-0.5-3.4-1.5c-0.9-0.9-1.4-2.1-1.4-3.4c0-1.3 0.5-2.5 1.4-3.4c0.9-0.9 2.1-1.4 3.4-1.4c1.3 0 2.5 0.5 3.5 1.4c0.9 0.9 1.4 2.1 1.4 3.4c0 1.3-0.5 2.5-1.4 3.4c-1 1-2.2 1.5-3.5 1.5z" />
		<path id="Layer" class="s4" d="m-62.8 319.6c0.7-0.7 1.7-1.1 2.7-1.1c2.2 0 4 1.8 4 4c0 1.1-0.5 2.1-1.2 2.8" />
	</g>
	<g id="Layer">
		<path id="Layer" class="s3" d="m-60 297c-1.3 0-2.5-0.5-3.4-1.4c-0.9-0.9-1.4-2.2-1.4-3.5c0-1.3 0.5-2.5 1.4-3.4c0.9-0.9 2.1-1.4 3.4-1.4c1.3 0 2.5 0.5 3.5 1.4c0.9 0.9 1.4 2.1 1.4 3.4c0 1.3-0.5 2.6-1.4 3.5c-1 0.9-2.2 1.4-3.5 1.4z" />
		<path id="Layer" class="s4" d="m-62.8 289.2c0.7-0.7 1.7-1.1 2.7-1.1c2.2 0 4 1.8 4 4c0 1.1-0.5 2.1-1.2 2.9" />
	</g>
	<g id="Layer">
		<path id="Layer" class="s3" d="m-30 327.4c-1.3 0-2.5-0.5-3.4-1.5c-0.9-0.9-1.4-2.1-1.4-3.4c0-1.3 0.5-2.5 1.4-3.4c0.9-0.9 2.1-1.4 3.4-1.4c1.3 0 2.5 0.5 3.5 1.4c0.9 0.9 1.4 2.1 1.4 3.4c0 1.3-0.5 2.5-1.4 3.4c-1 1-2.2 1.5-3.5 1.5z" />
		<path id="Layer" class="s4" d="m-32.8 319.6c0.7-0.7 1.7-1.1 2.7-1.1c2.2 0 4 1.8 4 4c0 1.1-0.5 2.1-1.2 2.8" />
	</g>
	<g id="Layer">
		<path id="Layer" class="s3" d="m-30 297c-1.3 0-2.5-0.5-3.4-1.4c-0.9-0.9-1.4-2.2-1.4-3.5c0-1.3 0.5-2.5 1.4-3.4c0.9-0.9 2.1-1.4 3.4-1.4c1.3 0 2.5 0.5 3.5 1.4c0.9 0.9 1.4 2.1 1.4 3.4c0 1.3-0.5 2.6-1.4 3.5c-1 0.9-2.2 1.4-3.5 1.4z" />
		<path id="Layer" class="s4" d="m-32.8 289.2c0.7-0.7 1.7-1.1 2.7-1.1c2.2 0 4 1.8 4 4c0 1.1-0.5 2.1-1.2 2.9" />
	</g>
	<path id="Layer" class="s0" d="m-153.2 392.2v-110.4q0-1 0.4-1.9q0.3-0.9 1-1.6q0.7-0.7 1.7-1.1q0.9-0.4 1.9-0.4h52.1q1 0 2 0.4q0.9 0.4 1.6 1.1q0.7 0.7 1.1 1.6q0.3 0.9 0.3 1.9v110.4q0 1-0.3 1.9q-0.4 0.9-1.1 1.6q-0.7 0.7-1.6 1.1q-1 0.4-2 0.4h-52.1q-1 0-1.9-0.4q-1-0.4-1.7-1.1q-0.7-0.7-1-1.6q-0.4-0.9-0.4-1.9z" />
	<path id="Layer" class="s0" d="m-147.1 390.7v-50h50v50z" />
	<path id="Layer" class="s0" d="m-147.1 333.2v-50h50v50z" />
	<g id="Layer">
		<path id="Layer" class="s1" d="m-146.7 338h47.7" />
		<path id="Layer" class="s2" d="m-146.7 336h47.7" />
	</g>
	<path id="Layer" class="s0" d="m-153.2 254.1v-110.4q0-1 0.4-1.9q0.3-1 1-1.7q0.7-0.7 1.7-1q0.9-0.4 1.9-0.4h52.1q1 0 2 0.4q0.9 0.3 1.6 1q0.7 0.7 1.1 1.7q0.3 0.9 0.3 1.9v110.4q0 1-0.3 1.9q-0.4 0.9-1.1 1.6q-0.7 0.7-1.6 1.1q-1 0.4-2 0.4h-52.1q-1 0-1.9-0.4q-1-0.4-1.7-1.1q-0.7-0.7-1-1.6q-0.4-0.9-0.4-1.9z" />
	<path id="Layer" class="s0" d="m-147.1 252.6v-50h50v50z" />
	<path id="Layer" class="s0" d="m-147.1 195v-50h50v50z" />
	<g id="Layer">
		<path id="Layer" class="s1" d="m-146.7 199.9h47.7" />
		<path id="Layer" class="s2" d="m-146.7 197.9h47.7" />
	</g>
	<g id="Layer">
		<path id="Layer" class="s3" d="m-122.4 174.1c-1.2 0-2.5-0.6-3.4-1.5c-0.9-0.9-1.4-2.1-1.4-3.4c0-1.3 0.5-2.5 1.4-3.4c0.9-0.9 2.2-1.4 3.4-1.4c1.3 0 2.6 0.5 3.5 1.4c0.9 0.9 1.4 2.1 1.4 3.4c0 1.3-0.5 2.5-1.4 3.4c-0.9 0.9-2.2 1.5-3.5 1.5z" />
		<path id="Layer" class="s4" d="m-125.2 166.3c0.7-0.7 1.7-1.1 2.7-1.1c2.2 0 4 1.8 4 4c0 1.1-0.5 2.1-1.2 2.8" />
	</g>
	<path id="Layer" class="s0" d="m-75.9 254.1v-110.4q0.1-1 0.4-1.9q0.4-1 1.1-1.7q0.7-0.7 1.6-1q1-0.4 1.9-0.4h52.2q1 0 1.9 0.4q1 0.3 1.7 1q0.7 0.7 1 1.7q0.4 0.9 0.4 1.9v110.4q0 1-0.4 1.9q-0.3 0.9-1 1.6q-0.7 0.7-1.7 1.1q-0.9 0.4-1.9 0.4h-52.2q-0.9 0-1.9-0.4q-0.9-0.4-1.6-1.1q-0.7-0.7-1.1-1.6q-0.3-0.9-0.4-1.9z" />
	<path id="Layer" class="s0" d="m-69.8 252.6v-50h50v50z" />
	<path id="Layer" class="s0" d="m-69.8 195v-50h50v50z" />
	<g id="Layer">
		<path id="Layer" class="s1" d="m-69.3 199.9h47.6" />
		<path id="Layer" class="s2" d="m-69.3 197.9h47.6" />
	</g>
	<g id="Layer">
		<path id="Layer" class="s3" d="m-60 189.3c-1.3 0-2.5-0.6-3.4-1.5c-0.9-0.9-1.4-2.1-1.4-3.4c0-1.3 0.5-2.5 1.4-3.4c0.9-0.9 2.1-1.4 3.4-1.4c1.3 0 2.5 0.5 3.5 1.4c0.9 0.9 1.4 2.1 1.4 3.4c0 1.3-0.5 2.5-1.4 3.4c-1 0.9-2.2 1.5-3.5 1.5z" />
		<path id="Layer" class="s4" d="m-62.8 181.5c0.7-0.7 1.7-1.1 2.7-1.1c2.2 0 4 1.8 4 4c0 1.1-0.5 2.1-1.2 2.8" />
	</g>
	<g id="Layer">
		<path id="Layer" class="s3" d="m-45 174.1c-1.3 0-2.5-0.6-3.4-1.5c-0.9-0.9-1.4-2.1-1.4-3.4c0-1.3 0.5-2.5 1.4-3.4c0.9-0.9 2.1-1.4 3.4-1.4c1.3 0 2.5 0.5 3.5 1.4c0.9 0.9 1.4 2.1 1.4 3.4c0 1.3-0.5 2.5-1.4 3.4c-1 0.9-2.2 1.5-3.5 1.5z" />
		<path id="Layer" class="s4" d="m-47.8 166.3c0.7-0.7 1.7-1.1 2.7-1.1c2.2 0 4 1.8 4 4c0 1.1-0.5 2.1-1.2 2.8" />
	</g>
	<g id="Layer">
		<path id="Layer" class="s3" d="m-60 158.9c-1.3 0-2.5-0.5-3.4-1.5c-0.9-0.9-1.4-2.1-1.4-3.4c0-1.3 0.5-2.5 1.4-3.4c0.9-0.9 2.1-1.4 3.4-1.4c1.3 0 2.5 0.5 3.5 1.4c0.9 0.9 1.4 2.1 1.4 3.4c0 1.3-0.5 2.5-1.4 3.4c-1 1-2.2 1.5-3.5 1.5z" />
		<path id="Layer" class="s4" d="m-62.8 151.1c0.7-0.7 1.7-1.1 2.7-1.1c2.2 0 4 1.8 4 4c0 1.1-0.5 2.1-1.2 2.8" />
	</g>
	<g id="Layer">
		<path id="Layer" class="s3" d="m-30 189.3c-1.3 0-2.5-0.6-3.4-1.5c-0.9-0.9-1.4-2.1-1.4-3.4c0-1.3 0.5-2.5 1.4-3.4c0.9-0.9 2.1-1.4 3.4-1.4c1.3 0 2.5 0.5 3.5 1.4c0.9 0.9 1.4 2.1 1.4 3.4c0 1.3-0.5 2.5-1.4 3.4c-1 0.9-2.2 1.5-3.5 1.5z" />
		<path id="Layer" class="s4" d="m-32.8 181.5c0.7-0.7 1.7-1.1 2.7-1.1c2.2 0 4 1.8 4 4c0 1.1-0.5 2.1-1.2 2.8" />
	</g>
	<g id="Layer">
		<path id="Layer" class="s3" d="m-30 158.9c-1.3 0-2.5-0.5-3.4-1.5c-0.9-0.9-1.4-2.1-1.4-3.4c0-1.3 0.5-2.5 1.4-3.4c0.9-0.9 2.1-1.4 3.4-1.4c1.3 0 2.5 0.5 3.5 1.4c0.9 0.9 1.4 2.1 1.4 3.4c0 1.3-0.5 2.5-1.4 3.4c-1 1-2.2 1.5-3.5 1.5z" />
		<path id="Layer" class="s4" d="m-32.8 151.1c0.7-0.7 1.7-1.1 2.7-1.1c2.2 0 4 1.8 4 4c0 1.1-0.5 2.1-1.2 2.8" />
	</g>
	<path id="Layer" class="s0" d="m1.5 392.2v-110.4q0-1 0.4-1.9q0.4-0.9 1.1-1.6q0.7-0.7 1.6-1.1q0.9-0.4 1.9-0.4h52.2q1 0 1.9 0.4q0.9 0.4 1.6 1.1q0.7 0.7 1.1 1.6q0.4 0.9 0.4 1.9v110.4q0 1-0.4 1.9q-0.4 0.9-1.1 1.6q-0.7 0.7-1.6 1.1q-0.9 0.4-1.9 0.4h-52.2q-1 0-1.9-0.4q-0.9-0.4-1.6-1.1q-0.7-0.7-1.1-1.6q-0.4-0.9-0.4-1.9z" />
	<path id="Layer" class="s0" d="m7.6 390.7v-50h50v50z" />
	<path id="Layer" class="s0" d="m7.6 333.2v-50h50v50z" />
	<g id="Layer">
		<path id="Layer" class="s1" d="m8.1 338h47.6" />
		<path id="Layer" class="s2" d="m8.1 336h47.6" />
	</g>
	<g id="Layer">
		<path id="Layer" class="s3" d="m32.4 373.8c-1.3 0-2.5-0.5-3.4-1.5c-0.9-0.9-1.5-2.1-1.5-3.4c0-1.3 0.6-2.5 1.5-3.4c0.9-0.9 2.1-1.4 3.4-1.4c1.3 0 2.5 0.5 3.4 1.4c0.9 0.9 1.4 2.1 1.4 3.4c0 1.3-0.5 2.5-1.4 3.4c-0.9 1-2.1 1.5-3.4 1.5z" />
		<path id="Layer" class="s4" d="m29.6 366c0.7-0.7 1.6-1.1 2.7-1.1c2.2 0 3.9 1.8 3.9 4c0 1.1-0.4 2.1-1.1 2.8" />
	</g>
	<g id="Layer">
		<path id="Layer" class="s3" d="m17.4 327.4c-1.3 0-2.5-0.5-3.4-1.5c-0.9-0.9-1.5-2.1-1.5-3.4c0-1.3 0.6-2.5 1.5-3.4c0.9-0.9 2.1-1.4 3.4-1.4c1.3 0 2.5 0.5 3.4 1.4c0.9 0.9 1.4 2.1 1.4 3.4c0 1.3-0.5 2.5-1.4 3.4c-0.9 1-2.1 1.5-3.4 1.5z" />
		<path id="Layer" class="s4" d="m14.6 319.6c0.7-0.7 1.6-1.1 2.7-1.1c2.2 0 3.9 1.8 3.9 4c0 1.1-0.4 2.1-1.1 2.8" />
	</g>
	<g id="Layer">
		<path id="Layer" class="s3" d="m32.4 312.2c-1.3 0-2.5-0.5-3.4-1.4c-0.9-1-1.5-2.2-1.5-3.5c0-1.3 0.6-2.5 1.5-3.4c0.9-0.9 2.1-1.4 3.4-1.4c1.3 0 2.5 0.5 3.4 1.4c0.9 0.9 1.4 2.1 1.4 3.4c0 1.3-0.5 2.5-1.4 3.5c-0.9 0.9-2.1 1.4-3.4 1.4z" />
		<path id="Layer" class="s4" d="m29.6 304.4c0.7-0.7 1.6-1.1 2.7-1.1c2.2 0 3.9 1.8 3.9 4c0 1.1-0.4 2.1-1.1 2.8" />
	</g>
	<g id="Layer">
		<path id="Layer" class="s3" d="m47.4 297c-1.3 0-2.5-0.5-3.4-1.4c-0.9-0.9-1.5-2.2-1.5-3.5c0-1.3 0.6-2.5 1.5-3.4c0.9-0.9 2.1-1.4 3.4-1.4c1.3 0 2.5 0.5 3.4 1.4c0.9 0.9 1.4 2.1 1.4 3.4c0 1.3-0.5 2.6-1.4 3.5c-0.9 0.9-2.1 1.4-3.4 1.4z" />
		<path id="Layer" class="s4" d="m44.6 289.2c0.7-0.7 1.6-1.1 2.7-1.1c2.2 0 3.9 1.8 3.9 4c0 1.1-0.4 2.1-1.1 2.9" />
	</g>
	<path id="Layer" class="s0" d="m1.5 254.1v-110.4q0-1 0.4-1.9q0.4-1 1.1-1.7q0.7-0.7 1.6-1q0.9-0.4 1.9-0.4h52.2q1 0 1.9 0.4q0.9 0.3 1.6 1q0.7 0.7 1.1 1.7q0.4 0.9 0.4 1.9v110.4q0 1-0.4 1.9q-0.4 0.9-1.1 1.6q-0.7 0.7-1.6 1.1q-0.9 0.4-1.9 0.4h-52.2q-1 0-1.9-0.4q-0.9-0.4-1.6-1.1q-0.7-0.7-1.1-1.6q-0.4-0.9-0.4-1.9z" />
	<path id="Layer" class="s0" d="m7.6 252.6v-50h50v50z" />
	<path id="Layer" class="s0" d="m7.6 195v-50h50v50z" />
	<g id="Layer">
		<path id="Layer" class="s1" d="m8.1 199.9h47.6" />
		<path id="Layer" class="s2" d="m8.1 197.9h47.6" />
	</g>
	<g id="Layer">
		<path id="Layer" class="s3" d="m32.4 235.7c-1.3 0-2.5-0.6-3.4-1.5c-0.9-0.9-1.5-2.1-1.5-3.4c0-1.3 0.6-2.5 1.5-3.4c0.9-0.9 2.1-1.4 3.4-1.4c1.3 0 2.5 0.5 3.4 1.4c0.9 0.9 1.4 2.1 1.4 3.4c0 1.3-0.5 2.5-1.4 3.4c-0.9 0.9-2.1 1.5-3.4 1.5z" />
		<path id="Layer" class="s4" d="m29.6 227.9c0.7-0.7 1.6-1.1 2.7-1.1c2.2 0 3.9 1.8 3.9 4c0 1.1-0.4 2.1-1.1 2.8" />
	</g>
	<g id="Layer">
		<path id="Layer" class="s3" d="m17.4 189.3c-1.3 0-2.5-0.6-3.4-1.5c-0.9-0.9-1.5-2.1-1.5-3.4c0-1.3 0.6-2.5 1.5-3.4c0.9-0.9 2.1-1.4 3.4-1.4c1.3 0 2.5 0.5 3.4 1.4c0.9 0.9 1.4 2.1 1.4 3.4c0 1.3-0.5 2.5-1.4 3.4c-0.9 0.9-2.1 1.5-3.4 1.5z" />
		<path id="Layer" class="s4" d="m14.6 181.5c0.7-0.7 1.6-1.1 2.7-1.1c2.2 0 3.9 1.8 3.9 4c0 1.1-0.4 2.1-1.1 2.8" />
	</g>
	<g id="Layer">
		<path id="Layer" class="s3" d="m17.4 158.9c-1.3 0-2.5-0.5-3.4-1.5c-0.9-0.9-1.5-2.1-1.5-3.4c0-1.3 0.6-2.5 1.5-3.4c0.9-0.9 2.1-1.4 3.4-1.4c1.3 0 2.5 0.5 3.4 1.4c0.9 0.9 1.4 2.1 1.4 3.4c0 1.3-0.5 2.5-1.4 3.4c-0.9 1-2.1 1.5-3.4 1.5z" />
		<path id="Layer" class="s4" d="m14.6 151.1c0.7-0.7 1.6-1.1 2.7-1.1c2.2 0 3.9 1.8 3.9 4c0 1.1-0.4 2.1-1.1 2.8" />
	</g>
	<g id="Layer">
		<path id="Layer" class="s3" d="m47.4 189.3c-1.3 0-2.5-0.6-3.4-1.5c-0.9-0.9-1.5-2.1-1.5-3.4c0-1.3 0.6-2.5 1.5-3.4c0.9-0.9 2.1-1.4 3.4-1.4c1.3 0 2.5 0.5 3.4 1.4c0.9 0.9 1.4 2.1 1.4 3.4c0 1.3-0.5 2.5-1.4 3.4c-0.9 0.9-2.1 1.5-3.4 1.5z" />
		<path id="Layer" class="s4" d="m44.6 181.5c0.7-0.7 1.6-1.1 2.7-1.1c2.2 0 3.9 1.8 3.9 4c0 1.1-0.4 2.1-1.1 2.8" />
	</g>
	<g id="Layer">
		<path id="Layer" class="s3" d="m47.4 158.9c-1.3 0-2.5-0.5-3.4-1.5c-0.9-0.9-1.5-2.1-1.5-3.4c0-1.3 0.6-2.5 1.5-3.4c0.9-0.9 2.1-1.4 3.4-1.4c1.3 0 2.5 0.5 3.4 1.4c0.9 0.9 1.4 2.1 1.4 3.4c0 1.3-0.5 2.5-1.4 3.4c-0.9 1-2.1 1.5-3.4 1.5z" />
		<path id="Layer" class="s4" d="m44.6 151.1c0.7-0.7 1.6-1.1 2.7-1.1c2.2 0 3.9 1.8 3.9 4c0 1.1-0.4 2.1-1.1 2.8" />
	</g>
	<path id="Layer" class="s0" d="m-75.8 116v-110.4q0-1 0.3-2q0.4-0.9 1.1-1.6q0.7-0.7 1.6-1.1q1-0.3 2-0.3h52.1q1 0 1.9 0.3q1 0.4 1.7 1.1q0.7 0.7 1 1.6q0.4 1 0.4 2v110.4q0 1-0.4 1.9q-0.3 0.9-1 1.6q-0.7 0.7-1.7 1.1q-0.9 0.4-1.9 0.4h-52.2q-0.9 0-1.9-0.4q-0.9-0.4-1.6-1.1q-0.7-0.7-1.1-1.6q-0.3-0.9-0.3-1.9z" />
	<path id="Layer" class="s0" d="m-69.8 114.5v-50h50v50z" />
	<path id="Layer" class="s0" d="m-69.8 56.9v-50h50v50z" />
	<g id="Layer">
		<path id="Layer" class="s1" d="m-69.3 61.8h47.6" />
		<path id="Layer" class="s2" d="m-69.3 59.8h47.6" />
	</g>
	<g id="Layer">
		<path id="Layer" class="s3" d="m-60 51.1c-1.3 0-2.5-0.5-3.4-1.4c-0.9-0.9-1.4-2.1-1.4-3.4c0-1.3 0.5-2.5 1.4-3.4c0.9-1 2.1-1.5 3.4-1.5c1.3 0 2.5 0.5 3.5 1.5c0.9 0.9 1.4 2.1 1.4 3.4c0 1.3-0.5 2.5-1.4 3.4c-1 0.9-2.2 1.4-3.5 1.4z" />
		<path id="Layer" class="s4" d="m-62.8 43.4c0.7-0.7 1.7-1.1 2.7-1.1c2.2 0 4 1.8 4 4c0 1.1-0.5 2.1-1.2 2.8" />
	</g>
	<g id="Layer">
		<path id="Layer" class="s3" d="m-60 20.8c-1.3 0-2.5-0.6-3.4-1.5c-0.9-0.9-1.4-2.1-1.4-3.4c0-1.3 0.5-2.5 1.4-3.4c0.9-0.9 2.1-1.4 3.4-1.4c1.3 0 2.5 0.5 3.5 1.4c0.9 0.9 1.4 2.1 1.4 3.4c0 1.3-0.5 2.5-1.4 3.4c-1 0.9-2.2 1.5-3.5 1.5z" />
		<path id="Layer" class="s4" d="m-62.8 13c0.7-0.7 1.7-1.1 2.7-1.1c2.2 0 4 1.8 4 4c0 1.1-0.5 2.1-1.2 2.8" />
	</g>
	<g id="Layer">
		<path id="Layer" class="s3" d="m-60 35.9c-1.3 0-2.5-0.5-3.4-1.4c-0.9-0.9-1.4-2.1-1.4-3.4c0-1.3 0.5-2.5 1.4-3.4c0.9-0.9 2.1-1.5 3.4-1.5c1.3 0 2.5 0.6 3.5 1.5c0.9 0.9 1.4 2.1 1.4 3.4c0 1.3-0.5 2.5-1.4 3.4c-1 0.9-2.2 1.4-3.5 1.4z" />
		<path id="Layer" class="s4" d="m-62.8 28.2c0.7-0.7 1.7-1.1 2.7-1.1c2.2 0 4 1.8 4 4c0 1.1-0.5 2.1-1.2 2.8" />
	</g>
	<g id="Layer">
		<path id="Layer" class="s3" d="m-30 51.1c-1.3 0-2.5-0.5-3.4-1.4c-0.9-0.9-1.4-2.1-1.4-3.4c0-1.3 0.5-2.5 1.4-3.4c0.9-1 2.1-1.5 3.4-1.5c1.3 0 2.5 0.5 3.5 1.5c0.9 0.9 1.4 2.1 1.4 3.4c0 1.3-0.5 2.5-1.4 3.4c-1 0.9-2.2 1.4-3.5 1.4z" />
		<path id="Layer" class="s4" d="m-32.8 43.4c0.7-0.7 1.7-1.1 2.7-1.1c2.2 0 4 1.8 4 4c0 1.1-0.5 2.1-1.2 2.8" />
	</g>
	<g id="Layer">
		<path id="Layer" class="s3" d="m-30 20.8c-1.3 0-2.5-0.6-3.4-1.5c-0.9-0.9-1.4-2.1-1.4-3.4c0-1.3 0.5-2.5 1.4-3.4c0.9-0.9 2.1-1.4 3.4-1.4c1.3 0 2.5 0.5 3.5 1.4c0.9 0.9 1.4 2.1 1.4 3.4c0 1.3-0.5 2.5-1.4 3.4c-1 0.9-2.2 1.5-3.5 1.5z" />
		<path id="Layer" class="s4" d="m-32.8 13c0.7-0.7 1.7-1.1 2.7-1.1c2.2 0 4 1.8 4 4c0 1.1-0.5 2.1-1.2 2.8" />
	</g>
	<g id="Layer">
		<path id="Layer" class="s3" d="m-30 35.9c-1.3 0-2.5-0.5-3.4-1.4c-0.9-0.9-1.4-2.1-1.4-3.4c0-1.3 0.5-2.5 1.4-3.4c0.9-0.9 2.1-1.5 3.4-1.5c1.3 0 2.5 0.6 3.5 1.5c0.9 0.9 1.4 2.1 1.4 3.4c0 1.3-0.5 2.5-1.4 3.4c-1 0.9-2.2 1.4-3.5 1.4z" />
		<path id="Layer" class="s4" d="m-32.8 28.2c0.7-0.7 1.7-1.1 2.7-1.1c2.2 0 4 1.8 4 4c0 1.1-0.5 2.1-1.2 2.8" />
	</g>
	<path id="Layer" class="s0" d="m-153.2 116v-110.4q0-1 0.4-2q0.3-0.9 1-1.6q0.7-0.7 1.7-1.1q0.9-0.3 1.9-0.3h52.1q1 0 2 0.3q0.9 0.4 1.6 1.1q0.7 0.7 1.1 1.6q0.3 1 0.3 2v110.4q0 1-0.3 1.9q-0.4 0.9-1.1 1.6q-0.7 0.7-1.6 1.1q-1 0.4-2 0.4h-52.1q-1 0-1.9-0.4q-1-0.4-1.7-1.1q-0.7-0.7-1-1.6q-0.4-0.9-0.4-1.9z" />
	<path id="Layer" class="s0" d="m-147.1 114.5v-50h50v50z" />
	<path id="Layer" class="s0" d="m-147.1 56.9v-50h50v50z" />
	<g id="Layer">
		<path id="Layer" class="s1" d="m-146.7 61.8h47.7" />
		<path id="Layer" class="s2" d="m-146.7 59.8h47.7" />
	</g>
	<g id="Layer">
		<path id="Layer" class="s3" d="m-137.4 51.1c-1.2 0-2.5-0.5-3.4-1.4c-0.9-0.9-1.4-2.1-1.4-3.4c0-1.3 0.5-2.5 1.4-3.4c0.9-1 2.2-1.5 3.4-1.5c1.3 0 2.6 0.5 3.5 1.5c0.9 0.9 1.4 2.1 1.4 3.4c0 1.3-0.5 2.5-1.4 3.4c-0.9 0.9-2.2 1.4-3.5 1.4z" />
		<path id="Layer" class="s4" d="m-140.2 43.4c0.7-0.7 1.7-1.1 2.7-1.1c2.2 0 4 1.8 4 4c0 1.1-0.5 2.1-1.2 2.8" />
	</g>
	<g id="Layer">
		<path id="Layer" class="s3" d="m-107.4 20.8c-1.2 0-2.5-0.6-3.4-1.5c-0.9-0.9-1.4-2.1-1.4-3.4c0-1.3 0.5-2.5 1.4-3.4c0.9-0.9 2.2-1.4 3.4-1.4c1.3 0 2.6 0.5 3.5 1.4c0.9 0.9 1.4 2.1 1.4 3.4c0 1.3-0.5 2.5-1.4 3.4c-0.9 0.9-2.2 1.5-3.5 1.5z" />
		<path id="Layer" class="s4" d="m-110.2 13c0.7-0.7 1.7-1.1 2.7-1.1c2.2 0 4 1.8 4 4c0 1.1-0.5 2.1-1.2 2.8" />
	</g>
	<path id="Layer" class="s0" d="m-153.2-22.1v-110.4q0-1 0.4-2q0.3-0.9 1-1.6q0.7-0.7 1.7-1.1q0.9-0.3 1.9-0.3h52.1q1 0 2 0.3q0.9 0.4 1.6 1.1q0.7 0.7 1.1 1.6q0.3 1 0.3 2v110.4q0 1-0.3 1.9q-0.4 0.9-1.1 1.6q-0.7 0.7-1.6 1.1q-1 0.4-2 0.4h-52.1q-1 0-1.9-0.4q-1-0.4-1.7-1.1q-0.7-0.7-1-1.6q-0.4-0.9-0.4-1.9z" />
	<path id="Layer" class="s0" d="m-147.1-23.6v-50h50v50z" />
	<path id="Layer" class="s0" d="m-147.1-81.2v-50h50v50z" />
	<g id="Layer">
		<path id="Layer" class="s1" d="m-146.7-76.4h47.7" />
		<path id="Layer" class="s2" d="m-146.7-78.4h47.7" />
	</g>
	<g id="Layer">
		<path id="Layer" class="s3" d="m-137.4-87c-1.2 0-2.5-0.5-3.4-1.4c-0.9-0.9-1.4-2.1-1.4-3.4c0-1.3 0.5-2.5 1.4-3.4c0.9-1 2.2-1.5 3.4-1.5c1.3 0 2.6 0.5 3.5 1.5c0.9 0.9 1.4 2.1 1.4 3.4c0 1.3-0.5 2.5-1.4 3.4c-0.9 0.9-2.2 1.4-3.5 1.4z" />
		<path id="Layer" class="s4" d="m-140.2-94.7c0.7-0.7 1.7-1.1 2.7-1.1c2.2 0 4 1.8 4 4c0 1.1-0.5 2.1-1.2 2.8" />
	</g>
	<g id="Layer">
		<path id="Layer" class="s3" d="m-122.4-102.2c-1.2 0-2.5-0.5-3.4-1.4c-0.9-0.9-1.4-2.1-1.4-3.4c0-1.3 0.5-2.5 1.4-3.4c0.9-1 2.2-1.5 3.4-1.5c1.3 0 2.6 0.5 3.5 1.5c0.9 0.9 1.4 2.1 1.4 3.4c0 1.3-0.5 2.5-1.4 3.4c-0.9 0.9-2.2 1.4-3.5 1.4z" />
		<path id="Layer" class="s4" d="m-125.2-109.9c0.7-0.7 1.7-1.1 2.7-1.1c2.2 0 4 1.8 4 4c0 1.1-0.5 2.1-1.2 2.8" />
	</g>
	<g id="Layer">
		<path id="Layer" class="s3" d="m-107.4-117.4c-1.2 0-2.5-0.5-3.4-1.4c-0.9-0.9-1.4-2.1-1.4-3.4c0-1.3 0.5-2.5 1.4-3.4c0.9-1 2.2-1.5 3.4-1.5c1.3 0 2.6 0.5 3.5 1.5c0.9 0.9 1.4 2.1 1.4 3.4c0 1.3-0.5 2.5-1.4 3.4c-0.9 0.9-2.2 1.4-3.5 1.4z" />
		<path id="Layer" class="s4" d="m-110.2-125.1c0.7-0.7 1.7-1.1 2.7-1.1c2.2 0 4 1.8 4 4c0 1.1-0.5 2.1-1.2 2.8" />
	</g>
	<path id="Layer" class="s0" d="m-75.8-22.1v-110.4q0-1 0.3-2q0.4-0.9 1.1-1.6q0.7-0.7 1.6-1.1q1-0.3 2-0.3h52.1q1 0 1.9 0.3q1 0.4 1.7 1.1q0.7 0.7 1 1.6q0.4 1 0.4 2v110.4q0 1-0.4 1.9q-0.3 0.9-1 1.6q-0.7 0.7-1.7 1.1q-0.9 0.4-1.9 0.4h-52.1q-1 0-2-0.4q-0.9-0.4-1.6-1.1q-0.7-0.7-1.1-1.6q-0.3-0.9-0.3-1.9z" />
	<path id="Layer" class="s0" d="m-69.8-23.6v-50h50v50z" />
	<path id="Layer" class="s0" d="m-69.8-81.2v-50h50v50z" />
	<g id="Layer">
		<path id="Layer" class="s1" d="m-69.3-76.4h47.6" />
		<path id="Layer" class="s2" d="m-69.3-78.4h47.6" />
	</g>
	<g id="Layer">
		<path id="Layer" class="s3" d="m-45-40.6c-1.3 0-2.5-0.5-3.4-1.4c-0.9-0.9-1.4-2.1-1.4-3.4c0-1.3 0.5-2.5 1.4-3.4c0.9-1 2.1-1.5 3.4-1.5c1.3 0 2.5 0.5 3.5 1.5c0.9 0.9 1.4 2.1 1.4 3.4c0 1.3-0.5 2.5-1.4 3.4c-1 0.9-2.2 1.4-3.5 1.4z" />
		<path id="Layer" class="s4" d="m-47.8-48.3c0.7-0.7 1.7-1.1 2.7-1.1c2.2 0 4 1.8 4 4c0 1.1-0.5 2.1-1.2 2.8" />
	</g>
	<g id="Layer">
		<path id="Layer" class="s3" d="m-60-87c-1.3 0-2.5-0.5-3.4-1.4c-0.9-0.9-1.4-2.1-1.4-3.4c0-1.3 0.5-2.5 1.4-3.4c0.9-1 2.1-1.5 3.4-1.5c1.3 0 2.5 0.5 3.5 1.5c0.9 0.9 1.4 2.1 1.4 3.4c0 1.3-0.5 2.5-1.4 3.4c-1 0.9-2.2 1.4-3.5 1.4z" />
		<path id="Layer" class="s4" d="m-62.8-94.7c0.7-0.7 1.7-1.1 2.7-1.1c2.2 0 4 1.8 4 4c0 1.1-0.5 2.1-1.2 2.8" />
	</g>
	<g id="Layer">
		<path id="Layer" class="s3" d="m-30-117.4c-1.3 0-2.5-0.5-3.4-1.4c-0.9-0.9-1.4-2.1-1.4-3.4c0-1.3 0.5-2.5 1.4-3.4c0.9-1 2.1-1.5 3.4-1.5c1.3 0 2.5 0.5 3.5 1.5c0.9 0.9 1.4 2.1 1.4 3.4c0 1.3-0.5 2.5-1.4 3.4c-1 0.9-2.2 1.4-3.5 1.4z" />
		<path id="Layer" class="s4" d="m-32.8-125.1c0.7-0.7 1.7-1.1 2.7-1.1c2.2 0 4 1.8 4 4c0 1.1-0.5 2.1-1.2 2.8" />
	</g>
	<path id="Layer" class="s0" d="m1.5 116v-110.4q0-1 0.4-2q0.4-0.9 1.1-1.6q0.7-0.7 1.6-1.1q0.9-0.3 1.9-0.3h52.2q1 0 1.9 0.3q0.9 0.4 1.6 1.1q0.7 0.7 1.1 1.6q0.4 1 0.4 2v110.4q0 1-0.4 1.9q-0.4 0.9-1.1 1.6q-0.7 0.7-1.6 1.1q-0.9 0.4-1.9 0.4h-52.2q-1 0-1.9-0.4q-0.9-0.4-1.6-1.1q-0.7-0.7-1.1-1.6q-0.4-0.9-0.4-1.9z" />
	<path id="Layer" class="s0" d="m7.6 114.5v-50h50v50z" />
	<path id="Layer" class="s0" d="m7.6 56.9v-50h50v50z" />
	<g id="Layer">
		<path id="Layer" class="s1" d="m8.1 61.8h47.6" />
		<path id="Layer" class="s2" d="m8.1 59.8h47.6" />
	</g>
	<g id="Layer">
		<path id="Layer" class="s3" d="m32.4 97.5c-1.3 0-2.5-0.5-3.4-1.4c-0.9-0.9-1.5-2.1-1.5-3.4c0-1.3 0.6-2.5 1.5-3.4c0.9-0.9 2.1-1.5 3.4-1.5c1.3 0 2.5 0.6 3.4 1.5c0.9 0.9 1.4 2.1 1.4 3.4c0 1.3-0.5 2.5-1.4 3.4c-0.9 0.9-2.1 1.4-3.4 1.4z" />
		<path id="Layer" class="s4" d="m29.6 89.8c0.7-0.7 1.6-1.1 2.7-1.1c2.2 0 3.9 1.8 3.9 4c0 1.1-0.4 2.1-1.1 2.8" />
	</g>
	<g id="Layer">
		<path id="Layer" class="s3" d="m17.4 51.1c-1.3 0-2.5-0.5-3.4-1.4c-0.9-0.9-1.5-2.1-1.5-3.4c0-1.3 0.6-2.5 1.5-3.4c0.9-1 2.1-1.5 3.4-1.5c1.3 0 2.5 0.5 3.4 1.5c0.9 0.9 1.4 2.1 1.4 3.4c0 1.3-0.5 2.5-1.4 3.4c-0.9 0.9-2.1 1.4-3.4 1.4z" />
		<path id="Layer" class="s4" d="m14.6 43.4c0.7-0.7 1.6-1.1 2.7-1.1c2.2 0 3.9 1.8 3.9 4c0 1.1-0.4 2.1-1.1 2.8" />
	</g>
	<g id="Layer">
		<path id="Layer" class="s3" d="m32.4 35.9c-1.3 0-2.5-0.5-3.4-1.4c-0.9-0.9-1.5-2.1-1.5-3.4c0-1.3 0.6-2.5 1.5-3.4c0.9-0.9 2.1-1.5 3.4-1.5c1.3 0 2.5 0.6 3.4 1.5c0.9 0.9 1.4 2.1 1.4 3.4c0 1.3-0.5 2.5-1.4 3.4c-0.9 0.9-2.1 1.4-3.4 1.4z" />
		<path id="Layer" class="s4" d="m29.6 28.2c0.7-0.7 1.6-1.1 2.7-1.1c2.2 0 3.9 1.8 3.9 4c0 1.1-0.4 2.1-1.1 2.8" />
	</g>
	<g id="Layer">
		<path id="Layer" class="s3" d="m17.4 20.8c-1.3 0-2.5-0.6-3.4-1.5c-0.9-0.9-1.5-2.1-1.5-3.4c0-1.3 0.6-2.5 1.5-3.4c0.9-0.9 2.1-1.4 3.4-1.4c1.3 0 2.5 0.5 3.4 1.4c0.9 0.9 1.4 2.1 1.4 3.4c0 1.3-0.5 2.5-1.4 3.4c-0.9 0.9-2.1 1.5-3.4 1.5z" />
		<path id="Layer" class="s4" d="m14.6 13c0.7-0.7 1.6-1.1 2.7-1.1c2.2 0 3.9 1.8 3.9 4c0 1.1-0.4 2.1-1.1 2.8" />
	</g>
	<g id="Layer">
		<path id="Layer" class="s3" d="m47.4 51.1c-1.3 0-2.5-0.5-3.4-1.4c-0.9-0.9-1.5-2.1-1.5-3.4c0-1.3 0.6-2.5 1.5-3.4c0.9-1 2.1-1.5 3.4-1.5c1.3 0 2.5 0.5 3.4 1.5c0.9 0.9 1.4 2.1 1.4 3.4c0 1.3-0.5 2.5-1.4 3.4c-0.9 0.9-2.1 1.4-3.4 1.4z" />
		<path id="Layer" class="s4" d="m44.6 43.4c0.7-0.7 1.6-1.1 2.7-1.1c2.2 0 3.9 1.8 3.9 4c0 1.1-0.4 2.1-1.1 2.8" />
	</g>
	<g id="Layer">
		<path id="Layer" class="s3" d="m47.4 20.8c-1.3 0-2.5-0.6-3.4-1.5c-0.9-0.9-1.5-2.1-1.5-3.4c0-1.3 0.6-2.5 1.5-3.4c0.9-0.9 2.1-1.4 3.4-1.4c1.3 0 2.5 0.5 3.4 1.4c0.9 0.9 1.4 2.1 1.4 3.4c0 1.3-0.5 2.5-1.4 3.4c-0.9 0.9-2.1 1.5-3.4 1.5z" />
		<path id="Layer" class="s4" d="m44.6 13c0.7-0.7 1.6-1.1 2.7-1.1c2.2 0 3.9 1.8 3.9 4c0 1.1-0.4 2.1-1.1 2.8" />
	</g>
	<path id="Layer" class="s0" d="m1.5-22.1v-110.4q0-1 0.4-2q0.4-0.9 1.1-1.6q0.7-0.7 1.6-1.1q0.9-0.3 1.9-0.3h52.2q1 0 1.9 0.3q0.9 0.4 1.6 1.1q0.7 0.7 1.1 1.6q0.4 1 0.4 2v110.4q0 1-0.4 1.9q-0.4 0.9-1.1 1.6q-0.7 0.7-1.6 1.1q-0.9 0.4-1.9 0.4h-52.2q-1 0-1.9-0.4q-0.9-0.4-1.6-1.1q-0.7-0.7-1.1-1.6q-0.4-0.9-0.4-1.9z" />
	<path id="Layer" class="s0" d="m7.6-23.6v-50h50v50z" />
	<path id="Layer" class="s0" d="m7.6-81.2v-50h50v50z" />
	<g id="Layer">
		<path id="Layer" class="s1" d="m8.1-76.4h47.6" />
		<path id="Layer" class="s2" d="m8.1-78.4h47.6" />
	</g>
	<g id="Layer">
		<path id="Layer" class="s3" d="m32.4-40.6c-1.3 0-2.5-0.5-3.4-1.4c-0.9-0.9-1.5-2.1-1.5-3.4c0-1.3 0.6-2.5 1.5-3.4c0.9-1 2.1-1.5 3.4-1.5c1.3 0 2.5 0.5 3.4 1.5c0.9 0.9 1.4 2.1 1.4 3.4c0 1.3-0.5 2.5-1.4 3.4c-0.9 0.9-2.1 1.4-3.4 1.4z" />
		<path id="Layer" class="s4" d="m29.6-48.3c0.7-0.7 1.6-1.1 2.7-1.1c2.2 0 3.9 1.8 3.9 4c0 1.1-0.4 2.1-1.1 2.8" />
	</g>
	<g id="Layer">
		<path id="Layer" class="s3" d="m17.4-87c-1.3 0-2.5-0.5-3.4-1.4c-0.9-0.9-1.5-2.1-1.5-3.4c0-1.3 0.6-2.5 1.5-3.4c0.9-1 2.1-1.5 3.4-1.5c1.3 0 2.5 0.5 3.4 1.5c0.9 0.9 1.4 2.1 1.4 3.4c0 1.3-0.5 2.5-1.4 3.4c-0.9 0.9-2.1 1.4-3.4 1.4z" />
		<path id="Layer" class="s4" d="m14.6-94.7c0.7-0.7 1.6-1.1 2.7-1.1c2.2 0 3.9 1.8 3.9 4c0 1.1-0.4 2.1-1.1 2.8" />
	</g>
	<g id="Layer">
		<path id="Layer" class="s3" d="m17.4-117.4c-1.3 0-2.5-0.5-3.4-1.4c-0.9-0.9-1.5-2.1-1.5-3.4c0-1.3 0.6-2.5 1.5-3.4c0.9-1 2.1-1.5 3.4-1.5c1.3 0 2.5 0.5 3.4 1.5c0.9 0.9 1.4 2.1 1.4 3.4c0 1.3-0.5 2.5-1.4 3.4c-0.9 0.9-2.1 1.4-3.4 1.4z" />
		<path id="Layer" class="s4" d="m14.6-125.1c0.7-0.7 1.6-1.1 2.7-1.1c2.2 0 3.9 1.8 3.9 4c0 1.1-0.4 2.1-1.1 2.8" />
	</g>
	<g id="Layer">
		<path id="Layer" class="s3" d="m17.4-102.2c-1.3 0-2.5-0.5-3.4-1.4c-0.9-0.9-1.5-2.1-1.5-3.4c0-1.3 0.6-2.5 1.5-3.4c0.9-1 2.1-1.5 3.4-1.5c1.3 0 2.5 0.5 3.4 1.5c0.9 0.9 1.4 2.1 1.4 3.4c0 1.3-0.5 2.5-1.4 3.4c-0.9 0.9-2.1 1.4-3.4 1.4z" />
		<path id="Layer" class="s4" d="m14.6-109.9c0.7-0.7 1.6-1.1 2.7-1.1c2.2 0 3.9 1.8 3.9 4c0 1.1-0.4 2.1-1.1 2.8" />
	</g>
	<g id="Layer">
		<path id="Layer" class="s3" d="m47.4-87c-1.3 0-2.5-0.5-3.4-1.4c-0.9-0.9-1.5-2.1-1.5-3.4c0-1.3 0.6-2.5 1.5-3.4c0.9-1 2.1-1.5 3.4-1.5c1.3 0 2.5 0.5 3.4 1.5c0.9 0.9 1.4 2.1 1.4 3.4c0 1.3-0.5 2.5-1.4 3.4c-0.9 0.9-2.1 1.4-3.4 1.4z" />
		<path id="Layer" class="s4" d="m44.6-94.7c0.7-0.7 1.6-1.1 2.7-1.1c2.2 0 3.9 1.8 3.9 4c0 1.1-0.4 2.1-1.1 2.8" />
	</g>
	<g id="Layer">
		<path id="Layer" class="s3" d="m47.4-117.4c-1.3 0-2.5-0.5-3.4-1.4c-0.9-0.9-1.5-2.1-1.5-3.4c0-1.3 0.6-2.5 1.5-3.4c0.9-1 2.1-1.5 3.4-1.5c1.3 0 2.5 0.5 3.4 1.5c0.9 0.9 1.4 2.1 1.4 3.4c0 1.3-0.5 2.5-1.4 3.4c-0.9 0.9-2.1 1.4-3.4 1.4z" />
		<path id="Layer" class="s4" d="m44.6-125.1c0.7-0.7 1.6-1.1 2.7-1.1c2.2 0 3.9 1.8 3.9 4c0 1.1-0.4 2.1-1.1 2.8" />
	</g>
	<g id="Layer">
		<path id="Layer" class="s3" d="m47.4-102.2c-1.3 0-2.5-0.5-3.4-1.4c-0.9-0.9-1.5-2.1-1.5-3.4c0-1.3 0.6-2.5 1.5-3.4c0.9-1 2.1-1.5 3.4-1.5c1.3 0 2.5 0.5 3.4 1.5c0.9 0.9 1.4 2.1 1.4 3.4c0 1.3-0.5 2.5-1.4 3.4c-0.9 0.9-2.1 1.4-3.4 1.4z" />
		<path id="Layer" class="s4" d="m44.6-109.9c0.7-0.7 1.6-1.1 2.7-1.1c2.2 0 3.9 1.8 3.9 4c0 1.1-0.4 2.1-1.1 2.8" />
	</g>
	<path id="Layer" class="s0" d="m78.9 392.2v-110.4q0-1 0.4-1.9q0.4-0.9 1.1-1.6q0.7-0.7 1.6-1.1q0.9-0.4 1.9-0.4h52.2q1 0 1.9 0.4q0.9 0.4 1.6 1.1q0.7 0.7 1.1 1.6q0.4 0.9 0.4 1.9v110.4q0 1-0.4 1.9q-0.4 0.9-1.1 1.6q-0.7 0.7-1.6 1.1q-0.9 0.4-1.9 0.4h-52.2q-1 0-1.9-0.4q-0.9-0.4-1.6-1.1q-0.7-0.7-1.1-1.6q-0.4-0.9-0.4-1.9z" />
	<path id="Layer" class="s0" d="m85 390.7v-50h50v50z" />
	<path id="Layer" class="s0" d="m85 333.2v-50h50v50z" />
	<g id="Layer">
		<path id="Layer" class="s1" d="m85.4 338h47.7" />
		<path id="Layer" class="s2" d="m85.4 336h47.7" />
	</g>
	<g id="Layer">
		<path id="Layer" class="s3" d="m94.8 389c-1.3 0-2.5-0.5-3.5-1.5c-0.9-0.9-1.4-2.1-1.4-3.4c0-1.3 0.5-2.5 1.4-3.4c1-0.9 2.2-1.4 3.5-1.4c1.3 0 2.5 0.5 3.4 1.4c0.9 0.9 1.4 2.1 1.4 3.4c0 1.3-0.5 2.5-1.4 3.4c-0.9 1-2.1 1.5-3.4 1.5z" />
		<path id="Layer" class="s4" d="m91.9 381.2c0.7-0.7 1.7-1.1 2.8-1.1c2.1 0 3.9 1.8 3.9 4c0 1.1-0.4 2.1-1.1 2.8" />
	</g>
	<g id="Layer">
		<path id="Layer" class="s3" d="m124.8 358.6c-1.3 0-2.5-0.5-3.5-1.4c-0.9-1-1.4-2.2-1.4-3.5c0-1.3 0.5-2.5 1.4-3.4c1-0.9 2.2-1.4 3.5-1.4c1.3 0 2.5 0.5 3.4 1.4c0.9 0.9 1.4 2.1 1.4 3.4c0 1.3-0.5 2.5-1.4 3.5c-0.9 0.9-2.1 1.4-3.4 1.4z" />
		<path id="Layer" class="s4" d="m121.9 350.8c0.7-0.7 1.7-1.1 2.8-1.1c2.1 0 3.9 1.8 3.9 4c0 1.1-0.4 2.1-1.1 2.8" />
	</g>
	<g id="Layer">
		<path id="Layer" class="s3" d="m94.8 327.4c-1.3 0-2.5-0.5-3.5-1.5c-0.9-0.9-1.4-2.1-1.4-3.4c0-1.3 0.5-2.5 1.4-3.4c1-0.9 2.2-1.4 3.5-1.4c1.3 0 2.5 0.5 3.4 1.4c0.9 0.9 1.4 2.1 1.4 3.4c0 1.3-0.5 2.5-1.4 3.4c-0.9 1-2.1 1.5-3.4 1.5z" />
		<path id="Layer" class="s4" d="m91.9 319.6c0.7-0.7 1.7-1.1 2.8-1.1c2.1 0 3.9 1.8 3.9 4c0 1.1-0.4 2.1-1.1 2.8" />
	</g>
	<g id="Layer">
		<path id="Layer" class="s3" d="m109.8 312.2c-1.3 0-2.5-0.5-3.5-1.4c-0.9-1-1.4-2.2-1.4-3.5c0-1.3 0.5-2.5 1.4-3.4c1-0.9 2.2-1.4 3.5-1.4c1.3 0 2.5 0.5 3.4 1.4c0.9 0.9 1.4 2.1 1.4 3.4c0 1.3-0.5 2.5-1.4 3.5c-0.9 0.9-2.1 1.4-3.4 1.4z" />
		<path id="Layer" class="s4" d="m106.9 304.4c0.7-0.7 1.7-1.1 2.8-1.1c2.1 0 3.9 1.8 3.9 4c0 1.1-0.4 2.1-1.1 2.8" />
	</g>
	<g id="Layer">
		<path id="Layer" class="s3" d="m124.8 297c-1.3 0-2.5-0.5-3.5-1.4c-0.9-0.9-1.4-2.2-1.4-3.5c0-1.3 0.5-2.5 1.4-3.4c1-0.9 2.2-1.4 3.5-1.4c1.3 0 2.5 0.5 3.4 1.4c0.9 0.9 1.4 2.1 1.4 3.4c0 1.3-0.5 2.6-1.4 3.5c-0.9 0.9-2.1 1.4-3.4 1.4z" />
		<path id="Layer" class="s4" d="m121.9 289.2c0.7-0.7 1.7-1.1 2.8-1.1c2.1 0 3.9 1.8 3.9 4c0 1.1-0.4 2.1-1.1 2.9" />
	</g>
	<path id="Layer" class="s0" d="m78.9 254.1v-110.4q0-1 0.4-1.9q0.4-1 1.1-1.7q0.7-0.7 1.6-1q0.9-0.4 1.9-0.4h52.2q1 0 1.9 0.4q0.9 0.3 1.6 1q0.7 0.7 1.1 1.7q0.4 0.9 0.4 1.9v110.4q0 1-0.4 1.9q-0.4 0.9-1.1 1.6q-0.7 0.7-1.6 1.1q-0.9 0.4-1.9 0.4h-52.2q-1 0-1.9-0.4q-0.9-0.4-1.6-1.1q-0.7-0.7-1.1-1.6q-0.4-0.9-0.4-1.9z" />
	<path id="Layer" class="s0" d="m85 252.6v-50h50v50z" />
	<path id="Layer" class="s0" d="m85 195v-50h50v50z" />
	<g id="Layer">
		<path id="Layer" class="s1" d="m85.4 199.9h47.7" />
		<path id="Layer" class="s2" d="m85.4 197.9h47.7" />
	</g>
	<g id="Layer">
		<path id="Layer" class="s3" d="m94.8 250.8c-1.3 0-2.5-0.5-3.5-1.4c-0.9-0.9-1.4-2.1-1.4-3.4c0-1.3 0.5-2.5 1.4-3.4c1-0.9 2.2-1.5 3.5-1.5c1.3 0 2.5 0.6 3.4 1.5c0.9 0.9 1.4 2.1 1.4 3.4c0 1.3-0.5 2.5-1.4 3.4c-0.9 0.9-2.1 1.4-3.4 1.4z" />
		<path id="Layer" class="s4" d="m91.9 243.1c0.7-0.7 1.7-1.1 2.8-1.1c2.1 0 3.9 1.8 3.9 4c0 1.1-0.4 2.1-1.1 2.8" />
	</g>
	<g id="Layer">
		<path id="Layer" class="s3" d="m124.8 220.5c-1.3 0-2.5-0.5-3.5-1.5c-0.9-0.9-1.4-2.1-1.4-3.4c0-1.3 0.5-2.5 1.4-3.4c1-0.9 2.2-1.4 3.5-1.4c1.3 0 2.5 0.5 3.4 1.4c0.9 0.9 1.4 2.1 1.4 3.4c0 1.3-0.5 2.5-1.4 3.4c-0.9 1-2.1 1.5-3.4 1.5z" />
		<path id="Layer" class="s4" d="m121.9 212.7c0.7-0.7 1.7-1.1 2.8-1.1c2.1 0 3.9 1.8 3.9 4c0 1.1-0.4 2.1-1.1 2.8" />
	</g>
	<g id="Layer">
		<path id="Layer" class="s3" d="m94.8 189.3c-1.3 0-2.5-0.6-3.5-1.5c-0.9-0.9-1.4-2.1-1.4-3.4c0-1.3 0.5-2.5 1.4-3.4c1-0.9 2.2-1.4 3.5-1.4c1.3 0 2.5 0.5 3.4 1.4c0.9 0.9 1.4 2.1 1.4 3.4c0 1.3-0.5 2.5-1.4 3.4c-0.9 0.9-2.1 1.5-3.4 1.5z" />
		<path id="Layer" class="s4" d="m91.9 181.5c0.7-0.7 1.7-1.1 2.8-1.1c2.1 0 3.9 1.8 3.9 4c0 1.1-0.4 2.1-1.1 2.8" />
	</g>
	<g id="Layer">
		<path id="Layer" class="s3" d="m94.8 158.9c-1.3 0-2.5-0.5-3.5-1.5c-0.9-0.9-1.4-2.1-1.4-3.4c0-1.3 0.5-2.5 1.4-3.4c1-0.9 2.2-1.4 3.5-1.4c1.3 0 2.5 0.5 3.4 1.4c0.9 0.9 1.4 2.1 1.4 3.4c0 1.3-0.5 2.5-1.4 3.4c-0.9 1-2.1 1.5-3.4 1.5z" />
		<path id="Layer" class="s4" d="m91.9 151.1c0.7-0.7 1.7-1.1 2.8-1.1c2.1 0 3.9 1.8 3.9 4c0 1.1-0.4 2.1-1.1 2.8" />
	</g>
	<g id="Layer">
		<path id="Layer" class="s3" d="m124.8 189.3c-1.3 0-2.5-0.6-3.5-1.5c-0.9-0.9-1.4-2.1-1.4-3.4c0-1.3 0.5-2.5 1.4-3.4c1-0.9 2.2-1.4 3.5-1.4c1.3 0 2.5 0.5 3.4 1.4c0.9 0.9 1.4 2.1 1.4 3.4c0 1.3-0.5 2.5-1.4 3.4c-0.9 0.9-2.1 1.5-3.4 1.5z" />
		<path id="Layer" class="s4" d="m121.9 181.5c0.7-0.7 1.7-1.1 2.8-1.1c2.1 0 3.9 1.8 3.9 4c0 1.1-0.4 2.1-1.1 2.8" />
	</g>
	<g id="Layer">
		<path id="Layer" class="s3" d="m124.8 158.9c-1.3 0-2.5-0.5-3.5-1.5c-0.9-0.9-1.4-2.1-1.4-3.4c0-1.3 0.5-2.5 1.4-3.4c1-0.9 2.2-1.4 3.5-1.4c1.3 0 2.5 0.5 3.4 1.4c0.9 0.9 1.4 2.1 1.4 3.4c0 1.3-0.5 2.5-1.4 3.4c-0.9 1-2.1 1.5-3.4 1.5z" />
		<path id="Layer" class="s4" d="m121.9 151.1c0.7-0.7 1.7-1.1 2.8-1.1c2.1 0 3.9 1.8 3.9 4c0 1.1-0.4 2.1-1.1 2.8" />
	</g>
	<path id="Layer" class="s0" d="m156.3 392.2v-110.4q0-1 0.4-1.9q0.3-0.9 1-1.6q0.7-0.7 1.7-1.1q0.9-0.4 1.9-0.4h52.1q1 0 2 0.4q0.9 0.4 1.6 1.1q0.7 0.7 1.1 1.6q0.3 0.9 0.3 1.9v110.4q0 1-0.3 1.9q-0.4 0.9-1.1 1.6q-0.7 0.7-1.6 1.1q-1 0.4-2 0.4h-52.1q-1 0-1.9-0.4q-1-0.4-1.7-1.1q-0.7-0.7-1-1.6q-0.4-0.9-0.4-1.9z" />
	<path id="Layer" class="s0" d="m162.4 390.7v-50h50v50z" />
	<path id="Layer" class="s0" d="m162.4 333.2v-50h50v50z" />
	<g id="Layer">
		<path id="Layer" class="s1" d="m162.8 338h47.7" />
		<path id="Layer" class="s2" d="m162.8 336h47.7" />
	</g>
	<g id="Layer">
		<path id="Layer" class="s3" d="m172.2 389c-1.3 0-2.5-0.5-3.5-1.5c-0.9-0.9-1.4-2.1-1.4-3.4c0-1.3 0.5-2.5 1.4-3.4c1-0.9 2.2-1.4 3.5-1.4c1.3 0 2.5 0.5 3.4 1.4c0.9 0.9 1.4 2.1 1.4 3.4c0 1.3-0.5 2.5-1.4 3.4c-0.9 1-2.1 1.5-3.4 1.5z" />
		<path id="Layer" class="s4" d="m169.3 381.2c0.7-0.7 1.7-1.1 2.8-1.1c2.1 0 3.9 1.8 3.9 4c0 1.1-0.4 2.1-1.1 2.8" />
	</g>
	<g id="Layer">
		<path id="Layer" class="s3" d="m187.2 373.8c-1.3 0-2.5-0.5-3.5-1.5c-0.9-0.9-1.4-2.1-1.4-3.4c0-1.3 0.5-2.5 1.4-3.4c1-0.9 2.2-1.4 3.5-1.4c1.3 0 2.5 0.5 3.4 1.4c0.9 0.9 1.4 2.1 1.4 3.4c0 1.3-0.5 2.5-1.4 3.4c-0.9 1-2.1 1.5-3.4 1.5z" />
		<path id="Layer" class="s4" d="m184.3 366c0.7-0.7 1.7-1.1 2.8-1.1c2.1 0 3.9 1.8 3.9 4c0 1.1-0.4 2.1-1.1 2.8" />
	</g>
	<g id="Layer">
		<path id="Layer" class="s3" d="m202.2 358.6c-1.3 0-2.5-0.5-3.5-1.4c-0.9-1-1.4-2.2-1.4-3.5c0-1.3 0.5-2.5 1.4-3.4c1-0.9 2.2-1.4 3.5-1.4c1.3 0 2.5 0.5 3.4 1.4c0.9 0.9 1.4 2.1 1.4 3.4c0 1.3-0.5 2.5-1.4 3.5c-0.9 0.9-2.1 1.4-3.4 1.4z" />
		<path id="Layer" class="s4" d="m199.3 350.8c0.7-0.7 1.7-1.1 2.8-1.1c2.1 0 3.9 1.8 3.9 4c0 1.1-0.4 2.1-1.1 2.8" />
	</g>
	<g id="Layer">
		<path id="Layer" class="s3" d="m172.2 327.4c-1.3 0-2.5-0.5-3.5-1.5c-0.9-0.9-1.4-2.1-1.4-3.4c0-1.3 0.5-2.5 1.4-3.4c1-0.9 2.2-1.4 3.5-1.4c1.3 0 2.5 0.5 3.4 1.4c0.9 0.9 1.4 2.1 1.4 3.4c0 1.3-0.5 2.5-1.4 3.4c-0.9 1-2.1 1.5-3.4 1.5z" />
		<path id="Layer" class="s4" d="m169.3 319.6c0.7-0.7 1.7-1.1 2.8-1.1c2.1 0 3.9 1.8 3.9 4c0 1.1-0.4 2.1-1.1 2.8" />
	</g>
	<g id="Layer">
		<path id="Layer" class="s3" d="m172.2 297c-1.3 0-2.5-0.5-3.5-1.4c-0.9-0.9-1.4-2.2-1.4-3.5c0-1.3 0.5-2.5 1.4-3.4c1-0.9 2.2-1.4 3.5-1.4c1.3 0 2.5 0.5 3.4 1.4c0.9 0.9 1.4 2.1 1.4 3.4c0 1.3-0.5 2.6-1.4 3.5c-0.9 0.9-2.1 1.4-3.4 1.4z" />
		<path id="Layer" class="s4" d="m169.3 289.2c0.7-0.7 1.7-1.1 2.8-1.1c2.1 0 3.9 1.8 3.9 4c0 1.1-0.4 2.1-1.1 2.9" />
	</g>
	<g id="Layer">
		<path id="Layer" class="s3" d="m202.2 327.4c-1.3 0-2.5-0.5-3.5-1.5c-0.9-0.9-1.4-2.1-1.4-3.4c0-1.3 0.5-2.5 1.4-3.4c1-0.9 2.2-1.4 3.5-1.4c1.3 0 2.5 0.5 3.4 1.4c0.9 0.9 1.4 2.1 1.4 3.4c0 1.3-0.5 2.5-1.4 3.4c-0.9 1-2.1 1.5-3.4 1.5z" />
		<path id="Layer" class="s4" d="m199.3 319.6c0.7-0.7 1.7-1.1 2.8-1.1c2.1 0 3.9 1.8 3.9 4c0 1.1-0.4 2.1-1.1 2.8" />
	</g>
	<g id="Layer">
		<path id="Layer" class="s3" d="m202.2 297c-1.3 0-2.5-0.5-3.5-1.4c-0.9-0.9-1.4-2.2-1.4-3.5c0-1.3 0.5-2.5 1.4-3.4c1-0.9 2.2-1.4 3.5-1.4c1.3 0 2.5 0.5 3.4 1.4c0.9 0.9 1.4 2.1 1.4 3.4c0 1.3-0.5 2.6-1.4 3.5c-0.9 0.9-2.1 1.4-3.4 1.4z" />
		<path id="Layer" class="s4" d="m199.3 289.2c0.7-0.7 1.7-1.1 2.8-1.1c2.1 0 3.9 1.8 3.9 4c0 1.1-0.4 2.1-1.1 2.9" />
	</g>
	<path id="Layer" class="s0" d="m156.3 254.1v-110.4q0-1 0.4-1.9q0.3-1 1-1.7q0.7-0.7 1.7-1q0.9-0.4 1.9-0.4h52.1q1 0 2 0.4q0.9 0.3 1.6 1q0.7 0.7 1.1 1.7q0.3 0.9 0.3 1.9v110.4q0 1-0.3 1.9q-0.4 0.9-1.1 1.6q-0.7 0.7-1.6 1.1q-1 0.4-2 0.4h-52.1q-1 0-1.9-0.4q-1-0.4-1.7-1.1q-0.7-0.7-1-1.6q-0.4-0.9-0.4-1.9z" />
	<path id="Layer" class="s0" d="m162.4 252.6v-50h50v50z" />
	<path id="Layer" class="s0" d="m162.4 195v-50h50v50z" />
	<g id="Layer">
		<path id="Layer" class="s1" d="m162.8 199.9h47.7" />
		<path id="Layer" class="s2" d="m162.8 197.9h47.7" />
	</g>
	<g id="Layer">
		<path id="Layer" class="s3" d="m172.2 250.8c-1.3 0-2.5-0.5-3.5-1.4c-0.9-0.9-1.4-2.1-1.4-3.4c0-1.3 0.5-2.5 1.4-3.4c1-0.9 2.2-1.5 3.5-1.5c1.3 0 2.5 0.6 3.4 1.5c0.9 0.9 1.4 2.1 1.4 3.4c0 1.3-0.5 2.5-1.4 3.4c-0.9 0.9-2.1 1.4-3.4 1.4z" />
		<path id="Layer" class="s4" d="m169.3 243.1c0.7-0.7 1.7-1.1 2.8-1.1c2.1 0 3.9 1.8 3.9 4c0 1.1-0.4 2.1-1.1 2.8" />
	</g>
	<g id="Layer">
		<path id="Layer" class="s3" d="m187.2 235.7c-1.3 0-2.5-0.6-3.5-1.5c-0.9-0.9-1.4-2.1-1.4-3.4c0-1.3 0.5-2.5 1.4-3.4c1-0.9 2.2-1.4 3.5-1.4c1.3 0 2.5 0.5 3.4 1.4c0.9 0.9 1.4 2.1 1.4 3.4c0 1.3-0.5 2.5-1.4 3.4c-0.9 0.9-2.1 1.5-3.4 1.5z" />
		<path id="Layer" class="s4" d="m184.3 227.9c0.7-0.7 1.7-1.1 2.8-1.1c2.1 0 3.9 1.8 3.9 4c0 1.1-0.4 2.1-1.1 2.8" />
	</g>
	<g id="Layer">
		<path id="Layer" class="s3" d="m202.2 220.5c-1.3 0-2.5-0.5-3.5-1.5c-0.9-0.9-1.4-2.1-1.4-3.4c0-1.3 0.5-2.5 1.4-3.4c1-0.9 2.2-1.4 3.5-1.4c1.3 0 2.5 0.5 3.4 1.4c0.9 0.9 1.4 2.1 1.4 3.4c0 1.3-0.5 2.5-1.4 3.4c-0.9 1-2.1 1.5-3.4 1.5z" />
		<path id="Layer" class="s4" d="m199.3 212.7c0.7-0.7 1.7-1.1 2.8-1.1c2.1 0 3.9 1.8 3.9 4c0 1.1-0.4 2.1-1.1 2.8" />
	</g>
	<g id="Layer">
		<path id="Layer" class="s3" d="m172.2 189.3c-1.3 0-2.5-0.6-3.5-1.5c-0.9-0.9-1.4-2.1-1.4-3.4c0-1.3 0.5-2.5 1.4-3.4c1-0.9 2.2-1.4 3.5-1.4c1.3 0 2.5 0.5 3.4 1.4c0.9 0.9 1.4 2.1 1.4 3.4c0 1.3-0.5 2.5-1.4 3.4c-0.9 0.9-2.1 1.5-3.4 1.5z" />
		<path id="Layer" class="s4" d="m169.3 181.5c0.7-0.7 1.7-1.1 2.8-1.1c2.1 0 3.9 1.8 3.9 4c0 1.1-0.4 2.1-1.1 2.8" />
	</g>
	<g id="Layer">
		<path id="Layer" class="s3" d="m187.2 174.1c-1.3 0-2.5-0.6-3.5-1.5c-0.9-0.9-1.4-2.1-1.4-3.4c0-1.3 0.5-2.5 1.4-3.4c1-0.9 2.2-1.4 3.5-1.4c1.3 0 2.5 0.5 3.4 1.4c0.9 0.9 1.4 2.1 1.4 3.4c0 1.3-0.5 2.5-1.4 3.4c-0.9 0.9-2.1 1.5-3.4 1.5z" />
		<path id="Layer" class="s4" d="m184.3 166.3c0.7-0.7 1.7-1.1 2.8-1.1c2.1 0 3.9 1.8 3.9 4c0 1.1-0.4 2.1-1.1 2.8" />
	</g>
	<g id="Layer">
		<path id="Layer" class="s3" d="m172.2 158.9c-1.3 0-2.5-0.5-3.5-1.5c-0.9-0.9-1.4-2.1-1.4-3.4c0-1.3 0.5-2.5 1.4-3.4c1-0.9 2.2-1.4 3.5-1.4c1.3 0 2.5 0.5 3.4 1.4c0.9 0.9 1.4 2.1 1.4 3.4c0 1.3-0.5 2.5-1.4 3.4c-0.9 1-2.1 1.5-3.4 1.5z" />
		<path id="Layer" class="s4" d="m169.3 151.1c0.7-0.7 1.7-1.1 2.8-1.1c2.1 0 3.9 1.8 3.9 4c0 1.1-0.4 2.1-1.1 2.8" />
	</g>
	<g id="Layer">
		<path id="Layer" class="s3" d="m202.2 189.3c-1.3 0-2.5-0.6-3.5-1.5c-0.9-0.9-1.4-2.1-1.4-3.4c0-1.3 0.5-2.5 1.4-3.4c1-0.9 2.2-1.4 3.5-1.4c1.3 0 2.5 0.5 3.4 1.4c0.9 0.9 1.4 2.1 1.4 3.4c0 1.3-0.5 2.5-1.4 3.4c-0.9 0.9-2.1 1.5-3.4 1.5z" />
		<path id="Layer" class="s4" d="m199.3 181.5c0.7-0.7 1.7-1.1 2.8-1.1c2.1 0 3.9 1.8 3.9 4c0 1.1-0.4 2.1-1.1 2.8" />
	</g>
	<g id="Layer">
		<path id="Layer" class="s3" d="m202.2 158.9c-1.3 0-2.5-0.5-3.5-1.5c-0.9-0.9-1.4-2.1-1.4-3.4c0-1.3 0.5-2.5 1.4-3.4c1-0.9 2.2-1.4 3.5-1.4c1.3 0 2.5 0.5 3.4 1.4c0.9 0.9 1.4 2.1 1.4 3.4c0 1.3-0.5 2.5-1.4 3.4c-0.9 1-2.1 1.5-3.4 1.5z" />
		<path id="Layer" class="s4" d="m199.3 151.1c0.7-0.7 1.7-1.1 2.8-1.1c2.1 0 3.9 1.8 3.9 4c0 1.1-0.4 2.1-1.1 2.8" />
	</g>
	<path id="Layer" class="s0" d="m78.9 116v-110.4q0-1 0.4-2q0.4-0.9 1.1-1.6q0.7-0.7 1.6-1.1q0.9-0.3 1.9-0.3h52.2q1 0 1.9 0.3q0.9 0.4 1.6 1.1q0.7 0.7 1.1 1.6q0.4 1 0.4 2v110.4q0 1-0.4 1.9q-0.4 0.9-1.1 1.6q-0.7 0.7-1.6 1.1q-0.9 0.4-1.9 0.4h-52.2q-1 0-1.9-0.4q-0.9-0.4-1.6-1.1q-0.7-0.7-1.1-1.6q-0.4-0.9-0.4-1.9z" />
	<path id="Layer" class="s0" d="m85 114.5v-50h50v50z" />
	<path id="Layer" class="s0" d="m85 56.9v-50h50v50z" />
	<g id="Layer">
		<path id="Layer" class="s1" d="m85.4 61.8h47.7" />
		<path id="Layer" class="s2" d="m85.4 59.8h47.7" />
	</g>
	<g id="Layer">
		<path id="Layer" class="s3" d="m94.8 112.7c-1.3 0-2.5-0.5-3.5-1.4c-0.9-0.9-1.4-2.1-1.4-3.4c0-1.3 0.5-2.5 1.4-3.4c1-1 2.2-1.5 3.5-1.5c1.3 0 2.5 0.5 3.4 1.5c0.9 0.9 1.4 2.1 1.4 3.4c0 1.3-0.5 2.5-1.4 3.4c-0.9 0.9-2.1 1.4-3.4 1.4z" />
		<path id="Layer" class="s4" d="m91.9 105c0.7-0.7 1.7-1.1 2.8-1.1c2.1 0 3.9 1.8 3.9 4c0 1.1-0.4 2.1-1.1 2.8" />
	</g>
	<g id="Layer">
		<path id="Layer" class="s3" d="m124.8 82.4c-1.3 0-2.5-0.6-3.5-1.5c-0.9-0.9-1.4-2.1-1.4-3.4c0-1.3 0.5-2.5 1.4-3.4c1-0.9 2.2-1.4 3.5-1.4c1.3 0 2.5 0.5 3.4 1.4c0.9 0.9 1.4 2.1 1.4 3.4c0 1.3-0.5 2.5-1.4 3.4c-0.9 0.9-2.1 1.5-3.4 1.5z" />
		<path id="Layer" class="s4" d="m121.9 74.6c0.7-0.7 1.7-1.1 2.8-1.1c2.1 0 3.9 1.8 3.9 4c0 1.1-0.4 2.1-1.1 2.8" />
	</g>
	<g id="Layer">
		<path id="Layer" class="s3" d="m94.8 51.1c-1.3 0-2.5-0.5-3.5-1.4c-0.9-0.9-1.4-2.1-1.4-3.4c0-1.3 0.5-2.5 1.4-3.4c1-1 2.2-1.5 3.5-1.5c1.3 0 2.5 0.5 3.4 1.5c0.9 0.9 1.4 2.1 1.4 3.4c0 1.3-0.5 2.5-1.4 3.4c-0.9 0.9-2.1 1.4-3.4 1.4z" />
		<path id="Layer" class="s4" d="m91.9 43.4c0.7-0.7 1.7-1.1 2.8-1.1c2.1 0 3.9 1.8 3.9 4c0 1.1-0.4 2.1-1.1 2.8" />
	</g>
	<g id="Layer">
		<path id="Layer" class="s3" d="m109.8 35.9c-1.3 0-2.5-0.5-3.5-1.4c-0.9-0.9-1.4-2.1-1.4-3.4c0-1.3 0.5-2.5 1.4-3.4c1-0.9 2.2-1.5 3.5-1.5c1.3 0 2.5 0.6 3.4 1.5c0.9 0.9 1.4 2.1 1.4 3.4c0 1.3-0.5 2.5-1.4 3.4c-0.9 0.9-2.1 1.4-3.4 1.4z" />
		<path id="Layer" class="s4" d="m106.9 28.2c0.7-0.7 1.7-1.1 2.8-1.1c2.1 0 3.9 1.8 3.9 4c0 1.1-0.4 2.1-1.1 2.8" />
	</g>
	<g id="Layer">
		<path id="Layer" class="s3" d="m94.8 20.8c-1.3 0-2.5-0.6-3.5-1.5c-0.9-0.9-1.4-2.1-1.4-3.4c0-1.3 0.5-2.5 1.4-3.4c1-0.9 2.2-1.4 3.5-1.4c1.3 0 2.5 0.5 3.4 1.4c0.9 0.9 1.4 2.1 1.4 3.4c0 1.3-0.5 2.5-1.4 3.4c-0.9 0.9-2.1 1.5-3.4 1.5z" />
		<path id="Layer" class="s4" d="m91.9 13c0.7-0.7 1.7-1.1 2.8-1.1c2.1 0 3.9 1.8 3.9 4c0 1.1-0.4 2.1-1.1 2.8" />
	</g>
	<g id="Layer">
		<path id="Layer" class="s3" d="m124.8 51.1c-1.3 0-2.5-0.5-3.5-1.4c-0.9-0.9-1.4-2.1-1.4-3.4c0-1.3 0.5-2.5 1.4-3.4c1-1 2.2-1.5 3.5-1.5c1.3 0 2.5 0.5 3.4 1.5c0.9 0.9 1.4 2.1 1.4 3.4c0 1.3-0.5 2.5-1.4 3.4c-0.9 0.9-2.1 1.4-3.4 1.4z" />
		<path id="Layer" class="s4" d="m121.9 43.4c0.7-0.7 1.7-1.1 2.8-1.1c2.1 0 3.9 1.8 3.9 4c0 1.1-0.4 2.1-1.1 2.8" />
	</g>
	<g id="Layer">
		<path id="Layer" class="s3" d="m124.8 20.8c-1.3 0-2.5-0.6-3.5-1.5c-0.9-0.9-1.4-2.1-1.4-3.4c0-1.3 0.5-2.5 1.4-3.4c1-0.9 2.2-1.4 3.5-1.4c1.3 0 2.5 0.5 3.4 1.4c0.9 0.9 1.4 2.1 1.4 3.4c0 1.3-0.5 2.5-1.4 3.4c-0.9 0.9-2.1 1.5-3.4 1.5z" />
		<path id="Layer" class="s4" d="m121.9 13c0.7-0.7 1.7-1.1 2.8-1.1c2.1 0 3.9 1.8 3.9 4c0 1.1-0.4 2.1-1.1 2.8" />
	</g>
	<path id="Layer" class="s0" d="m78.9-22.1v-110.4q0-1 0.4-2q0.4-0.9 1.1-1.6q0.7-0.7 1.6-1.1q0.9-0.3 1.9-0.3h52.2q1 0 1.9 0.3q0.9 0.4 1.6 1.1q0.7 0.7 1.1 1.6q0.4 1 0.4 2v110.4q0 1-0.4 1.9q-0.4 0.9-1.1 1.6q-0.7 0.7-1.6 1.1q-0.9 0.4-1.9 0.4h-52.2q-1 0-1.9-0.4q-0.9-0.4-1.6-1.1q-0.7-0.7-1.1-1.6q-0.4-0.9-0.4-1.9z" />
	<path id="Layer" class="s0" d="m85-23.6v-50h50v50z" />
	<path id="Layer" class="s0" d="m85-81.2v-50h50v50z" />
	<g id="Layer">
		<path id="Layer" class="s1" d="m85.4-76.4h47.7" />
		<path id="Layer" class="s2" d="m85.4-78.4h47.7" />
	</g>
	<g id="Layer">
		<path id="Layer" class="s3" d="m94.8-25.4c-1.3 0-2.5-0.5-3.5-1.4c-0.9-0.9-1.4-2.1-1.4-3.4c0-1.3 0.5-2.5 1.4-3.5c1-0.9 2.2-1.4 3.5-1.4c1.3 0 2.5 0.5 3.4 1.4c0.9 1 1.4 2.2 1.4 3.5c0 1.3-0.5 2.5-1.4 3.4c-0.9 0.9-2.1 1.4-3.4 1.4z" />
		<path id="Layer" class="s4" d="m91.9-33.1c0.7-0.7 1.7-1.1 2.8-1.1c2.1 0 3.9 1.7 3.9 4c0 1.1-0.4 2.1-1.1 2.8" />
	</g>
	<g id="Layer">
		<path id="Layer" class="s3" d="m124.8-55.8c-1.3 0-2.5-0.5-3.5-1.4c-0.9-0.9-1.4-2.1-1.4-3.4c0-1.3 0.5-2.5 1.4-3.4c1-1 2.2-1.5 3.5-1.5c1.3 0 2.5 0.5 3.4 1.5c0.9 0.9 1.4 2.1 1.4 3.4c0 1.3-0.5 2.5-1.4 3.4c-0.9 0.9-2.1 1.4-3.4 1.4z" />
		<path id="Layer" class="s4" d="m121.9-63.5c0.7-0.7 1.7-1.1 2.8-1.1c2.1 0 3.9 1.8 3.9 4c0 1.1-0.4 2.1-1.1 2.8" />
	</g>
	<g id="Layer">
		<path id="Layer" class="s3" d="m94.8-87c-1.3 0-2.5-0.5-3.5-1.4c-0.9-0.9-1.4-2.1-1.4-3.4c0-1.3 0.5-2.5 1.4-3.4c1-1 2.2-1.5 3.5-1.5c1.3 0 2.5 0.5 3.4 1.5c0.9 0.9 1.4 2.1 1.4 3.4c0 1.3-0.5 2.5-1.4 3.4c-0.9 0.9-2.1 1.4-3.4 1.4z" />
		<path id="Layer" class="s4" d="m91.9-94.7c0.7-0.7 1.7-1.1 2.8-1.1c2.1 0 3.9 1.8 3.9 4c0 1.1-0.4 2.1-1.1 2.8" />
	</g>
	<g id="Layer">
		<path id="Layer" class="s3" d="m94.8-117.4c-1.3 0-2.5-0.5-3.5-1.4c-0.9-0.9-1.4-2.1-1.4-3.4c0-1.3 0.5-2.5 1.4-3.4c1-1 2.2-1.5 3.5-1.5c1.3 0 2.5 0.5 3.4 1.5c0.9 0.9 1.4 2.1 1.4 3.4c0 1.3-0.5 2.5-1.4 3.4c-0.9 0.9-2.1 1.4-3.4 1.4z" />
		<path id="Layer" class="s4" d="m91.9-125.1c0.7-0.7 1.7-1.1 2.8-1.1c2.1 0 3.9 1.8 3.9 4c0 1.1-0.4 2.1-1.1 2.8" />
	</g>
	<g id="Layer">
		<path id="Layer" class="s3" d="m94.8-102.2c-1.3 0-2.5-0.5-3.5-1.4c-0.9-0.9-1.4-2.1-1.4-3.4c0-1.3 0.5-2.5 1.4-3.4c1-1 2.2-1.5 3.5-1.5c1.3 0 2.5 0.5 3.4 1.5c0.9 0.9 1.4 2.1 1.4 3.4c0 1.3-0.5 2.5-1.4 3.4c-0.9 0.9-2.1 1.4-3.4 1.4z" />
		<path id="Layer" class="s4" d="m91.9-109.9c0.7-0.7 1.7-1.1 2.8-1.1c2.1 0 3.9 1.8 3.9 4c0 1.1-0.4 2.1-1.1 2.8" />
	</g>
	<g id="Layer">
		<path id="Layer" class="s3" d="m124.8-87c-1.3 0-2.5-0.5-3.5-1.4c-0.9-0.9-1.4-2.1-1.4-3.4c0-1.3 0.5-2.5 1.4-3.4c1-1 2.2-1.5 3.5-1.5c1.3 0 2.5 0.5 3.4 1.5c0.9 0.9 1.4 2.1 1.4 3.4c0 1.3-0.5 2.5-1.4 3.4c-0.9 0.9-2.1 1.4-3.4 1.4z" />
		<path id="Layer" class="s4" d="m121.9-94.7c0.7-0.7 1.7-1.1 2.8-1.1c2.1 0 3.9 1.8 3.9 4c0 1.1-0.4 2.1-1.1 2.8" />
	</g>
	<g id="Layer">
		<path id="Layer" class="s3" d="m124.8-117.4c-1.3 0-2.5-0.5-3.5-1.4c-0.9-0.9-1.4-2.1-1.4-3.4c0-1.3 0.5-2.5 1.4-3.4c1-1 2.2-1.5 3.5-1.5c1.3 0 2.5 0.5 3.4 1.5c0.9 0.9 1.4 2.1 1.4 3.4c0 1.3-0.5 2.5-1.4 3.4c-0.9 0.9-2.1 1.4-3.4 1.4z" />
		<path id="Layer" class="s4" d="m121.9-125.1c0.7-0.7 1.7-1.1 2.8-1.1c2.1 0 3.9 1.8 3.9 4c0 1.1-0.4 2.1-1.1 2.8" />
	</g>
	<g id="Layer">
		<path id="Layer" class="s3" d="m124.8-102.2c-1.3 0-2.5-0.5-3.5-1.4c-0.9-0.9-1.4-2.1-1.4-3.4c0-1.3 0.5-2.5 1.4-3.4c1-1 2.2-1.5 3.5-1.5c1.3 0 2.5 0.5 3.4 1.5c0.9 0.9 1.4 2.1 1.4 3.4c0 1.3-0.5 2.5-1.4 3.4c-0.9 0.9-2.1 1.4-3.4 1.4z" />
		<path id="Layer" class="s4" d="m121.9-109.9c0.7-0.7 1.7-1.1 2.8-1.1c2.1 0 3.9 1.8 3.9 4c0 1.1-0.4 2.1-1.1 2.8" />
	</g>
	<path id="Layer" class="s0" d="m156.3 116v-110.4q0-1 0.4-2q0.3-0.9 1-1.6q0.7-0.7 1.7-1.1q0.9-0.3 1.9-0.3h52.1q1 0 2 0.3q0.9 0.4 1.6 1.1q0.7 0.7 1.1 1.6q0.3 1 0.3 2v110.4q0 1-0.3 1.9q-0.4 0.9-1.1 1.6q-0.7 0.7-1.6 1.1q-1 0.4-2 0.4h-52.1q-1 0-1.9-0.4q-1-0.4-1.7-1.1q-0.7-0.7-1-1.6q-0.4-0.9-0.4-1.9z" />
	<path id="Layer" class="s0" d="m162.4 114.5v-50h50v50z" />
	<path id="Layer" class="s0" d="m162.4 56.9v-50h50v50z" />
	<g id="Layer">
		<path id="Layer" class="s1" d="m162.8 61.8h47.7" />
		<path id="Layer" class="s2" d="m162.8 59.8h47.7" />
	</g>
	<g id="Layer">
		<path id="Layer" class="s3" d="m172.2 112.7c-1.3 0-2.5-0.5-3.5-1.4c-0.9-0.9-1.4-2.1-1.4-3.4c0-1.3 0.5-2.5 1.4-3.4c1-1 2.2-1.5 3.5-1.5c1.3 0 2.5 0.5 3.4 1.5c0.9 0.9 1.4 2.1 1.4 3.4c0 1.3-0.5 2.5-1.4 3.4c-0.9 0.9-2.1 1.4-3.4 1.4z" />
		<path id="Layer" class="s4" d="m169.3 105c0.7-0.7 1.7-1.1 2.8-1.1c2.1 0 3.9 1.8 3.9 4c0 1.1-0.4 2.1-1.1 2.8" />
	</g>
	<g id="Layer">
		<path id="Layer" class="s3" d="m187.2 97.5c-1.3 0-2.5-0.5-3.5-1.4c-0.9-0.9-1.4-2.1-1.4-3.4c0-1.3 0.5-2.5 1.4-3.4c1-0.9 2.2-1.5 3.5-1.5c1.3 0 2.5 0.6 3.4 1.5c0.9 0.9 1.4 2.1 1.4 3.4c0 1.3-0.5 2.5-1.4 3.4c-0.9 0.9-2.1 1.4-3.4 1.4z" />
		<path id="Layer" class="s4" d="m184.3 89.8c0.7-0.7 1.7-1.1 2.8-1.1c2.1 0 3.9 1.8 3.9 4c0 1.1-0.4 2.1-1.1 2.8" />
	</g>
	<g id="Layer">
		<path id="Layer" class="s3" d="m202.2 82.4c-1.3 0-2.5-0.6-3.5-1.5c-0.9-0.9-1.4-2.1-1.4-3.4c0-1.3 0.5-2.5 1.4-3.4c1-0.9 2.2-1.4 3.5-1.4c1.3 0 2.5 0.5 3.4 1.4c0.9 0.9 1.4 2.1 1.4 3.4c0 1.3-0.5 2.5-1.4 3.4c-0.9 0.9-2.1 1.5-3.4 1.5z" />
		<path id="Layer" class="s4" d="m199.3 74.6c0.7-0.7 1.7-1.1 2.8-1.1c2.1 0 3.9 1.8 3.9 4c0 1.1-0.4 2.1-1.1 2.8" />
	</g>
	<g id="Layer">
		<path id="Layer" class="s3" d="m172.2 51.1c-1.3 0-2.5-0.5-3.5-1.4c-0.9-0.9-1.4-2.1-1.4-3.4c0-1.3 0.5-2.5 1.4-3.4c1-1 2.2-1.5 3.5-1.5c1.3 0 2.5 0.5 3.4 1.5c0.9 0.9 1.4 2.1 1.4 3.4c0 1.3-0.5 2.5-1.4 3.4c-0.9 0.9-2.1 1.4-3.4 1.4z" />
		<path id="Layer" class="s4" d="m169.3 43.4c0.7-0.7 1.7-1.1 2.8-1.1c2.1 0 3.9 1.8 3.9 4c0 1.1-0.4 2.1-1.1 2.8" />
	</g>
	<g id="Layer">
		<path id="Layer" class="s3" d="m172.2 20.8c-1.3 0-2.5-0.6-3.5-1.5c-0.9-0.9-1.4-2.1-1.4-3.4c0-1.3 0.5-2.5 1.4-3.4c1-0.9 2.2-1.4 3.5-1.4c1.3 0 2.5 0.5 3.4 1.4c0.9 0.9 1.4 2.1 1.4 3.4c0 1.3-0.5 2.5-1.4 3.4c-0.9 0.9-2.1 1.5-3.4 1.5z" />
		<path id="Layer" class="s4" d="m169.3 13c0.7-0.7 1.7-1.1 2.8-1.1c2.1 0 3.9 1.8 3.9 4c0 1.1-0.4 2.1-1.1 2.8" />
	</g>
	<g id="Layer">
		<path id="Layer" class="s3" d="m172.2 35.9c-1.3 0-2.5-0.5-3.5-1.4c-0.9-0.9-1.4-2.1-1.4-3.4c0-1.3 0.5-2.5 1.4-3.4c1-0.9 2.2-1.5 3.5-1.5c1.3 0 2.5 0.6 3.4 1.5c0.9 0.9 1.4 2.1 1.4 3.4c0 1.3-0.5 2.5-1.4 3.4c-0.9 0.9-2.1 1.4-3.4 1.4z" />
		<path id="Layer" class="s4" d="m169.3 28.2c0.7-0.7 1.7-1.1 2.8-1.1c2.1 0 3.9 1.8 3.9 4c0 1.1-0.4 2.1-1.1 2.8" />
	</g>
	<g id="Layer">
		<path id="Layer" class="s3" d="m202.2 51.1c-1.3 0-2.5-0.5-3.5-1.4c-0.9-0.9-1.4-2.1-1.4-3.4c0-1.3 0.5-2.5 1.4-3.4c1-1 2.2-1.5 3.5-1.5c1.3 0 2.5 0.5 3.4 1.5c0.9 0.9 1.4 2.1 1.4 3.4c0 1.3-0.5 2.5-1.4 3.4c-0.9 0.9-2.1 1.4-3.4 1.4z" />
		<path id="Layer" class="s4" d="m199.3 43.4c0.7-0.7 1.7-1.1 2.8-1.1c2.1 0 3.9 1.8 3.9 4c0 1.1-0.4 2.1-1.1 2.8" />
	</g>
	<g id="Layer">
		<path id="Layer" class="s3" d="m202.2 20.8c-1.3 0-2.5-0.6-3.5-1.5c-0.9-0.9-1.4-2.1-1.4-3.4c0-1.3 0.5-2.5 1.4-3.4c1-0.9 2.2-1.4 3.5-1.4c1.3 0 2.5 0.5 3.4 1.4c0.9 0.9 1.4 2.1 1.4 3.4c0 1.3-0.5 2.5-1.4 3.4c-0.9 0.9-2.1 1.5-3.4 1.5z" />
		<path id="Layer" class="s4" d="m199.3 13c0.7-0.7 1.7-1.1 2.8-1.1c2.1 0 3.9 1.8 3.9 4c0 1.1-0.4 2.1-1.1 2.8" />
	</g>
	<g id="Layer">
		<path id="Layer" class="s3" d="m202.2 35.9c-1.3 0-2.5-0.5-3.5-1.4c-0.9-0.9-1.4-2.1-1.4-3.4c0-1.3 0.5-2.5 1.4-3.4c1-0.9 2.2-1.5 3.5-1.5c1.3 0 2.5 0.6 3.4 1.5c0.9 0.9 1.4 2.1 1.4 3.4c0 1.3-0.5 2.5-1.4 3.4c-0.9 0.9-2.1 1.4-3.4 1.4z" />
		<path id="Layer" class="s4" d="m199.3 28.2c0.7-0.7 1.7-1.1 2.8-1.1c2.1 0 3.9 1.8 3.9 4c0 1.1-0.4 2.1-1.1 2.8" />
	</g>
	<path id="Layer" class="s0" d="m156.3-22.1v-110.4q0-1 0.4-2q0.3-0.9 1-1.6q0.7-0.7 1.7-1.1q0.9-0.3 1.9-0.3h52.1q1 0 2 0.3q0.9 0.4 1.6 1.1q0.7 0.7 1.1 1.6q0.3 1 0.3 2v110.4q0 1-0.3 1.9q-0.4 0.9-1.1 1.6q-0.7 0.7-1.6 1.1q-1 0.4-2 0.4h-52.1q-1 0-1.9-0.4q-1-0.4-1.7-1.1q-0.7-0.7-1-1.6q-0.4-0.9-0.4-1.9z" />
	<path id="Layer" class="s0" d="m162.4-23.6v-50h50v50z" />
	<path id="Layer" class="s0" d="m162.4-81.2v-50h50v50z" />
	<g id="Layer">
		<path id="Layer" class="s1" d="m162.8-76.4h47.7" />
		<path id="Layer" class="s2" d="m162.8-78.4h47.7" />
	</g>
	<g id="Layer">
		<path id="Layer" class="s3" d="m172.2-25.4c-1.3 0-2.5-0.5-3.5-1.4c-0.9-0.9-1.4-2.1-1.4-3.4c0-1.3 0.5-2.5 1.4-3.5c1-0.9 2.2-1.4 3.5-1.4c1.3 0 2.5 0.5 3.4 1.4c0.9 1 1.4 2.2 1.4 3.5c0 1.3-0.5 2.5-1.4 3.4c-0.9 0.9-2.1 1.4-3.4 1.4z" />
		<path id="Layer" class="s4" d="m169.3-33.1c0.7-0.7 1.7-1.1 2.8-1.1c2.1 0 3.9 1.7 3.9 4c0 1.1-0.4 2.1-1.1 2.8" />
	</g>
	<g id="Layer">
		<path id="Layer" class="s3" d="m172.2-55.8c-1.3 0-2.5-0.5-3.5-1.4c-0.9-0.9-1.4-2.1-1.4-3.4c0-1.3 0.5-2.5 1.4-3.4c1-1 2.2-1.5 3.5-1.5c1.3 0 2.5 0.5 3.4 1.5c0.9 0.9 1.4 2.1 1.4 3.4c0 1.3-0.5 2.5-1.4 3.4c-0.9 0.9-2.1 1.4-3.4 1.4z" />
		<path id="Layer" class="s4" d="m169.3-63.5c0.7-0.7 1.7-1.1 2.8-1.1c2.1 0 3.9 1.8 3.9 4c0 1.1-0.4 2.1-1.1 2.8" />
	</g>
	<g id="Layer">
		<path id="Layer" class="s3" d="m202.2-25.4c-1.3 0-2.5-0.5-3.5-1.4c-0.9-0.9-1.4-2.1-1.4-3.4c0-1.3 0.5-2.5 1.4-3.5c1-0.9 2.2-1.4 3.5-1.4c1.3 0 2.5 0.5 3.4 1.4c0.9 1 1.4 2.2 1.4 3.5c0 1.3-0.5 2.5-1.4 3.4c-0.9 0.9-2.1 1.4-3.4 1.4z" />
		<path id="Layer" class="s4" d="m199.3-33.1c0.7-0.7 1.7-1.1 2.8-1.1c2.1 0 3.9 1.7 3.9 4c0 1.1-0.4 2.1-1.1 2.8" />
	</g>
	<g id="Layer">
		<path id="Layer" class="s3" d="m202.2-55.8c-1.3 0-2.5-0.5-3.5-1.4c-0.9-0.9-1.4-2.1-1.4-3.4c0-1.3 0.5-2.5 1.4-3.4c1-1 2.2-1.5 3.5-1.5c1.3 0 2.5 0.5 3.4 1.5c0.9 0.9 1.4 2.1 1.4 3.4c0 1.3-0.5 2.5-1.4 3.4c-0.9 0.9-2.1 1.4-3.4 1.4z" />
		<path id="Layer" class="s4" d="m199.3-63.5c0.7-0.7 1.7-1.1 2.8-1.1c2.1 0 3.9 1.8 3.9 4c0 1.1-0.4 2.1-1.1 2.8" />
	</g>
	<g id="Layer">
		<path id="Layer" class="s3" d="m172.2-87c-1.3 0-2.5-0.5-3.5-1.4c-0.9-0.9-1.4-2.1-1.4-3.4c0-1.3 0.5-2.5 1.4-3.4c1-1 2.2-1.5 3.5-1.5c1.3 0 2.5 0.5 3.4 1.5c0.9 0.9 1.4 2.1 1.4 3.4c0 1.3-0.5 2.5-1.4 3.4c-0.9 0.9-2.1 1.4-3.4 1.4z" />
		<path id="Layer" class="s4" d="m169.3-94.7c0.7-0.7 1.7-1.1 2.8-1.1c2.1 0 3.9 1.8 3.9 4c0 1.1-0.4 2.1-1.1 2.8" />
	</g>
	<g id="Layer">
		<path id="Layer" class="s3" d="m187.2-102.2c-1.3 0-2.5-0.5-3.5-1.4c-0.9-0.9-1.4-2.1-1.4-3.4c0-1.3 0.5-2.5 1.4-3.4c1-1 2.2-1.5 3.5-1.5c1.3 0 2.5 0.5 3.4 1.5c0.9 0.9 1.4 2.1 1.4 3.4c0 1.3-0.5 2.5-1.4 3.4c-0.9 0.9-2.1 1.4-3.4 1.4z" />
		<path id="Layer" class="s4" d="m184.3-109.9c0.7-0.7 1.7-1.1 2.8-1.1c2.1 0 3.9 1.8 3.9 4c0 1.1-0.4 2.1-1.1 2.8" />
	</g>
	<g id="Layer">
		<path id="Layer" class="s3" d="m172.2-117.4c-1.3 0-2.5-0.5-3.5-1.4c-0.9-0.9-1.4-2.1-1.4-3.4c0-1.3 0.5-2.5 1.4-3.4c1-1 2.2-1.5 3.5-1.5c1.3 0 2.5 0.5 3.4 1.5c0.9 0.9 1.4 2.1 1.4 3.4c0 1.3-0.5 2.5-1.4 3.4c-0.9 0.9-2.1 1.4-3.4 1.4z" />
		<path id="Layer" class="s4" d="m169.3-125.1c0.7-0.7 1.7-1.1 2.8-1.1c2.1 0 3.9 1.8 3.9 4c0 1.1-0.4 2.1-1.1 2.8" />
	</g>
	<g id="Layer">
		<path id="Layer" class="s3" d="m202.2-87c-1.3 0-2.5-0.5-3.5-1.4c-0.9-0.9-1.4-2.1-1.4-3.4c0-1.3 0.5-2.5 1.4-3.4c1-1 2.2-1.5 3.5-1.5c1.3 0 2.5 0.5 3.4 1.5c0.9 0.9 1.4 2.1 1.4 3.4c0 1.3-0.5 2.5-1.4 3.4c-0.9 0.9-2.1 1.4-3.4 1.4z" />
		<path id="Layer" class="s4" d="m199.3-94.7c0.7-0.7 1.7-1.1 2.8-1.1c2.1 0 3.9 1.8 3.9 4c0 1.1-0.4 2.1-1.1 2.8" />
	</g>
	<g id="Layer">
		<path id="Layer" class="s3" d="m202.2-117.4c-1.3 0-2.5-0.5-3.5-1.4c-0.9-0.9-1.4-2.1-1.4-3.4c0-1.3 0.5-2.5 1.4-3.4c1-1 2.2-1.5 3.5-1.5c1.3 0 2.5 0.5 3.4 1.5c0.9 0.9 1.4 2.1 1.4 3.4c0 1.3-0.5 2.5-1.4 3.4c-0.9 0.9-2.1 1.4-3.4 1.4z" />
		<path id="Layer" class="s4" d="m199.3-125.1c0.7-0.7 1.7-1.1 2.8-1.1c2.1 0 3.9 1.8 3.9 4c0 1.1-0.4 2.1-1.1 2.8" />
	</g>
	<path id="Layer" class="s0" d="m233.6 392.2v-110.4q0.1-1 0.4-1.9q0.4-0.9 1.1-1.6q0.7-0.7 1.6-1.1q1-0.4 1.9-0.4h52.2q1 0 1.9 0.4q1 0.4 1.7 1.1q0.7 0.7 1 1.6q0.4 0.9 0.4 1.9v110.4q0 1-0.4 1.9q-0.3 0.9-1 1.6q-0.7 0.7-1.7 1.1q-0.9 0.4-1.9 0.4h-52.2q-0.9 0-1.9-0.4q-0.9-0.4-1.6-1.1q-0.7-0.7-1.1-1.6q-0.3-0.9-0.4-1.9z" />
	<path id="Layer" class="s0" d="m239.7 390.7v-50h50v50z" />
	<path id="Layer" class="s0" d="m239.7 333.2v-50h50v50z" />
	<g id="Layer">
		<path id="Layer" class="s1" d="m240.2 338h47.6" />
		<path id="Layer" class="s2" d="m240.2 336h47.6" />
	</g>
	<g id="Layer">
		<path id="Layer" class="s3" d="m249.5 389c-1.3 0-2.5-0.5-3.5-1.5c-0.9-0.9-1.4-2.1-1.4-3.4c0-1.3 0.5-2.5 1.4-3.4c1-0.9 2.2-1.4 3.5-1.4c1.3 0 2.5 0.5 3.4 1.4c0.9 0.9 1.4 2.1 1.4 3.4c0 1.3-0.5 2.5-1.4 3.4c-0.9 1-2.1 1.5-3.4 1.5z" />
		<path id="Layer" class="s4" d="m246.6 381.2c0.7-0.7 1.7-1.1 2.8-1.1c2.1 0 3.9 1.8 3.9 4c0 1.1-0.4 2.1-1.1 2.8" />
	</g>
	<g id="Layer">
		<path id="Layer" class="s3" d="m249.5 358.6c-1.3 0-2.5-0.5-3.5-1.4c-0.9-1-1.4-2.2-1.4-3.5c0-1.3 0.5-2.5 1.4-3.4c1-0.9 2.2-1.4 3.5-1.4c1.3 0 2.5 0.5 3.4 1.4c0.9 0.9 1.4 2.1 1.4 3.4c0 1.3-0.5 2.5-1.4 3.5c-0.9 0.9-2.1 1.4-3.4 1.4z" />
		<path id="Layer" class="s4" d="m246.6 350.8c0.7-0.7 1.7-1.1 2.8-1.1c2.1 0 3.9 1.8 3.9 4c0 1.1-0.4 2.1-1.1 2.8" />
	</g>
	<g id="Layer">
		<path id="Layer" class="s3" d="m279.5 389c-1.3 0-2.5-0.5-3.5-1.5c-0.9-0.9-1.4-2.1-1.4-3.4c0-1.3 0.5-2.5 1.4-3.4c1-0.9 2.2-1.4 3.5-1.4c1.3 0 2.5 0.5 3.4 1.4c0.9 0.9 1.4 2.1 1.4 3.4c0 1.3-0.5 2.5-1.4 3.4c-0.9 1-2.1 1.5-3.4 1.5z" />
		<path id="Layer" class="s4" d="m276.6 381.2c0.7-0.7 1.7-1.1 2.8-1.1c2.1 0 3.9 1.8 3.9 4c0 1.1-0.4 2.1-1.1 2.8" />
	</g>
	<g id="Layer">
		<path id="Layer" class="s3" d="m279.5 358.6c-1.3 0-2.5-0.5-3.5-1.4c-0.9-1-1.4-2.2-1.4-3.5c0-1.3 0.5-2.5 1.4-3.4c1-0.9 2.2-1.4 3.5-1.4c1.3 0 2.5 0.5 3.4 1.4c0.9 0.9 1.4 2.1 1.4 3.4c0 1.3-0.5 2.5-1.4 3.5c-0.9 0.9-2.1 1.4-3.4 1.4z" />
		<path id="Layer" class="s4" d="m276.6 350.8c0.7-0.7 1.7-1.1 2.8-1.1c2.1 0 3.9 1.8 3.9 4c0 1.1-0.4 2.1-1.1 2.8" />
	</g>
	<g id="Layer">
		<path id="Layer" class="s3" d="m249.5 327.4c-1.3 0-2.5-0.5-3.5-1.5c-0.9-0.9-1.4-2.1-1.4-3.4c0-1.3 0.5-2.5 1.4-3.4c1-0.9 2.2-1.4 3.5-1.4c1.3 0 2.5 0.5 3.4 1.4c0.9 0.9 1.4 2.1 1.4 3.4c0 1.3-0.5 2.5-1.4 3.4c-0.9 1-2.1 1.5-3.4 1.5z" />
		<path id="Layer" class="s4" d="m246.6 319.6c0.7-0.7 1.7-1.1 2.8-1.1c2.1 0 3.9 1.8 3.9 4c0 1.1-0.4 2.1-1.1 2.8" />
	</g>
	<g id="Layer">
		<path id="Layer" class="s3" d="m249.5 297c-1.3 0-2.5-0.5-3.5-1.4c-0.9-0.9-1.4-2.2-1.4-3.5c0-1.3 0.5-2.5 1.4-3.4c1-0.9 2.2-1.4 3.5-1.4c1.3 0 2.5 0.5 3.4 1.4c0.9 0.9 1.4 2.1 1.4 3.4c0 1.3-0.5 2.6-1.4 3.5c-0.9 0.9-2.1 1.4-3.4 1.4z" />
		<path id="Layer" class="s4" d="m246.6 289.2c0.7-0.7 1.7-1.1 2.8-1.1c2.1 0 3.9 1.8 3.9 4c0 1.1-0.4 2.1-1.1 2.9" />
	</g>
	<g id="Layer">
		<path id="Layer" class="s3" d="m249.5 312.2c-1.3 0-2.5-0.5-3.5-1.4c-0.9-1-1.4-2.2-1.4-3.5c0-1.3 0.5-2.5 1.4-3.4c1-0.9 2.2-1.4 3.5-1.4c1.3 0 2.5 0.5 3.4 1.4c0.9 0.9 1.4 2.1 1.4 3.4c0 1.3-0.5 2.5-1.4 3.5c-0.9 0.9-2.1 1.4-3.4 1.4z" />
		<path id="Layer" class="s4" d="m246.6 304.4c0.7-0.7 1.7-1.1 2.8-1.1c2.1 0 3.9 1.8 3.9 4c0 1.1-0.4 2.1-1.1 2.8" />
	</g>
	<g id="Layer">
		<path id="Layer" class="s3" d="m279.5 327.4c-1.3 0-2.5-0.5-3.5-1.5c-0.9-0.9-1.4-2.1-1.4-3.4c0-1.3 0.5-2.5 1.4-3.4c1-0.9 2.2-1.4 3.5-1.4c1.3 0 2.5 0.5 3.4 1.4c0.9 0.9 1.4 2.1 1.4 3.4c0 1.3-0.5 2.5-1.4 3.4c-0.9 1-2.1 1.5-3.4 1.5z" />
		<path id="Layer" class="s4" d="m276.6 319.6c0.7-0.7 1.7-1.1 2.8-1.1c2.1 0 3.9 1.8 3.9 4c0 1.1-0.4 2.1-1.1 2.8" />
	</g>
	<g id="Layer">
		<path id="Layer" class="s3" d="m279.5 297c-1.3 0-2.5-0.5-3.5-1.4c-0.9-0.9-1.4-2.2-1.4-3.5c0-1.3 0.5-2.5 1.4-3.4c1-0.9 2.2-1.4 3.5-1.4c1.3 0 2.5 0.5 3.4 1.4c0.9 0.9 1.4 2.1 1.4 3.4c0 1.3-0.5 2.6-1.4 3.5c-0.9 0.9-2.1 1.4-3.4 1.4z" />
		<path id="Layer" class="s4" d="m276.6 289.2c0.7-0.7 1.7-1.1 2.8-1.1c2.1 0 3.9 1.8 3.9 4c0 1.1-0.4 2.1-1.1 2.9" />
	</g>
	<g id="Layer">
		<path id="Layer" class="s3" d="m279.5 312.2c-1.3 0-2.5-0.5-3.5-1.4c-0.9-1-1.4-2.2-1.4-3.5c0-1.3 0.5-2.5 1.4-3.4c1-0.9 2.2-1.4 3.5-1.4c1.3 0 2.5 0.5 3.4 1.4c0.9 0.9 1.4 2.1 1.4 3.4c0 1.3-0.5 2.5-1.4 3.5c-0.9 0.9-2.1 1.4-3.4 1.4z" />
		<path id="Layer" class="s4" d="m276.6 304.4c0.7-0.7 1.7-1.1 2.8-1.1c2.1 0 3.9 1.8 3.9 4c0 1.1-0.4 2.1-1.1 2.8" />
	</g>
	<path id="Layer" class="s0" d="m233.6 254.1v-110.4q0.1-1 0.4-1.9q0.4-1 1.1-1.7q0.7-0.7 1.6-1q1-0.4 1.9-0.4h52.2q1 0 1.9 0.4q1 0.3 1.7 1q0.7 0.7 1 1.7q0.4 0.9 0.4 1.9v110.4q0 1-0.4 1.9q-0.3 0.9-1 1.6q-0.7 0.7-1.7 1.1q-0.9 0.4-1.9 0.4h-52.2q-0.9 0-1.9-0.4q-0.9-0.4-1.6-1.1q-0.7-0.7-1.1-1.6q-0.3-0.9-0.4-1.9z" />
	<path id="Layer" class="s0" d="m239.7 252.6v-50h50v50z" />
	<path id="Layer" class="s0" d="m239.7 195v-50h50v50z" />
	<g id="Layer">
		<path id="Layer" class="s1" d="m240.2 199.9h47.6" />
		<path id="Layer" class="s2" d="m240.2 197.9h47.6" />
	</g>
	<g id="Layer">
		<path id="Layer" class="s3" d="m249.5 250.8c-1.3 0-2.5-0.5-3.5-1.4c-0.9-0.9-1.4-2.1-1.4-3.4c0-1.3 0.5-2.5 1.4-3.4c1-0.9 2.2-1.5 3.5-1.5c1.3 0 2.5 0.6 3.4 1.5c0.9 0.9 1.4 2.1 1.4 3.4c0 1.3-0.5 2.5-1.4 3.4c-0.9 0.9-2.1 1.4-3.4 1.4z" />
		<path id="Layer" class="s4" d="m246.6 243.1c0.7-0.7 1.7-1.1 2.8-1.1c2.1 0 3.9 1.8 3.9 4c0 1.1-0.4 2.1-1.1 2.8" />
	</g>
	<g id="Layer">
		<path id="Layer" class="s3" d="m264.5 235.7c-1.3 0-2.5-0.6-3.5-1.5c-0.9-0.9-1.4-2.1-1.4-3.4c0-1.3 0.5-2.5 1.4-3.4c1-0.9 2.2-1.4 3.5-1.4c1.3 0 2.5 0.5 3.4 1.4c0.9 0.9 1.4 2.1 1.4 3.4c0 1.3-0.5 2.5-1.4 3.4c-0.9 0.9-2.1 1.5-3.4 1.5z" />
		<path id="Layer" class="s4" d="m261.6 227.9c0.7-0.7 1.7-1.1 2.8-1.1c2.1 0 3.9 1.8 3.9 4c0 1.1-0.4 2.1-1.1 2.8" />
	</g>
	<g id="Layer">
		<path id="Layer" class="s3" d="m249.5 220.5c-1.3 0-2.5-0.5-3.5-1.5c-0.9-0.9-1.4-2.1-1.4-3.4c0-1.3 0.5-2.5 1.4-3.4c1-0.9 2.2-1.4 3.5-1.4c1.3 0 2.5 0.5 3.4 1.4c0.9 0.9 1.4 2.1 1.4 3.4c0 1.3-0.5 2.5-1.4 3.4c-0.9 1-2.1 1.5-3.4 1.5z" />
		<path id="Layer" class="s4" d="m246.6 212.7c0.7-0.7 1.7-1.1 2.8-1.1c2.1 0 3.9 1.8 3.9 4c0 1.1-0.4 2.1-1.1 2.8" />
	</g>
	<g id="Layer">
		<path id="Layer" class="s3" d="m279.5 250.8c-1.3 0-2.5-0.5-3.5-1.4c-0.9-0.9-1.4-2.1-1.4-3.4c0-1.3 0.5-2.5 1.4-3.4c1-0.9 2.2-1.5 3.5-1.5c1.3 0 2.5 0.6 3.4 1.5c0.9 0.9 1.4 2.1 1.4 3.4c0 1.3-0.5 2.5-1.4 3.4c-0.9 0.9-2.1 1.4-3.4 1.4z" />
		<path id="Layer" class="s4" d="m276.6 243.1c0.7-0.7 1.7-1.1 2.8-1.1c2.1 0 3.9 1.8 3.9 4c0 1.1-0.4 2.1-1.1 2.8" />
	</g>
	<g id="Layer">
		<path id="Layer" class="s3" d="m279.5 220.5c-1.3 0-2.5-0.5-3.5-1.5c-0.9-0.9-1.4-2.1-1.4-3.4c0-1.3 0.5-2.5 1.4-3.4c1-0.9 2.2-1.4 3.5-1.4c1.3 0 2.5 0.5 3.4 1.4c0.9 0.9 1.4 2.1 1.4 3.4c0 1.3-0.5 2.5-1.4 3.4c-0.9 1-2.1 1.5-3.4 1.5z" />
		<path id="Layer" class="s4" d="m276.6 212.7c0.7-0.7 1.7-1.1 2.8-1.1c2.1 0 3.9 1.8 3.9 4c0 1.1-0.4 2.1-1.1 2.8" />
	</g>
	<g id="Layer">
		<path id="Layer" class="s3" d="m249.5 189.3c-1.3 0-2.5-0.6-3.5-1.5c-0.9-0.9-1.4-2.1-1.4-3.4c0-1.3 0.5-2.5 1.4-3.4c1-0.9 2.2-1.4 3.5-1.4c1.3 0 2.5 0.5 3.4 1.4c0.9 0.9 1.4 2.1 1.4 3.4c0 1.3-0.5 2.5-1.4 3.4c-0.9 0.9-2.1 1.5-3.4 1.5z" />
		<path id="Layer" class="s4" d="m246.6 181.5c0.7-0.7 1.7-1.1 2.8-1.1c2.1 0 3.9 1.8 3.9 4c0 1.1-0.4 2.1-1.1 2.8" />
	</g>
	<g id="Layer">
		<path id="Layer" class="s3" d="m249.5 158.9c-1.3 0-2.5-0.5-3.5-1.5c-0.9-0.9-1.4-2.1-1.4-3.4c0-1.3 0.5-2.5 1.4-3.4c1-0.9 2.2-1.4 3.5-1.4c1.3 0 2.5 0.5 3.4 1.4c0.9 0.9 1.4 2.1 1.4 3.4c0 1.3-0.5 2.5-1.4 3.4c-0.9 1-2.1 1.5-3.4 1.5z" />
		<path id="Layer" class="s4" d="m246.6 151.1c0.7-0.7 1.7-1.1 2.8-1.1c2.1 0 3.9 1.8 3.9 4c0 1.1-0.4 2.1-1.1 2.8" />
	</g>
	<g id="Layer">
		<path id="Layer" class="s3" d="m249.5 174.1c-1.3 0-2.5-0.6-3.5-1.5c-0.9-0.9-1.4-2.1-1.4-3.4c0-1.3 0.5-2.5 1.4-3.4c1-0.9 2.2-1.4 3.5-1.4c1.3 0 2.5 0.5 3.4 1.4c0.9 0.9 1.4 2.1 1.4 3.4c0 1.3-0.5 2.5-1.4 3.4c-0.9 0.9-2.1 1.5-3.4 1.5z" />
		<path id="Layer" class="s4" d="m246.6 166.3c0.7-0.7 1.7-1.1 2.8-1.1c2.1 0 3.9 1.8 3.9 4c0 1.1-0.4 2.1-1.1 2.8" />
	</g>
	<g id="Layer">
		<path id="Layer" class="s3" d="m279.5 189.3c-1.3 0-2.5-0.6-3.5-1.5c-0.9-0.9-1.4-2.1-1.4-3.4c0-1.3 0.5-2.5 1.4-3.4c1-0.9 2.2-1.4 3.5-1.4c1.3 0 2.5 0.5 3.4 1.4c0.9 0.9 1.4 2.1 1.4 3.4c0 1.3-0.5 2.5-1.4 3.4c-0.9 0.9-2.1 1.5-3.4 1.5z" />
		<path id="Layer" class="s4" d="m276.6 181.5c0.7-0.7 1.7-1.1 2.8-1.1c2.1 0 3.9 1.8 3.9 4c0 1.1-0.4 2.1-1.1 2.8" />
	</g>
	<g id="Layer">
		<path id="Layer" class="s3" d="m279.5 158.9c-1.3 0-2.5-0.5-3.5-1.5c-0.9-0.9-1.4-2.1-1.4-3.4c0-1.3 0.5-2.5 1.4-3.4c1-0.9 2.2-1.4 3.5-1.4c1.3 0 2.5 0.5 3.4 1.4c0.9 0.9 1.4 2.1 1.4 3.4c0 1.3-0.5 2.5-1.4 3.4c-0.9 1-2.1 1.5-3.4 1.5z" />
		<path id="Layer" class="s4" d="m276.6 151.1c0.7-0.7 1.7-1.1 2.8-1.1c2.1 0 3.9 1.8 3.9 4c0 1.1-0.4 2.1-1.1 2.8" />
	</g>
	<g id="Layer">
		<path id="Layer" class="s3" d="m279.5 174.1c-1.3 0-2.5-0.6-3.5-1.5c-0.9-0.9-1.4-2.1-1.4-3.4c0-1.3 0.5-2.5 1.4-3.4c1-0.9 2.2-1.4 3.5-1.4c1.3 0 2.5 0.5 3.4 1.4c0.9 0.9 1.4 2.1 1.4 3.4c0 1.3-0.5 2.5-1.4 3.4c-0.9 0.9-2.1 1.5-3.4 1.5z" />
		<path id="Layer" class="s4" d="m276.6 166.3c0.7-0.7 1.7-1.1 2.8-1.1c2.1 0 3.9 1.8 3.9 4c0 1.1-0.4 2.1-1.1 2.8" />
	</g>
	<path id="Layer" class="s0" d="m311 392.2v-110.4q0-1 0.4-1.9q0.4-0.9 1.1-1.6q0.7-0.7 1.6-1.1q0.9-0.4 1.9-0.4h52.2q1 0 1.9 0.4q0.9 0.4 1.6 1.1q0.7 0.7 1.1 1.6q0.4 0.9 0.4 1.9v110.4q0 1-0.4 1.9q-0.4 0.9-1.1 1.6q-0.7 0.7-1.6 1.1q-0.9 0.4-1.9 0.4h-52.2q-1 0-1.9-0.4q-0.9-0.4-1.6-1.1q-0.7-0.7-1.1-1.6q-0.4-0.9-0.4-1.9z" />
	<path id="Layer" class="s0" d="m317.1 390.7v-50h50v50z" />
	<path id="Layer" class="s0" d="m317.1 333.2v-50h50v50z" />
	<g id="Layer">
		<path id="Layer" class="s1" d="m317.6 338h47.6" />
		<path id="Layer" class="s2" d="m317.6 336h47.6" />
	</g>
	<g id="Layer">
		<path id="Layer" class="s3" d="m326.9 389c-1.3 0-2.5-0.5-3.5-1.5c-0.9-0.9-1.4-2.1-1.4-3.4c0-1.3 0.5-2.5 1.4-3.4c1-0.9 2.2-1.4 3.5-1.4c1.3 0 2.5 0.5 3.4 1.4c0.9 0.9 1.4 2.1 1.4 3.4c0 1.3-0.5 2.5-1.4 3.4c-0.9 1-2.1 1.5-3.4 1.5z" />
		<path id="Layer" class="s4" d="m324 381.2c0.7-0.7 1.7-1.1 2.8-1.1c2.1 0 3.9 1.8 3.9 4c0 1.1-0.4 2.1-1.1 2.8" />
	</g>
	<g id="Layer">
		<path id="Layer" class="s3" d="m341.9 373.8c-1.3 0-2.5-0.5-3.5-1.5c-0.9-0.9-1.4-2.1-1.4-3.4c0-1.3 0.5-2.5 1.4-3.4c1-0.9 2.2-1.4 3.5-1.4c1.3 0 2.5 0.5 3.4 1.4c0.9 0.9 1.4 2.1 1.4 3.4c0 1.3-0.5 2.5-1.4 3.4c-0.9 1-2.1 1.5-3.4 1.5z" />
		<path id="Layer" class="s4" d="m339 366c0.7-0.7 1.7-1.1 2.8-1.1c2.1 0 3.9 1.8 3.9 4c0 1.1-0.4 2.1-1.1 2.8" />
	</g>
	<g id="Layer">
		<path id="Layer" class="s3" d="m356.9 358.6c-1.3 0-2.5-0.5-3.5-1.4c-0.9-1-1.4-2.2-1.4-3.5c0-1.3 0.5-2.5 1.4-3.4c1-0.9 2.2-1.4 3.5-1.4c1.3 0 2.5 0.5 3.4 1.4c0.9 0.9 1.4 2.1 1.4 3.4c0 1.3-0.5 2.5-1.4 3.5c-0.9 0.9-2.1 1.4-3.4 1.4z" />
		<path id="Layer" class="s4" d="m354 350.8c0.7-0.7 1.7-1.1 2.8-1.1c2.1 0 3.9 1.8 3.9 4c0 1.1-0.4 2.1-1.1 2.8" />
	</g>
	<g id="Layer">
		<path id="Layer" class="s3" d="m326.9 327.4c-1.3 0-2.5-0.5-3.5-1.5c-0.9-0.9-1.4-2.1-1.4-3.4c0-1.3 0.5-2.5 1.4-3.4c1-0.9 2.2-1.4 3.5-1.4c1.3 0 2.5 0.5 3.4 1.4c0.9 0.9 1.4 2.1 1.4 3.4c0 1.3-0.5 2.5-1.4 3.4c-0.9 1-2.1 1.5-3.4 1.5z" />
		<path id="Layer" class="s4" d="m324 319.6c0.7-0.7 1.7-1.1 2.8-1.1c2.1 0 3.9 1.8 3.9 4c0 1.1-0.4 2.1-1.1 2.8" />
	</g>
	<g id="Layer">
		<path id="Layer" class="s3" d="m341.9 312.2c-1.3 0-2.5-0.5-3.5-1.4c-0.9-1-1.4-2.2-1.4-3.5c0-1.3 0.5-2.5 1.4-3.4c1-0.9 2.2-1.4 3.5-1.4c1.3 0 2.5 0.5 3.4 1.4c0.9 0.9 1.4 2.1 1.4 3.4c0 1.3-0.5 2.5-1.4 3.5c-0.9 0.9-2.1 1.4-3.4 1.4z" />
		<path id="Layer" class="s4" d="m339 304.4c0.7-0.7 1.7-1.1 2.8-1.1c2.1 0 3.9 1.8 3.9 4c0 1.1-0.4 2.1-1.1 2.8" />
	</g>
	<g id="Layer">
		<path id="Layer" class="s3" d="m356.9 297c-1.3 0-2.5-0.5-3.5-1.4c-0.9-0.9-1.4-2.2-1.4-3.5c0-1.3 0.5-2.5 1.4-3.4c1-0.9 2.2-1.4 3.5-1.4c1.3 0 2.5 0.5 3.4 1.4c0.9 0.9 1.4 2.1 1.4 3.4c0 1.3-0.5 2.6-1.4 3.5c-0.9 0.9-2.1 1.4-3.4 1.4z" />
		<path id="Layer" class="s4" d="m354 289.2c0.7-0.7 1.7-1.1 2.8-1.1c2.1 0 3.9 1.8 3.9 4c0 1.1-0.4 2.1-1.1 2.9" />
	</g>
	<path id="Layer" class="s0" d="m311 254.1v-110.4q0-1 0.4-1.9q0.4-1 1.1-1.7q0.7-0.7 1.6-1q0.9-0.4 1.9-0.4h52.2q1 0 1.9 0.4q0.9 0.3 1.6 1q0.7 0.7 1.1 1.7q0.4 0.9 0.4 1.9v110.4q0 1-0.4 1.9q-0.4 0.9-1.1 1.6q-0.7 0.7-1.6 1.1q-0.9 0.4-1.9 0.4h-52.2q-1 0-1.9-0.4q-0.9-0.4-1.6-1.1q-0.7-0.7-1.1-1.6q-0.4-0.9-0.4-1.9z" />
	<path id="Layer" class="s0" d="m317.1 252.6v-50h50v50z" />
	<path id="Layer" class="s0" d="m317.1 195v-50h50v50z" />
	<g id="Layer">
		<path id="Layer" class="s1" d="m317.6 199.9h47.6" />
		<path id="Layer" class="s2" d="m317.6 197.9h47.6" />
	</g>
	<g id="Layer">
		<path id="Layer" class="s3" d="m326.9 250.8c-1.3 0-2.5-0.5-3.5-1.4c-0.9-0.9-1.4-2.1-1.4-3.4c0-1.3 0.5-2.5 1.4-3.4c1-0.9 2.2-1.5 3.5-1.5c1.3 0 2.5 0.6 3.4 1.5c0.9 0.9 1.4 2.1 1.4 3.4c0 1.3-0.5 2.5-1.4 3.4c-0.9 0.9-2.1 1.4-3.4 1.4z" />
		<path id="Layer" class="s4" d="m324 243.1c0.7-0.7 1.7-1.1 2.8-1.1c2.1 0 3.9 1.8 3.9 4c0 1.1-0.4 2.1-1.1 2.8" />
	</g>
	<g id="Layer">
		<path id="Layer" class="s3" d="m326.9 220.5c-1.3 0-2.5-0.5-3.5-1.5c-0.9-0.9-1.4-2.1-1.4-3.4c0-1.3 0.5-2.5 1.4-3.4c1-0.9 2.2-1.4 3.5-1.4c1.3 0 2.5 0.5 3.4 1.4c0.9 0.9 1.4 2.1 1.4 3.4c0 1.3-0.5 2.5-1.4 3.4c-0.9 1-2.1 1.5-3.4 1.5z" />
		<path id="Layer" class="s4" d="m324 212.7c0.7-0.7 1.7-1.1 2.8-1.1c2.1 0 3.9 1.8 3.9 4c0 1.1-0.4 2.1-1.1 2.8" />
	</g>
	<g id="Layer">
		<path id="Layer" class="s3" d="m356.9 250.8c-1.3 0-2.5-0.5-3.5-1.4c-0.9-0.9-1.4-2.1-1.4-3.4c0-1.3 0.5-2.5 1.4-3.4c1-0.9 2.2-1.5 3.5-1.5c1.3 0 2.5 0.6 3.4 1.5c0.9 0.9 1.4 2.1 1.4 3.4c0 1.3-0.5 2.5-1.4 3.4c-0.9 0.9-2.1 1.4-3.4 1.4z" />
		<path id="Layer" class="s4" d="m354 243.1c0.7-0.7 1.7-1.1 2.8-1.1c2.1 0 3.9 1.8 3.9 4c0 1.1-0.4 2.1-1.1 2.8" />
	</g>
	<g id="Layer">
		<path id="Layer" class="s3" d="m356.9 220.5c-1.3 0-2.5-0.5-3.5-1.5c-0.9-0.9-1.4-2.1-1.4-3.4c0-1.3 0.5-2.5 1.4-3.4c1-0.9 2.2-1.4 3.5-1.4c1.3 0 2.5 0.5 3.4 1.4c0.9 0.9 1.4 2.1 1.4 3.4c0 1.3-0.5 2.5-1.4 3.4c-0.9 1-2.1 1.5-3.4 1.5z" />
		<path id="Layer" class="s4" d="m354 212.7c0.7-0.7 1.7-1.1 2.8-1.1c2.1 0 3.9 1.8 3.9 4c0 1.1-0.4 2.1-1.1 2.8" />
	</g>
	<g id="Layer">
		<path id="Layer" class="s3" d="m326.9 189.3c-1.3 0-2.5-0.6-3.5-1.5c-0.9-0.9-1.4-2.1-1.4-3.4c0-1.3 0.5-2.5 1.4-3.4c1-0.9 2.2-1.4 3.5-1.4c1.3 0 2.5 0.5 3.4 1.4c0.9 0.9 1.4 2.1 1.4 3.4c0 1.3-0.5 2.5-1.4 3.4c-0.9 0.9-2.1 1.5-3.4 1.5z" />
		<path id="Layer" class="s4" d="m324 181.5c0.7-0.7 1.7-1.1 2.8-1.1c2.1 0 3.9 1.8 3.9 4c0 1.1-0.4 2.1-1.1 2.8" />
	</g>
	<g id="Layer">
		<path id="Layer" class="s3" d="m326.9 158.9c-1.3 0-2.5-0.5-3.5-1.5c-0.9-0.9-1.4-2.1-1.4-3.4c0-1.3 0.5-2.5 1.4-3.4c1-0.9 2.2-1.4 3.5-1.4c1.3 0 2.5 0.5 3.4 1.4c0.9 0.9 1.4 2.1 1.4 3.4c0 1.3-0.5 2.5-1.4 3.4c-0.9 1-2.1 1.5-3.4 1.5z" />
		<path id="Layer" class="s4" d="m324 151.1c0.7-0.7 1.7-1.1 2.8-1.1c2.1 0 3.9 1.8 3.9 4c0 1.1-0.4 2.1-1.1 2.8" />
	</g>
	<g id="Layer">
		<path id="Layer" class="s3" d="m356.9 189.3c-1.3 0-2.5-0.6-3.5-1.5c-0.9-0.9-1.4-2.1-1.4-3.4c0-1.3 0.5-2.5 1.4-3.4c1-0.9 2.2-1.4 3.5-1.4c1.3 0 2.5 0.5 3.4 1.4c0.9 0.9 1.4 2.1 1.4 3.4c0 1.3-0.5 2.5-1.4 3.4c-0.9 0.9-2.1 1.5-3.4 1.5z" />
		<path id="Layer" class="s4" d="m354 181.5c0.7-0.7 1.7-1.1 2.8-1.1c2.1 0 3.9 1.8 3.9 4c0 1.1-0.4 2.1-1.1 2.8" />
	</g>
	<g id="Layer">
		<path id="Layer" class="s3" d="m356.9 158.9c-1.3 0-2.5-0.5-3.5-1.5c-0.9-0.9-1.4-2.1-1.4-3.4c0-1.3 0.5-2.5 1.4-3.4c1-0.9 2.2-1.4 3.5-1.4c1.3 0 2.5 0.5 3.4 1.4c0.9 0.9 1.4 2.1 1.4 3.4c0 1.3-0.5 2.5-1.4 3.4c-0.9 1-2.1 1.5-3.4 1.5z" />
		<path id="Layer" class="s4" d="m354 151.1c0.7-0.7 1.7-1.1 2.8-1.1c2.1 0 3.9 1.8 3.9 4c0 1.1-0.4 2.1-1.1 2.8" />
	</g>
	<path id="Layer" class="s0" d="m233.6 116v-110.4q0.1-1 0.4-2q0.4-0.9 1.1-1.6q0.7-0.7 1.6-1.1q1-0.3 1.9-0.3h52.2q1 0 1.9 0.3q1 0.4 1.7 1.1q0.7 0.7 1 1.6q0.4 1 0.4 2v110.4q0 1-0.4 1.9q-0.3 0.9-1 1.6q-0.7 0.7-1.7 1.1q-0.9 0.4-1.9 0.4h-52.2q-0.9 0-1.9-0.4q-0.9-0.4-1.6-1.1q-0.7-0.7-1.1-1.6q-0.3-0.9-0.4-1.9z" />
	<path id="Layer" class="s0" d="m239.7 114.5v-50h50v50z" />
	<path id="Layer" class="s0" d="m239.7 56.9v-50h50v50z" />
	<g id="Layer">
		<path id="Layer" class="s1" d="m240.2 61.8h47.6" />
		<path id="Layer" class="s2" d="m240.2 59.8h47.6" />
	</g>
	<g id="Layer">
		<path id="Layer" class="s3" d="m264.5 97.5c-1.3 0-2.5-0.5-3.5-1.4c-0.9-0.9-1.4-2.1-1.4-3.4c0-1.3 0.5-2.5 1.4-3.4c1-0.9 2.2-1.5 3.5-1.5c1.3 0 2.5 0.6 3.4 1.5c0.9 0.9 1.4 2.1 1.4 3.4c0 1.3-0.5 2.5-1.4 3.4c-0.9 0.9-2.1 1.4-3.4 1.4z" />
		<path id="Layer" class="s4" d="m261.6 89.8c0.7-0.7 1.7-1.1 2.8-1.1c2.1 0 3.9 1.8 3.9 4c0 1.1-0.4 2.1-1.1 2.8" />
	</g>
	<g id="Layer">
		<path id="Layer" class="s3" d="m264.5 35.9c-1.3 0-2.5-0.5-3.5-1.4c-0.9-0.9-1.4-2.1-1.4-3.4c0-1.3 0.5-2.5 1.4-3.4c1-0.9 2.2-1.5 3.5-1.5c1.3 0 2.5 0.6 3.4 1.5c0.9 0.9 1.4 2.1 1.4 3.4c0 1.3-0.5 2.5-1.4 3.4c-0.9 0.9-2.1 1.4-3.4 1.4z" />
		<path id="Layer" class="s4" d="m261.6 28.2c0.7-0.7 1.7-1.1 2.8-1.1c2.1 0 3.9 1.8 3.9 4c0 1.1-0.4 2.1-1.1 2.8" />
	</g>
	<path id="Layer" class="s0" d="m233.6-22.1v-110.4q0.1-1 0.4-2q0.4-0.9 1.1-1.6q0.7-0.7 1.6-1.1q1-0.3 1.9-0.3h52.2q1 0 1.9 0.3q1 0.4 1.7 1.1q0.7 0.7 1 1.6q0.4 1 0.4 2v110.4q0 1-0.4 1.9q-0.3 0.9-1 1.6q-0.7 0.7-1.7 1.1q-0.9 0.4-1.9 0.4h-52.2q-0.9 0-1.9-0.4q-0.9-0.4-1.6-1.1q-0.7-0.7-1.1-1.6q-0.3-0.9-0.4-1.9z" />
	<path id="Layer" class="s0" d="m239.7-23.6v-50h50v50z" />
	<path id="Layer" class="s0" d="m239.7-81.2v-50h50v50z" />
	<g id="Layer">
		<path id="Layer" class="s1" d="m240.2-76.4h47.6" />
		<path id="Layer" class="s2" d="m240.2-78.4h47.6" />
	</g>
	<g id="Layer">
		<path id="Layer" class="s3" d="m249.5-25.4c-1.3 0-2.5-0.5-3.5-1.4c-0.9-0.9-1.4-2.1-1.4-3.4c0-1.3 0.5-2.5 1.4-3.5c1-0.9 2.2-1.4 3.5-1.4c1.3 0 2.5 0.5 3.4 1.4c0.9 1 1.4 2.2 1.4 3.5c0 1.3-0.5 2.5-1.4 3.4c-0.9 0.9-2.1 1.4-3.4 1.4z" />
		<path id="Layer" class="s4" d="m246.6-33.1c0.7-0.7 1.7-1.1 2.8-1.1c2.1 0 3.9 1.7 3.9 4c0 1.1-0.4 2.1-1.1 2.8" />
	</g>
	<g id="Layer">
		<path id="Layer" class="s3" d="m279.5-55.8c-1.3 0-2.5-0.5-3.5-1.4c-0.9-0.9-1.4-2.1-1.4-3.4c0-1.3 0.5-2.5 1.4-3.4c1-1 2.2-1.5 3.5-1.5c1.3 0 2.5 0.5 3.4 1.5c0.9 0.9 1.4 2.1 1.4 3.4c0 1.3-0.5 2.5-1.4 3.4c-0.9 0.9-2.1 1.4-3.4 1.4z" />
		<path id="Layer" class="s4" d="m276.6-63.5c0.7-0.7 1.7-1.1 2.8-1.1c2.1 0 3.9 1.8 3.9 4c0 1.1-0.4 2.1-1.1 2.8" />
	</g>
	<g id="Layer">
		<path id="Layer" class="s3" d="m249.5-87c-1.3 0-2.5-0.5-3.5-1.4c-0.9-0.9-1.4-2.1-1.4-3.4c0-1.3 0.5-2.5 1.4-3.4c1-1 2.2-1.5 3.5-1.5c1.3 0 2.5 0.5 3.4 1.5c0.9 0.9 1.4 2.1 1.4 3.4c0 1.3-0.5 2.5-1.4 3.4c-0.9 0.9-2.1 1.4-3.4 1.4z" />
		<path id="Layer" class="s4" d="m246.6-94.7c0.7-0.7 1.7-1.1 2.8-1.1c2.1 0 3.9 1.8 3.9 4c0 1.1-0.4 2.1-1.1 2.8" />
	</g>
	<g id="Layer">
		<path id="Layer" class="s3" d="m279.5-117.4c-1.3 0-2.5-0.5-3.5-1.4c-0.9-0.9-1.4-2.1-1.4-3.4c0-1.3 0.5-2.5 1.4-3.4c1-1 2.2-1.5 3.5-1.5c1.3 0 2.5 0.5 3.4 1.5c0.9 0.9 1.4 2.1 1.4 3.4c0 1.3-0.5 2.5-1.4 3.4c-0.9 0.9-2.1 1.4-3.4 1.4z" />
		<path id="Layer" class="s4" d="m276.6-125.1c0.7-0.7 1.7-1.1 2.8-1.1c2.1 0 3.9 1.8 3.9 4c0 1.1-0.4 2.1-1.1 2.8" />
	</g>
	<path id="Layer" class="s0" d="m311 116v-110.4q0-1 0.4-2q0.4-0.9 1.1-1.6q0.7-0.7 1.6-1.1q0.9-0.3 1.9-0.3h52.2q1 0 1.9 0.3q0.9 0.4 1.6 1.1q0.7 0.7 1.1 1.6q0.4 1 0.4 2v110.4q0 1-0.4 1.9q-0.4 0.9-1.1 1.6q-0.7 0.7-1.6 1.1q-0.9 0.4-1.9 0.4h-52.2q-1 0-1.9-0.4q-0.9-0.4-1.6-1.1q-0.7-0.7-1.1-1.6q-0.4-0.9-0.4-1.9z" />
	<path id="Layer" class="s0" d="m317.1 114.5v-50h50v50z" />
	<path id="Layer" class="s0" d="m317.1 56.9v-50h50v50z" />
	<g id="Layer">
		<path id="Layer" class="s1" d="m317.6 61.8h47.6" />
		<path id="Layer" class="s2" d="m317.6 59.8h47.6" />
	</g>
	<g id="Layer">
		<path id="Layer" class="s3" d="m326.9 112.7c-1.3 0-2.5-0.5-3.5-1.4c-0.9-0.9-1.4-2.1-1.4-3.4c0-1.3 0.5-2.5 1.4-3.4c1-1 2.2-1.5 3.5-1.5c1.3 0 2.5 0.5 3.4 1.5c0.9 0.9 1.4 2.1 1.4 3.4c0 1.3-0.5 2.5-1.4 3.4c-0.9 0.9-2.1 1.4-3.4 1.4z" />
		<path id="Layer" class="s4" d="m324 105c0.7-0.7 1.7-1.1 2.8-1.1c2.1 0 3.9 1.8 3.9 4c0 1.1-0.4 2.1-1.1 2.8" />
	</g>
	<g id="Layer">
		<path id="Layer" class="s3" d="m341.9 97.5c-1.3 0-2.5-0.5-3.5-1.4c-0.9-0.9-1.4-2.1-1.4-3.4c0-1.3 0.5-2.5 1.4-3.4c1-0.9 2.2-1.5 3.5-1.5c1.3 0 2.5 0.6 3.4 1.5c0.9 0.9 1.4 2.1 1.4 3.4c0 1.3-0.5 2.5-1.4 3.4c-0.9 0.9-2.1 1.4-3.4 1.4z" />
		<path id="Layer" class="s4" d="m339 89.8c0.7-0.7 1.7-1.1 2.8-1.1c2.1 0 3.9 1.8 3.9 4c0 1.1-0.4 2.1-1.1 2.8" />
	</g>
	<g id="Layer">
		<path id="Layer" class="s3" d="m326.9 82.4c-1.3 0-2.5-0.6-3.5-1.5c-0.9-0.9-1.4-2.1-1.4-3.4c0-1.3 0.5-2.5 1.4-3.4c1-0.9 2.2-1.4 3.5-1.4c1.3 0 2.5 0.5 3.4 1.4c0.9 0.9 1.4 2.1 1.4 3.4c0 1.3-0.5 2.5-1.4 3.4c-0.9 0.9-2.1 1.5-3.4 1.5z" />
		<path id="Layer" class="s4" d="m324 74.6c0.7-0.7 1.7-1.1 2.8-1.1c2.1 0 3.9 1.8 3.9 4c0 1.1-0.4 2.1-1.1 2.8" />
	</g>
	<g id="Layer">
		<path id="Layer" class="s3" d="m356.9 112.7c-1.3 0-2.5-0.5-3.5-1.4c-0.9-0.9-1.4-2.1-1.4-3.4c0-1.3 0.5-2.5 1.4-3.4c1-1 2.2-1.5 3.5-1.5c1.3 0 2.5 0.5 3.4 1.5c0.9 0.9 1.4 2.1 1.4 3.4c0 1.3-0.5 2.5-1.4 3.4c-0.9 0.9-2.1 1.4-3.4 1.4z" />
		<path id="Layer" class="s4" d="m354 105c0.7-0.7 1.7-1.1 2.8-1.1c2.1 0 3.9 1.8 3.9 4c0 1.1-0.4 2.1-1.1 2.8" />
	</g>
	<g id="Layer">
		<path id="Layer" class="s3" d="m356.9 82.4c-1.3 0-2.5-0.6-3.5-1.5c-0.9-0.9-1.4-2.1-1.4-3.4c0-1.3 0.5-2.5 1.4-3.4c1-0.9 2.2-1.4 3.5-1.4c1.3 0 2.5 0.5 3.4 1.4c0.9 0.9 1.4 2.1 1.4 3.4c0 1.3-0.5 2.5-1.4 3.4c-0.9 0.9-2.1 1.5-3.4 1.5z" />
		<path id="Layer" class="s4" d="m354 74.6c0.7-0.7 1.7-1.1 2.8-1.1c2.1 0 3.9 1.8 3.9 4c0 1.1-0.4 2.1-1.1 2.8" />
	</g>
	<g id="Layer">
		<path id="Layer" class="s3" d="m326.9 51.1c-1.3 0-2.5-0.5-3.5-1.4c-0.9-0.9-1.4-2.1-1.4-3.4c0-1.3 0.5-2.5 1.4-3.4c1-1 2.2-1.5 3.5-1.5c1.3 0 2.5 0.5 3.4 1.5c0.9 0.9 1.4 2.1 1.4 3.4c0 1.3-0.5 2.5-1.4 3.4c-0.9 0.9-2.1 1.4-3.4 1.4z" />
		<path id="Layer" class="s4" d="m324 43.4c0.7-0.7 1.7-1.1 2.8-1.1c2.1 0 3.9 1.8 3.9 4c0 1.1-0.4 2.1-1.1 2.8" />
	</g>
	<g id="Layer">
		<path id="Layer" class="s3" d="m341.9 35.9c-1.3 0-2.5-0.5-3.5-1.4c-0.9-0.9-1.4-2.1-1.4-3.4c0-1.3 0.5-2.5 1.4-3.4c1-0.9 2.2-1.5 3.5-1.5c1.3 0 2.5 0.6 3.4 1.5c0.9 0.9 1.4 2.1 1.4 3.4c0 1.3-0.5 2.5-1.4 3.4c-0.9 0.9-2.1 1.4-3.4 1.4z" />
		<path id="Layer" class="s4" d="m339 28.2c0.7-0.7 1.7-1.1 2.8-1.1c2.1 0 3.9 1.8 3.9 4c0 1.1-0.4 2.1-1.1 2.8" />
	</g>
	<g id="Layer">
		<path id="Layer" class="s3" d="m326.9 20.8c-1.3 0-2.5-0.6-3.5-1.5c-0.9-0.9-1.4-2.1-1.4-3.4c0-1.3 0.5-2.5 1.4-3.4c1-0.9 2.2-1.4 3.5-1.4c1.3 0 2.5 0.5 3.4 1.4c0.9 0.9 1.4 2.1 1.4 3.4c0 1.3-0.5 2.5-1.4 3.4c-0.9 0.9-2.1 1.5-3.4 1.5z" />
		<path id="Layer" class="s4" d="m324 13c0.7-0.7 1.7-1.1 2.8-1.1c2.1 0 3.9 1.8 3.9 4c0 1.1-0.4 2.1-1.1 2.8" />
	</g>
	<g id="Layer">
		<path id="Layer" class="s3" d="m356.9 51.1c-1.3 0-2.5-0.5-3.5-1.4c-0.9-0.9-1.4-2.1-1.4-3.4c0-1.3 0.5-2.5 1.4-3.4c1-1 2.2-1.5 3.5-1.5c1.3 0 2.5 0.5 3.4 1.5c0.9 0.9 1.4 2.1 1.4 3.4c0 1.3-0.5 2.5-1.4 3.4c-0.9 0.9-2.1 1.4-3.4 1.4z" />
		<path id="Layer" class="s4" d="m354 43.4c0.7-0.7 1.7-1.1 2.8-1.1c2.1 0 3.9 1.8 3.9 4c0 1.1-0.4 2.1-1.1 2.8" />
	</g>
	<g id="Layer">
		<path id="Layer" class="s3" d="m356.9 20.8c-1.3 0-2.5-0.6-3.5-1.5c-0.9-0.9-1.4-2.1-1.4-3.4c0-1.3 0.5-2.5 1.4-3.4c1-0.9 2.2-1.4 3.5-1.4c1.3 0 2.5 0.5 3.4 1.4c0.9 0.9 1.4 2.1 1.4 3.4c0 1.3-0.5 2.5-1.4 3.4c-0.9 0.9-2.1 1.5-3.4 1.5z" />
		<path id="Layer" class="s4" d="m354 13c0.7-0.7 1.7-1.1 2.8-1.1c2.1 0 3.9 1.8 3.9 4c0 1.1-0.4 2.1-1.1 2.8" />
	</g>
	<path id="Layer" class="s0" d="m311-22.1v-110.4q0-1 0.4-2q0.4-0.9 1.1-1.6q0.7-0.7 1.6-1.1q0.9-0.3 1.9-0.3h52.2q1 0 1.9 0.3q0.9 0.4 1.6 1.1q0.7 0.7 1.1 1.6q0.4 1 0.4 2v110.4q0 1-0.4 1.9q-0.4 0.9-1.1 1.6q-0.7 0.7-1.6 1.1q-0.9 0.4-1.9 0.4h-52.2q-1 0-1.9-0.4q-0.9-0.4-1.6-1.1q-0.7-0.7-1.1-1.6q-0.4-0.9-0.4-1.9z" />
	<path id="Layer" class="s0" d="m317.1-23.6v-50h50v50z" />
	<path id="Layer" class="s0" d="m317.1-81.2v-50h50v50z" />
	<g id="Layer">
		<path id="Layer" class="s1" d="m317.6-76.4h47.6" />
		<path id="Layer" class="s2" d="m317.6-78.4h47.6" />
	</g>
	<g id="Layer">
		<path id="Layer" class="s3" d="m326.9-25.4c-1.3 0-2.5-0.5-3.5-1.4c-0.9-0.9-1.4-2.1-1.4-3.4c0-1.3 0.5-2.5 1.4-3.5c1-0.9 2.2-1.4 3.5-1.4c1.3 0 2.5 0.5 3.4 1.4c0.9 1 1.4 2.2 1.4 3.5c0 1.3-0.5 2.5-1.4 3.4c-0.9 0.9-2.1 1.4-3.4 1.4z" />
		<path id="Layer" class="s4" d="m324-33.1c0.7-0.7 1.7-1.1 2.8-1.1c2.1 0 3.9 1.7 3.9 4c0 1.1-0.4 2.1-1.1 2.8" />
	</g>
	<g id="Layer">
		<path id="Layer" class="s3" d="m326.9-55.8c-1.3 0-2.5-0.5-3.5-1.4c-0.9-0.9-1.4-2.1-1.4-3.4c0-1.3 0.5-2.5 1.4-3.4c1-1 2.2-1.5 3.5-1.5c1.3 0 2.5 0.5 3.4 1.5c0.9 0.9 1.4 2.1 1.4 3.4c0 1.3-0.5 2.5-1.4 3.4c-0.9 0.9-2.1 1.4-3.4 1.4z" />
		<path id="Layer" class="s4" d="m324-63.5c0.7-0.7 1.7-1.1 2.8-1.1c2.1 0 3.9 1.8 3.9 4c0 1.1-0.4 2.1-1.1 2.8" />
	</g>
	<g id="Layer">
		<path id="Layer" class="s3" d="m326.9-40.6c-1.3 0-2.5-0.5-3.5-1.4c-0.9-0.9-1.4-2.1-1.4-3.4c0-1.3 0.5-2.5 1.4-3.4c1-1 2.2-1.5 3.5-1.5c1.3 0 2.5 0.5 3.4 1.5c0.9 0.9 1.4 2.1 1.4 3.4c0 1.3-0.5 2.5-1.4 3.4c-0.9 0.9-2.1 1.4-3.4 1.4z" />
		<path id="Layer" class="s4" d="m324-48.3c0.7-0.7 1.7-1.1 2.8-1.1c2.1 0 3.9 1.8 3.9 4c0 1.1-0.4 2.1-1.1 2.8" />
	</g>
	<g id="Layer">
		<path id="Layer" class="s3" d="m356.9-25.4c-1.3 0-2.5-0.5-3.5-1.4c-0.9-0.9-1.4-2.1-1.4-3.4c0-1.3 0.5-2.5 1.4-3.5c1-0.9 2.2-1.4 3.5-1.4c1.3 0 2.5 0.5 3.4 1.4c0.9 1 1.4 2.2 1.4 3.5c0 1.3-0.5 2.5-1.4 3.4c-0.9 0.9-2.1 1.4-3.4 1.4z" />
		<path id="Layer" class="s4" d="m354-33.1c0.7-0.7 1.7-1.1 2.8-1.1c2.1 0 3.9 1.7 3.9 4c0 1.1-0.4 2.1-1.1 2.8" />
	</g>
	<g id="Layer">
		<path id="Layer" class="s3" d="m356.9-55.8c-1.3 0-2.5-0.5-3.5-1.4c-0.9-0.9-1.4-2.1-1.4-3.4c0-1.3 0.5-2.5 1.4-3.4c1-1 2.2-1.5 3.5-1.5c1.3 0 2.5 0.5 3.4 1.5c0.9 0.9 1.4 2.1 1.4 3.4c0 1.3-0.5 2.5-1.4 3.4c-0.9 0.9-2.1 1.4-3.4 1.4z" />
		<path id="Layer" class="s4" d="m354-63.5c0.7-0.7 1.7-1.1 2.8-1.1c2.1 0 3.9 1.8 3.9 4c0 1.1-0.4 2.1-1.1 2.8" />
	</g>
	<g id="Layer">
		<path id="Layer" class="s3" d="m356.9-40.6c-1.3 0-2.5-0.5-3.5-1.4c-0.9-0.9-1.4-2.1-1.4-3.4c0-1.3 0.5-2.5 1.4-3.4c1-1 2.2-1.5 3.5-1.5c1.3 0 2.5 0.5 3.4 1.5c0.9 0.9 1.4 2.1 1.4 3.4c0 1.3-0.5 2.5-1.4 3.4c-0.9 0.9-2.1 1.4-3.4 1.4z" />
		<path id="Layer" class="s4" d="m354-48.3c0.7-0.7 1.7-1.1 2.8-1.1c2.1 0 3.9 1.8 3.9 4c0 1.1-0.4 2.1-1.1 2.8" />
	</g>
	<g id="Layer">
		<path id="Layer" class="s3" d="m326.9-87c-1.3 0-2.5-0.5-3.5-1.4c-0.9-0.9-1.4-2.1-1.4-3.4c0-1.3 0.5-2.5 1.4-3.4c1-1 2.2-1.5 3.5-1.5c1.3 0 2.5 0.5 3.4 1.5c0.9 0.9 1.4 2.1 1.4 3.4c0 1.3-0.5 2.5-1.4 3.4c-0.9 0.9-2.1 1.4-3.4 1.4z" />
		<path id="Layer" class="s4" d="m324-94.7c0.7-0.7 1.7-1.1 2.8-1.1c2.1 0 3.9 1.8 3.9 4c0 1.1-0.4 2.1-1.1 2.8" />
	</g>
	<g id="Layer">
		<path id="Layer" class="s3" d="m326.9-117.4c-1.3 0-2.5-0.5-3.5-1.4c-0.9-0.9-1.4-2.1-1.4-3.4c0-1.3 0.5-2.5 1.4-3.4c1-1 2.2-1.5 3.5-1.5c1.3 0 2.5 0.5 3.4 1.5c0.9 0.9 1.4 2.1 1.4 3.4c0 1.3-0.5 2.5-1.4 3.4c-0.9 0.9-2.1 1.4-3.4 1.4z" />
		<path id="Layer" class="s4" d="m324-125.1c0.7-0.7 1.7-1.1 2.8-1.1c2.1 0 3.9 1.8 3.9 4c0 1.1-0.4 2.1-1.1 2.8" />
	</g>
	<g id="Layer">
		<path id="Layer" class="s3" d="m326.9-102.2c-1.3 0-2.5-0.5-3.5-1.4c-0.9-0.9-1.4-2.1-1.4-3.4c0-1.3 0.5-2.5 1.4-3.4c1-1 2.2-1.5 3.5-1.5c1.3 0 2.5 0.5 3.4 1.5c0.9 0.9 1.4 2.1 1.4 3.4c0 1.3-0.5 2.5-1.4 3.4c-0.9 0.9-2.1 1.4-3.4 1.4z" />
		<path id="Layer" class="s4" d="m324-109.9c0.7-0.7 1.7-1.1 2.8-1.1c2.1 0 3.9 1.8 3.9 4c0 1.1-0.4 2.1-1.1 2.8" />
	</g>
	<g id="Layer">
		<path id="Layer" class="s3" d="m356.9-87c-1.3 0-2.5-0.5-3.5-1.4c-0.9-0.9-1.4-2.1-1.4-3.4c0-1.3 0.5-2.5 1.4-3.4c1-1 2.2-1.5 3.5-1.5c1.3 0 2.5 0.5 3.4 1.5c0.9 0.9 1.4 2.1 1.4 3.4c0 1.3-0.5 2.5-1.4 3.4c-0.9 0.9-2.1 1.4-3.4 1.4z" />
		<path id="Layer" class="s4" d="m354-94.7c0.7-0.7 1.7-1.1 2.8-1.1c2.1 0 3.9 1.8 3.9 4c0 1.1-0.4 2.1-1.1 2.8" />
	</g>
	<g id="Layer">
		<path id="Layer" class="s3" d="m356.9-117.4c-1.3 0-2.5-0.5-3.5-1.4c-0.9-0.9-1.4-2.1-1.4-3.4c0-1.3 0.5-2.5 1.4-3.4c1-1 2.2-1.5 3.5-1.5c1.3 0 2.5 0.5 3.4 1.5c0.9 0.9 1.4 2.1 1.4 3.4c0 1.3-0.5 2.5-1.4 3.4c-0.9 0.9-2.1 1.4-3.4 1.4z" />
		<path id="Layer" class="s4" d="m354-125.1c0.7-0.7 1.7-1.1 2.8-1.1c2.1 0 3.9 1.8 3.9 4c0 1.1-0.4 2.1-1.1 2.8" />
	</g>
	<g id="Layer">
		<path id="Layer" class="s3" d="m356.9-102.2c-1.3 0-2.5-0.5-3.5-1.4c-0.9-0.9-1.4-2.1-1.4-3.4c0-1.3 0.5-2.5 1.4-3.4c1-1 2.2-1.5 3.5-1.5c1.3 0 2.5 0.5 3.4 1.5c0.9 0.9 1.4 2.1 1.4 3.4c0 1.3-0.5 2.5-1.4 3.4c-0.9 0.9-2.1 1.4-3.4 1.4z" />
		<path id="Layer" class="s4" d="m354-109.9c0.7-0.7 1.7-1.1 2.8-1.1c2.1 0 3.9 1.8 3.9 4c0 1.1-0.4 2.1-1.1 2.8" />
	</g>
</svg>