<svg version="1.2" xmlns="http://www.w3.org/2000/svg" viewBox="0 0 64 122" width="64" height="122">
	<title>domino-161746-svg</title>
	<style>
		.s0 { fill: #000000 } 
		.s1 { fill: none;stroke: #323232;stroke-linecap: round;stroke-width: 2 } 
		.s2 { fill: none;stroke: #969696;stroke-linecap: round;stroke-width: 2 } 
		.s3 { fill: #ffffff;stroke: #323232;stroke-linecap: round;stroke-linejoin: round;stroke-width: 2 } 
		.s4 { fill: none;stroke: #969696;stroke-linecap: round;stroke-linejoin: round;stroke-width: 1.6 } 
	</style>
	<path id="Layer" class="s0" d="m-230.9 254.2v-110.4q0.1-1 0.4-1.9q0.4-0.9 1.1-1.6q0.7-0.7 1.6-1.1q1-0.4 1.9-0.4h52.2q1 0 1.9 0.4q1 0.4 1.7 1.1q0.7 0.7 1 1.6q0.4 0.9 0.4 1.9v110.4q0 1-0.4 1.9q-0.3 0.9-1 1.6q-0.7 0.7-1.7 1.1q-0.9 0.4-1.9 0.4h-52.2q-0.9 0-1.9-0.4q-0.9-0.4-1.6-1.1q-0.7-0.7-1.1-1.6q-0.3-0.9-0.4-1.9z" />
	<path id="Layer" class="s0" d="m-224.8 195.2v-50h50v50z" />
	<g id="Layer">
		<path id="Layer" class="s1" d="m-224.3 200h47.6" />
		<path id="Layer" class="s2" d="m-224.3 198h47.6" />
	</g>
	<g id="Layer">
		<path id="Layer" class="s3" d="m-215 189.4c-1.3 0-2.5-0.5-3.4-1.5c-0.9-0.9-1.4-2.1-1.4-3.4c0-1.3 0.5-2.5 1.4-3.4c0.9-0.9 2.1-1.4 3.4-1.4c1.3 0 2.5 0.5 3.5 1.4c0.9 0.9 1.4 2.1 1.4 3.4c0 1.3-0.5 2.5-1.4 3.4c-1 1-2.2 1.5-3.5 1.5z" />
		<path id="Layer" class="s4" d="m-217.8 181.6c0.7-0.7 1.7-1.1 2.7-1.1c2.2 0 4 1.8 4 4c0 1.1-0.5 2.1-1.2 2.8" />
	</g>
	<g id="Layer">
		<path id="Layer" class="s3" d="m-215 159c-1.3 0-2.5-0.5-3.4-1.4c-0.9-0.9-1.4-2.2-1.4-3.5c0-1.3 0.5-2.5 1.4-3.4c0.9-0.9 2.1-1.4 3.4-1.4c1.3 0 2.5 0.5 3.5 1.4c0.9 0.9 1.4 2.1 1.4 3.4c0 1.3-0.5 2.6-1.4 3.5c-1 0.9-2.2 1.4-3.5 1.4z" />
		<path id="Layer" class="s4" d="m-217.8 151.2c0.7-0.7 1.7-1.1 2.7-1.1c2.2 0 4 1.8 4 4c0 1.1-0.5 2.1-1.2 2.9" />
	</g>
	<g id="Layer">
		<path id="Layer" class="s3" d="m-185 189.4c-1.3 0-2.5-0.5-3.4-1.5c-0.9-0.9-1.4-2.1-1.4-3.4c0-1.3 0.5-2.5 1.4-3.4c0.9-0.9 2.1-1.4 3.4-1.4c1.3 0 2.5 0.5 3.5 1.4c0.9 0.9 1.4 2.1 1.4 3.4c0 1.3-0.5 2.5-1.4 3.4c-1 1-2.2 1.5-3.5 1.5z" />
		<path id="Layer" class="s4" d="m-187.8 181.6c0.7-0.7 1.7-1.1 2.7-1.1c2.2 0 4 1.8 4 4c0 1.1-0.5 2.1-1.2 2.8" />
	</g>
	<g id="Layer">
		<path id="Layer" class="s3" d="m-185 159c-1.3 0-2.5-0.5-3.4-1.4c-0.9-0.9-1.4-2.2-1.4-3.5c0-1.3 0.5-2.5 1.4-3.4c0.9-0.9 2.1-1.4 3.4-1.4c1.3 0 2.5 0.5 3.5 1.4c0.9 0.9 1.4 2.1 1.4 3.4c0 1.3-0.5 2.6-1.4 3.5c-1 0.9-2.2 1.4-3.5 1.4z" />
		<path id="Layer" class="s4" d="m-187.8 151.2c0.7-0.7 1.7-1.1 2.7-1.1c2.2 0 4 1.8 4 4c0 1.1-0.5 2.1-1.2 2.9" />
	</g>
	<path id="Layer" class="s0" d="m-308.2 254.2v-110.4q0-1 0.4-1.9q0.3-0.9 1-1.6q0.7-0.7 1.7-1.1q0.9-0.4 1.9-0.4h52.1q1 0 2 0.4q0.9 0.4 1.6 1.1q0.7 0.7 1.1 1.6q0.3 0.9 0.3 1.9v110.4q0 1-0.3 1.9q-0.4 0.9-1.1 1.6q-0.7 0.7-1.6 1.1q-1 0.4-2 0.4h-52.1q-1 0-1.9-0.4q-1-0.4-1.7-1.1q-0.7-0.7-1-1.6q-0.4-0.9-0.4-1.9z" />
	<path id="Layer" class="s0" d="m-302.1 252.7v-50h50v50z" />
	<path id="Layer" class="s0" d="m-302.1 195.2v-50h50v50z" />
	<g id="Layer">
		<path id="Layer" class="s1" d="m-301.7 200h47.7" />
		<path id="Layer" class="s2" d="m-301.7 198h47.7" />
	</g>
	<path id="Layer" class="s0" d="m-308.2 116.1v-110.4q0-1 0.4-1.9q0.3-1 1-1.7q0.7-0.7 1.7-1q0.9-0.4 1.9-0.4h52.1q1 0 2 0.4q0.9 0.3 1.6 1q0.7 0.7 1.1 1.7q0.3 0.9 0.3 1.9v110.4q0 1-0.3 1.9q-0.4 0.9-1.1 1.6q-0.7 0.7-1.6 1.1q-1 0.4-2 0.4h-52.1q-1 0-1.9-0.4q-1-0.4-1.7-1.1q-0.7-0.7-1-1.6q-0.4-0.9-0.4-1.9z" />
	<path id="Layer" class="s0" d="m-302.1 114.6v-50h50v50z" />
	<path id="Layer" class="s0" d="m-302.1 57v-50h50v50z" />
	<g id="Layer">
		<path id="Layer" class="s1" d="m-301.7 61.9h47.7" />
		<path id="Layer" class="s2" d="m-301.7 59.9h47.7" />
	</g>
	<g id="Layer">
		<path id="Layer" class="s3" d="m-277.4 36.1c-1.2 0-2.5-0.6-3.4-1.5c-0.9-0.9-1.4-2.1-1.4-3.4c0-1.3 0.5-2.5 1.4-3.4c0.9-0.9 2.2-1.4 3.4-1.4c1.3 0 2.6 0.5 3.5 1.4c0.9 0.9 1.4 2.1 1.4 3.4c0 1.3-0.5 2.5-1.4 3.4c-0.9 0.9-2.2 1.5-3.5 1.5z" />
		<path id="Layer" class="s4" d="m-280.2 28.3c0.7-0.7 1.7-1.1 2.7-1.1c2.2 0 4 1.8 4 4c0 1.1-0.5 2.1-1.2 2.8" />
	</g>
	<path id="Layer" class="s0" d="m-230.9 116.1v-110.4q0.1-1 0.4-1.9q0.4-1 1.1-1.7q0.7-0.7 1.6-1q1-0.4 1.9-0.4h52.2q1 0 1.9 0.4q1 0.3 1.7 1q0.7 0.7 1 1.7q0.4 0.9 0.4 1.9v110.4q0 1-0.4 1.9q-0.3 0.9-1 1.6q-0.7 0.7-1.7 1.1q-0.9 0.4-1.9 0.4h-52.2q-0.9 0-1.9-0.4q-0.9-0.4-1.6-1.1q-0.7-0.7-1.1-1.6q-0.3-0.9-0.4-1.9z" />
	<path id="Layer" class="s0" d="m-224.8 114.6v-50h50v50z" />
	<path id="Layer" class="s0" d="m-224.8 57v-50h50v50z" />
	<g id="Layer">
		<path id="Layer" class="s1" d="m-224.3 61.9h47.6" />
		<path id="Layer" class="s2" d="m-224.3 59.9h47.6" />
	</g>
	<g id="Layer">
		<path id="Layer" class="s3" d="m-215 51.3c-1.3 0-2.5-0.6-3.4-1.5c-0.9-0.9-1.4-2.1-1.4-3.4c0-1.3 0.5-2.5 1.4-3.4c0.9-0.9 2.1-1.4 3.4-1.4c1.3 0 2.5 0.5 3.5 1.4c0.9 0.9 1.4 2.1 1.4 3.4c0 1.3-0.5 2.5-1.4 3.4c-1 0.9-2.2 1.5-3.5 1.5z" />
		<path id="Layer" class="s4" d="m-217.8 43.5c0.7-0.7 1.7-1.1 2.7-1.1c2.2 0 4 1.8 4 4c0 1.1-0.5 2.1-1.2 2.8" />
	</g>
	<g id="Layer">
		<path id="Layer" class="s3" d="m-200 36.1c-1.3 0-2.5-0.6-3.4-1.5c-0.9-0.9-1.4-2.1-1.4-3.4c0-1.3 0.5-2.5 1.4-3.4c0.9-0.9 2.1-1.4 3.4-1.4c1.3 0 2.5 0.5 3.5 1.4c0.9 0.9 1.4 2.1 1.4 3.4c0 1.3-0.5 2.5-1.4 3.4c-1 0.9-2.2 1.5-3.5 1.5z" />
		<path id="Layer" class="s4" d="m-202.8 28.3c0.7-0.7 1.7-1.1 2.7-1.1c2.2 0 4 1.8 4 4c0 1.1-0.5 2.1-1.2 2.8" />
	</g>
	<g id="Layer">
		<path id="Layer" class="s3" d="m-215 20.9c-1.3 0-2.5-0.5-3.4-1.5c-0.9-0.9-1.4-2.1-1.4-3.4c0-1.3 0.5-2.5 1.4-3.4c0.9-0.9 2.1-1.4 3.4-1.4c1.3 0 2.5 0.5 3.5 1.4c0.9 0.9 1.4 2.1 1.4 3.4c0 1.3-0.5 2.5-1.4 3.4c-1 1-2.2 1.5-3.5 1.5z" />
		<path id="Layer" class="s4" d="m-217.8 13.1c0.7-0.7 1.7-1.1 2.7-1.1c2.2 0 4 1.8 4 4c0 1.1-0.5 2.1-1.2 2.8" />
	</g>
	<g id="Layer">
		<path id="Layer" class="s3" d="m-185 51.3c-1.3 0-2.5-0.6-3.4-1.5c-0.9-0.9-1.4-2.1-1.4-3.4c0-1.3 0.5-2.5 1.4-3.4c0.9-0.9 2.1-1.4 3.4-1.4c1.3 0 2.5 0.5 3.5 1.4c0.9 0.9 1.4 2.1 1.4 3.4c0 1.3-0.5 2.5-1.4 3.4c-1 0.9-2.2 1.5-3.5 1.5z" />
		<path id="Layer" class="s4" d="m-187.8 43.5c0.7-0.7 1.7-1.1 2.7-1.1c2.2 0 4 1.8 4 4c0 1.1-0.5 2.1-1.2 2.8" />
	</g>
	<g id="Layer">
		<path id="Layer" class="s3" d="m-185 20.9c-1.3 0-2.5-0.5-3.4-1.5c-0.9-0.9-1.4-2.1-1.4-3.4c0-1.3 0.5-2.5 1.4-3.4c0.9-0.9 2.1-1.4 3.4-1.4c1.3 0 2.5 0.5 3.5 1.4c0.9 0.9 1.4 2.1 1.4 3.4c0 1.3-0.5 2.5-1.4 3.4c-1 1-2.2 1.5-3.5 1.5z" />
		<path id="Layer" class="s4" d="m-187.8 13.1c0.7-0.7 1.7-1.1 2.7-1.1c2.2 0 4 1.8 4 4c0 1.1-0.5 2.1-1.2 2.8" />
	</g>
	<path id="Layer" class="s0" d="m-153.5 254.2v-110.4q0-1 0.4-1.9q0.4-0.9 1.1-1.6q0.7-0.7 1.6-1.1q0.9-0.4 1.9-0.4h52.2q1 0 1.9 0.4q0.9 0.4 1.6 1.1q0.7 0.7 1.1 1.6q0.4 0.9 0.4 1.9v110.4q0 1-0.4 1.9q-0.4 0.9-1.1 1.6q-0.7 0.7-1.6 1.1q-0.9 0.4-1.9 0.4h-52.2q-1 0-1.9-0.4q-0.9-0.4-1.6-1.1q-0.7-0.7-1.1-1.6q-0.4-0.9-0.4-1.9z" />
	<path id="Layer" class="s0" d="m-147.4 252.7v-50h50v50z" />
	<path id="Layer" class="s0" d="m-147.4 195.2v-50h50v50z" />
	<g id="Layer">
		<path id="Layer" class="s1" d="m-146.9 200h47.6" />
		<path id="Layer" class="s2" d="m-146.9 198h47.6" />
	</g>
	<g id="Layer">
		<path id="Layer" class="s3" d="m-122.6 235.8c-1.3 0-2.5-0.5-3.4-1.5c-0.9-0.9-1.5-2.1-1.5-3.4c0-1.3 0.6-2.5 1.5-3.4c0.9-0.9 2.1-1.4 3.4-1.4c1.3 0 2.5 0.5 3.4 1.4c0.9 0.9 1.4 2.1 1.4 3.4c0 1.3-0.5 2.5-1.4 3.4c-0.9 1-2.1 1.5-3.4 1.5z" />
		<path id="Layer" class="s4" d="m-125.4 228c0.7-0.7 1.6-1.1 2.7-1.1c2.2 0 3.9 1.8 3.9 4c0 1.1-0.4 2.1-1.1 2.8" />
	</g>
	<g id="Layer">
		<path id="Layer" class="s3" d="m-137.6 189.4c-1.3 0-2.5-0.5-3.4-1.5c-0.9-0.9-1.5-2.1-1.5-3.4c0-1.3 0.6-2.5 1.5-3.4c0.9-0.9 2.1-1.4 3.4-1.4c1.3 0 2.5 0.5 3.4 1.4c0.9 0.9 1.4 2.1 1.4 3.4c0 1.3-0.5 2.5-1.4 3.4c-0.9 1-2.1 1.5-3.4 1.5z" />
		<path id="Layer" class="s4" d="m-140.4 181.6c0.7-0.7 1.6-1.1 2.7-1.1c2.2 0 3.9 1.8 3.9 4c0 1.1-0.4 2.1-1.1 2.8" />
	</g>
	<g id="Layer">
		<path id="Layer" class="s3" d="m-122.6 174.2c-1.3 0-2.5-0.5-3.4-1.4c-0.9-1-1.5-2.2-1.5-3.5c0-1.3 0.6-2.5 1.5-3.4c0.9-0.9 2.1-1.4 3.4-1.4c1.3 0 2.5 0.5 3.4 1.4c0.9 0.9 1.4 2.1 1.4 3.4c0 1.3-0.5 2.5-1.4 3.5c-0.9 0.9-2.1 1.4-3.4 1.4z" />
		<path id="Layer" class="s4" d="m-125.4 166.4c0.7-0.7 1.6-1.1 2.7-1.1c2.2 0 3.9 1.8 3.9 4c0 1.1-0.4 2.1-1.1 2.8" />
	</g>
	<g id="Layer">
		<path id="Layer" class="s3" d="m-107.6 159c-1.3 0-2.5-0.5-3.4-1.4c-0.9-0.9-1.5-2.2-1.5-3.5c0-1.3 0.6-2.5 1.5-3.4c0.9-0.9 2.1-1.4 3.4-1.4c1.3 0 2.5 0.5 3.4 1.4c0.9 0.9 1.4 2.1 1.4 3.4c0 1.3-0.5 2.6-1.4 3.5c-0.9 0.9-2.1 1.4-3.4 1.4z" />
		<path id="Layer" class="s4" d="m-110.4 151.2c0.7-0.7 1.6-1.1 2.7-1.1c2.2 0 3.9 1.8 3.9 4c0 1.1-0.4 2.1-1.1 2.9" />
	</g>
	<path id="Layer" class="s0" d="m-153.5 116.1v-110.4q0-1 0.4-1.9q0.4-1 1.1-1.7q0.7-0.7 1.6-1q0.9-0.4 1.9-0.4h52.2q1 0 1.9 0.4q0.9 0.3 1.6 1q0.7 0.7 1.1 1.7q0.4 0.9 0.4 1.9v110.4q0 1-0.4 1.9q-0.4 0.9-1.1 1.6q-0.7 0.7-1.6 1.1q-0.9 0.4-1.9 0.4h-52.2q-1 0-1.9-0.4q-0.9-0.4-1.6-1.1q-0.7-0.7-1.1-1.6q-0.4-0.9-0.4-1.9z" />
	<path id="Layer" class="s0" d="m-147.4 114.6v-50h50v50z" />
	<path id="Layer" class="s0" d="m-147.4 57v-50h50v50z" />
	<g id="Layer">
		<path id="Layer" class="s1" d="m-146.9 61.9h47.6" />
		<path id="Layer" class="s2" d="m-146.9 59.9h47.6" />
	</g>
	<g id="Layer">
		<path id="Layer" class="s3" d="m-122.6 97.7c-1.3 0-2.5-0.6-3.4-1.5c-0.9-0.9-1.5-2.1-1.5-3.4c0-1.3 0.6-2.5 1.5-3.4c0.9-0.9 2.1-1.4 3.4-1.4c1.3 0 2.5 0.5 3.4 1.4c0.9 0.9 1.4 2.1 1.4 3.4c0 1.3-0.5 2.5-1.4 3.4c-0.9 0.9-2.1 1.5-3.4 1.5z" />
		<path id="Layer" class="s4" d="m-125.4 89.9c0.7-0.7 1.6-1.1 2.7-1.1c2.2 0 3.9 1.8 3.9 4c0 1.1-0.4 2.1-1.1 2.8" />
	</g>
	<g id="Layer">
		<path id="Layer" class="s3" d="m-137.6 51.3c-1.3 0-2.5-0.6-3.4-1.5c-0.9-0.9-1.5-2.1-1.5-3.4c0-1.3 0.6-2.5 1.5-3.4c0.9-0.9 2.1-1.4 3.4-1.4c1.3 0 2.5 0.5 3.4 1.4c0.9 0.9 1.4 2.1 1.4 3.4c0 1.3-0.5 2.5-1.4 3.4c-0.9 0.9-2.1 1.5-3.4 1.5z" />
		<path id="Layer" class="s4" d="m-140.4 43.5c0.7-0.7 1.6-1.1 2.7-1.1c2.2 0 3.9 1.8 3.9 4c0 1.1-0.4 2.1-1.1 2.8" />
	</g>
	<g id="Layer">
		<path id="Layer" class="s3" d="m-137.6 20.9c-1.3 0-2.5-0.5-3.4-1.5c-0.9-0.9-1.5-2.1-1.5-3.4c0-1.3 0.6-2.5 1.5-3.4c0.9-0.9 2.1-1.4 3.4-1.4c1.3 0 2.5 0.5 3.4 1.4c0.9 0.9 1.4 2.1 1.4 3.4c0 1.3-0.5 2.5-1.4 3.4c-0.9 1-2.1 1.5-3.4 1.5z" />
		<path id="Layer" class="s4" d="m-140.4 13.1c0.7-0.7 1.6-1.1 2.7-1.1c2.2 0 3.9 1.8 3.9 4c0 1.1-0.4 2.1-1.1 2.8" />
	</g>
	<g id="Layer">
		<path id="Layer" class="s3" d="m-107.6 51.3c-1.3 0-2.5-0.6-3.4-1.5c-0.9-0.9-1.5-2.1-1.5-3.4c0-1.3 0.6-2.5 1.5-3.4c0.9-0.9 2.1-1.4 3.4-1.4c1.3 0 2.5 0.5 3.4 1.4c0.9 0.9 1.4 2.1 1.4 3.4c0 1.3-0.5 2.5-1.4 3.4c-0.9 0.9-2.1 1.5-3.4 1.5z" />
		<path id="Layer" class="s4" d="m-110.4 43.5c0.7-0.7 1.6-1.1 2.7-1.1c2.2 0 3.9 1.8 3.9 4c0 1.1-0.4 2.1-1.1 2.8" />
	</g>
	<g id="Layer">
		<path id="Layer" class="s3" d="m-107.6 20.9c-1.3 0-2.5-0.5-3.4-1.5c-0.9-0.9-1.5-2.1-1.5-3.4c0-1.3 0.6-2.5 1.5-3.4c0.9-0.9 2.1-1.4 3.4-1.4c1.3 0 2.5 0.5 3.4 1.4c0.9 0.9 1.4 2.1 1.4 3.4c0 1.3-0.5 2.5-1.4 3.4c-0.9 1-2.1 1.5-3.4 1.5z" />
		<path id="Layer" class="s4" d="m-110.4 13.1c0.7-0.7 1.6-1.1 2.7-1.1c2.2 0 3.9 1.8 3.9 4c0 1.1-0.4 2.1-1.1 2.8" />
	</g>
	<path id="Layer" class="s0" d="m-230.8-22v-110.4q0-1 0.3-2q0.4-0.9 1.1-1.6q0.7-0.7 1.6-1.1q1-0.3 2-0.3h52.1q1 0 1.9 0.3q1 0.4 1.7 1.1q0.7 0.7 1 1.6q0.4 1 0.4 2v110.4q0 1-0.4 1.9q-0.3 0.9-1 1.6q-0.7 0.7-1.7 1.1q-0.9 0.4-1.9 0.4h-52.2q-0.9 0-1.9-0.4q-0.9-0.4-1.6-1.1q-0.7-0.7-1.1-1.6q-0.3-0.9-0.3-1.9z" />
	<path id="Layer" class="s0" d="m-224.8-23.5v-50h50v50z" />
	<path id="Layer" class="s0" d="m-224.8-81.1v-50h50v50z" />
	<g id="Layer">
		<path id="Layer" class="s1" d="m-224.3-76.3h47.6" />
		<path id="Layer" class="s2" d="m-224.3-78.3h47.6" />
	</g>
	<g id="Layer">
		<path id="Layer" class="s3" d="m-215-86.9c-1.3 0-2.5-0.5-3.4-1.4c-0.9-0.9-1.4-2.1-1.4-3.4c0-1.3 0.5-2.5 1.4-3.4c0.9-1 2.1-1.5 3.4-1.5c1.3 0 2.5 0.5 3.5 1.5c0.9 0.9 1.4 2.1 1.4 3.4c0 1.3-0.5 2.5-1.4 3.4c-1 0.9-2.2 1.4-3.5 1.4z" />
		<path id="Layer" class="s4" d="m-217.8-94.6c0.7-0.7 1.7-1.1 2.7-1.1c2.2 0 4 1.8 4 4c0 1.1-0.5 2.1-1.2 2.8" />
	</g>
	<g id="Layer">
		<path id="Layer" class="s3" d="m-215-117.2c-1.3 0-2.5-0.6-3.4-1.5c-0.9-0.9-1.4-2.1-1.4-3.4c0-1.3 0.5-2.5 1.4-3.4c0.9-0.9 2.1-1.4 3.4-1.4c1.3 0 2.5 0.5 3.5 1.4c0.9 0.9 1.4 2.1 1.4 3.4c0 1.3-0.5 2.5-1.4 3.4c-1 0.9-2.2 1.5-3.5 1.5z" />
		<path id="Layer" class="s4" d="m-217.8-125c0.7-0.7 1.7-1.1 2.7-1.1c2.2 0 4 1.8 4 4c0 1.1-0.5 2.1-1.2 2.8" />
	</g>
	<g id="Layer">
		<path id="Layer" class="s3" d="m-215-102.1c-1.3 0-2.5-0.5-3.4-1.4c-0.9-0.9-1.4-2.1-1.4-3.4c0-1.3 0.5-2.5 1.4-3.4c0.9-0.9 2.1-1.5 3.4-1.5c1.3 0 2.5 0.6 3.5 1.5c0.9 0.9 1.4 2.1 1.4 3.4c0 1.3-0.5 2.5-1.4 3.4c-1 0.9-2.2 1.4-3.5 1.4z" />
		<path id="Layer" class="s4" d="m-217.8-109.8c0.7-0.7 1.7-1.1 2.7-1.1c2.2 0 4 1.8 4 4c0 1.1-0.5 2.1-1.2 2.8" />
	</g>
	<g id="Layer">
		<path id="Layer" class="s3" d="m-185-86.9c-1.3 0-2.5-0.5-3.4-1.4c-0.9-0.9-1.4-2.1-1.4-3.4c0-1.3 0.5-2.5 1.4-3.4c0.9-1 2.1-1.5 3.4-1.5c1.3 0 2.5 0.5 3.5 1.5c0.9 0.9 1.4 2.1 1.4 3.4c0 1.3-0.5 2.5-1.4 3.4c-1 0.9-2.2 1.4-3.5 1.4z" />
		<path id="Layer" class="s4" d="m-187.8-94.6c0.7-0.7 1.7-1.1 2.7-1.1c2.2 0 4 1.8 4 4c0 1.1-0.5 2.1-1.2 2.8" />
	</g>
	<g id="Layer">
		<path id="Layer" class="s3" d="m-185-117.2c-1.3 0-2.5-0.6-3.4-1.5c-0.9-0.9-1.4-2.1-1.4-3.4c0-1.3 0.5-2.5 1.4-3.4c0.9-0.9 2.1-1.4 3.4-1.4c1.3 0 2.5 0.5 3.5 1.4c0.9 0.9 1.4 2.1 1.4 3.4c0 1.3-0.5 2.5-1.4 3.4c-1 0.9-2.2 1.5-3.5 1.5z" />
		<path id="Layer" class="s4" d="m-187.8-125c0.7-0.7 1.7-1.1 2.7-1.1c2.2 0 4 1.8 4 4c0 1.1-0.5 2.1-1.2 2.8" />
	</g>
	<g id="Layer">
		<path id="Layer" class="s3" d="m-185-102.1c-1.3 0-2.5-0.5-3.4-1.4c-0.9-0.9-1.4-2.1-1.4-3.4c0-1.3 0.5-2.5 1.4-3.4c0.9-0.9 2.1-1.5 3.4-1.5c1.3 0 2.5 0.6 3.5 1.5c0.9 0.9 1.4 2.1 1.4 3.4c0 1.3-0.5 2.5-1.4 3.4c-1 0.9-2.2 1.4-3.5 1.4z" />
		<path id="Layer" class="s4" d="m-187.8-109.8c0.7-0.7 1.7-1.1 2.7-1.1c2.2 0 4 1.8 4 4c0 1.1-0.5 2.1-1.2 2.8" />
	</g>
	<path id="Layer" class="s0" d="m-308.2-22v-110.4q0-1 0.4-2q0.3-0.9 1-1.6q0.7-0.7 1.7-1.1q0.9-0.3 1.9-0.3h52.1q1 0 2 0.3q0.9 0.4 1.6 1.1q0.7 0.7 1.1 1.6q0.3 1 0.3 2v110.4q0 1-0.3 1.9q-0.4 0.9-1.1 1.6q-0.7 0.7-1.6 1.1q-1 0.4-2 0.4h-52.1q-1 0-1.9-0.4q-1-0.4-1.7-1.1q-0.7-0.7-1-1.6q-0.4-0.9-0.4-1.9z" />
	<path id="Layer" class="s0" d="m-302.1-23.5v-50h50v50z" />
	<path id="Layer" class="s0" d="m-302.1-81.1v-50h50v50z" />
	<g id="Layer">
		<path id="Layer" class="s1" d="m-301.7-76.3h47.7" />
		<path id="Layer" class="s2" d="m-301.7-78.3h47.7" />
	</g>
	<g id="Layer">
		<path id="Layer" class="s3" d="m-292.4-86.9c-1.2 0-2.5-0.5-3.4-1.4c-0.9-0.9-1.4-2.1-1.4-3.4c0-1.3 0.5-2.5 1.4-3.4c0.9-1 2.2-1.5 3.4-1.5c1.3 0 2.6 0.5 3.5 1.5c0.9 0.9 1.4 2.1 1.4 3.4c0 1.3-0.5 2.5-1.4 3.4c-0.9 0.9-2.2 1.4-3.5 1.4z" />
		<path id="Layer" class="s4" d="m-295.2-94.6c0.7-0.7 1.7-1.1 2.7-1.1c2.2 0 4 1.8 4 4c0 1.1-0.5 2.1-1.2 2.8" />
	</g>
	<g id="Layer">
		<path id="Layer" class="s3" d="m-262.4-117.2c-1.2 0-2.5-0.6-3.4-1.5c-0.9-0.9-1.4-2.1-1.4-3.4c0-1.3 0.5-2.5 1.4-3.4c0.9-0.9 2.2-1.4 3.4-1.4c1.3 0 2.6 0.5 3.5 1.4c0.9 0.9 1.4 2.1 1.4 3.4c0 1.3-0.5 2.5-1.4 3.4c-0.9 0.9-2.2 1.5-3.5 1.5z" />
		<path id="Layer" class="s4" d="m-265.2-125c0.7-0.7 1.7-1.1 2.7-1.1c2.2 0 4 1.8 4 4c0 1.1-0.5 2.1-1.2 2.8" />
	</g>
	<path id="Layer" class="s0" d="m-308.2-160.1v-110.4q0-1 0.4-2q0.3-0.9 1-1.6q0.7-0.7 1.7-1.1q0.9-0.3 1.9-0.3h52.1q1 0 2 0.3q0.9 0.4 1.6 1.1q0.7 0.7 1.1 1.6q0.3 1 0.3 2v110.4q0 1-0.3 1.9q-0.4 0.9-1.1 1.6q-0.7 0.7-1.6 1.1q-1 0.4-2 0.4h-52.1q-1 0-1.9-0.4q-1-0.4-1.7-1.1q-0.7-0.7-1-1.6q-0.4-0.9-0.4-1.9z" />
	<path id="Layer" class="s0" d="m-302.1-161.6v-50h50v50z" />
	<path id="Layer" class="s0" d="m-302.1-219.2v-50h50v50z" />
	<g id="Layer">
		<path id="Layer" class="s1" d="m-301.7-214.4h47.7" />
		<path id="Layer" class="s2" d="m-301.7-216.4h47.7" />
	</g>
	<g id="Layer">
		<path id="Layer" class="s3" d="m-292.4-225c-1.2 0-2.5-0.5-3.4-1.4c-0.9-0.9-1.4-2.1-1.4-3.4c0-1.3 0.5-2.5 1.4-3.4c0.9-1 2.2-1.5 3.4-1.5c1.3 0 2.6 0.5 3.5 1.5c0.9 0.9 1.4 2.1 1.4 3.4c0 1.3-0.5 2.5-1.4 3.4c-0.9 0.9-2.2 1.4-3.5 1.4z" />
		<path id="Layer" class="s4" d="m-295.2-232.7c0.7-0.7 1.7-1.1 2.7-1.1c2.2 0 4 1.8 4 4c0 1.1-0.5 2.1-1.2 2.8" />
	</g>
	<g id="Layer">
		<path id="Layer" class="s3" d="m-277.4-240.2c-1.2 0-2.5-0.5-3.4-1.4c-0.9-0.9-1.4-2.1-1.4-3.4c0-1.3 0.5-2.5 1.4-3.4c0.9-1 2.2-1.5 3.4-1.5c1.3 0 2.6 0.5 3.5 1.5c0.9 0.9 1.4 2.1 1.4 3.4c0 1.3-0.5 2.5-1.4 3.4c-0.9 0.9-2.2 1.4-3.5 1.4z" />
		<path id="Layer" class="s4" d="m-280.2-247.9c0.7-0.7 1.7-1.1 2.7-1.1c2.2 0 4 1.8 4 4c0 1.1-0.5 2.1-1.2 2.8" />
	</g>
	<g id="Layer">
		<path id="Layer" class="s3" d="m-262.4-255.4c-1.2 0-2.5-0.5-3.4-1.4c-0.9-0.9-1.4-2.1-1.4-3.4c0-1.3 0.5-2.5 1.4-3.4c0.9-1 2.2-1.5 3.4-1.5c1.3 0 2.6 0.5 3.5 1.5c0.9 0.9 1.4 2.1 1.4 3.4c0 1.3-0.5 2.5-1.4 3.4c-0.9 0.9-2.2 1.4-3.5 1.4z" />
		<path id="Layer" class="s4" d="m-265.2-263.1c0.7-0.7 1.7-1.1 2.7-1.1c2.2 0 4 1.8 4 4c0 1.1-0.5 2.1-1.2 2.8" />
	</g>
	<path id="Layer" class="s0" d="m-230.8-160.1v-110.4q0-1 0.3-2q0.4-0.9 1.1-1.6q0.7-0.7 1.6-1.1q1-0.3 2-0.3h52.1q1 0 1.9 0.3q1 0.4 1.7 1.1q0.7 0.7 1 1.6q0.4 1 0.4 2v110.4q0 1-0.4 1.9q-0.3 0.9-1 1.6q-0.7 0.7-1.7 1.1q-0.9 0.4-1.9 0.4h-52.1q-1 0-2-0.4q-0.9-0.4-1.6-1.1q-0.7-0.7-1.1-1.6q-0.3-0.9-0.3-1.9z" />
	<path id="Layer" class="s0" d="m-224.8-161.6v-50h50v50z" />
	<path id="Layer" class="s0" d="m-224.8-219.2v-50h50v50z" />
	<g id="Layer">
		<path id="Layer" class="s1" d="m-224.3-214.4h47.6" />
		<path id="Layer" class="s2" d="m-224.3-216.4h47.6" />
	</g>
	<g id="Layer">
		<path id="Layer" class="s3" d="m-200-178.6c-1.3 0-2.5-0.5-3.4-1.4c-0.9-0.9-1.4-2.1-1.4-3.4c0-1.3 0.5-2.5 1.4-3.4c0.9-1 2.1-1.5 3.4-1.5c1.3 0 2.5 0.5 3.5 1.5c0.9 0.9 1.4 2.1 1.4 3.4c0 1.3-0.5 2.5-1.4 3.4c-1 0.9-2.2 1.4-3.5 1.4z" />
		<path id="Layer" class="s4" d="m-202.8-186.3c0.7-0.7 1.7-1.1 2.7-1.1c2.2 0 4 1.8 4 4c0 1.1-0.5 2.1-1.2 2.8" />
	</g>
	<g id="Layer">
		<path id="Layer" class="s3" d="m-215-225c-1.3 0-2.5-0.5-3.4-1.4c-0.9-0.9-1.4-2.1-1.4-3.4c0-1.3 0.5-2.5 1.4-3.4c0.9-1 2.1-1.5 3.4-1.5c1.3 0 2.5 0.5 3.5 1.5c0.9 0.9 1.4 2.1 1.4 3.4c0 1.3-0.5 2.5-1.4 3.4c-1 0.9-2.2 1.4-3.5 1.4z" />
		<path id="Layer" class="s4" d="m-217.8-232.7c0.7-0.7 1.7-1.1 2.7-1.1c2.2 0 4 1.8 4 4c0 1.1-0.5 2.1-1.2 2.8" />
	</g>
	<g id="Layer">
		<path id="Layer" class="s3" d="m-185-255.4c-1.3 0-2.5-0.5-3.4-1.4c-0.9-0.9-1.4-2.1-1.4-3.4c0-1.3 0.5-2.5 1.4-3.4c0.9-1 2.1-1.5 3.4-1.5c1.3 0 2.5 0.5 3.5 1.5c0.9 0.9 1.4 2.1 1.4 3.4c0 1.3-0.5 2.5-1.4 3.4c-1 0.9-2.2 1.4-3.5 1.4z" />
		<path id="Layer" class="s4" d="m-187.8-263.1c0.7-0.7 1.7-1.1 2.7-1.1c2.2 0 4 1.8 4 4c0 1.1-0.5 2.1-1.2 2.8" />
	</g>
	<path id="Layer" class="s0" d="m-153.5-22v-110.4q0-1 0.4-2q0.4-0.9 1.1-1.6q0.7-0.7 1.6-1.1q0.9-0.3 1.9-0.3h52.2q1 0 1.9 0.3q0.9 0.4 1.6 1.1q0.7 0.7 1.1 1.6q0.4 1 0.4 2v110.4q0 1-0.4 1.9q-0.4 0.9-1.1 1.6q-0.7 0.7-1.6 1.1q-0.9 0.4-1.9 0.4h-52.2q-1 0-1.9-0.4q-0.9-0.4-1.6-1.1q-0.7-0.7-1.1-1.6q-0.4-0.9-0.4-1.9z" />
	<path id="Layer" class="s0" d="m-147.4-23.5v-50h50v50z" />
	<path id="Layer" class="s0" d="m-147.4-81.1v-50h50v50z" />
	<g id="Layer">
		<path id="Layer" class="s1" d="m-146.9-76.3h47.6" />
		<path id="Layer" class="s2" d="m-146.9-78.3h47.6" />
	</g>
	<g id="Layer">
		<path id="Layer" class="s3" d="m-122.6-40.5c-1.3 0-2.5-0.5-3.4-1.4c-0.9-0.9-1.5-2.1-1.5-3.4c0-1.3 0.6-2.5 1.5-3.4c0.9-0.9 2.1-1.5 3.4-1.5c1.3 0 2.5 0.6 3.4 1.5c0.9 0.9 1.4 2.1 1.4 3.4c0 1.3-0.5 2.5-1.4 3.4c-0.9 0.9-2.1 1.4-3.4 1.4z" />
		<path id="Layer" class="s4" d="m-125.4-48.2c0.7-0.7 1.6-1.1 2.7-1.1c2.2 0 3.9 1.8 3.9 4c0 1.1-0.4 2.1-1.1 2.8" />
	</g>
	<g id="Layer">
		<path id="Layer" class="s3" d="m-137.6-86.9c-1.3 0-2.5-0.5-3.4-1.4c-0.9-0.9-1.5-2.1-1.5-3.4c0-1.3 0.6-2.5 1.5-3.4c0.9-1 2.1-1.5 3.4-1.5c1.3 0 2.5 0.5 3.4 1.5c0.9 0.9 1.4 2.1 1.4 3.4c0 1.3-0.5 2.5-1.4 3.4c-0.9 0.9-2.1 1.4-3.4 1.4z" />
		<path id="Layer" class="s4" d="m-140.4-94.6c0.7-0.7 1.6-1.1 2.7-1.1c2.2 0 3.9 1.8 3.9 4c0 1.1-0.4 2.1-1.1 2.8" />
	</g>
	<g id="Layer">
		<path id="Layer" class="s3" d="m-122.6-102.1c-1.3 0-2.5-0.5-3.4-1.4c-0.9-0.9-1.5-2.1-1.5-3.4c0-1.3 0.6-2.5 1.5-3.4c0.9-0.9 2.1-1.5 3.4-1.5c1.3 0 2.5 0.6 3.4 1.5c0.9 0.9 1.4 2.1 1.4 3.4c0 1.3-0.5 2.5-1.4 3.4c-0.9 0.9-2.1 1.4-3.4 1.4z" />
		<path id="Layer" class="s4" d="m-125.4-109.8c0.7-0.7 1.6-1.1 2.7-1.1c2.2 0 3.9 1.8 3.9 4c0 1.1-0.4 2.1-1.1 2.8" />
	</g>
	<g id="Layer">
		<path id="Layer" class="s3" d="m-137.6-117.2c-1.3 0-2.5-0.6-3.4-1.5c-0.9-0.9-1.5-2.1-1.5-3.4c0-1.3 0.6-2.5 1.5-3.4c0.9-0.9 2.1-1.4 3.4-1.4c1.3 0 2.5 0.5 3.4 1.4c0.9 0.9 1.4 2.1 1.4 3.4c0 1.3-0.5 2.5-1.4 3.4c-0.9 0.9-2.1 1.5-3.4 1.5z" />
		<path id="Layer" class="s4" d="m-140.4-125c0.7-0.7 1.6-1.1 2.7-1.1c2.2 0 3.9 1.8 3.9 4c0 1.1-0.4 2.1-1.1 2.8" />
	</g>
	<g id="Layer">
		<path id="Layer" class="s3" d="m-107.6-86.9c-1.3 0-2.5-0.5-3.4-1.4c-0.9-0.9-1.5-2.1-1.5-3.4c0-1.3 0.6-2.5 1.5-3.4c0.9-1 2.1-1.5 3.4-1.5c1.3 0 2.5 0.5 3.4 1.5c0.9 0.9 1.4 2.1 1.4 3.4c0 1.3-0.5 2.5-1.4 3.4c-0.9 0.9-2.1 1.4-3.4 1.4z" />
		<path id="Layer" class="s4" d="m-110.4-94.6c0.7-0.7 1.6-1.1 2.7-1.1c2.2 0 3.9 1.8 3.9 4c0 1.1-0.4 2.1-1.1 2.8" />
	</g>
	<g id="Layer">
		<path id="Layer" class="s3" d="m-107.6-117.2c-1.3 0-2.5-0.6-3.4-1.5c-0.9-0.9-1.5-2.1-1.5-3.4c0-1.3 0.6-2.5 1.5-3.4c0.9-0.9 2.1-1.4 3.4-1.4c1.3 0 2.5 0.5 3.4 1.4c0.9 0.9 1.4 2.1 1.4 3.4c0 1.3-0.5 2.5-1.4 3.4c-0.9 0.9-2.1 1.5-3.4 1.5z" />
		<path id="Layer" class="s4" d="m-110.4-125c0.7-0.7 1.6-1.1 2.7-1.1c2.2 0 3.9 1.8 3.9 4c0 1.1-0.4 2.1-1.1 2.8" />
	</g>
	<path id="Layer" class="s0" d="m-153.5-160.1v-110.4q0-1 0.4-2q0.4-0.9 1.1-1.6q0.7-0.7 1.6-1.1q0.9-0.3 1.9-0.3h52.2q1 0 1.9 0.3q0.9 0.4 1.6 1.1q0.7 0.7 1.1 1.6q0.4 1 0.4 2v110.4q0 1-0.4 1.9q-0.4 0.9-1.1 1.6q-0.7 0.7-1.6 1.1q-0.9 0.4-1.9 0.4h-52.2q-1 0-1.9-0.4q-0.9-0.4-1.6-1.1q-0.7-0.7-1.1-1.6q-0.4-0.9-0.4-1.9z" />
	<path id="Layer" class="s0" d="m-147.4-161.6v-50h50v50z" />
	<path id="Layer" class="s0" d="m-147.4-219.2v-50h50v50z" />
	<g id="Layer">
		<path id="Layer" class="s1" d="m-146.9-214.4h47.6" />
		<path id="Layer" class="s2" d="m-146.9-216.4h47.6" />
	</g>
	<g id="Layer">
		<path id="Layer" class="s3" d="m-122.6-178.6c-1.3 0-2.5-0.5-3.4-1.4c-0.9-0.9-1.5-2.1-1.5-3.4c0-1.3 0.6-2.5 1.5-3.4c0.9-1 2.1-1.5 3.4-1.5c1.3 0 2.5 0.5 3.4 1.5c0.9 0.9 1.4 2.1 1.4 3.4c0 1.3-0.5 2.5-1.4 3.4c-0.9 0.9-2.1 1.4-3.4 1.4z" />
		<path id="Layer" class="s4" d="m-125.4-186.3c0.7-0.7 1.6-1.1 2.7-1.1c2.2 0 3.9 1.8 3.9 4c0 1.1-0.4 2.1-1.1 2.8" />
	</g>
	<g id="Layer">
		<path id="Layer" class="s3" d="m-137.6-225c-1.3 0-2.5-0.5-3.4-1.4c-0.9-0.9-1.5-2.1-1.5-3.4c0-1.3 0.6-2.5 1.5-3.4c0.9-1 2.1-1.5 3.4-1.5c1.3 0 2.5 0.5 3.4 1.5c0.9 0.9 1.4 2.1 1.4 3.4c0 1.3-0.5 2.5-1.4 3.4c-0.9 0.9-2.1 1.4-3.4 1.4z" />
		<path id="Layer" class="s4" d="m-140.4-232.7c0.7-0.7 1.6-1.1 2.7-1.1c2.2 0 3.9 1.8 3.9 4c0 1.1-0.4 2.1-1.1 2.8" />
	</g>
	<g id="Layer">
		<path id="Layer" class="s3" d="m-137.6-255.4c-1.3 0-2.5-0.5-3.4-1.4c-0.9-0.9-1.5-2.1-1.5-3.4c0-1.3 0.6-2.5 1.5-3.4c0.9-1 2.1-1.5 3.4-1.5c1.3 0 2.5 0.5 3.4 1.5c0.9 0.9 1.4 2.1 1.4 3.4c0 1.3-0.5 2.5-1.4 3.4c-0.9 0.9-2.1 1.4-3.4 1.4z" />
		<path id="Layer" class="s4" d="m-140.4-263.1c0.7-0.7 1.6-1.1 2.7-1.1c2.2 0 3.9 1.8 3.9 4c0 1.1-0.4 2.1-1.1 2.8" />
	</g>
	<g id="Layer">
		<path id="Layer" class="s3" d="m-137.6-240.2c-1.3 0-2.5-0.5-3.4-1.4c-0.9-0.9-1.5-2.1-1.5-3.4c0-1.3 0.6-2.5 1.5-3.4c0.9-1 2.1-1.5 3.4-1.5c1.3 0 2.5 0.5 3.4 1.5c0.9 0.9 1.4 2.1 1.4 3.4c0 1.3-0.5 2.5-1.4 3.4c-0.9 0.9-2.1 1.4-3.4 1.4z" />
		<path id="Layer" class="s4" d="m-140.4-247.9c0.7-0.7 1.6-1.1 2.7-1.1c2.2 0 3.9 1.8 3.9 4c0 1.1-0.4 2.1-1.1 2.8" />
	</g>
	<g id="Layer">
		<path id="Layer" class="s3" d="m-107.6-225c-1.3 0-2.5-0.5-3.4-1.4c-0.9-0.9-1.5-2.1-1.5-3.4c0-1.3 0.6-2.5 1.5-3.4c0.9-1 2.1-1.5 3.4-1.5c1.3 0 2.5 0.5 3.4 1.5c0.9 0.9 1.4 2.1 1.4 3.4c0 1.3-0.5 2.5-1.4 3.4c-0.9 0.9-2.1 1.4-3.4 1.4z" />
		<path id="Layer" class="s4" d="m-110.4-232.7c0.7-0.7 1.6-1.1 2.7-1.1c2.2 0 3.9 1.8 3.9 4c0 1.1-0.4 2.1-1.1 2.8" />
	</g>
	<g id="Layer">
		<path id="Layer" class="s3" d="m-107.6-255.4c-1.3 0-2.5-0.5-3.4-1.4c-0.9-0.9-1.5-2.1-1.5-3.4c0-1.3 0.6-2.5 1.5-3.4c0.9-1 2.1-1.5 3.4-1.5c1.3 0 2.5 0.5 3.4 1.5c0.9 0.9 1.4 2.1 1.4 3.4c0 1.3-0.5 2.5-1.4 3.4c-0.9 0.9-2.1 1.4-3.4 1.4z" />
		<path id="Layer" class="s4" d="m-110.4-263.1c0.7-0.7 1.6-1.1 2.7-1.1c2.2 0 3.9 1.8 3.9 4c0 1.1-0.4 2.1-1.1 2.8" />
	</g>
	<g id="Layer">
		<path id="Layer" class="s3" d="m-107.6-240.2c-1.3 0-2.5-0.5-3.4-1.4c-0.9-0.9-1.5-2.1-1.5-3.4c0-1.3 0.6-2.5 1.5-3.4c0.9-1 2.1-1.5 3.4-1.5c1.3 0 2.5 0.5 3.4 1.5c0.9 0.9 1.4 2.1 1.4 3.4c0 1.3-0.5 2.5-1.4 3.4c-0.9 0.9-2.1 1.4-3.4 1.4z" />
		<path id="Layer" class="s4" d="m-110.4-247.9c0.7-0.7 1.6-1.1 2.7-1.1c2.2 0 3.9 1.8 3.9 4c0 1.1-0.4 2.1-1.1 2.8" />
	</g>
	<path id="Layer" class="s0" d="m-76.1 254.2v-110.4q0-1 0.4-1.9q0.4-0.9 1.1-1.6q0.7-0.7 1.6-1.1q0.9-0.4 1.9-0.4h52.2q1 0 1.9 0.4q0.9 0.4 1.6 1.1q0.7 0.7 1.1 1.6q0.4 0.9 0.4 1.9v110.4q0 1-0.4 1.9q-0.4 0.9-1.1 1.6q-0.7 0.7-1.6 1.1q-0.9 0.4-1.9 0.4h-52.2q-1 0-1.9-0.4q-0.9-0.4-1.6-1.1q-0.7-0.7-1.1-1.6q-0.4-0.9-0.4-1.9z" />
	<path id="Layer" class="s0" d="m-70 252.7v-50h50v50z" />
	<path id="Layer" class="s0" d="m-70 195.2v-50h50v50z" />
	<g id="Layer">
		<path id="Layer" class="s1" d="m-69.6 200h47.7" />
		<path id="Layer" class="s2" d="m-69.6 198h47.7" />
	</g>
	<g id="Layer">
		<path id="Layer" class="s3" d="m-60.2 251c-1.3 0-2.5-0.5-3.5-1.5c-0.9-0.9-1.4-2.1-1.4-3.4c0-1.3 0.5-2.5 1.4-3.4c1-0.9 2.2-1.4 3.5-1.4c1.3 0 2.5 0.5 3.4 1.4c0.9 0.9 1.4 2.1 1.4 3.4c0 1.3-0.5 2.5-1.4 3.4c-0.9 1-2.1 1.5-3.4 1.5z" />
		<path id="Layer" class="s4" d="m-63.1 243.2c0.7-0.7 1.7-1.1 2.8-1.1c2.1 0 3.9 1.8 3.9 4c0 1.1-0.4 2.1-1.1 2.8" />
	</g>
	<g id="Layer">
		<path id="Layer" class="s3" d="m-30.2 220.6c-1.3 0-2.5-0.5-3.5-1.4c-0.9-1-1.4-2.2-1.4-3.5c0-1.3 0.5-2.5 1.4-3.4c1-0.9 2.2-1.4 3.5-1.4c1.3 0 2.5 0.5 3.4 1.4c0.9 0.9 1.4 2.1 1.4 3.4c0 1.3-0.5 2.5-1.4 3.5c-0.9 0.9-2.1 1.4-3.4 1.4z" />
		<path id="Layer" class="s4" d="m-33.1 212.8c0.7-0.7 1.7-1.1 2.8-1.1c2.1 0 3.9 1.8 3.9 4c0 1.1-0.4 2.1-1.1 2.8" />
	</g>
	<g id="Layer">
		<path id="Layer" class="s3" d="m-60.2 189.4c-1.3 0-2.5-0.5-3.5-1.5c-0.9-0.9-1.4-2.1-1.4-3.4c0-1.3 0.5-2.5 1.4-3.4c1-0.9 2.2-1.4 3.5-1.4c1.3 0 2.5 0.5 3.4 1.4c0.9 0.9 1.4 2.1 1.4 3.4c0 1.3-0.5 2.5-1.4 3.4c-0.9 1-2.1 1.5-3.4 1.5z" />
		<path id="Layer" class="s4" d="m-63.1 181.6c0.7-0.7 1.7-1.1 2.8-1.1c2.1 0 3.9 1.8 3.9 4c0 1.1-0.4 2.1-1.1 2.8" />
	</g>
	<g id="Layer">
		<path id="Layer" class="s3" d="m-45.2 174.2c-1.3 0-2.5-0.5-3.5-1.4c-0.9-1-1.4-2.2-1.4-3.5c0-1.3 0.5-2.5 1.4-3.4c1-0.9 2.2-1.4 3.5-1.4c1.3 0 2.5 0.5 3.4 1.4c0.9 0.9 1.4 2.1 1.4 3.4c0 1.3-0.5 2.5-1.4 3.5c-0.9 0.9-2.1 1.4-3.4 1.4z" />
		<path id="Layer" class="s4" d="m-48.1 166.4c0.7-0.7 1.7-1.1 2.8-1.1c2.1 0 3.9 1.8 3.9 4c0 1.1-0.4 2.1-1.1 2.8" />
	</g>
	<g id="Layer">
		<path id="Layer" class="s3" d="m-30.2 159c-1.3 0-2.5-0.5-3.5-1.4c-0.9-0.9-1.4-2.2-1.4-3.5c0-1.3 0.5-2.5 1.4-3.4c1-0.9 2.2-1.4 3.5-1.4c1.3 0 2.5 0.5 3.4 1.4c0.9 0.9 1.4 2.1 1.4 3.4c0 1.3-0.5 2.6-1.4 3.5c-0.9 0.9-2.1 1.4-3.4 1.4z" />
		<path id="Layer" class="s4" d="m-33.1 151.2c0.7-0.7 1.7-1.1 2.8-1.1c2.1 0 3.9 1.8 3.9 4c0 1.1-0.4 2.1-1.1 2.9" />
	</g>
	<path id="Layer" class="s0" d="m-76.1 116.1v-110.4q0-1 0.4-1.9q0.4-1 1.1-1.7q0.7-0.7 1.6-1q0.9-0.4 1.9-0.4h52.2q1 0 1.9 0.4q0.9 0.3 1.6 1q0.7 0.7 1.1 1.7q0.4 0.9 0.4 1.9v110.4q0 1-0.4 1.9q-0.4 0.9-1.1 1.6q-0.7 0.7-1.6 1.1q-0.9 0.4-1.9 0.4h-52.2q-1 0-1.9-0.4q-0.9-0.4-1.6-1.1q-0.7-0.7-1.1-1.6q-0.4-0.9-0.4-1.9z" />
	<path id="Layer" class="s0" d="m-70 114.6v-50h50v50z" />
	<path id="Layer" class="s0" d="m-70 57v-50h50v50z" />
	<g id="Layer">
		<path id="Layer" class="s1" d="m-69.6 61.9h47.7" />
		<path id="Layer" class="s2" d="m-69.6 59.9h47.7" />
	</g>
	<g id="Layer">
		<path id="Layer" class="s3" d="m-60.2 112.8c-1.3 0-2.5-0.5-3.5-1.4c-0.9-0.9-1.4-2.1-1.4-3.4c0-1.3 0.5-2.5 1.4-3.4c1-0.9 2.2-1.5 3.5-1.5c1.3 0 2.5 0.6 3.4 1.5c0.9 0.9 1.4 2.1 1.4 3.4c0 1.3-0.5 2.5-1.4 3.4c-0.9 0.9-2.1 1.4-3.4 1.4z" />
		<path id="Layer" class="s4" d="m-63.1 105.1c0.7-0.7 1.7-1.1 2.8-1.1c2.1 0 3.9 1.8 3.9 4c0 1.1-0.4 2.1-1.1 2.8" />
	</g>
	<g id="Layer">
		<path id="Layer" class="s3" d="m-30.2 82.5c-1.3 0-2.5-0.5-3.5-1.5c-0.9-0.9-1.4-2.1-1.4-3.4c0-1.3 0.5-2.5 1.4-3.4c1-0.9 2.2-1.4 3.5-1.4c1.3 0 2.5 0.5 3.4 1.4c0.9 0.9 1.4 2.1 1.4 3.4c0 1.3-0.5 2.5-1.4 3.4c-0.9 1-2.1 1.5-3.4 1.5z" />
		<path id="Layer" class="s4" d="m-33.1 74.7c0.7-0.7 1.7-1.1 2.8-1.1c2.1 0 3.9 1.8 3.9 4c0 1.1-0.4 2.1-1.1 2.8" />
	</g>
	<g id="Layer">
		<path id="Layer" class="s3" d="m-60.2 51.3c-1.3 0-2.5-0.6-3.5-1.5c-0.9-0.9-1.4-2.1-1.4-3.4c0-1.3 0.5-2.5 1.4-3.4c1-0.9 2.2-1.4 3.5-1.4c1.3 0 2.5 0.5 3.4 1.4c0.9 0.9 1.4 2.1 1.4 3.4c0 1.3-0.5 2.5-1.4 3.4c-0.9 0.9-2.1 1.5-3.4 1.5z" />
		<path id="Layer" class="s4" d="m-63.1 43.5c0.7-0.7 1.7-1.1 2.8-1.1c2.1 0 3.9 1.8 3.9 4c0 1.1-0.4 2.1-1.1 2.8" />
	</g>
	<g id="Layer">
		<path id="Layer" class="s3" d="m-60.2 20.9c-1.3 0-2.5-0.5-3.5-1.5c-0.9-0.9-1.4-2.1-1.4-3.4c0-1.3 0.5-2.5 1.4-3.4c1-0.9 2.2-1.4 3.5-1.4c1.3 0 2.5 0.5 3.4 1.4c0.9 0.9 1.4 2.1 1.4 3.4c0 1.3-0.5 2.5-1.4 3.4c-0.9 1-2.1 1.5-3.4 1.5z" />
		<path id="Layer" class="s4" d="m-63.1 13.1c0.7-0.7 1.7-1.1 2.8-1.1c2.1 0 3.9 1.8 3.9 4c0 1.1-0.4 2.1-1.1 2.8" />
	</g>
	<g id="Layer">
		<path id="Layer" class="s3" d="m-30.2 51.3c-1.3 0-2.5-0.6-3.5-1.5c-0.9-0.9-1.4-2.1-1.4-3.4c0-1.3 0.5-2.5 1.4-3.4c1-0.9 2.2-1.4 3.5-1.4c1.3 0 2.5 0.5 3.4 1.4c0.9 0.9 1.4 2.1 1.4 3.4c0 1.3-0.5 2.5-1.4 3.4c-0.9 0.9-2.1 1.5-3.4 1.5z" />
		<path id="Layer" class="s4" d="m-33.1 43.5c0.7-0.7 1.7-1.1 2.8-1.1c2.1 0 3.9 1.8 3.9 4c0 1.1-0.4 2.1-1.1 2.8" />
	</g>
	<g id="Layer">
		<path id="Layer" class="s3" d="m-30.2 20.9c-1.3 0-2.5-0.5-3.5-1.5c-0.9-0.9-1.4-2.1-1.4-3.4c0-1.3 0.5-2.5 1.4-3.4c1-0.9 2.2-1.4 3.5-1.4c1.3 0 2.5 0.5 3.4 1.4c0.9 0.9 1.4 2.1 1.4 3.4c0 1.3-0.5 2.5-1.4 3.4c-0.9 1-2.1 1.5-3.4 1.5z" />
		<path id="Layer" class="s4" d="m-33.1 13.1c0.7-0.7 1.7-1.1 2.8-1.1c2.1 0 3.9 1.8 3.9 4c0 1.1-0.4 2.1-1.1 2.8" />
	</g>
	<path id="Layer" class="s0" d="m1.3 254.2v-110.4q0-1 0.4-1.9q0.3-0.9 1-1.6q0.7-0.7 1.7-1.1q0.9-0.4 1.9-0.4h52.1q1 0 2 0.4q0.9 0.4 1.6 1.1q0.7 0.7 1.1 1.6q0.3 0.9 0.3 1.9v110.4q0 1-0.3 1.9q-0.4 0.9-1.1 1.6q-0.7 0.7-1.6 1.1q-1 0.4-2 0.4h-52.1q-1 0-1.9-0.4q-1-0.4-1.7-1.1q-0.7-0.7-1-1.6q-0.4-0.9-0.4-1.9z" />
	<path id="Layer" class="s0" d="m7.4 252.7v-50h50v50z" />
	<path id="Layer" class="s0" d="m7.4 195.2v-50h50v50z" />
	<g id="Layer">
		<path id="Layer" class="s1" d="m7.8 200h47.7" />
		<path id="Layer" class="s2" d="m7.8 198h47.7" />
	</g>
	<g id="Layer">
		<path id="Layer" class="s3" d="m17.2 251c-1.3 0-2.5-0.5-3.5-1.5c-0.9-0.9-1.4-2.1-1.4-3.4c0-1.3 0.5-2.5 1.4-3.4c1-0.9 2.2-1.4 3.5-1.4c1.3 0 2.5 0.5 3.4 1.4c0.9 0.9 1.4 2.1 1.4 3.4c0 1.3-0.5 2.5-1.4 3.4c-0.9 1-2.1 1.5-3.4 1.5z" />
		<path id="Layer" class="s4" d="m14.3 243.2c0.7-0.7 1.7-1.1 2.8-1.1c2.1 0 3.9 1.8 3.9 4c0 1.1-0.4 2.1-1.1 2.8" />
	</g>
	<g id="Layer">
		<path id="Layer" class="s3" d="m32.2 235.8c-1.3 0-2.5-0.5-3.5-1.5c-0.9-0.9-1.4-2.1-1.4-3.4c0-1.3 0.5-2.5 1.4-3.4c1-0.9 2.2-1.4 3.5-1.4c1.3 0 2.5 0.5 3.4 1.4c0.9 0.9 1.4 2.1 1.4 3.4c0 1.3-0.5 2.5-1.4 3.4c-0.9 1-2.1 1.5-3.4 1.5z" />
		<path id="Layer" class="s4" d="m29.3 228c0.7-0.7 1.7-1.1 2.8-1.1c2.1 0 3.9 1.8 3.9 4c0 1.1-0.4 2.1-1.1 2.8" />
	</g>
	<g id="Layer">
		<path id="Layer" class="s3" d="m47.2 220.6c-1.3 0-2.5-0.5-3.5-1.4c-0.9-1-1.4-2.2-1.4-3.5c0-1.3 0.5-2.5 1.4-3.4c1-0.9 2.2-1.4 3.5-1.4c1.3 0 2.5 0.5 3.4 1.4c0.9 0.9 1.4 2.1 1.4 3.4c0 1.3-0.5 2.5-1.4 3.5c-0.9 0.9-2.1 1.4-3.4 1.4z" />
		<path id="Layer" class="s4" d="m44.3 212.8c0.7-0.7 1.7-1.1 2.8-1.1c2.1 0 3.9 1.8 3.9 4c0 1.1-0.4 2.1-1.1 2.8" />
	</g>
	<g id="Layer">
		<path id="Layer" class="s3" d="m17.2 189.4c-1.3 0-2.5-0.5-3.5-1.5c-0.9-0.9-1.4-2.1-1.4-3.4c0-1.3 0.5-2.5 1.4-3.4c1-0.9 2.2-1.4 3.5-1.4c1.3 0 2.5 0.5 3.4 1.4c0.9 0.9 1.4 2.1 1.4 3.4c0 1.3-0.5 2.5-1.4 3.4c-0.9 1-2.1 1.5-3.4 1.5z" />
		<path id="Layer" class="s4" d="m14.3 181.6c0.7-0.7 1.7-1.1 2.8-1.1c2.1 0 3.9 1.8 3.9 4c0 1.1-0.4 2.1-1.1 2.8" />
	</g>
	<g id="Layer">
		<path id="Layer" class="s3" d="m17.2 159c-1.3 0-2.5-0.5-3.5-1.4c-0.9-0.9-1.4-2.2-1.4-3.5c0-1.3 0.5-2.5 1.4-3.4c1-0.9 2.2-1.4 3.5-1.4c1.3 0 2.5 0.5 3.4 1.4c0.9 0.9 1.4 2.1 1.4 3.4c0 1.3-0.5 2.6-1.4 3.5c-0.9 0.9-2.1 1.4-3.4 1.4z" />
		<path id="Layer" class="s4" d="m14.3 151.2c0.7-0.7 1.7-1.1 2.8-1.1c2.1 0 3.9 1.8 3.9 4c0 1.1-0.4 2.1-1.1 2.9" />
	</g>
	<g id="Layer">
		<path id="Layer" class="s3" d="m47.2 189.4c-1.3 0-2.5-0.5-3.5-1.5c-0.9-0.9-1.4-2.1-1.4-3.4c0-1.3 0.5-2.5 1.4-3.4c1-0.9 2.2-1.4 3.5-1.4c1.3 0 2.5 0.5 3.4 1.4c0.9 0.9 1.4 2.1 1.4 3.4c0 1.3-0.5 2.5-1.4 3.4c-0.9 1-2.1 1.5-3.4 1.5z" />
		<path id="Layer" class="s4" d="m44.3 181.6c0.7-0.7 1.7-1.1 2.8-1.1c2.1 0 3.9 1.8 3.9 4c0 1.1-0.4 2.1-1.1 2.8" />
	</g>
	<g id="Layer">
		<path id="Layer" class="s3" d="m47.2 159c-1.3 0-2.5-0.5-3.5-1.4c-0.9-0.9-1.4-2.2-1.4-3.5c0-1.3 0.5-2.5 1.4-3.4c1-0.9 2.2-1.4 3.5-1.4c1.3 0 2.5 0.5 3.4 1.4c0.9 0.9 1.4 2.1 1.4 3.4c0 1.3-0.5 2.6-1.4 3.5c-0.9 0.9-2.1 1.4-3.4 1.4z" />
		<path id="Layer" class="s4" d="m44.3 151.2c0.7-0.7 1.7-1.1 2.8-1.1c2.1 0 3.9 1.8 3.9 4c0 1.1-0.4 2.1-1.1 2.9" />
	</g>
	<path id="Layer" class="s0" d="m1.3 116.1v-110.4q0-1 0.4-1.9q0.3-1 1-1.7q0.7-0.7 1.7-1q0.9-0.4 1.9-0.4h52.1q1 0 2 0.4q0.9 0.3 1.6 1q0.7 0.7 1.1 1.7q0.3 0.9 0.3 1.9v110.4q0 1-0.3 1.9q-0.4 0.9-1.1 1.6q-0.7 0.7-1.6 1.1q-1 0.4-2 0.4h-52.1q-1 0-1.9-0.4q-1-0.4-1.7-1.1q-0.7-0.7-1-1.6q-0.4-0.9-0.4-1.9z" />
	<path id="Layer" class="s0" d="m7.4 114.6v-50h50v50z" />
	<path id="Layer" class="s0" d="m7.4 57v-50h50v50z" />
	<g id="Layer">
		<path id="Layer" class="s1" d="m7.8 61.9h47.7" />
		<path id="Layer" class="s2" d="m7.8 59.9h47.7" />
	</g>
	<g id="Layer">
		<path id="Layer" class="s3" d="m17.2 112.8c-1.3 0-2.5-0.5-3.5-1.4c-0.9-0.9-1.4-2.1-1.4-3.4c0-1.3 0.5-2.5 1.4-3.4c1-0.9 2.2-1.5 3.5-1.5c1.3 0 2.5 0.6 3.4 1.5c0.9 0.9 1.4 2.1 1.4 3.4c0 1.3-0.5 2.5-1.4 3.4c-0.9 0.9-2.1 1.4-3.4 1.4z" />
		<path id="Layer" class="s4" d="m14.3 105.1c0.7-0.7 1.7-1.1 2.8-1.1c2.1 0 3.9 1.8 3.9 4c0 1.1-0.4 2.1-1.1 2.8" />
	</g>
	<g id="Layer">
		<path id="Layer" class="s3" d="m32.2 97.7c-1.3 0-2.5-0.6-3.5-1.5c-0.9-0.9-1.4-2.1-1.4-3.4c0-1.3 0.5-2.5 1.4-3.4c1-0.9 2.2-1.4 3.5-1.4c1.3 0 2.5 0.5 3.4 1.4c0.9 0.9 1.4 2.1 1.4 3.4c0 1.3-0.5 2.5-1.4 3.4c-0.9 0.9-2.1 1.5-3.4 1.5z" />
		<path id="Layer" class="s4" d="m29.3 89.9c0.7-0.7 1.7-1.1 2.8-1.1c2.1 0 3.9 1.8 3.9 4c0 1.1-0.4 2.1-1.1 2.8" />
	</g>
	<g id="Layer">
		<path id="Layer" class="s3" d="m47.2 82.5c-1.3 0-2.5-0.5-3.5-1.5c-0.9-0.9-1.4-2.1-1.4-3.4c0-1.3 0.5-2.5 1.4-3.4c1-0.9 2.2-1.4 3.5-1.4c1.3 0 2.5 0.5 3.4 1.4c0.9 0.9 1.4 2.1 1.4 3.4c0 1.3-0.5 2.5-1.4 3.4c-0.9 1-2.1 1.5-3.4 1.5z" />
		<path id="Layer" class="s4" d="m44.3 74.7c0.7-0.7 1.7-1.1 2.8-1.1c2.1 0 3.9 1.8 3.9 4c0 1.1-0.4 2.1-1.1 2.8" />
	</g>
	<g id="Layer">
		<path id="Layer" class="s3" d="m17.2 51.3c-1.3 0-2.5-0.6-3.5-1.5c-0.9-0.9-1.4-2.1-1.4-3.4c0-1.3 0.5-2.5 1.4-3.4c1-0.9 2.2-1.4 3.5-1.4c1.3 0 2.5 0.5 3.4 1.4c0.9 0.9 1.4 2.1 1.4 3.4c0 1.3-0.5 2.5-1.4 3.4c-0.9 0.9-2.1 1.5-3.4 1.5z" />
		<path id="Layer" class="s4" d="m14.3 43.5c0.7-0.7 1.7-1.1 2.8-1.1c2.1 0 3.9 1.8 3.9 4c0 1.1-0.4 2.1-1.1 2.8" />
	</g>
	<g id="Layer">
		<path id="Layer" class="s3" d="m32.2 36.1c-1.3 0-2.5-0.6-3.5-1.5c-0.9-0.9-1.4-2.1-1.4-3.4c0-1.3 0.5-2.5 1.4-3.4c1-0.9 2.2-1.4 3.5-1.4c1.3 0 2.5 0.5 3.4 1.4c0.9 0.9 1.4 2.1 1.4 3.4c0 1.3-0.5 2.5-1.4 3.4c-0.9 0.9-2.1 1.5-3.4 1.5z" />
		<path id="Layer" class="s4" d="m29.3 28.3c0.7-0.7 1.7-1.1 2.8-1.1c2.1 0 3.9 1.8 3.9 4c0 1.1-0.4 2.1-1.1 2.8" />
	</g>
	<g id="Layer">
		<path id="Layer" class="s3" d="m17.2 20.9c-1.3 0-2.5-0.5-3.5-1.5c-0.9-0.9-1.4-2.1-1.4-3.4c0-1.3 0.5-2.5 1.4-3.4c1-0.9 2.2-1.4 3.5-1.4c1.3 0 2.5 0.5 3.4 1.4c0.9 0.9 1.4 2.1 1.4 3.4c0 1.3-0.5 2.5-1.4 3.4c-0.9 1-2.1 1.5-3.4 1.5z" />
		<path id="Layer" class="s4" d="m14.3 13.1c0.7-0.7 1.7-1.1 2.8-1.1c2.1 0 3.9 1.8 3.9 4c0 1.1-0.4 2.1-1.1 2.8" />
	</g>
	<g id="Layer">
		<path id="Layer" class="s3" d="m47.2 51.3c-1.3 0-2.5-0.6-3.5-1.5c-0.9-0.9-1.4-2.1-1.4-3.4c0-1.3 0.5-2.5 1.4-3.4c1-0.9 2.2-1.4 3.5-1.4c1.3 0 2.5 0.5 3.4 1.4c0.9 0.9 1.4 2.1 1.4 3.4c0 1.3-0.5 2.5-1.4 3.4c-0.9 0.9-2.1 1.5-3.4 1.5z" />
		<path id="Layer" class="s4" d="m44.3 43.5c0.7-0.7 1.7-1.1 2.8-1.1c2.1 0 3.9 1.8 3.9 4c0 1.1-0.4 2.1-1.1 2.8" />
	</g>
	<g id="Layer">
		<path id="Layer" class="s3" d="m47.2 20.9c-1.3 0-2.5-0.5-3.5-1.5c-0.9-0.9-1.4-2.1-1.4-3.4c0-1.3 0.5-2.5 1.4-3.4c1-0.9 2.2-1.4 3.5-1.4c1.3 0 2.5 0.5 3.4 1.4c0.9 0.9 1.4 2.1 1.4 3.4c0 1.3-0.5 2.5-1.4 3.4c-0.9 1-2.1 1.5-3.4 1.5z" />
		<path id="Layer" class="s4" d="m44.3 13.1c0.7-0.7 1.7-1.1 2.8-1.1c2.1 0 3.9 1.8 3.9 4c0 1.1-0.4 2.1-1.1 2.8" />
	</g>
	<path id="Layer" class="s0" d="m-76.1-22v-110.4q0-1 0.4-2q0.4-0.9 1.1-1.6q0.7-0.7 1.6-1.1q0.9-0.3 1.9-0.3h52.2q1 0 1.9 0.3q0.9 0.4 1.6 1.1q0.7 0.7 1.1 1.6q0.4 1 0.4 2v110.4q0 1-0.4 1.9q-0.4 0.9-1.1 1.6q-0.7 0.7-1.6 1.1q-0.9 0.4-1.9 0.4h-52.2q-1 0-1.9-0.4q-0.9-0.4-1.6-1.1q-0.7-0.7-1.1-1.6q-0.4-0.9-0.4-1.9z" />
	<path id="Layer" class="s0" d="m-70-23.5v-50h50v50z" />
	<path id="Layer" class="s0" d="m-70-81.1v-50h50v50z" />
	<g id="Layer">
		<path id="Layer" class="s1" d="m-69.6-76.3h47.7" />
		<path id="Layer" class="s2" d="m-69.6-78.3h47.7" />
	</g>
	<g id="Layer">
		<path id="Layer" class="s3" d="m-60.2-25.3c-1.3 0-2.5-0.5-3.5-1.4c-0.9-0.9-1.4-2.1-1.4-3.4c0-1.3 0.5-2.5 1.4-3.4c1-1 2.2-1.5 3.5-1.5c1.3 0 2.5 0.5 3.4 1.5c0.9 0.9 1.4 2.1 1.4 3.4c0 1.3-0.5 2.5-1.4 3.4c-0.9 0.9-2.1 1.4-3.4 1.4z" />
		<path id="Layer" class="s4" d="m-63.1-33c0.7-0.7 1.7-1.1 2.8-1.1c2.1 0 3.9 1.8 3.9 4c0 1.1-0.4 2.1-1.1 2.8" />
	</g>
	<g id="Layer">
		<path id="Layer" class="s3" d="m-30.2-55.6c-1.3 0-2.5-0.6-3.5-1.5c-0.9-0.9-1.4-2.1-1.4-3.4c0-1.3 0.5-2.5 1.4-3.4c1-0.9 2.2-1.4 3.5-1.4c1.3 0 2.5 0.5 3.4 1.4c0.9 0.9 1.4 2.1 1.4 3.4c0 1.3-0.5 2.5-1.4 3.4c-0.9 0.9-2.1 1.5-3.4 1.5z" />
		<path id="Layer" class="s4" d="m-33.1-63.4c0.7-0.7 1.7-1.1 2.8-1.1c2.1 0 3.9 1.8 3.9 4c0 1.1-0.4 2.1-1.1 2.8" />
	</g>
	<g id="Layer">
		<path id="Layer" class="s3" d="m-60.2-86.9c-1.3 0-2.5-0.5-3.5-1.4c-0.9-0.9-1.4-2.1-1.4-3.4c0-1.3 0.5-2.5 1.4-3.4c1-1 2.2-1.5 3.5-1.5c1.3 0 2.5 0.5 3.4 1.5c0.9 0.9 1.4 2.1 1.4 3.4c0 1.3-0.5 2.5-1.4 3.4c-0.9 0.9-2.1 1.4-3.4 1.4z" />
		<path id="Layer" class="s4" d="m-63.1-94.6c0.7-0.7 1.7-1.1 2.8-1.1c2.1 0 3.9 1.8 3.9 4c0 1.1-0.4 2.1-1.1 2.8" />
	</g>
	<g id="Layer">
		<path id="Layer" class="s3" d="m-45.2-102.1c-1.3 0-2.5-0.5-3.5-1.4c-0.9-0.9-1.4-2.1-1.4-3.4c0-1.3 0.5-2.5 1.4-3.4c1-0.9 2.2-1.5 3.5-1.5c1.3 0 2.5 0.6 3.4 1.5c0.9 0.9 1.4 2.1 1.4 3.4c0 1.3-0.5 2.5-1.4 3.4c-0.9 0.9-2.1 1.4-3.4 1.4z" />
		<path id="Layer" class="s4" d="m-48.1-109.8c0.7-0.7 1.7-1.1 2.8-1.1c2.1 0 3.9 1.8 3.9 4c0 1.1-0.4 2.1-1.1 2.8" />
	</g>
	<g id="Layer">
		<path id="Layer" class="s3" d="m-60.2-117.2c-1.3 0-2.5-0.6-3.5-1.5c-0.9-0.9-1.4-2.1-1.4-3.4c0-1.3 0.5-2.5 1.4-3.4c1-0.9 2.2-1.4 3.5-1.4c1.3 0 2.5 0.5 3.4 1.4c0.9 0.9 1.4 2.1 1.4 3.4c0 1.3-0.5 2.5-1.4 3.4c-0.9 0.9-2.1 1.5-3.4 1.5z" />
		<path id="Layer" class="s4" d="m-63.1-125c0.7-0.7 1.7-1.1 2.8-1.1c2.1 0 3.9 1.8 3.9 4c0 1.1-0.4 2.1-1.1 2.8" />
	</g>
	<g id="Layer">
		<path id="Layer" class="s3" d="m-30.2-86.9c-1.3 0-2.5-0.5-3.5-1.4c-0.9-0.9-1.4-2.1-1.4-3.4c0-1.3 0.5-2.5 1.4-3.4c1-1 2.2-1.5 3.5-1.5c1.3 0 2.5 0.5 3.4 1.5c0.9 0.9 1.4 2.1 1.4 3.4c0 1.3-0.5 2.5-1.4 3.4c-0.9 0.9-2.1 1.4-3.4 1.4z" />
		<path id="Layer" class="s4" d="m-33.1-94.6c0.7-0.7 1.7-1.1 2.8-1.1c2.1 0 3.9 1.8 3.9 4c0 1.1-0.4 2.1-1.1 2.8" />
	</g>
	<g id="Layer">
		<path id="Layer" class="s3" d="m-30.2-117.2c-1.3 0-2.5-0.6-3.5-1.5c-0.9-0.9-1.4-2.1-1.4-3.4c0-1.3 0.5-2.5 1.4-3.4c1-0.9 2.2-1.4 3.5-1.4c1.3 0 2.5 0.5 3.4 1.4c0.9 0.9 1.4 2.1 1.4 3.4c0 1.3-0.5 2.5-1.4 3.4c-0.9 0.9-2.1 1.5-3.4 1.5z" />
		<path id="Layer" class="s4" d="m-33.1-125c0.7-0.7 1.7-1.1 2.8-1.1c2.1 0 3.9 1.8 3.9 4c0 1.1-0.4 2.1-1.1 2.8" />
	</g>
	<path id="Layer" class="s0" d="m-76.1-160.1v-110.4q0-1 0.4-2q0.4-0.9 1.1-1.6q0.7-0.7 1.6-1.1q0.9-0.3 1.9-0.3h52.2q1 0 1.9 0.3q0.9 0.4 1.6 1.1q0.7 0.7 1.1 1.6q0.4 1 0.4 2v110.4q0 1-0.4 1.9q-0.4 0.9-1.1 1.6q-0.7 0.7-1.6 1.1q-0.9 0.4-1.9 0.4h-52.2q-1 0-1.9-0.4q-0.9-0.4-1.6-1.1q-0.7-0.7-1.1-1.6q-0.4-0.9-0.4-1.9z" />
	<path id="Layer" class="s0" d="m-70-161.6v-50h50v50z" />
	<path id="Layer" class="s0" d="m-70-219.2v-50h50v50z" />
	<g id="Layer">
		<path id="Layer" class="s1" d="m-69.6-214.4h47.7" />
		<path id="Layer" class="s2" d="m-69.6-216.4h47.7" />
	</g>
	<g id="Layer">
		<path id="Layer" class="s3" d="m-60.2-163.4c-1.3 0-2.5-0.5-3.5-1.4c-0.9-0.9-1.4-2.1-1.4-3.4c0-1.3 0.5-2.5 1.4-3.5c1-0.9 2.2-1.4 3.5-1.4c1.3 0 2.5 0.5 3.4 1.4c0.9 1 1.4 2.2 1.4 3.5c0 1.3-0.5 2.5-1.4 3.4c-0.9 0.9-2.1 1.4-3.4 1.4z" />
		<path id="Layer" class="s4" d="m-63.1-171.1c0.7-0.7 1.7-1.1 2.8-1.1c2.1 0 3.9 1.7 3.9 4c0 1.1-0.4 2.1-1.1 2.8" />
	</g>
	<g id="Layer">
		<path id="Layer" class="s3" d="m-30.2-193.8c-1.3 0-2.5-0.5-3.5-1.4c-0.9-0.9-1.4-2.1-1.4-3.4c0-1.3 0.5-2.5 1.4-3.4c1-1 2.2-1.5 3.5-1.5c1.3 0 2.5 0.5 3.4 1.5c0.9 0.9 1.4 2.1 1.4 3.4c0 1.3-0.5 2.5-1.4 3.4c-0.9 0.9-2.1 1.4-3.4 1.4z" />
		<path id="Layer" class="s4" d="m-33.1-201.5c0.7-0.7 1.7-1.1 2.8-1.1c2.1 0 3.9 1.8 3.9 4c0 1.1-0.4 2.1-1.1 2.8" />
	</g>
	<g id="Layer">
		<path id="Layer" class="s3" d="m-60.2-225c-1.3 0-2.5-0.5-3.5-1.4c-0.9-0.9-1.4-2.1-1.4-3.4c0-1.3 0.5-2.5 1.4-3.4c1-1 2.2-1.5 3.5-1.5c1.3 0 2.5 0.5 3.4 1.5c0.9 0.9 1.4 2.1 1.4 3.4c0 1.3-0.5 2.5-1.4 3.4c-0.9 0.9-2.1 1.4-3.4 1.4z" />
		<path id="Layer" class="s4" d="m-63.1-232.7c0.7-0.7 1.7-1.1 2.8-1.1c2.1 0 3.9 1.8 3.9 4c0 1.1-0.4 2.1-1.1 2.8" />
	</g>
	<g id="Layer">
		<path id="Layer" class="s3" d="m-60.2-255.4c-1.3 0-2.5-0.5-3.5-1.4c-0.9-0.9-1.4-2.1-1.4-3.4c0-1.3 0.5-2.5 1.4-3.4c1-1 2.2-1.5 3.5-1.5c1.3 0 2.5 0.5 3.4 1.5c0.9 0.9 1.4 2.1 1.4 3.4c0 1.3-0.5 2.5-1.4 3.4c-0.9 0.9-2.1 1.4-3.4 1.4z" />
		<path id="Layer" class="s4" d="m-63.1-263.1c0.7-0.7 1.7-1.1 2.8-1.1c2.1 0 3.9 1.8 3.9 4c0 1.1-0.4 2.1-1.1 2.8" />
	</g>
	<g id="Layer">
		<path id="Layer" class="s3" d="m-60.2-240.2c-1.3 0-2.5-0.5-3.5-1.4c-0.9-0.9-1.4-2.1-1.4-3.4c0-1.3 0.5-2.5 1.4-3.4c1-1 2.2-1.5 3.5-1.5c1.3 0 2.5 0.5 3.4 1.5c0.9 0.9 1.4 2.1 1.4 3.4c0 1.3-0.5 2.5-1.4 3.4c-0.9 0.9-2.1 1.4-3.4 1.4z" />
		<path id="Layer" class="s4" d="m-63.1-247.9c0.7-0.7 1.7-1.1 2.8-1.1c2.1 0 3.9 1.8 3.9 4c0 1.1-0.4 2.1-1.1 2.8" />
	</g>
	<g id="Layer">
		<path id="Layer" class="s3" d="m-30.2-225c-1.3 0-2.5-0.5-3.5-1.4c-0.9-0.9-1.4-2.1-1.4-3.4c0-1.3 0.5-2.5 1.4-3.4c1-1 2.2-1.5 3.5-1.5c1.3 0 2.5 0.5 3.4 1.5c0.9 0.9 1.4 2.1 1.4 3.4c0 1.3-0.5 2.5-1.4 3.4c-0.9 0.9-2.1 1.4-3.4 1.4z" />
		<path id="Layer" class="s4" d="m-33.1-232.7c0.7-0.7 1.7-1.1 2.8-1.1c2.1 0 3.9 1.8 3.9 4c0 1.1-0.4 2.1-1.1 2.8" />
	</g>
	<g id="Layer">
		<path id="Layer" class="s3" d="m-30.2-255.4c-1.3 0-2.5-0.5-3.5-1.4c-0.9-0.9-1.4-2.1-1.4-3.4c0-1.3 0.5-2.5 1.4-3.4c1-1 2.2-1.5 3.5-1.5c1.3 0 2.5 0.5 3.4 1.5c0.9 0.9 1.4 2.1 1.4 3.4c0 1.3-0.5 2.5-1.4 3.4c-0.9 0.9-2.1 1.4-3.4 1.4z" />
		<path id="Layer" class="s4" d="m-33.1-263.1c0.7-0.7 1.7-1.1 2.8-1.1c2.1 0 3.9 1.8 3.9 4c0 1.1-0.4 2.1-1.1 2.8" />
	</g>
	<g id="Layer">
		<path id="Layer" class="s3" d="m-30.2-240.2c-1.3 0-2.5-0.5-3.5-1.4c-0.9-0.9-1.4-2.1-1.4-3.4c0-1.3 0.5-2.5 1.4-3.4c1-1 2.2-1.5 3.5-1.5c1.3 0 2.5 0.5 3.4 1.5c0.9 0.9 1.4 2.1 1.4 3.4c0 1.3-0.5 2.5-1.4 3.4c-0.9 0.9-2.1 1.4-3.4 1.4z" />
		<path id="Layer" class="s4" d="m-33.1-247.9c0.7-0.7 1.7-1.1 2.8-1.1c2.1 0 3.9 1.8 3.9 4c0 1.1-0.4 2.1-1.1 2.8" />
	</g>
	<path id="Layer" class="s0" d="m1.3-22v-110.4q0-1 0.4-2q0.3-0.9 1-1.6q0.7-0.7 1.7-1.1q0.9-0.3 1.9-0.3h52.1q1 0 2 0.3q0.9 0.4 1.6 1.1q0.7 0.7 1.1 1.6q0.3 1 0.3 2v110.4q0 1-0.3 1.9q-0.4 0.9-1.1 1.6q-0.7 0.7-1.6 1.1q-1 0.4-2 0.4h-52.1q-1 0-1.9-0.4q-1-0.4-1.7-1.1q-0.7-0.7-1-1.6q-0.4-0.9-0.4-1.9z" />
	<path id="Layer" class="s0" d="m7.4-23.5v-50h50v50z" />
	<path id="Layer" class="s0" d="m7.4-81.1v-50h50v50z" />
	<g id="Layer">
		<path id="Layer" class="s1" d="m7.8-76.3h47.7" />
		<path id="Layer" class="s2" d="m7.8-78.3h47.7" />
	</g>
	<g id="Layer">
		<path id="Layer" class="s3" d="m17.2-25.3c-1.3 0-2.5-0.5-3.5-1.4c-0.9-0.9-1.4-2.1-1.4-3.4c0-1.3 0.5-2.5 1.4-3.4c1-1 2.2-1.5 3.5-1.5c1.3 0 2.5 0.5 3.4 1.5c0.9 0.9 1.4 2.1 1.4 3.4c0 1.3-0.5 2.5-1.4 3.4c-0.9 0.9-2.1 1.4-3.4 1.4z" />
		<path id="Layer" class="s4" d="m14.3-33c0.7-0.7 1.7-1.1 2.8-1.1c2.1 0 3.9 1.8 3.9 4c0 1.1-0.4 2.1-1.1 2.8" />
	</g>
	<g id="Layer">
		<path id="Layer" class="s3" d="m32.2-40.5c-1.3 0-2.5-0.5-3.5-1.4c-0.9-0.9-1.4-2.1-1.4-3.4c0-1.3 0.5-2.5 1.4-3.4c1-0.9 2.2-1.5 3.5-1.5c1.3 0 2.5 0.6 3.4 1.5c0.9 0.9 1.4 2.1 1.4 3.4c0 1.3-0.5 2.5-1.4 3.4c-0.9 0.9-2.1 1.4-3.4 1.4z" />
		<path id="Layer" class="s4" d="m29.3-48.2c0.7-0.7 1.7-1.1 2.8-1.1c2.1 0 3.9 1.8 3.9 4c0 1.1-0.4 2.1-1.1 2.8" />
	</g>
	<g id="Layer">
		<path id="Layer" class="s3" d="m47.2-55.6c-1.3 0-2.5-0.6-3.5-1.5c-0.9-0.9-1.4-2.1-1.4-3.4c0-1.3 0.5-2.5 1.4-3.4c1-0.9 2.2-1.4 3.5-1.4c1.3 0 2.5 0.5 3.4 1.4c0.9 0.9 1.4 2.1 1.4 3.4c0 1.3-0.5 2.5-1.4 3.4c-0.9 0.9-2.1 1.5-3.4 1.5z" />
		<path id="Layer" class="s4" d="m44.3-63.4c0.7-0.7 1.7-1.1 2.8-1.1c2.1 0 3.9 1.8 3.9 4c0 1.1-0.4 2.1-1.1 2.8" />
	</g>
	<g id="Layer">
		<path id="Layer" class="s3" d="m17.2-86.9c-1.3 0-2.5-0.5-3.5-1.4c-0.9-0.9-1.4-2.1-1.4-3.4c0-1.3 0.5-2.5 1.4-3.4c1-1 2.2-1.5 3.5-1.5c1.3 0 2.5 0.5 3.4 1.5c0.9 0.9 1.4 2.1 1.4 3.4c0 1.3-0.5 2.5-1.4 3.4c-0.9 0.9-2.1 1.4-3.4 1.4z" />
		<path id="Layer" class="s4" d="m14.3-94.6c0.7-0.7 1.7-1.1 2.8-1.1c2.1 0 3.9 1.8 3.9 4c0 1.1-0.4 2.1-1.1 2.8" />
	</g>
	<g id="Layer">
		<path id="Layer" class="s3" d="m17.2-117.2c-1.3 0-2.5-0.6-3.5-1.5c-0.9-0.9-1.4-2.1-1.4-3.4c0-1.3 0.5-2.5 1.4-3.4c1-0.9 2.2-1.4 3.5-1.4c1.3 0 2.5 0.5 3.4 1.4c0.9 0.9 1.4 2.1 1.4 3.4c0 1.3-0.5 2.5-1.4 3.4c-0.9 0.9-2.1 1.5-3.4 1.5z" />
		<path id="Layer" class="s4" d="m14.3-125c0.7-0.7 1.7-1.1 2.8-1.1c2.1 0 3.9 1.8 3.9 4c0 1.1-0.4 2.1-1.1 2.8" />
	</g>
	<g id="Layer">
		<path id="Layer" class="s3" d="m17.2-102.1c-1.3 0-2.5-0.5-3.5-1.4c-0.9-0.9-1.4-2.1-1.4-3.4c0-1.3 0.5-2.5 1.4-3.4c1-0.9 2.2-1.5 3.5-1.5c1.3 0 2.5 0.6 3.4 1.5c0.9 0.9 1.4 2.1 1.4 3.4c0 1.3-0.5 2.5-1.4 3.4c-0.9 0.9-2.1 1.4-3.4 1.4z" />
		<path id="Layer" class="s4" d="m14.3-109.8c0.7-0.7 1.7-1.1 2.8-1.1c2.1 0 3.9 1.8 3.9 4c0 1.1-0.4 2.1-1.1 2.8" />
	</g>
	<g id="Layer">
		<path id="Layer" class="s3" d="m47.2-86.9c-1.3 0-2.5-0.5-3.5-1.4c-0.9-0.9-1.4-2.1-1.4-3.4c0-1.3 0.5-2.5 1.4-3.4c1-1 2.2-1.5 3.5-1.5c1.3 0 2.5 0.5 3.4 1.5c0.9 0.9 1.4 2.1 1.4 3.4c0 1.3-0.5 2.5-1.4 3.4c-0.9 0.9-2.1 1.4-3.4 1.4z" />
		<path id="Layer" class="s4" d="m44.3-94.6c0.7-0.7 1.7-1.1 2.8-1.1c2.1 0 3.9 1.8 3.9 4c0 1.1-0.4 2.1-1.1 2.8" />
	</g>
	<g id="Layer">
		<path id="Layer" class="s3" d="m47.2-117.2c-1.3 0-2.5-0.6-3.5-1.5c-0.9-0.9-1.4-2.1-1.4-3.4c0-1.3 0.5-2.5 1.4-3.4c1-0.9 2.2-1.4 3.5-1.4c1.3 0 2.5 0.5 3.4 1.4c0.9 0.9 1.4 2.1 1.4 3.4c0 1.3-0.5 2.5-1.4 3.4c-0.9 0.9-2.1 1.5-3.4 1.5z" />
		<path id="Layer" class="s4" d="m44.3-125c0.7-0.7 1.7-1.1 2.8-1.1c2.1 0 3.9 1.8 3.9 4c0 1.1-0.4 2.1-1.1 2.8" />
	</g>
	<g id="Layer">
		<path id="Layer" class="s3" d="m47.2-102.1c-1.3 0-2.5-0.5-3.5-1.4c-0.9-0.9-1.4-2.1-1.4-3.4c0-1.3 0.5-2.5 1.4-3.4c1-0.9 2.2-1.5 3.5-1.5c1.3 0 2.5 0.6 3.4 1.5c0.9 0.9 1.4 2.1 1.4 3.4c0 1.3-0.5 2.5-1.4 3.4c-0.9 0.9-2.1 1.4-3.4 1.4z" />
		<path id="Layer" class="s4" d="m44.3-109.8c0.7-0.7 1.7-1.1 2.8-1.1c2.1 0 3.9 1.8 3.9 4c0 1.1-0.4 2.1-1.1 2.8" />
	</g>
	<path id="Layer" class="s0" d="m1.3-160.1v-110.4q0-1 0.4-2q0.3-0.9 1-1.6q0.7-0.7 1.7-1.1q0.9-0.3 1.9-0.3h52.1q1 0 2 0.3q0.9 0.4 1.6 1.1q0.7 0.7 1.1 1.6q0.3 1 0.3 2v110.4q0 1-0.3 1.9q-0.4 0.9-1.1 1.6q-0.7 0.7-1.6 1.1q-1 0.4-2 0.4h-52.1q-1 0-1.9-0.4q-1-0.4-1.7-1.1q-0.7-0.7-1-1.6q-0.4-0.9-0.4-1.9z" />
	<path id="Layer" class="s0" d="m7.4-161.6v-50h50v50z" />
	<path id="Layer" class="s0" d="m7.4-219.2v-50h50v50z" />
	<g id="Layer">
		<path id="Layer" class="s1" d="m7.8-214.4h47.7" />
		<path id="Layer" class="s2" d="m7.8-216.4h47.7" />
	</g>
	<g id="Layer">
		<path id="Layer" class="s3" d="m17.2-163.4c-1.3 0-2.5-0.5-3.5-1.4c-0.9-0.9-1.4-2.1-1.4-3.4c0-1.3 0.5-2.5 1.4-3.5c1-0.9 2.2-1.4 3.5-1.4c1.3 0 2.5 0.5 3.4 1.4c0.9 1 1.4 2.2 1.4 3.5c0 1.3-0.5 2.5-1.4 3.4c-0.9 0.9-2.1 1.4-3.4 1.4z" />
		<path id="Layer" class="s4" d="m14.3-171.1c0.7-0.7 1.7-1.1 2.8-1.1c2.1 0 3.9 1.7 3.9 4c0 1.1-0.4 2.1-1.1 2.8" />
	</g>
	<g id="Layer">
		<path id="Layer" class="s3" d="m17.2-193.8c-1.3 0-2.5-0.5-3.5-1.4c-0.9-0.9-1.4-2.1-1.4-3.4c0-1.3 0.5-2.5 1.4-3.4c1-1 2.2-1.5 3.5-1.5c1.3 0 2.5 0.5 3.4 1.5c0.9 0.9 1.4 2.1 1.4 3.4c0 1.3-0.5 2.5-1.4 3.4c-0.9 0.9-2.1 1.4-3.4 1.4z" />
		<path id="Layer" class="s4" d="m14.3-201.5c0.7-0.7 1.7-1.1 2.8-1.1c2.1 0 3.9 1.8 3.9 4c0 1.1-0.4 2.1-1.1 2.8" />
	</g>
	<g id="Layer">
		<path id="Layer" class="s3" d="m47.2-163.4c-1.3 0-2.5-0.5-3.5-1.4c-0.9-0.9-1.4-2.1-1.4-3.4c0-1.3 0.5-2.5 1.4-3.5c1-0.9 2.2-1.4 3.5-1.4c1.3 0 2.5 0.5 3.4 1.4c0.9 1 1.4 2.2 1.4 3.5c0 1.3-0.5 2.5-1.4 3.4c-0.9 0.9-2.1 1.4-3.4 1.4z" />
		<path id="Layer" class="s4" d="m44.3-171.1c0.7-0.7 1.7-1.1 2.8-1.1c2.1 0 3.9 1.7 3.9 4c0 1.1-0.4 2.1-1.1 2.8" />
	</g>
	<g id="Layer">
		<path id="Layer" class="s3" d="m47.2-193.8c-1.3 0-2.5-0.5-3.5-1.4c-0.9-0.9-1.4-2.1-1.4-3.4c0-1.3 0.5-2.5 1.4-3.4c1-1 2.2-1.5 3.5-1.5c1.3 0 2.5 0.5 3.4 1.5c0.9 0.9 1.4 2.1 1.4 3.4c0 1.3-0.5 2.5-1.4 3.4c-0.9 0.9-2.1 1.4-3.4 1.4z" />
		<path id="Layer" class="s4" d="m44.3-201.5c0.7-0.7 1.7-1.1 2.8-1.1c2.1 0 3.9 1.8 3.9 4c0 1.1-0.4 2.1-1.1 2.8" />
	</g>
	<g id="Layer">
		<path id="Layer" class="s3" d="m17.2-225c-1.3 0-2.5-0.5-3.5-1.4c-0.9-0.9-1.4-2.1-1.4-3.4c0-1.3 0.5-2.5 1.4-3.4c1-1 2.2-1.5 3.5-1.5c1.3 0 2.5 0.5 3.4 1.5c0.9 0.9 1.4 2.1 1.4 3.4c0 1.3-0.5 2.5-1.4 3.4c-0.9 0.9-2.1 1.4-3.4 1.4z" />
		<path id="Layer" class="s4" d="m14.3-232.7c0.7-0.7 1.7-1.1 2.8-1.1c2.1 0 3.9 1.8 3.9 4c0 1.1-0.4 2.1-1.1 2.8" />
	</g>
	<g id="Layer">
		<path id="Layer" class="s3" d="m32.2-240.2c-1.3 0-2.5-0.5-3.5-1.4c-0.9-0.9-1.4-2.1-1.4-3.4c0-1.3 0.5-2.5 1.4-3.4c1-1 2.2-1.5 3.5-1.5c1.3 0 2.5 0.5 3.4 1.5c0.9 0.9 1.4 2.1 1.4 3.4c0 1.3-0.5 2.5-1.4 3.4c-0.9 0.9-2.1 1.4-3.4 1.4z" />
		<path id="Layer" class="s4" d="m29.3-247.9c0.7-0.7 1.7-1.1 2.8-1.1c2.1 0 3.9 1.8 3.9 4c0 1.1-0.4 2.1-1.1 2.8" />
	</g>
	<g id="Layer">
		<path id="Layer" class="s3" d="m17.2-255.4c-1.3 0-2.5-0.5-3.5-1.4c-0.9-0.9-1.4-2.1-1.4-3.4c0-1.3 0.5-2.5 1.4-3.4c1-1 2.2-1.5 3.5-1.5c1.3 0 2.5 0.5 3.4 1.5c0.9 0.9 1.4 2.1 1.4 3.4c0 1.3-0.5 2.5-1.4 3.4c-0.9 0.9-2.1 1.4-3.4 1.4z" />
		<path id="Layer" class="s4" d="m14.3-263.1c0.7-0.7 1.7-1.1 2.8-1.1c2.1 0 3.9 1.8 3.9 4c0 1.1-0.4 2.1-1.1 2.8" />
	</g>
	<g id="Layer">
		<path id="Layer" class="s3" d="m47.2-225c-1.3 0-2.5-0.5-3.5-1.4c-0.9-0.9-1.4-2.1-1.4-3.4c0-1.3 0.5-2.5 1.4-3.4c1-1 2.2-1.5 3.5-1.5c1.3 0 2.5 0.5 3.4 1.5c0.9 0.9 1.4 2.1 1.4 3.4c0 1.3-0.5 2.5-1.4 3.4c-0.9 0.9-2.1 1.4-3.4 1.4z" />
		<path id="Layer" class="s4" d="m44.3-232.7c0.7-0.7 1.7-1.1 2.8-1.1c2.1 0 3.9 1.8 3.9 4c0 1.1-0.4 2.1-1.1 2.8" />
	</g>
	<g id="Layer">
		<path id="Layer" class="s3" d="m47.2-255.4c-1.3 0-2.5-0.5-3.5-1.4c-0.9-0.9-1.4-2.1-1.4-3.4c0-1.3 0.5-2.5 1.4-3.4c1-1 2.2-1.5 3.5-1.5c1.3 0 2.5 0.5 3.4 1.5c0.9 0.9 1.4 2.1 1.4 3.4c0 1.3-0.5 2.5-1.4 3.4c-0.9 0.9-2.1 1.4-3.4 1.4z" />
		<path id="Layer" class="s4" d="m44.3-263.1c0.7-0.7 1.7-1.1 2.8-1.1c2.1 0 3.9 1.8 3.9 4c0 1.1-0.4 2.1-1.1 2.8" />
	</g>
	<path id="Layer" class="s0" d="m78.6 254.2v-110.4q0.1-1 0.4-1.9q0.4-0.9 1.1-1.6q0.7-0.7 1.6-1.1q1-0.4 1.9-0.4h52.2q1 0 1.9 0.4q1 0.4 1.7 1.1q0.7 0.7 1 1.6q0.4 0.9 0.4 1.9v110.4q0 1-0.4 1.9q-0.3 0.9-1 1.6q-0.7 0.7-1.7 1.1q-0.9 0.4-1.9 0.4h-52.2q-0.9 0-1.9-0.4q-0.9-0.4-1.6-1.1q-0.7-0.7-1.1-1.6q-0.3-0.9-0.4-1.9z" />
	<path id="Layer" class="s0" d="m84.7 252.7v-50h50v50z" />
	<path id="Layer" class="s0" d="m84.7 195.2v-50h50v50z" />
	<g id="Layer">
		<path id="Layer" class="s1" d="m85.2 200h47.6" />
		<path id="Layer" class="s2" d="m85.2 198h47.6" />
	</g>
	<g id="Layer">
		<path id="Layer" class="s3" d="m94.5 251c-1.3 0-2.5-0.5-3.5-1.5c-0.9-0.9-1.4-2.1-1.4-3.4c0-1.3 0.5-2.5 1.4-3.4c1-0.9 2.2-1.4 3.5-1.4c1.3 0 2.5 0.5 3.4 1.4c0.9 0.9 1.4 2.1 1.4 3.4c0 1.3-0.5 2.5-1.4 3.4c-0.9 1-2.1 1.5-3.4 1.5z" />
		<path id="Layer" class="s4" d="m91.6 243.2c0.7-0.7 1.7-1.1 2.8-1.1c2.1 0 3.9 1.8 3.9 4c0 1.1-0.4 2.1-1.1 2.8" />
	</g>
	<g id="Layer">
		<path id="Layer" class="s3" d="m94.5 220.6c-1.3 0-2.5-0.5-3.5-1.4c-0.9-1-1.4-2.2-1.4-3.5c0-1.3 0.5-2.5 1.4-3.4c1-0.9 2.2-1.4 3.5-1.4c1.3 0 2.5 0.5 3.4 1.4c0.9 0.9 1.4 2.1 1.4 3.4c0 1.3-0.5 2.5-1.4 3.5c-0.9 0.9-2.1 1.4-3.4 1.4z" />
		<path id="Layer" class="s4" d="m91.6 212.8c0.7-0.7 1.7-1.1 2.8-1.1c2.1 0 3.9 1.8 3.9 4c0 1.1-0.4 2.1-1.1 2.8" />
	</g>
	<g id="Layer">
		<path id="Layer" class="s3" d="m124.5 251c-1.3 0-2.5-0.5-3.5-1.5c-0.9-0.9-1.4-2.1-1.4-3.4c0-1.3 0.5-2.5 1.4-3.4c1-0.9 2.2-1.4 3.5-1.4c1.3 0 2.5 0.5 3.4 1.4c0.9 0.9 1.4 2.1 1.4 3.4c0 1.3-0.5 2.5-1.4 3.4c-0.9 1-2.1 1.5-3.4 1.5z" />
		<path id="Layer" class="s4" d="m121.6 243.2c0.7-0.7 1.7-1.1 2.8-1.1c2.1 0 3.9 1.8 3.9 4c0 1.1-0.4 2.1-1.1 2.8" />
	</g>
	<g id="Layer">
		<path id="Layer" class="s3" d="m124.5 220.6c-1.3 0-2.5-0.5-3.5-1.4c-0.9-1-1.4-2.2-1.4-3.5c0-1.3 0.5-2.5 1.4-3.4c1-0.9 2.2-1.4 3.5-1.4c1.3 0 2.5 0.5 3.4 1.4c0.9 0.9 1.4 2.1 1.4 3.4c0 1.3-0.5 2.5-1.4 3.5c-0.9 0.9-2.1 1.4-3.4 1.4z" />
		<path id="Layer" class="s4" d="m121.6 212.8c0.7-0.7 1.7-1.1 2.8-1.1c2.1 0 3.9 1.8 3.9 4c0 1.1-0.4 2.1-1.1 2.8" />
	</g>
	<g id="Layer">
		<path id="Layer" class="s3" d="m94.5 189.4c-1.3 0-2.5-0.5-3.5-1.5c-0.9-0.9-1.4-2.1-1.4-3.4c0-1.3 0.5-2.5 1.4-3.4c1-0.9 2.2-1.4 3.5-1.4c1.3 0 2.5 0.5 3.4 1.4c0.9 0.9 1.4 2.1 1.4 3.4c0 1.3-0.5 2.5-1.4 3.4c-0.9 1-2.1 1.5-3.4 1.5z" />
		<path id="Layer" class="s4" d="m91.6 181.6c0.7-0.7 1.7-1.1 2.8-1.1c2.1 0 3.9 1.8 3.9 4c0 1.1-0.4 2.1-1.1 2.8" />
	</g>
	<g id="Layer">
		<path id="Layer" class="s3" d="m94.5 159c-1.3 0-2.5-0.5-3.5-1.4c-0.9-0.9-1.4-2.2-1.4-3.5c0-1.3 0.5-2.5 1.4-3.4c1-0.9 2.2-1.4 3.5-1.4c1.3 0 2.5 0.5 3.4 1.4c0.9 0.9 1.4 2.1 1.4 3.4c0 1.3-0.5 2.6-1.4 3.5c-0.9 0.9-2.1 1.4-3.4 1.4z" />
		<path id="Layer" class="s4" d="m91.6 151.2c0.7-0.7 1.7-1.1 2.8-1.1c2.1 0 3.9 1.8 3.9 4c0 1.1-0.4 2.1-1.1 2.9" />
	</g>
	<g id="Layer">
		<path id="Layer" class="s3" d="m94.5 174.2c-1.3 0-2.5-0.5-3.5-1.4c-0.9-1-1.4-2.2-1.4-3.5c0-1.3 0.5-2.5 1.4-3.4c1-0.9 2.2-1.4 3.5-1.4c1.3 0 2.5 0.5 3.4 1.4c0.9 0.9 1.4 2.1 1.4 3.4c0 1.3-0.5 2.5-1.4 3.5c-0.9 0.9-2.1 1.4-3.4 1.4z" />
		<path id="Layer" class="s4" d="m91.6 166.4c0.7-0.7 1.7-1.1 2.8-1.1c2.1 0 3.9 1.8 3.9 4c0 1.1-0.4 2.1-1.1 2.8" />
	</g>
	<g id="Layer">
		<path id="Layer" class="s3" d="m124.5 189.4c-1.3 0-2.5-0.5-3.5-1.5c-0.9-0.9-1.4-2.1-1.4-3.4c0-1.3 0.5-2.5 1.4-3.4c1-0.9 2.2-1.4 3.5-1.4c1.3 0 2.5 0.5 3.4 1.4c0.9 0.9 1.4 2.1 1.4 3.4c0 1.3-0.5 2.5-1.4 3.4c-0.9 1-2.1 1.5-3.4 1.5z" />
		<path id="Layer" class="s4" d="m121.6 181.6c0.7-0.7 1.7-1.1 2.8-1.1c2.1 0 3.9 1.8 3.9 4c0 1.1-0.4 2.1-1.1 2.8" />
	</g>
	<g id="Layer">
		<path id="Layer" class="s3" d="m124.5 159c-1.3 0-2.5-0.5-3.5-1.4c-0.9-0.9-1.4-2.2-1.4-3.5c0-1.3 0.5-2.5 1.4-3.4c1-0.9 2.2-1.4 3.5-1.4c1.3 0 2.5 0.5 3.4 1.4c0.9 0.9 1.4 2.1 1.4 3.4c0 1.3-0.5 2.6-1.4 3.5c-0.9 0.9-2.1 1.4-3.4 1.4z" />
		<path id="Layer" class="s4" d="m121.6 151.2c0.7-0.7 1.7-1.1 2.8-1.1c2.1 0 3.9 1.8 3.9 4c0 1.1-0.4 2.1-1.1 2.9" />
	</g>
	<g id="Layer">
		<path id="Layer" class="s3" d="m124.5 174.2c-1.3 0-2.5-0.5-3.5-1.4c-0.9-1-1.4-2.2-1.4-3.5c0-1.3 0.5-2.5 1.4-3.4c1-0.9 2.2-1.4 3.5-1.4c1.3 0 2.5 0.5 3.4 1.4c0.9 0.9 1.4 2.1 1.4 3.4c0 1.3-0.5 2.5-1.4 3.5c-0.9 0.9-2.1 1.4-3.4 1.4z" />
		<path id="Layer" class="s4" d="m121.6 166.4c0.7-0.7 1.7-1.1 2.8-1.1c2.1 0 3.9 1.8 3.9 4c0 1.1-0.4 2.1-1.1 2.8" />
	</g>
	<path id="Layer" class="s0" d="m78.6 116.1v-110.4q0.1-1 0.4-1.9q0.4-1 1.1-1.7q0.7-0.7 1.6-1q1-0.4 1.9-0.4h52.2q1 0 1.9 0.4q1 0.3 1.7 1q0.7 0.7 1 1.7q0.4 0.9 0.4 1.9v110.4q0 1-0.4 1.9q-0.3 0.9-1 1.6q-0.7 0.7-1.7 1.1q-0.9 0.4-1.9 0.4h-52.2q-0.9 0-1.9-0.4q-0.9-0.4-1.6-1.1q-0.7-0.7-1.1-1.6q-0.3-0.9-0.4-1.9z" />
	<path id="Layer" class="s0" d="m84.7 114.6v-50h50v50z" />
	<path id="Layer" class="s0" d="m84.7 57v-50h50v50z" />
	<g id="Layer">
		<path id="Layer" class="s1" d="m85.2 61.9h47.6" />
		<path id="Layer" class="s2" d="m85.2 59.9h47.6" />
	</g>
	<g id="Layer">
		<path id="Layer" class="s3" d="m94.5 112.8c-1.3 0-2.5-0.5-3.5-1.4c-0.9-0.9-1.4-2.1-1.4-3.4c0-1.3 0.5-2.5 1.4-3.4c1-0.9 2.2-1.5 3.5-1.5c1.3 0 2.5 0.6 3.4 1.5c0.9 0.9 1.4 2.1 1.4 3.4c0 1.3-0.5 2.5-1.4 3.4c-0.9 0.9-2.1 1.4-3.4 1.4z" />
		<path id="Layer" class="s4" d="m91.6 105.1c0.7-0.7 1.7-1.1 2.8-1.1c2.1 0 3.9 1.8 3.9 4c0 1.1-0.4 2.1-1.1 2.8" />
	</g>
	<g id="Layer">
		<path id="Layer" class="s3" d="m109.5 97.7c-1.3 0-2.5-0.6-3.5-1.5c-0.9-0.9-1.4-2.1-1.4-3.4c0-1.3 0.5-2.5 1.4-3.4c1-0.9 2.2-1.4 3.5-1.4c1.3 0 2.5 0.5 3.4 1.4c0.9 0.9 1.4 2.1 1.4 3.4c0 1.3-0.5 2.5-1.4 3.4c-0.9 0.9-2.1 1.5-3.4 1.5z" />
		<path id="Layer" class="s4" d="m106.6 89.9c0.7-0.7 1.7-1.1 2.8-1.1c2.1 0 3.9 1.8 3.9 4c0 1.1-0.4 2.1-1.1 2.8" />
	</g>
	<g id="Layer">
		<path id="Layer" class="s3" d="m94.5 82.5c-1.3 0-2.5-0.5-3.5-1.5c-0.9-0.9-1.4-2.1-1.4-3.4c0-1.3 0.5-2.5 1.4-3.4c1-0.9 2.2-1.4 3.5-1.4c1.3 0 2.5 0.5 3.4 1.4c0.9 0.9 1.4 2.1 1.4 3.4c0 1.3-0.5 2.5-1.4 3.4c-0.9 1-2.1 1.5-3.4 1.5z" />
		<path id="Layer" class="s4" d="m91.6 74.7c0.7-0.7 1.7-1.1 2.8-1.1c2.1 0 3.9 1.8 3.9 4c0 1.1-0.4 2.1-1.1 2.8" />
	</g>
	<g id="Layer">
		<path id="Layer" class="s3" d="m124.5 112.8c-1.3 0-2.5-0.5-3.5-1.4c-0.9-0.9-1.4-2.1-1.4-3.4c0-1.3 0.5-2.5 1.4-3.4c1-0.9 2.2-1.5 3.5-1.5c1.3 0 2.5 0.6 3.4 1.5c0.9 0.9 1.4 2.1 1.4 3.4c0 1.3-0.5 2.5-1.4 3.4c-0.9 0.9-2.1 1.4-3.4 1.4z" />
		<path id="Layer" class="s4" d="m121.6 105.1c0.7-0.7 1.7-1.1 2.8-1.1c2.1 0 3.9 1.8 3.9 4c0 1.1-0.4 2.1-1.1 2.8" />
	</g>
	<g id="Layer">
		<path id="Layer" class="s3" d="m124.5 82.5c-1.3 0-2.5-0.5-3.5-1.5c-0.9-0.9-1.4-2.1-1.4-3.4c0-1.3 0.5-2.5 1.4-3.4c1-0.9 2.2-1.4 3.5-1.4c1.3 0 2.5 0.5 3.4 1.4c0.9 0.9 1.4 2.1 1.4 3.4c0 1.3-0.5 2.5-1.4 3.4c-0.9 1-2.1 1.5-3.4 1.5z" />
		<path id="Layer" class="s4" d="m121.6 74.7c0.7-0.7 1.7-1.1 2.8-1.1c2.1 0 3.9 1.8 3.9 4c0 1.1-0.4 2.1-1.1 2.8" />
	</g>
	<g id="Layer">
		<path id="Layer" class="s3" d="m94.5 51.3c-1.3 0-2.5-0.6-3.5-1.5c-0.9-0.9-1.4-2.1-1.4-3.4c0-1.3 0.5-2.5 1.4-3.4c1-0.9 2.2-1.4 3.5-1.4c1.3 0 2.5 0.5 3.4 1.4c0.9 0.9 1.4 2.1 1.4 3.4c0 1.3-0.5 2.5-1.4 3.4c-0.9 0.9-2.1 1.5-3.4 1.5z" />
		<path id="Layer" class="s4" d="m91.6 43.5c0.7-0.7 1.7-1.1 2.8-1.1c2.1 0 3.9 1.8 3.9 4c0 1.1-0.4 2.1-1.1 2.8" />
	</g>
	<g id="Layer">
		<path id="Layer" class="s3" d="m94.5 20.9c-1.3 0-2.5-0.5-3.5-1.5c-0.9-0.9-1.4-2.1-1.4-3.4c0-1.3 0.5-2.5 1.4-3.4c1-0.9 2.2-1.4 3.5-1.4c1.3 0 2.5 0.5 3.4 1.4c0.9 0.9 1.4 2.1 1.4 3.4c0 1.3-0.5 2.5-1.4 3.4c-0.9 1-2.1 1.5-3.4 1.5z" />
		<path id="Layer" class="s4" d="m91.6 13.1c0.7-0.7 1.7-1.1 2.8-1.1c2.1 0 3.9 1.8 3.9 4c0 1.1-0.4 2.1-1.1 2.8" />
	</g>
	<g id="Layer">
		<path id="Layer" class="s3" d="m94.5 36.1c-1.3 0-2.5-0.6-3.5-1.5c-0.9-0.9-1.4-2.1-1.4-3.4c0-1.3 0.5-2.5 1.4-3.4c1-0.9 2.2-1.4 3.5-1.4c1.3 0 2.5 0.5 3.4 1.4c0.9 0.9 1.4 2.1 1.4 3.4c0 1.3-0.5 2.5-1.4 3.4c-0.9 0.9-2.1 1.5-3.4 1.5z" />
		<path id="Layer" class="s4" d="m91.6 28.3c0.7-0.7 1.7-1.1 2.8-1.1c2.1 0 3.9 1.8 3.9 4c0 1.1-0.4 2.1-1.1 2.8" />
	</g>
	<g id="Layer">
		<path id="Layer" class="s3" d="m124.5 51.3c-1.3 0-2.5-0.6-3.5-1.5c-0.9-0.9-1.4-2.1-1.4-3.4c0-1.3 0.5-2.5 1.4-3.4c1-0.9 2.2-1.4 3.5-1.4c1.3 0 2.5 0.5 3.4 1.4c0.9 0.9 1.4 2.1 1.4 3.4c0 1.3-0.5 2.5-1.4 3.4c-0.9 0.9-2.1 1.5-3.4 1.5z" />
		<path id="Layer" class="s4" d="m121.6 43.5c0.7-0.7 1.7-1.1 2.8-1.1c2.1 0 3.9 1.8 3.9 4c0 1.1-0.4 2.1-1.1 2.8" />
	</g>
	<g id="Layer">
		<path id="Layer" class="s3" d="m124.5 20.9c-1.3 0-2.5-0.5-3.5-1.5c-0.9-0.9-1.4-2.1-1.4-3.4c0-1.3 0.5-2.5 1.4-3.4c1-0.9 2.2-1.4 3.5-1.4c1.3 0 2.5 0.5 3.4 1.4c0.9 0.9 1.4 2.1 1.4 3.4c0 1.3-0.5 2.5-1.4 3.4c-0.9 1-2.1 1.5-3.4 1.5z" />
		<path id="Layer" class="s4" d="m121.6 13.1c0.7-0.7 1.7-1.1 2.8-1.1c2.1 0 3.9 1.8 3.9 4c0 1.1-0.4 2.1-1.1 2.8" />
	</g>
	<g id="Layer">
		<path id="Layer" class="s3" d="m124.5 36.1c-1.3 0-2.5-0.6-3.5-1.5c-0.9-0.9-1.4-2.1-1.4-3.4c0-1.3 0.5-2.5 1.4-3.4c1-0.9 2.2-1.4 3.5-1.4c1.3 0 2.5 0.5 3.4 1.4c0.9 0.9 1.4 2.1 1.4 3.4c0 1.3-0.5 2.5-1.4 3.4c-0.9 0.9-2.1 1.5-3.4 1.5z" />
		<path id="Layer" class="s4" d="m121.6 28.3c0.7-0.7 1.7-1.1 2.8-1.1c2.1 0 3.9 1.8 3.9 4c0 1.1-0.4 2.1-1.1 2.8" />
	</g>
	<path id="Layer" class="s0" d="m156 254.2v-110.4q0-1 0.4-1.9q0.4-0.9 1.1-1.6q0.7-0.7 1.6-1.1q0.9-0.4 1.9-0.4h52.2q1 0 1.9 0.4q0.9 0.4 1.6 1.1q0.7 0.7 1.1 1.6q0.4 0.9 0.4 1.9v110.4q0 1-0.4 1.9q-0.4 0.9-1.1 1.6q-0.7 0.7-1.6 1.1q-0.9 0.4-1.9 0.4h-52.2q-1 0-1.9-0.4q-0.9-0.4-1.6-1.1q-0.7-0.7-1.1-1.6q-0.4-0.9-0.4-1.9z" />
	<path id="Layer" class="s0" d="m162.1 252.7v-50h50v50z" />
	<path id="Layer" class="s0" d="m162.1 195.2v-50h50v50z" />
	<g id="Layer">
		<path id="Layer" class="s1" d="m162.6 200h47.6" />
		<path id="Layer" class="s2" d="m162.6 198h47.6" />
	</g>
	<g id="Layer">
		<path id="Layer" class="s3" d="m171.9 251c-1.3 0-2.5-0.5-3.5-1.5c-0.9-0.9-1.4-2.1-1.4-3.4c0-1.3 0.5-2.5 1.4-3.4c1-0.9 2.2-1.4 3.5-1.4c1.3 0 2.5 0.5 3.4 1.4c0.9 0.9 1.4 2.1 1.4 3.4c0 1.3-0.5 2.5-1.4 3.4c-0.9 1-2.1 1.5-3.4 1.5z" />
		<path id="Layer" class="s4" d="m169 243.2c0.7-0.7 1.7-1.1 2.8-1.1c2.1 0 3.9 1.8 3.9 4c0 1.1-0.4 2.1-1.1 2.8" />
	</g>
	<g id="Layer">
		<path id="Layer" class="s3" d="m186.9 235.8c-1.3 0-2.5-0.5-3.5-1.5c-0.9-0.9-1.4-2.1-1.4-3.4c0-1.3 0.5-2.5 1.4-3.4c1-0.9 2.2-1.4 3.5-1.4c1.3 0 2.5 0.5 3.4 1.4c0.9 0.9 1.4 2.1 1.4 3.4c0 1.3-0.5 2.5-1.4 3.4c-0.9 1-2.1 1.5-3.4 1.5z" />
		<path id="Layer" class="s4" d="m184 228c0.7-0.7 1.7-1.1 2.8-1.1c2.1 0 3.9 1.8 3.9 4c0 1.1-0.4 2.1-1.1 2.8" />
	</g>
	<g id="Layer">
		<path id="Layer" class="s3" d="m201.9 220.6c-1.3 0-2.5-0.5-3.5-1.4c-0.9-1-1.4-2.2-1.4-3.5c0-1.3 0.5-2.5 1.4-3.4c1-0.9 2.2-1.4 3.5-1.4c1.3 0 2.5 0.5 3.4 1.4c0.9 0.9 1.4 2.1 1.4 3.4c0 1.3-0.5 2.5-1.4 3.5c-0.9 0.9-2.1 1.4-3.4 1.4z" />
		<path id="Layer" class="s4" d="m199 212.8c0.7-0.7 1.7-1.1 2.8-1.1c2.1 0 3.9 1.8 3.9 4c0 1.1-0.4 2.1-1.1 2.8" />
	</g>
	<g id="Layer">
		<path id="Layer" class="s3" d="m171.9 189.4c-1.3 0-2.5-0.5-3.5-1.5c-0.9-0.9-1.4-2.1-1.4-3.4c0-1.3 0.5-2.5 1.4-3.4c1-0.9 2.2-1.4 3.5-1.4c1.3 0 2.5 0.5 3.4 1.4c0.9 0.9 1.4 2.1 1.4 3.4c0 1.3-0.5 2.5-1.4 3.4c-0.9 1-2.1 1.5-3.4 1.5z" />
		<path id="Layer" class="s4" d="m169 181.6c0.7-0.7 1.7-1.1 2.8-1.1c2.1 0 3.9 1.8 3.9 4c0 1.1-0.4 2.1-1.1 2.8" />
	</g>
	<g id="Layer">
		<path id="Layer" class="s3" d="m186.9 174.2c-1.3 0-2.5-0.5-3.5-1.4c-0.9-1-1.4-2.2-1.4-3.5c0-1.3 0.5-2.5 1.4-3.4c1-0.9 2.2-1.4 3.5-1.4c1.3 0 2.5 0.5 3.4 1.4c0.9 0.9 1.4 2.1 1.4 3.4c0 1.3-0.5 2.5-1.4 3.5c-0.9 0.9-2.1 1.4-3.4 1.4z" />
		<path id="Layer" class="s4" d="m184 166.4c0.7-0.7 1.7-1.1 2.8-1.1c2.1 0 3.9 1.8 3.9 4c0 1.1-0.4 2.1-1.1 2.8" />
	</g>
	<g id="Layer">
		<path id="Layer" class="s3" d="m201.9 159c-1.3 0-2.5-0.5-3.5-1.4c-0.9-0.9-1.4-2.2-1.4-3.5c0-1.3 0.5-2.5 1.4-3.4c1-0.9 2.2-1.4 3.5-1.4c1.3 0 2.5 0.5 3.4 1.4c0.9 0.9 1.4 2.1 1.4 3.4c0 1.3-0.5 2.6-1.4 3.5c-0.9 0.9-2.1 1.4-3.4 1.4z" />
		<path id="Layer" class="s4" d="m199 151.2c0.7-0.7 1.7-1.1 2.8-1.1c2.1 0 3.9 1.8 3.9 4c0 1.1-0.4 2.1-1.1 2.9" />
	</g>
	<path id="Layer" class="s0" d="m156 116.1v-110.4q0-1 0.4-1.9q0.4-1 1.1-1.7q0.7-0.7 1.6-1q0.9-0.4 1.9-0.4h52.2q1 0 1.9 0.4q0.9 0.3 1.6 1q0.7 0.7 1.1 1.7q0.4 0.9 0.4 1.9v110.4q0 1-0.4 1.9q-0.4 0.9-1.1 1.6q-0.7 0.7-1.6 1.1q-0.9 0.4-1.9 0.4h-52.2q-1 0-1.9-0.4q-0.9-0.4-1.6-1.1q-0.7-0.7-1.1-1.6q-0.4-0.9-0.4-1.9z" />
	<path id="Layer" class="s0" d="m162.1 114.6v-50h50v50z" />
	<path id="Layer" class="s0" d="m162.1 57v-50h50v50z" />
	<g id="Layer">
		<path id="Layer" class="s1" d="m162.6 61.9h47.6" />
		<path id="Layer" class="s2" d="m162.6 59.9h47.6" />
	</g>
	<g id="Layer">
		<path id="Layer" class="s3" d="m171.9 112.8c-1.3 0-2.5-0.5-3.5-1.4c-0.9-0.9-1.4-2.1-1.4-3.4c0-1.3 0.5-2.5 1.4-3.4c1-0.9 2.2-1.5 3.5-1.5c1.3 0 2.5 0.6 3.4 1.5c0.9 0.9 1.4 2.1 1.4 3.4c0 1.3-0.5 2.5-1.4 3.4c-0.9 0.9-2.1 1.4-3.4 1.4z" />
		<path id="Layer" class="s4" d="m169 105.1c0.7-0.7 1.7-1.1 2.8-1.1c2.1 0 3.9 1.8 3.9 4c0 1.1-0.4 2.1-1.1 2.8" />
	</g>
	<g id="Layer">
		<path id="Layer" class="s3" d="m171.9 82.5c-1.3 0-2.5-0.5-3.5-1.5c-0.9-0.9-1.4-2.1-1.4-3.4c0-1.3 0.5-2.5 1.4-3.4c1-0.9 2.2-1.4 3.5-1.4c1.3 0 2.5 0.5 3.4 1.4c0.9 0.9 1.4 2.1 1.4 3.4c0 1.3-0.5 2.5-1.4 3.4c-0.9 1-2.1 1.5-3.4 1.5z" />
		<path id="Layer" class="s4" d="m169 74.7c0.7-0.7 1.7-1.1 2.8-1.1c2.1 0 3.9 1.8 3.9 4c0 1.1-0.4 2.1-1.1 2.8" />
	</g>
	<g id="Layer">
		<path id="Layer" class="s3" d="m201.9 112.8c-1.3 0-2.5-0.5-3.5-1.4c-0.9-0.9-1.4-2.1-1.4-3.4c0-1.3 0.5-2.5 1.4-3.4c1-0.9 2.2-1.5 3.5-1.5c1.3 0 2.5 0.6 3.4 1.5c0.9 0.9 1.4 2.1 1.4 3.4c0 1.3-0.5 2.5-1.4 3.4c-0.9 0.9-2.1 1.4-3.4 1.4z" />
		<path id="Layer" class="s4" d="m199 105.1c0.7-0.7 1.7-1.1 2.8-1.1c2.1 0 3.9 1.8 3.9 4c0 1.1-0.4 2.1-1.1 2.8" />
	</g>
	<g id="Layer">
		<path id="Layer" class="s3" d="m201.9 82.5c-1.3 0-2.5-0.5-3.5-1.5c-0.9-0.9-1.4-2.1-1.4-3.4c0-1.3 0.5-2.5 1.4-3.4c1-0.9 2.2-1.4 3.5-1.4c1.3 0 2.5 0.5 3.4 1.4c0.9 0.9 1.4 2.1 1.4 3.4c0 1.3-0.5 2.5-1.4 3.4c-0.9 1-2.1 1.5-3.4 1.5z" />
		<path id="Layer" class="s4" d="m199 74.7c0.7-0.7 1.7-1.1 2.8-1.1c2.1 0 3.9 1.8 3.9 4c0 1.1-0.4 2.1-1.1 2.8" />
	</g>
	<g id="Layer">
		<path id="Layer" class="s3" d="m171.9 51.3c-1.3 0-2.5-0.6-3.5-1.5c-0.9-0.9-1.4-2.1-1.4-3.4c0-1.3 0.5-2.5 1.4-3.4c1-0.9 2.2-1.4 3.5-1.4c1.3 0 2.5 0.5 3.4 1.4c0.9 0.9 1.4 2.1 1.4 3.4c0 1.3-0.5 2.5-1.4 3.4c-0.9 0.9-2.1 1.5-3.4 1.5z" />
		<path id="Layer" class="s4" d="m169 43.5c0.7-0.7 1.7-1.1 2.8-1.1c2.1 0 3.9 1.8 3.9 4c0 1.1-0.4 2.1-1.1 2.8" />
	</g>
	<g id="Layer">
		<path id="Layer" class="s3" d="m171.9 20.9c-1.3 0-2.5-0.5-3.5-1.5c-0.9-0.9-1.4-2.1-1.4-3.4c0-1.3 0.5-2.5 1.4-3.4c1-0.9 2.2-1.4 3.5-1.4c1.3 0 2.5 0.5 3.4 1.4c0.9 0.9 1.4 2.1 1.4 3.4c0 1.3-0.5 2.5-1.4 3.4c-0.9 1-2.1 1.5-3.4 1.5z" />
		<path id="Layer" class="s4" d="m169 13.1c0.7-0.7 1.7-1.1 2.8-1.1c2.1 0 3.9 1.8 3.9 4c0 1.1-0.4 2.1-1.1 2.8" />
	</g>
	<g id="Layer">
		<path id="Layer" class="s3" d="m201.9 51.3c-1.3 0-2.5-0.6-3.5-1.5c-0.9-0.9-1.4-2.1-1.4-3.4c0-1.3 0.5-2.5 1.4-3.4c1-0.9 2.2-1.4 3.5-1.4c1.3 0 2.5 0.5 3.4 1.4c0.9 0.9 1.4 2.1 1.4 3.4c0 1.3-0.5 2.5-1.4 3.4c-0.9 0.9-2.1 1.5-3.4 1.5z" />
		<path id="Layer" class="s4" d="m199 43.5c0.7-0.7 1.7-1.1 2.8-1.1c2.1 0 3.9 1.8 3.9 4c0 1.1-0.4 2.1-1.1 2.8" />
	</g>
	<g id="Layer">
		<path id="Layer" class="s3" d="m201.9 20.9c-1.3 0-2.5-0.5-3.5-1.5c-0.9-0.9-1.4-2.1-1.4-3.4c0-1.3 0.5-2.5 1.4-3.4c1-0.9 2.2-1.4 3.5-1.4c1.3 0 2.5 0.5 3.4 1.4c0.9 0.9 1.4 2.1 1.4 3.4c0 1.3-0.5 2.5-1.4 3.4c-0.9 1-2.1 1.5-3.4 1.5z" />
		<path id="Layer" class="s4" d="m199 13.1c0.7-0.7 1.7-1.1 2.8-1.1c2.1 0 3.9 1.8 3.9 4c0 1.1-0.4 2.1-1.1 2.8" />
	</g>
	<path id="Layer" class="s0" d="m78.6-22v-110.4q0.1-1 0.4-2q0.4-0.9 1.1-1.6q0.7-0.7 1.6-1.1q1-0.3 1.9-0.3h52.2q1 0 1.9 0.3q1 0.4 1.7 1.1q0.7 0.7 1 1.6q0.4 1 0.4 2v110.4q0 1-0.4 1.9q-0.3 0.9-1 1.6q-0.7 0.7-1.7 1.1q-0.9 0.4-1.9 0.4h-52.2q-0.9 0-1.9-0.4q-0.9-0.4-1.6-1.1q-0.7-0.7-1.1-1.6q-0.3-0.9-0.4-1.9z" />
	<path id="Layer" class="s0" d="m84.7-23.5v-50h50v50z" />
	<path id="Layer" class="s0" d="m84.7-81.1v-50h50v50z" />
	<g id="Layer">
		<path id="Layer" class="s1" d="m85.2-76.3h47.6" />
		<path id="Layer" class="s2" d="m85.2-78.3h47.6" />
	</g>
	<g id="Layer">
		<path id="Layer" class="s3" d="m109.5-40.5c-1.3 0-2.5-0.5-3.5-1.4c-0.9-0.9-1.4-2.1-1.4-3.4c0-1.3 0.5-2.5 1.4-3.4c1-0.9 2.2-1.5 3.5-1.5c1.3 0 2.5 0.6 3.4 1.5c0.9 0.9 1.4 2.1 1.4 3.4c0 1.3-0.5 2.5-1.4 3.4c-0.9 0.9-2.1 1.4-3.4 1.4z" />
		<path id="Layer" class="s4" d="m106.6-48.2c0.7-0.7 1.7-1.1 2.8-1.1c2.1 0 3.9 1.8 3.9 4c0 1.1-0.4 2.1-1.1 2.8" />
	</g>
	<g id="Layer">
		<path id="Layer" class="s3" d="m109.5-102.1c-1.3 0-2.5-0.5-3.5-1.4c-0.9-0.9-1.4-2.1-1.4-3.4c0-1.3 0.5-2.5 1.4-3.4c1-0.9 2.2-1.5 3.5-1.5c1.3 0 2.5 0.6 3.4 1.5c0.9 0.9 1.4 2.1 1.4 3.4c0 1.3-0.5 2.5-1.4 3.4c-0.9 0.9-2.1 1.4-3.4 1.4z" />
		<path id="Layer" class="s4" d="m106.6-109.8c0.7-0.7 1.7-1.1 2.8-1.1c2.1 0 3.9 1.8 3.9 4c0 1.1-0.4 2.1-1.1 2.8" />
	</g>
	<path id="Layer" class="s0" d="m78.6-160.1v-110.4q0.1-1 0.4-2q0.4-0.9 1.1-1.6q0.7-0.7 1.6-1.1q1-0.3 1.9-0.3h52.2q1 0 1.9 0.3q1 0.4 1.7 1.1q0.7 0.7 1 1.6q0.4 1 0.4 2v110.4q0 1-0.4 1.9q-0.3 0.9-1 1.6q-0.7 0.7-1.7 1.1q-0.9 0.4-1.9 0.4h-52.2q-0.9 0-1.9-0.4q-0.9-0.4-1.6-1.1q-0.7-0.7-1.1-1.6q-0.3-0.9-0.4-1.9z" />
	<path id="Layer" class="s0" d="m84.7-161.6v-50h50v50z" />
	<path id="Layer" class="s0" d="m84.7-219.2v-50h50v50z" />
	<g id="Layer">
		<path id="Layer" class="s1" d="m85.2-214.4h47.6" />
		<path id="Layer" class="s2" d="m85.2-216.4h47.6" />
	</g>
	<g id="Layer">
		<path id="Layer" class="s3" d="m94.5-163.4c-1.3 0-2.5-0.5-3.5-1.4c-0.9-0.9-1.4-2.1-1.4-3.4c0-1.3 0.5-2.5 1.4-3.5c1-0.9 2.2-1.4 3.5-1.4c1.3 0 2.5 0.5 3.4 1.4c0.9 1 1.4 2.2 1.4 3.5c0 1.3-0.5 2.5-1.4 3.4c-0.9 0.9-2.1 1.4-3.4 1.4z" />
		<path id="Layer" class="s4" d="m91.6-171.1c0.7-0.7 1.7-1.1 2.8-1.1c2.1 0 3.9 1.7 3.9 4c0 1.1-0.4 2.1-1.1 2.8" />
	</g>
	<g id="Layer">
		<path id="Layer" class="s3" d="m124.5-193.8c-1.3 0-2.5-0.5-3.5-1.4c-0.9-0.9-1.4-2.1-1.4-3.4c0-1.3 0.5-2.5 1.4-3.4c1-1 2.2-1.5 3.5-1.5c1.3 0 2.5 0.5 3.4 1.5c0.9 0.9 1.4 2.1 1.4 3.4c0 1.3-0.5 2.5-1.4 3.4c-0.9 0.9-2.1 1.4-3.4 1.4z" />
		<path id="Layer" class="s4" d="m121.6-201.5c0.7-0.7 1.7-1.1 2.8-1.1c2.1 0 3.9 1.8 3.9 4c0 1.1-0.4 2.1-1.1 2.8" />
	</g>
	<g id="Layer">
		<path id="Layer" class="s3" d="m94.5-225c-1.3 0-2.5-0.5-3.5-1.4c-0.9-0.9-1.4-2.1-1.4-3.4c0-1.3 0.5-2.5 1.4-3.4c1-1 2.2-1.5 3.5-1.5c1.3 0 2.5 0.5 3.4 1.5c0.9 0.9 1.4 2.1 1.4 3.4c0 1.3-0.5 2.5-1.4 3.4c-0.9 0.9-2.1 1.4-3.4 1.4z" />
		<path id="Layer" class="s4" d="m91.6-232.7c0.7-0.7 1.7-1.1 2.8-1.1c2.1 0 3.9 1.8 3.9 4c0 1.1-0.4 2.1-1.1 2.8" />
	</g>
	<g id="Layer">
		<path id="Layer" class="s3" d="m124.5-255.4c-1.3 0-2.5-0.5-3.5-1.4c-0.9-0.9-1.4-2.1-1.4-3.4c0-1.3 0.5-2.5 1.4-3.4c1-1 2.2-1.5 3.5-1.5c1.3 0 2.5 0.5 3.4 1.5c0.9 0.9 1.4 2.1 1.4 3.4c0 1.3-0.5 2.5-1.4 3.4c-0.9 0.9-2.1 1.4-3.4 1.4z" />
		<path id="Layer" class="s4" d="m121.6-263.1c0.7-0.7 1.7-1.1 2.8-1.1c2.1 0 3.9 1.8 3.9 4c0 1.1-0.4 2.1-1.1 2.8" />
	</g>
	<path id="Layer" class="s0" d="m156-22v-110.4q0-1 0.4-2q0.4-0.9 1.1-1.6q0.7-0.7 1.6-1.1q0.9-0.3 1.9-0.3h52.2q1 0 1.9 0.3q0.9 0.4 1.6 1.1q0.7 0.7 1.1 1.6q0.4 1 0.4 2v110.4q0 1-0.4 1.9q-0.4 0.9-1.1 1.6q-0.7 0.7-1.6 1.1q-0.9 0.4-1.9 0.4h-52.2q-1 0-1.9-0.4q-0.9-0.4-1.6-1.1q-0.7-0.7-1.1-1.6q-0.4-0.9-0.4-1.9z" />
	<path id="Layer" class="s0" d="m162.1-23.5v-50h50v50z" />
	<path id="Layer" class="s0" d="m162.1-81.1v-50h50v50z" />
	<g id="Layer">
		<path id="Layer" class="s1" d="m162.6-76.3h47.6" />
		<path id="Layer" class="s2" d="m162.6-78.3h47.6" />
	</g>
	<g id="Layer">
		<path id="Layer" class="s3" d="m171.9-25.3c-1.3 0-2.5-0.5-3.5-1.4c-0.9-0.9-1.4-2.1-1.4-3.4c0-1.3 0.5-2.5 1.4-3.4c1-1 2.2-1.5 3.5-1.5c1.3 0 2.5 0.5 3.4 1.5c0.9 0.9 1.4 2.1 1.4 3.4c0 1.3-0.5 2.5-1.4 3.4c-0.9 0.9-2.1 1.4-3.4 1.4z" />
		<path id="Layer" class="s4" d="m169-33c0.7-0.7 1.7-1.1 2.8-1.1c2.1 0 3.9 1.8 3.9 4c0 1.1-0.4 2.1-1.1 2.8" />
	</g>
	<g id="Layer">
		<path id="Layer" class="s3" d="m186.9-40.5c-1.3 0-2.5-0.5-3.5-1.4c-0.9-0.9-1.4-2.1-1.4-3.4c0-1.3 0.5-2.5 1.4-3.4c1-0.9 2.2-1.5 3.5-1.5c1.3 0 2.5 0.6 3.4 1.5c0.9 0.9 1.4 2.1 1.4 3.4c0 1.3-0.5 2.5-1.4 3.4c-0.9 0.9-2.1 1.4-3.4 1.4z" />
		<path id="Layer" class="s4" d="m184-48.2c0.7-0.7 1.7-1.1 2.8-1.1c2.1 0 3.9 1.8 3.9 4c0 1.1-0.4 2.1-1.1 2.8" />
	</g>
	<g id="Layer">
		<path id="Layer" class="s3" d="m171.9-55.6c-1.3 0-2.5-0.6-3.5-1.5c-0.9-0.9-1.4-2.1-1.4-3.4c0-1.3 0.5-2.5 1.4-3.4c1-0.9 2.2-1.4 3.5-1.4c1.3 0 2.5 0.5 3.4 1.4c0.9 0.9 1.4 2.1 1.4 3.4c0 1.3-0.5 2.5-1.4 3.4c-0.9 0.9-2.1 1.5-3.4 1.5z" />
		<path id="Layer" class="s4" d="m169-63.4c0.7-0.7 1.7-1.1 2.8-1.1c2.1 0 3.9 1.8 3.9 4c0 1.1-0.4 2.1-1.1 2.8" />
	</g>
	<g id="Layer">
		<path id="Layer" class="s3" d="m201.9-25.3c-1.3 0-2.5-0.5-3.5-1.4c-0.9-0.9-1.4-2.1-1.4-3.4c0-1.3 0.5-2.5 1.4-3.4c1-1 2.2-1.5 3.5-1.5c1.3 0 2.5 0.5 3.4 1.5c0.9 0.9 1.4 2.1 1.4 3.4c0 1.3-0.5 2.5-1.4 3.4c-0.9 0.9-2.1 1.4-3.4 1.4z" />
		<path id="Layer" class="s4" d="m199-33c0.7-0.7 1.7-1.1 2.8-1.1c2.1 0 3.9 1.8 3.9 4c0 1.1-0.4 2.1-1.1 2.8" />
	</g>
	<g id="Layer">
		<path id="Layer" class="s3" d="m201.9-55.6c-1.3 0-2.5-0.6-3.5-1.5c-0.9-0.9-1.4-2.1-1.4-3.4c0-1.3 0.5-2.5 1.4-3.4c1-0.9 2.2-1.4 3.5-1.4c1.3 0 2.5 0.5 3.4 1.4c0.9 0.9 1.4 2.1 1.4 3.4c0 1.3-0.5 2.5-1.4 3.4c-0.9 0.9-2.1 1.5-3.4 1.5z" />
		<path id="Layer" class="s4" d="m199-63.4c0.7-0.7 1.7-1.1 2.8-1.1c2.1 0 3.9 1.8 3.9 4c0 1.1-0.4 2.1-1.1 2.8" />
	</g>
	<g id="Layer">
		<path id="Layer" class="s3" d="m171.9-86.9c-1.3 0-2.5-0.5-3.5-1.4c-0.9-0.9-1.4-2.1-1.4-3.4c0-1.3 0.5-2.5 1.4-3.4c1-1 2.2-1.5 3.5-1.5c1.3 0 2.5 0.5 3.4 1.5c0.9 0.9 1.4 2.1 1.4 3.4c0 1.3-0.5 2.5-1.4 3.4c-0.9 0.9-2.1 1.4-3.4 1.4z" />
		<path id="Layer" class="s4" d="m169-94.6c0.7-0.7 1.7-1.1 2.8-1.1c2.1 0 3.9 1.8 3.9 4c0 1.1-0.4 2.1-1.1 2.8" />
	</g>
	<g id="Layer">
		<path id="Layer" class="s3" d="m186.9-102.1c-1.3 0-2.5-0.5-3.5-1.4c-0.9-0.9-1.4-2.1-1.4-3.4c0-1.3 0.5-2.5 1.4-3.4c1-0.9 2.2-1.5 3.5-1.5c1.3 0 2.5 0.6 3.4 1.5c0.9 0.9 1.4 2.1 1.4 3.4c0 1.3-0.5 2.5-1.4 3.4c-0.9 0.9-2.1 1.4-3.4 1.4z" />
		<path id="Layer" class="s4" d="m184-109.8c0.7-0.7 1.7-1.1 2.8-1.1c2.1 0 3.9 1.8 3.9 4c0 1.1-0.4 2.1-1.1 2.8" />
	</g>
	<g id="Layer">
		<path id="Layer" class="s3" d="m171.9-117.2c-1.3 0-2.5-0.6-3.5-1.5c-0.9-0.9-1.4-2.1-1.4-3.4c0-1.3 0.5-2.5 1.4-3.4c1-0.9 2.2-1.4 3.5-1.4c1.3 0 2.5 0.5 3.4 1.4c0.9 0.9 1.4 2.1 1.4 3.4c0 1.3-0.5 2.5-1.4 3.4c-0.9 0.9-2.1 1.5-3.4 1.5z" />
		<path id="Layer" class="s4" d="m169-125c0.7-0.7 1.7-1.1 2.8-1.1c2.1 0 3.9 1.8 3.9 4c0 1.1-0.4 2.1-1.1 2.8" />
	</g>
	<g id="Layer">
		<path id="Layer" class="s3" d="m201.9-86.9c-1.3 0-2.5-0.5-3.5-1.4c-0.9-0.9-1.4-2.1-1.4-3.4c0-1.3 0.5-2.5 1.4-3.4c1-1 2.2-1.5 3.5-1.5c1.3 0 2.5 0.5 3.4 1.5c0.9 0.9 1.4 2.1 1.4 3.4c0 1.3-0.5 2.5-1.4 3.4c-0.9 0.9-2.1 1.4-3.4 1.4z" />
		<path id="Layer" class="s4" d="m199-94.6c0.7-0.7 1.7-1.1 2.8-1.1c2.1 0 3.9 1.8 3.9 4c0 1.1-0.4 2.1-1.1 2.8" />
	</g>
	<g id="Layer">
		<path id="Layer" class="s3" d="m201.9-117.2c-1.3 0-2.5-0.6-3.5-1.5c-0.9-0.9-1.4-2.1-1.4-3.4c0-1.3 0.5-2.5 1.4-3.4c1-0.9 2.2-1.4 3.5-1.4c1.3 0 2.5 0.5 3.4 1.4c0.9 0.9 1.4 2.1 1.4 3.4c0 1.3-0.5 2.5-1.4 3.4c-0.9 0.9-2.1 1.5-3.4 1.5z" />
		<path id="Layer" class="s4" d="m199-125c0.7-0.7 1.7-1.1 2.8-1.1c2.1 0 3.9 1.8 3.9 4c0 1.1-0.4 2.1-1.1 2.8" />
	</g>
	<path id="Layer" class="s0" d="m156-160.1v-110.4q0-1 0.4-2q0.4-0.9 1.1-1.6q0.7-0.7 1.6-1.1q0.9-0.3 1.9-0.3h52.2q1 0 1.9 0.3q0.9 0.4 1.6 1.1q0.7 0.7 1.1 1.6q0.4 1 0.4 2v110.4q0 1-0.4 1.9q-0.4 0.9-1.1 1.6q-0.7 0.7-1.6 1.1q-0.9 0.4-1.9 0.4h-52.2q-1 0-1.9-0.4q-0.9-0.4-1.6-1.1q-0.7-0.7-1.1-1.6q-0.4-0.9-0.4-1.9z" />
	<path id="Layer" class="s0" d="m162.1-161.6v-50h50v50z" />
	<path id="Layer" class="s0" d="m162.1-219.2v-50h50v50z" />
	<g id="Layer">
		<path id="Layer" class="s1" d="m162.6-214.4h47.6" />
		<path id="Layer" class="s2" d="m162.6-216.4h47.6" />
	</g>
	<g id="Layer">
		<path id="Layer" class="s3" d="m171.9-163.4c-1.3 0-2.5-0.5-3.5-1.4c-0.9-0.9-1.4-2.1-1.4-3.4c0-1.3 0.5-2.5 1.4-3.5c1-0.9 2.2-1.4 3.5-1.4c1.3 0 2.5 0.5 3.4 1.4c0.9 1 1.4 2.2 1.4 3.5c0 1.3-0.5 2.5-1.4 3.4c-0.9 0.9-2.1 1.4-3.4 1.4z" />
		<path id="Layer" class="s4" d="m169-171.1c0.7-0.7 1.7-1.1 2.8-1.1c2.1 0 3.9 1.7 3.9 4c0 1.1-0.4 2.1-1.1 2.8" />
	</g>
	<g id="Layer">
		<path id="Layer" class="s3" d="m171.9-193.8c-1.3 0-2.5-0.5-3.5-1.4c-0.9-0.9-1.4-2.1-1.4-3.4c0-1.3 0.5-2.5 1.4-3.4c1-1 2.2-1.5 3.5-1.5c1.3 0 2.5 0.5 3.4 1.5c0.9 0.9 1.4 2.1 1.4 3.4c0 1.3-0.5 2.5-1.4 3.4c-0.9 0.9-2.1 1.4-3.4 1.4z" />
		<path id="Layer" class="s4" d="m169-201.5c0.7-0.7 1.7-1.1 2.8-1.1c2.1 0 3.9 1.8 3.9 4c0 1.1-0.4 2.1-1.1 2.8" />
	</g>
	<g id="Layer">
		<path id="Layer" class="s3" d="m171.9-178.6c-1.3 0-2.5-0.5-3.5-1.4c-0.9-0.9-1.4-2.1-1.4-3.4c0-1.3 0.5-2.5 1.4-3.4c1-1 2.2-1.5 3.5-1.5c1.3 0 2.5 0.5 3.4 1.5c0.9 0.9 1.4 2.1 1.4 3.4c0 1.3-0.5 2.5-1.4 3.4c-0.9 0.9-2.1 1.4-3.4 1.4z" />
		<path id="Layer" class="s4" d="m169-186.3c0.7-0.7 1.7-1.1 2.8-1.1c2.1 0 3.9 1.8 3.9 4c0 1.1-0.4 2.1-1.1 2.8" />
	</g>
	<g id="Layer">
		<path id="Layer" class="s3" d="m201.9-163.4c-1.3 0-2.5-0.5-3.5-1.4c-0.9-0.9-1.4-2.1-1.4-3.4c0-1.3 0.5-2.5 1.4-3.5c1-0.9 2.2-1.4 3.5-1.4c1.3 0 2.5 0.5 3.4 1.4c0.9 1 1.4 2.2 1.4 3.5c0 1.3-0.5 2.5-1.4 3.4c-0.9 0.9-2.1 1.4-3.4 1.4z" />
		<path id="Layer" class="s4" d="m199-171.1c0.7-0.7 1.7-1.1 2.8-1.1c2.1 0 3.9 1.7 3.9 4c0 1.1-0.4 2.1-1.1 2.8" />
	</g>
	<g id="Layer">
		<path id="Layer" class="s3" d="m201.9-193.8c-1.3 0-2.5-0.5-3.5-1.4c-0.9-0.9-1.4-2.1-1.4-3.4c0-1.3 0.5-2.5 1.4-3.4c1-1 2.2-1.5 3.5-1.5c1.3 0 2.5 0.5 3.4 1.5c0.9 0.9 1.4 2.1 1.4 3.4c0 1.3-0.5 2.5-1.4 3.4c-0.9 0.9-2.1 1.4-3.4 1.4z" />
		<path id="Layer" class="s4" d="m199-201.5c0.7-0.7 1.7-1.1 2.8-1.1c2.1 0 3.9 1.8 3.9 4c0 1.1-0.4 2.1-1.1 2.8" />
	</g>
	<g id="Layer">
		<path id="Layer" class="s3" d="m201.9-178.6c-1.3 0-2.5-0.5-3.5-1.4c-0.9-0.9-1.4-2.1-1.4-3.4c0-1.3 0.5-2.5 1.4-3.4c1-1 2.2-1.5 3.5-1.5c1.3 0 2.5 0.5 3.4 1.5c0.9 0.9 1.4 2.1 1.4 3.4c0 1.3-0.5 2.5-1.4 3.4c-0.9 0.9-2.1 1.4-3.4 1.4z" />
		<path id="Layer" class="s4" d="m199-186.3c0.7-0.7 1.7-1.1 2.8-1.1c2.1 0 3.9 1.8 3.9 4c0 1.1-0.4 2.1-1.1 2.8" />
	</g>
	<g id="Layer">
		<path id="Layer" class="s3" d="m171.9-225c-1.3 0-2.5-0.5-3.5-1.4c-0.9-0.9-1.4-2.1-1.4-3.4c0-1.3 0.5-2.5 1.4-3.4c1-1 2.2-1.5 3.5-1.5c1.3 0 2.5 0.5 3.4 1.5c0.9 0.9 1.4 2.1 1.4 3.4c0 1.3-0.5 2.5-1.4 3.4c-0.9 0.9-2.1 1.4-3.4 1.4z" />
		<path id="Layer" class="s4" d="m169-232.7c0.7-0.7 1.7-1.1 2.8-1.1c2.1 0 3.9 1.8 3.9 4c0 1.1-0.4 2.1-1.1 2.8" />
	</g>
	<g id="Layer">
		<path id="Layer" class="s3" d="m171.9-255.4c-1.3 0-2.5-0.5-3.5-1.4c-0.9-0.9-1.4-2.1-1.4-3.4c0-1.3 0.5-2.5 1.4-3.4c1-1 2.2-1.5 3.5-1.5c1.3 0 2.5 0.5 3.4 1.5c0.9 0.9 1.4 2.1 1.4 3.4c0 1.3-0.5 2.5-1.4 3.4c-0.9 0.9-2.1 1.4-3.4 1.4z" />
		<path id="Layer" class="s4" d="m169-263.1c0.7-0.7 1.7-1.1 2.8-1.1c2.1 0 3.9 1.8 3.9 4c0 1.1-0.4 2.1-1.1 2.8" />
	</g>
	<g id="Layer">
		<path id="Layer" class="s3" d="m171.9-240.2c-1.3 0-2.5-0.5-3.5-1.4c-0.9-0.9-1.4-2.1-1.4-3.4c0-1.3 0.5-2.5 1.4-3.4c1-1 2.2-1.5 3.5-1.5c1.3 0 2.5 0.5 3.4 1.5c0.9 0.9 1.4 2.1 1.4 3.4c0 1.3-0.5 2.5-1.4 3.4c-0.9 0.9-2.1 1.4-3.4 1.4z" />
		<path id="Layer" class="s4" d="m169-247.9c0.7-0.7 1.7-1.1 2.8-1.1c2.1 0 3.9 1.8 3.9 4c0 1.1-0.4 2.1-1.1 2.8" />
	</g>
	<g id="Layer">
		<path id="Layer" class="s3" d="m201.9-225c-1.3 0-2.5-0.5-3.5-1.4c-0.9-0.9-1.4-2.1-1.4-3.4c0-1.3 0.5-2.5 1.4-3.4c1-1 2.2-1.5 3.5-1.5c1.3 0 2.5 0.5 3.4 1.5c0.9 0.9 1.4 2.1 1.4 3.4c0 1.3-0.5 2.5-1.4 3.4c-0.9 0.9-2.1 1.4-3.4 1.4z" />
		<path id="Layer" class="s4" d="m199-232.7c0.7-0.7 1.7-1.1 2.8-1.1c2.1 0 3.9 1.8 3.9 4c0 1.1-0.4 2.1-1.1 2.8" />
	</g>
	<g id="Layer">
		<path id="Layer" class="s3" d="m201.9-255.4c-1.3 0-2.5-0.5-3.5-1.4c-0.9-0.9-1.4-2.1-1.4-3.4c0-1.3 0.5-2.5 1.4-3.4c1-1 2.2-1.5 3.5-1.5c1.3 0 2.5 0.5 3.4 1.5c0.9 0.9 1.4 2.1 1.4 3.4c0 1.3-0.5 2.5-1.4 3.4c-0.9 0.9-2.1 1.4-3.4 1.4z" />
		<path id="Layer" class="s4" d="m199-263.1c0.7-0.7 1.7-1.1 2.8-1.1c2.1 0 3.9 1.8 3.9 4c0 1.1-0.4 2.1-1.1 2.8" />
	</g>
	<g id="Layer">
		<path id="Layer" class="s3" d="m201.9-240.2c-1.3 0-2.5-0.5-3.5-1.4c-0.9-0.9-1.4-2.1-1.4-3.4c0-1.3 0.5-2.5 1.4-3.4c1-1 2.2-1.5 3.5-1.5c1.3 0 2.5 0.5 3.4 1.5c0.9 0.9 1.4 2.1 1.4 3.4c0 1.3-0.5 2.5-1.4 3.4c-0.9 0.9-2.1 1.4-3.4 1.4z" />
		<path id="Layer" class="s4" d="m199-247.9c0.7-0.7 1.7-1.1 2.8-1.1c2.1 0 3.9 1.8 3.9 4c0 1.1-0.4 2.1-1.1 2.8" />
	</g>
</svg>