<svg version="1.2" xmlns="http://www.w3.org/2000/svg" viewBox="0 0 64 122" width="64" height="122">
	<title>domino-161746-svg</title>
	<style>
		.s0 { fill: #000000 } 
		.s1 { fill: none;stroke: #323232;stroke-linecap: round;stroke-width: 2 } 
		.s2 { fill: none;stroke: #969696;stroke-linecap: round;stroke-width: 2 } 
		.s3 { fill: #ffffff;stroke: #323232;stroke-linecap: round;stroke-linejoin: round;stroke-width: 2 } 
		.s4 { fill: none;stroke: #969696;stroke-linecap: round;stroke-linejoin: round;stroke-width: 1.6 } 
	</style>
	<path id="Layer" class="s0" d="m-385.9 392.2v-110.4q0.1-1 0.4-1.9q0.4-0.9 1.1-1.6q0.7-0.7 1.6-1.1q1-0.4 1.9-0.4h52.2q1 0 1.9 0.4q1 0.4 1.7 1.1q0.7 0.7 1 1.6q0.4 0.9 0.4 1.9v110.4q0 1-0.4 1.9q-0.3 0.9-1 1.6q-0.7 0.7-1.7 1.1q-0.9 0.4-1.9 0.4h-52.2q-0.9 0-1.9-0.4q-0.9-0.4-1.6-1.1q-0.7-0.7-1.1-1.6q-0.3-0.9-0.4-1.9z" />
	<path id="Layer" class="s0" d="m-379.8 333.2v-50h50v50z" />
	<g id="Layer">
		<path id="Layer" class="s1" d="m-379.3 338h47.6" />
		<path id="Layer" class="s2" d="m-379.3 336h47.6" />
	</g>
	<g id="Layer">
		<path id="Layer" class="s3" d="m-370 327.4c-1.3 0-2.5-0.5-3.4-1.5c-0.9-0.9-1.4-2.1-1.4-3.4c0-1.3 0.5-2.5 1.4-3.4c0.9-0.9 2.1-1.4 3.4-1.4c1.3 0 2.5 0.5 3.5 1.4c0.9 0.9 1.4 2.1 1.4 3.4c0 1.3-0.5 2.5-1.4 3.4c-1 1-2.2 1.5-3.5 1.5z" />
		<path id="Layer" class="s4" d="m-372.8 319.6c0.7-0.7 1.7-1.1 2.7-1.1c2.2 0 4 1.8 4 4c0 1.1-0.5 2.1-1.2 2.8" />
	</g>
	<g id="Layer">
		<path id="Layer" class="s3" d="m-370 297c-1.3 0-2.5-0.5-3.4-1.4c-0.9-0.9-1.4-2.2-1.4-3.5c0-1.3 0.5-2.5 1.4-3.4c0.9-0.9 2.1-1.4 3.4-1.4c1.3 0 2.5 0.5 3.5 1.4c0.9 0.9 1.4 2.1 1.4 3.4c0 1.3-0.5 2.6-1.4 3.5c-1 0.9-2.2 1.4-3.5 1.4z" />
		<path id="Layer" class="s4" d="m-372.8 289.2c0.7-0.7 1.7-1.1 2.7-1.1c2.2 0 4 1.8 4 4c0 1.1-0.5 2.1-1.2 2.9" />
	</g>
	<g id="Layer">
		<path id="Layer" class="s3" d="m-340 327.4c-1.3 0-2.5-0.5-3.4-1.5c-0.9-0.9-1.4-2.1-1.4-3.4c0-1.3 0.5-2.5 1.4-3.4c0.9-0.9 2.1-1.4 3.4-1.4c1.3 0 2.5 0.5 3.5 1.4c0.9 0.9 1.4 2.1 1.4 3.4c0 1.3-0.5 2.5-1.4 3.4c-1 1-2.2 1.5-3.5 1.5z" />
		<path id="Layer" class="s4" d="m-342.8 319.6c0.7-0.7 1.7-1.1 2.7-1.1c2.2 0 4 1.8 4 4c0 1.1-0.5 2.1-1.2 2.8" />
	</g>
	<g id="Layer">
		<path id="Layer" class="s3" d="m-340 297c-1.3 0-2.5-0.5-3.4-1.4c-0.9-0.9-1.4-2.2-1.4-3.5c0-1.3 0.5-2.5 1.4-3.4c0.9-0.9 2.1-1.4 3.4-1.4c1.3 0 2.5 0.5 3.5 1.4c0.9 0.9 1.4 2.1 1.4 3.4c0 1.3-0.5 2.6-1.4 3.5c-1 0.9-2.2 1.4-3.5 1.4z" />
		<path id="Layer" class="s4" d="m-342.8 289.2c0.7-0.7 1.7-1.1 2.7-1.1c2.2 0 4 1.8 4 4c0 1.1-0.5 2.1-1.2 2.9" />
	</g>
	<path id="Layer" class="s0" d="m-463.2 392.2v-110.4q0-1 0.4-1.9q0.3-0.9 1-1.6q0.7-0.7 1.7-1.1q0.9-0.4 1.9-0.4h52.1q1 0 2 0.4q0.9 0.4 1.6 1.1q0.7 0.7 1.1 1.6q0.3 0.9 0.3 1.9v110.4q0 1-0.3 1.9q-0.4 0.9-1.1 1.6q-0.7 0.7-1.6 1.1q-1 0.4-2 0.4h-52.1q-1 0-1.9-0.4q-1-0.4-1.7-1.1q-0.7-0.7-1-1.6q-0.4-0.9-0.4-1.9z" />
	<path id="Layer" class="s0" d="m-457.1 390.7v-50h50v50z" />
	<path id="Layer" class="s0" d="m-457.1 333.2v-50h50v50z" />
	<g id="Layer">
		<path id="Layer" class="s1" d="m-456.7 338h47.7" />
		<path id="Layer" class="s2" d="m-456.7 336h47.7" />
	</g>
	<path id="Layer" class="s0" d="m-463.2 254.1v-110.4q0-1 0.4-1.9q0.3-1 1-1.7q0.7-0.7 1.7-1q0.9-0.4 1.9-0.4h52.1q1 0 2 0.4q0.9 0.3 1.6 1q0.7 0.7 1.1 1.7q0.3 0.9 0.3 1.9v110.4q0 1-0.3 1.9q-0.4 0.9-1.1 1.6q-0.7 0.7-1.6 1.1q-1 0.4-2 0.4h-52.1q-1 0-1.9-0.4q-1-0.4-1.7-1.1q-0.7-0.7-1-1.6q-0.4-0.9-0.4-1.9z" />
	<path id="Layer" class="s0" d="m-457.1 252.6v-50h50v50z" />
	<path id="Layer" class="s0" d="m-457.1 195v-50h50v50z" />
	<g id="Layer">
		<path id="Layer" class="s1" d="m-456.7 199.9h47.7" />
		<path id="Layer" class="s2" d="m-456.7 197.9h47.7" />
	</g>
	<g id="Layer">
		<path id="Layer" class="s3" d="m-432.4 174.1c-1.2 0-2.5-0.6-3.4-1.5c-0.9-0.9-1.4-2.1-1.4-3.4c0-1.3 0.5-2.5 1.4-3.4c0.9-0.9 2.2-1.4 3.4-1.4c1.3 0 2.6 0.5 3.5 1.4c0.9 0.9 1.4 2.1 1.4 3.4c0 1.3-0.5 2.5-1.4 3.4c-0.9 0.9-2.2 1.5-3.5 1.5z" />
		<path id="Layer" class="s4" d="m-435.2 166.3c0.7-0.7 1.7-1.1 2.7-1.1c2.2 0 4 1.8 4 4c0 1.1-0.5 2.1-1.2 2.8" />
	</g>
	<path id="Layer" class="s0" d="m-385.9 254.1v-110.4q0.1-1 0.4-1.9q0.4-1 1.1-1.7q0.7-0.7 1.6-1q1-0.4 1.9-0.4h52.2q1 0 1.9 0.4q1 0.3 1.7 1q0.7 0.7 1 1.7q0.4 0.9 0.4 1.9v110.4q0 1-0.4 1.9q-0.3 0.9-1 1.6q-0.7 0.7-1.7 1.1q-0.9 0.4-1.9 0.4h-52.2q-0.9 0-1.9-0.4q-0.9-0.4-1.6-1.1q-0.7-0.7-1.1-1.6q-0.3-0.9-0.4-1.9z" />
	<path id="Layer" class="s0" d="m-379.8 252.6v-50h50v50z" />
	<path id="Layer" class="s0" d="m-379.8 195v-50h50v50z" />
	<g id="Layer">
		<path id="Layer" class="s1" d="m-379.3 199.9h47.6" />
		<path id="Layer" class="s2" d="m-379.3 197.9h47.6" />
	</g>
	<g id="Layer">
		<path id="Layer" class="s3" d="m-370 189.3c-1.3 0-2.5-0.6-3.4-1.5c-0.9-0.9-1.4-2.1-1.4-3.4c0-1.3 0.5-2.5 1.4-3.4c0.9-0.9 2.1-1.4 3.4-1.4c1.3 0 2.5 0.5 3.5 1.4c0.9 0.9 1.4 2.1 1.4 3.4c0 1.3-0.5 2.5-1.4 3.4c-1 0.9-2.2 1.5-3.5 1.5z" />
		<path id="Layer" class="s4" d="m-372.8 181.5c0.7-0.7 1.7-1.1 2.7-1.1c2.2 0 4 1.8 4 4c0 1.1-0.5 2.1-1.2 2.8" />
	</g>
	<g id="Layer">
		<path id="Layer" class="s3" d="m-355 174.1c-1.3 0-2.5-0.6-3.4-1.5c-0.9-0.9-1.4-2.1-1.4-3.4c0-1.3 0.5-2.5 1.4-3.4c0.9-0.9 2.1-1.4 3.4-1.4c1.3 0 2.5 0.5 3.5 1.4c0.9 0.9 1.4 2.1 1.4 3.4c0 1.3-0.5 2.5-1.4 3.4c-1 0.9-2.2 1.5-3.5 1.5z" />
		<path id="Layer" class="s4" d="m-357.8 166.3c0.7-0.7 1.7-1.1 2.7-1.1c2.2 0 4 1.8 4 4c0 1.1-0.5 2.1-1.2 2.8" />
	</g>
	<g id="Layer">
		<path id="Layer" class="s3" d="m-370 158.9c-1.3 0-2.5-0.5-3.4-1.5c-0.9-0.9-1.4-2.1-1.4-3.4c0-1.3 0.5-2.5 1.4-3.4c0.9-0.9 2.1-1.4 3.4-1.4c1.3 0 2.5 0.5 3.5 1.4c0.9 0.9 1.4 2.1 1.4 3.4c0 1.3-0.5 2.5-1.4 3.4c-1 1-2.2 1.5-3.5 1.5z" />
		<path id="Layer" class="s4" d="m-372.8 151.1c0.7-0.7 1.7-1.1 2.7-1.1c2.2 0 4 1.8 4 4c0 1.1-0.5 2.1-1.2 2.8" />
	</g>
	<g id="Layer">
		<path id="Layer" class="s3" d="m-340 189.3c-1.3 0-2.5-0.6-3.4-1.5c-0.9-0.9-1.4-2.1-1.4-3.4c0-1.3 0.5-2.5 1.4-3.4c0.9-0.9 2.1-1.4 3.4-1.4c1.3 0 2.5 0.5 3.5 1.4c0.9 0.9 1.4 2.1 1.4 3.4c0 1.3-0.5 2.5-1.4 3.4c-1 0.9-2.2 1.5-3.5 1.5z" />
		<path id="Layer" class="s4" d="m-342.8 181.5c0.7-0.7 1.7-1.1 2.7-1.1c2.2 0 4 1.8 4 4c0 1.1-0.5 2.1-1.2 2.8" />
	</g>
	<g id="Layer">
		<path id="Layer" class="s3" d="m-340 158.9c-1.3 0-2.5-0.5-3.4-1.5c-0.9-0.9-1.4-2.1-1.4-3.4c0-1.3 0.5-2.5 1.4-3.4c0.9-0.9 2.1-1.4 3.4-1.4c1.3 0 2.5 0.5 3.5 1.4c0.9 0.9 1.4 2.1 1.4 3.4c0 1.3-0.5 2.5-1.4 3.4c-1 1-2.2 1.5-3.5 1.5z" />
		<path id="Layer" class="s4" d="m-342.8 151.1c0.7-0.7 1.7-1.1 2.7-1.1c2.2 0 4 1.8 4 4c0 1.1-0.5 2.1-1.2 2.8" />
	</g>
	<path id="Layer" class="s0" d="m-308.5 392.2v-110.4q0-1 0.4-1.9q0.4-0.9 1.1-1.6q0.7-0.7 1.6-1.1q0.9-0.4 1.9-0.4h52.2q1 0 1.9 0.4q0.9 0.4 1.6 1.1q0.7 0.7 1.1 1.6q0.4 0.9 0.4 1.9v110.4q0 1-0.4 1.9q-0.4 0.9-1.1 1.6q-0.7 0.7-1.6 1.1q-0.9 0.4-1.9 0.4h-52.2q-1 0-1.9-0.4q-0.9-0.4-1.6-1.1q-0.7-0.7-1.1-1.6q-0.4-0.9-0.4-1.9z" />
	<path id="Layer" class="s0" d="m-302.4 390.7v-50h50v50z" />
	<path id="Layer" class="s0" d="m-302.4 333.2v-50h50v50z" />
	<g id="Layer">
		<path id="Layer" class="s1" d="m-301.9 338h47.6" />
		<path id="Layer" class="s2" d="m-301.9 336h47.6" />
	</g>
	<g id="Layer">
		<path id="Layer" class="s3" d="m-277.6 373.8c-1.3 0-2.5-0.5-3.4-1.5c-0.9-0.9-1.5-2.1-1.5-3.4c0-1.3 0.6-2.5 1.5-3.4c0.9-0.9 2.1-1.4 3.4-1.4c1.3 0 2.5 0.5 3.4 1.4c0.9 0.9 1.4 2.1 1.4 3.4c0 1.3-0.5 2.5-1.4 3.4c-0.9 1-2.1 1.5-3.4 1.5z" />
		<path id="Layer" class="s4" d="m-280.4 366c0.7-0.7 1.6-1.1 2.7-1.1c2.2 0 3.9 1.8 3.9 4c0 1.1-0.4 2.1-1.1 2.8" />
	</g>
	<g id="Layer">
		<path id="Layer" class="s3" d="m-292.6 327.4c-1.3 0-2.5-0.5-3.4-1.5c-0.9-0.9-1.5-2.1-1.5-3.4c0-1.3 0.6-2.5 1.5-3.4c0.9-0.9 2.1-1.4 3.4-1.4c1.3 0 2.5 0.5 3.4 1.4c0.9 0.9 1.4 2.1 1.4 3.4c0 1.3-0.5 2.5-1.4 3.4c-0.9 1-2.1 1.5-3.4 1.5z" />
		<path id="Layer" class="s4" d="m-295.4 319.6c0.7-0.7 1.6-1.1 2.7-1.1c2.2 0 3.9 1.8 3.9 4c0 1.1-0.4 2.1-1.1 2.8" />
	</g>
	<g id="Layer">
		<path id="Layer" class="s3" d="m-277.6 312.2c-1.3 0-2.5-0.5-3.4-1.4c-0.9-1-1.5-2.2-1.5-3.5c0-1.3 0.6-2.5 1.5-3.4c0.9-0.9 2.1-1.4 3.4-1.4c1.3 0 2.5 0.5 3.4 1.4c0.9 0.9 1.4 2.1 1.4 3.4c0 1.3-0.5 2.5-1.4 3.5c-0.9 0.9-2.1 1.4-3.4 1.4z" />
		<path id="Layer" class="s4" d="m-280.4 304.4c0.7-0.7 1.6-1.1 2.7-1.1c2.2 0 3.9 1.8 3.9 4c0 1.1-0.4 2.1-1.1 2.8" />
	</g>
	<g id="Layer">
		<path id="Layer" class="s3" d="m-262.6 297c-1.3 0-2.5-0.5-3.4-1.4c-0.9-0.9-1.5-2.2-1.5-3.5c0-1.3 0.6-2.5 1.5-3.4c0.9-0.9 2.1-1.4 3.4-1.4c1.3 0 2.5 0.5 3.4 1.4c0.9 0.9 1.4 2.1 1.4 3.4c0 1.3-0.5 2.6-1.4 3.5c-0.9 0.9-2.1 1.4-3.4 1.4z" />
		<path id="Layer" class="s4" d="m-265.4 289.2c0.7-0.7 1.6-1.1 2.7-1.1c2.2 0 3.9 1.8 3.9 4c0 1.1-0.4 2.1-1.1 2.9" />
	</g>
	<path id="Layer" class="s0" d="m-308.5 254.1v-110.4q0-1 0.4-1.9q0.4-1 1.1-1.7q0.7-0.7 1.6-1q0.9-0.4 1.9-0.4h52.2q1 0 1.9 0.4q0.9 0.3 1.6 1q0.7 0.7 1.1 1.7q0.4 0.9 0.4 1.9v110.4q0 1-0.4 1.9q-0.4 0.9-1.1 1.6q-0.7 0.7-1.6 1.1q-0.9 0.4-1.9 0.4h-52.2q-1 0-1.9-0.4q-0.9-0.4-1.6-1.1q-0.7-0.7-1.1-1.6q-0.4-0.9-0.4-1.9z" />
	<path id="Layer" class="s0" d="m-302.4 252.6v-50h50v50z" />
	<path id="Layer" class="s0" d="m-302.4 195v-50h50v50z" />
	<g id="Layer">
		<path id="Layer" class="s1" d="m-301.9 199.9h47.6" />
		<path id="Layer" class="s2" d="m-301.9 197.9h47.6" />
	</g>
	<g id="Layer">
		<path id="Layer" class="s3" d="m-277.6 235.7c-1.3 0-2.5-0.6-3.4-1.5c-0.9-0.9-1.5-2.1-1.5-3.4c0-1.3 0.6-2.5 1.5-3.4c0.9-0.9 2.1-1.4 3.4-1.4c1.3 0 2.5 0.5 3.4 1.4c0.9 0.9 1.4 2.1 1.4 3.4c0 1.3-0.5 2.5-1.4 3.4c-0.9 0.9-2.1 1.5-3.4 1.5z" />
		<path id="Layer" class="s4" d="m-280.4 227.9c0.7-0.7 1.6-1.1 2.7-1.1c2.2 0 3.9 1.8 3.9 4c0 1.1-0.4 2.1-1.1 2.8" />
	</g>
	<g id="Layer">
		<path id="Layer" class="s3" d="m-292.6 189.3c-1.3 0-2.5-0.6-3.4-1.5c-0.9-0.9-1.5-2.1-1.5-3.4c0-1.3 0.6-2.5 1.5-3.4c0.9-0.9 2.1-1.4 3.4-1.4c1.3 0 2.5 0.5 3.4 1.4c0.9 0.9 1.4 2.1 1.4 3.4c0 1.3-0.5 2.5-1.4 3.4c-0.9 0.9-2.1 1.5-3.4 1.5z" />
		<path id="Layer" class="s4" d="m-295.4 181.5c0.7-0.7 1.6-1.1 2.7-1.1c2.2 0 3.9 1.8 3.9 4c0 1.1-0.4 2.1-1.1 2.8" />
	</g>
	<g id="Layer">
		<path id="Layer" class="s3" d="m-292.6 158.9c-1.3 0-2.5-0.5-3.4-1.5c-0.9-0.9-1.5-2.1-1.5-3.4c0-1.3 0.6-2.5 1.5-3.4c0.9-0.9 2.1-1.4 3.4-1.4c1.3 0 2.5 0.5 3.4 1.4c0.9 0.9 1.4 2.1 1.4 3.4c0 1.3-0.5 2.5-1.4 3.4c-0.9 1-2.1 1.5-3.4 1.5z" />
		<path id="Layer" class="s4" d="m-295.4 151.1c0.7-0.7 1.6-1.1 2.7-1.1c2.2 0 3.9 1.8 3.9 4c0 1.1-0.4 2.1-1.1 2.8" />
	</g>
	<g id="Layer">
		<path id="Layer" class="s3" d="m-262.6 189.3c-1.3 0-2.5-0.6-3.4-1.5c-0.9-0.9-1.5-2.1-1.5-3.4c0-1.3 0.6-2.5 1.5-3.4c0.9-0.9 2.1-1.4 3.4-1.4c1.3 0 2.5 0.5 3.4 1.4c0.9 0.9 1.4 2.1 1.4 3.4c0 1.3-0.5 2.5-1.4 3.4c-0.9 0.9-2.1 1.5-3.4 1.5z" />
		<path id="Layer" class="s4" d="m-265.4 181.5c0.7-0.7 1.6-1.1 2.7-1.1c2.2 0 3.9 1.8 3.9 4c0 1.1-0.4 2.1-1.1 2.8" />
	</g>
	<g id="Layer">
		<path id="Layer" class="s3" d="m-262.6 158.9c-1.3 0-2.5-0.5-3.4-1.5c-0.9-0.9-1.5-2.1-1.5-3.4c0-1.3 0.6-2.5 1.5-3.4c0.9-0.9 2.1-1.4 3.4-1.4c1.3 0 2.5 0.5 3.4 1.4c0.9 0.9 1.4 2.1 1.4 3.4c0 1.3-0.5 2.5-1.4 3.4c-0.9 1-2.1 1.5-3.4 1.5z" />
		<path id="Layer" class="s4" d="m-265.4 151.1c0.7-0.7 1.6-1.1 2.7-1.1c2.2 0 3.9 1.8 3.9 4c0 1.1-0.4 2.1-1.1 2.8" />
	</g>
	<path id="Layer" class="s0" d="m-385.8 116v-110.4q0-1 0.3-2q0.4-0.9 1.1-1.6q0.7-0.7 1.6-1.1q1-0.3 2-0.3h52.1q1 0 1.9 0.3q1 0.4 1.7 1.1q0.7 0.7 1 1.6q0.4 1 0.4 2v110.4q0 1-0.4 1.9q-0.3 0.9-1 1.6q-0.7 0.7-1.7 1.1q-0.9 0.4-1.9 0.4h-52.2q-0.9 0-1.9-0.4q-0.9-0.4-1.6-1.1q-0.7-0.7-1.1-1.6q-0.3-0.9-0.3-1.9z" />
	<path id="Layer" class="s0" d="m-379.8 114.5v-50h50v50z" />
	<path id="Layer" class="s0" d="m-379.8 56.9v-50h50v50z" />
	<g id="Layer">
		<path id="Layer" class="s1" d="m-379.3 61.8h47.6" />
		<path id="Layer" class="s2" d="m-379.3 59.8h47.6" />
	</g>
	<g id="Layer">
		<path id="Layer" class="s3" d="m-370 51.1c-1.3 0-2.5-0.5-3.4-1.4c-0.9-0.9-1.4-2.1-1.4-3.4c0-1.3 0.5-2.5 1.4-3.4c0.9-1 2.1-1.5 3.4-1.5c1.3 0 2.5 0.5 3.5 1.5c0.9 0.9 1.4 2.1 1.4 3.4c0 1.3-0.5 2.5-1.4 3.4c-1 0.9-2.2 1.4-3.5 1.4z" />
		<path id="Layer" class="s4" d="m-372.8 43.4c0.7-0.7 1.7-1.1 2.7-1.1c2.2 0 4 1.8 4 4c0 1.1-0.5 2.1-1.2 2.8" />
	</g>
	<g id="Layer">
		<path id="Layer" class="s3" d="m-370 20.8c-1.3 0-2.5-0.6-3.4-1.5c-0.9-0.9-1.4-2.1-1.4-3.4c0-1.3 0.5-2.5 1.4-3.4c0.9-0.9 2.1-1.4 3.4-1.4c1.3 0 2.5 0.5 3.5 1.4c0.9 0.9 1.4 2.1 1.4 3.4c0 1.3-0.5 2.5-1.4 3.4c-1 0.9-2.2 1.5-3.5 1.5z" />
		<path id="Layer" class="s4" d="m-372.8 13c0.7-0.7 1.7-1.1 2.7-1.1c2.2 0 4 1.8 4 4c0 1.1-0.5 2.1-1.2 2.8" />
	</g>
	<g id="Layer">
		<path id="Layer" class="s3" d="m-370 35.9c-1.3 0-2.5-0.5-3.4-1.4c-0.9-0.9-1.4-2.1-1.4-3.4c0-1.3 0.5-2.5 1.4-3.4c0.9-0.9 2.1-1.5 3.4-1.5c1.3 0 2.5 0.6 3.5 1.5c0.9 0.9 1.4 2.1 1.4 3.4c0 1.3-0.5 2.5-1.4 3.4c-1 0.9-2.2 1.4-3.5 1.4z" />
		<path id="Layer" class="s4" d="m-372.8 28.2c0.7-0.7 1.7-1.1 2.7-1.1c2.2 0 4 1.8 4 4c0 1.1-0.5 2.1-1.2 2.8" />
	</g>
	<g id="Layer">
		<path id="Layer" class="s3" d="m-340 51.1c-1.3 0-2.5-0.5-3.4-1.4c-0.9-0.9-1.4-2.1-1.4-3.4c0-1.3 0.5-2.5 1.4-3.4c0.9-1 2.1-1.5 3.4-1.5c1.3 0 2.5 0.5 3.5 1.5c0.9 0.9 1.4 2.1 1.4 3.4c0 1.3-0.5 2.5-1.4 3.4c-1 0.9-2.2 1.4-3.5 1.4z" />
		<path id="Layer" class="s4" d="m-342.8 43.4c0.7-0.7 1.7-1.1 2.7-1.1c2.2 0 4 1.8 4 4c0 1.1-0.5 2.1-1.2 2.8" />
	</g>
	<g id="Layer">
		<path id="Layer" class="s3" d="m-340 20.8c-1.3 0-2.5-0.6-3.4-1.5c-0.9-0.9-1.4-2.1-1.4-3.4c0-1.3 0.5-2.5 1.4-3.4c0.9-0.9 2.1-1.4 3.4-1.4c1.3 0 2.5 0.5 3.5 1.4c0.9 0.9 1.4 2.1 1.4 3.4c0 1.3-0.5 2.5-1.4 3.4c-1 0.9-2.2 1.5-3.5 1.5z" />
		<path id="Layer" class="s4" d="m-342.8 13c0.7-0.7 1.7-1.1 2.7-1.1c2.2 0 4 1.8 4 4c0 1.1-0.5 2.1-1.2 2.8" />
	</g>
	<g id="Layer">
		<path id="Layer" class="s3" d="m-340 35.9c-1.3 0-2.5-0.5-3.4-1.4c-0.9-0.9-1.4-2.1-1.4-3.4c0-1.3 0.5-2.5 1.4-3.4c0.9-0.9 2.1-1.5 3.4-1.5c1.3 0 2.5 0.6 3.5 1.5c0.9 0.9 1.4 2.1 1.4 3.4c0 1.3-0.5 2.5-1.4 3.4c-1 0.9-2.2 1.4-3.5 1.4z" />
		<path id="Layer" class="s4" d="m-342.8 28.2c0.7-0.7 1.7-1.1 2.7-1.1c2.2 0 4 1.8 4 4c0 1.1-0.5 2.1-1.2 2.8" />
	</g>
	<path id="Layer" class="s0" d="m-463.2 116v-110.4q0-1 0.4-2q0.3-0.9 1-1.6q0.7-0.7 1.7-1.1q0.9-0.3 1.9-0.3h52.1q1 0 2 0.3q0.9 0.4 1.6 1.1q0.7 0.7 1.1 1.6q0.3 1 0.3 2v110.4q0 1-0.3 1.9q-0.4 0.9-1.1 1.6q-0.7 0.7-1.6 1.1q-1 0.4-2 0.4h-52.1q-1 0-1.9-0.4q-1-0.4-1.7-1.1q-0.7-0.7-1-1.6q-0.4-0.9-0.4-1.9z" />
	<path id="Layer" class="s0" d="m-457.1 114.5v-50h50v50z" />
	<path id="Layer" class="s0" d="m-457.1 56.9v-50h50v50z" />
	<g id="Layer">
		<path id="Layer" class="s1" d="m-456.7 61.8h47.7" />
		<path id="Layer" class="s2" d="m-456.7 59.8h47.7" />
	</g>
	<g id="Layer">
		<path id="Layer" class="s3" d="m-447.4 51.1c-1.2 0-2.5-0.5-3.4-1.4c-0.9-0.9-1.4-2.1-1.4-3.4c0-1.3 0.5-2.5 1.4-3.4c0.9-1 2.2-1.5 3.4-1.5c1.3 0 2.6 0.5 3.5 1.5c0.9 0.9 1.4 2.1 1.4 3.4c0 1.3-0.5 2.5-1.4 3.4c-0.9 0.9-2.2 1.4-3.5 1.4z" />
		<path id="Layer" class="s4" d="m-450.2 43.4c0.7-0.7 1.7-1.1 2.7-1.1c2.2 0 4 1.8 4 4c0 1.1-0.5 2.1-1.2 2.8" />
	</g>
	<g id="Layer">
		<path id="Layer" class="s3" d="m-417.4 20.8c-1.2 0-2.5-0.6-3.4-1.5c-0.9-0.9-1.4-2.1-1.4-3.4c0-1.3 0.5-2.5 1.4-3.4c0.9-0.9 2.2-1.4 3.4-1.4c1.3 0 2.6 0.5 3.5 1.4c0.9 0.9 1.4 2.1 1.4 3.4c0 1.3-0.5 2.5-1.4 3.4c-0.9 0.9-2.2 1.5-3.5 1.5z" />
		<path id="Layer" class="s4" d="m-420.2 13c0.7-0.7 1.7-1.1 2.7-1.1c2.2 0 4 1.8 4 4c0 1.1-0.5 2.1-1.2 2.8" />
	</g>
	<path id="Layer" class="s0" d="m-463.2-22.1v-110.4q0-1 0.4-2q0.3-0.9 1-1.6q0.7-0.7 1.7-1.1q0.9-0.3 1.9-0.3h52.1q1 0 2 0.3q0.9 0.4 1.6 1.1q0.7 0.7 1.1 1.6q0.3 1 0.3 2v110.4q0 1-0.3 1.9q-0.4 0.9-1.1 1.6q-0.7 0.7-1.6 1.1q-1 0.4-2 0.4h-52.1q-1 0-1.9-0.4q-1-0.4-1.7-1.1q-0.7-0.7-1-1.6q-0.4-0.9-0.4-1.9z" />
	<path id="Layer" class="s0" d="m-457.1-23.6v-50h50v50z" />
	<path id="Layer" class="s0" d="m-457.1-81.2v-50h50v50z" />
	<g id="Layer">
		<path id="Layer" class="s1" d="m-456.7-76.4h47.7" />
		<path id="Layer" class="s2" d="m-456.7-78.4h47.7" />
	</g>
	<g id="Layer">
		<path id="Layer" class="s3" d="m-447.4-87c-1.2 0-2.5-0.5-3.4-1.4c-0.9-0.9-1.4-2.1-1.4-3.4c0-1.3 0.5-2.5 1.4-3.4c0.9-1 2.2-1.5 3.4-1.5c1.3 0 2.6 0.5 3.5 1.5c0.9 0.9 1.4 2.1 1.4 3.4c0 1.3-0.5 2.5-1.4 3.4c-0.9 0.9-2.2 1.4-3.5 1.4z" />
		<path id="Layer" class="s4" d="m-450.2-94.7c0.7-0.7 1.7-1.1 2.7-1.1c2.2 0 4 1.8 4 4c0 1.1-0.5 2.1-1.2 2.8" />
	</g>
	<g id="Layer">
		<path id="Layer" class="s3" d="m-432.4-102.2c-1.2 0-2.5-0.5-3.4-1.4c-0.9-0.9-1.4-2.1-1.4-3.4c0-1.3 0.5-2.5 1.4-3.4c0.9-1 2.2-1.5 3.4-1.5c1.3 0 2.6 0.5 3.5 1.5c0.9 0.9 1.4 2.1 1.4 3.4c0 1.3-0.5 2.5-1.4 3.4c-0.9 0.9-2.2 1.4-3.5 1.4z" />
		<path id="Layer" class="s4" d="m-435.2-109.9c0.7-0.7 1.7-1.1 2.7-1.1c2.2 0 4 1.8 4 4c0 1.1-0.5 2.1-1.2 2.8" />
	</g>
	<g id="Layer">
		<path id="Layer" class="s3" d="m-417.4-117.4c-1.2 0-2.5-0.5-3.4-1.4c-0.9-0.9-1.4-2.1-1.4-3.4c0-1.3 0.5-2.5 1.4-3.4c0.9-1 2.2-1.5 3.4-1.5c1.3 0 2.6 0.5 3.5 1.5c0.9 0.9 1.4 2.1 1.4 3.4c0 1.3-0.5 2.5-1.4 3.4c-0.9 0.9-2.2 1.4-3.5 1.4z" />
		<path id="Layer" class="s4" d="m-420.2-125.1c0.7-0.7 1.7-1.1 2.7-1.1c2.2 0 4 1.8 4 4c0 1.1-0.5 2.1-1.2 2.8" />
	</g>
	<path id="Layer" class="s0" d="m-385.8-22.1v-110.4q0-1 0.3-2q0.4-0.9 1.1-1.6q0.7-0.7 1.6-1.1q1-0.3 2-0.3h52.1q1 0 1.9 0.3q1 0.4 1.7 1.1q0.7 0.7 1 1.6q0.4 1 0.4 2v110.4q0 1-0.4 1.9q-0.3 0.9-1 1.6q-0.7 0.7-1.7 1.1q-0.9 0.4-1.9 0.4h-52.1q-1 0-2-0.4q-0.9-0.4-1.6-1.1q-0.7-0.7-1.1-1.6q-0.3-0.9-0.3-1.9z" />
	<path id="Layer" class="s0" d="m-379.8-23.6v-50h50v50z" />
	<path id="Layer" class="s0" d="m-379.8-81.2v-50h50v50z" />
	<g id="Layer">
		<path id="Layer" class="s1" d="m-379.3-76.4h47.6" />
		<path id="Layer" class="s2" d="m-379.3-78.4h47.6" />
	</g>
	<g id="Layer">
		<path id="Layer" class="s3" d="m-355-40.6c-1.3 0-2.5-0.5-3.4-1.4c-0.9-0.9-1.4-2.1-1.4-3.4c0-1.3 0.5-2.5 1.4-3.4c0.9-1 2.1-1.5 3.4-1.5c1.3 0 2.5 0.5 3.5 1.5c0.9 0.9 1.4 2.1 1.4 3.4c0 1.3-0.5 2.5-1.4 3.4c-1 0.9-2.2 1.4-3.5 1.4z" />
		<path id="Layer" class="s4" d="m-357.8-48.3c0.7-0.7 1.7-1.1 2.7-1.1c2.2 0 4 1.8 4 4c0 1.1-0.5 2.1-1.2 2.8" />
	</g>
	<g id="Layer">
		<path id="Layer" class="s3" d="m-370-87c-1.3 0-2.5-0.5-3.4-1.4c-0.9-0.9-1.4-2.1-1.4-3.4c0-1.3 0.5-2.5 1.4-3.4c0.9-1 2.1-1.5 3.4-1.5c1.3 0 2.5 0.5 3.5 1.5c0.9 0.9 1.4 2.1 1.4 3.4c0 1.3-0.5 2.5-1.4 3.4c-1 0.9-2.2 1.4-3.5 1.4z" />
		<path id="Layer" class="s4" d="m-372.8-94.7c0.7-0.7 1.7-1.1 2.7-1.1c2.2 0 4 1.8 4 4c0 1.1-0.5 2.1-1.2 2.8" />
	</g>
	<g id="Layer">
		<path id="Layer" class="s3" d="m-340-117.4c-1.3 0-2.5-0.5-3.4-1.4c-0.9-0.9-1.4-2.1-1.4-3.4c0-1.3 0.5-2.5 1.4-3.4c0.9-1 2.1-1.5 3.4-1.5c1.3 0 2.5 0.5 3.5 1.5c0.9 0.9 1.4 2.1 1.4 3.4c0 1.3-0.5 2.5-1.4 3.4c-1 0.9-2.2 1.4-3.5 1.4z" />
		<path id="Layer" class="s4" d="m-342.8-125.1c0.7-0.7 1.7-1.1 2.7-1.1c2.2 0 4 1.8 4 4c0 1.1-0.5 2.1-1.2 2.8" />
	</g>
	<path id="Layer" class="s0" d="m-308.5 116v-110.4q0-1 0.4-2q0.4-0.9 1.1-1.6q0.7-0.7 1.6-1.1q0.9-0.3 1.9-0.3h52.2q1 0 1.9 0.3q0.9 0.4 1.6 1.1q0.7 0.7 1.1 1.6q0.4 1 0.4 2v110.4q0 1-0.4 1.9q-0.4 0.9-1.1 1.6q-0.7 0.7-1.6 1.1q-0.9 0.4-1.9 0.4h-52.2q-1 0-1.9-0.4q-0.9-0.4-1.6-1.1q-0.7-0.7-1.1-1.6q-0.4-0.9-0.4-1.9z" />
	<path id="Layer" class="s0" d="m-302.4 114.5v-50h50v50z" />
	<path id="Layer" class="s0" d="m-302.4 56.9v-50h50v50z" />
	<g id="Layer">
		<path id="Layer" class="s1" d="m-301.9 61.8h47.6" />
		<path id="Layer" class="s2" d="m-301.9 59.8h47.6" />
	</g>
	<g id="Layer">
		<path id="Layer" class="s3" d="m-277.6 97.5c-1.3 0-2.5-0.5-3.4-1.4c-0.9-0.9-1.5-2.1-1.5-3.4c0-1.3 0.6-2.5 1.5-3.4c0.9-0.9 2.1-1.5 3.4-1.5c1.3 0 2.5 0.6 3.4 1.5c0.9 0.9 1.4 2.1 1.4 3.4c0 1.3-0.5 2.5-1.4 3.4c-0.9 0.9-2.1 1.4-3.4 1.4z" />
		<path id="Layer" class="s4" d="m-280.4 89.8c0.7-0.7 1.6-1.1 2.7-1.1c2.2 0 3.9 1.8 3.9 4c0 1.1-0.4 2.1-1.1 2.8" />
	</g>
	<g id="Layer">
		<path id="Layer" class="s3" d="m-292.6 51.1c-1.3 0-2.5-0.5-3.4-1.4c-0.9-0.9-1.5-2.1-1.5-3.4c0-1.3 0.6-2.5 1.5-3.4c0.9-1 2.1-1.5 3.4-1.5c1.3 0 2.5 0.5 3.4 1.5c0.9 0.9 1.4 2.1 1.4 3.4c0 1.3-0.5 2.5-1.4 3.4c-0.9 0.9-2.1 1.4-3.4 1.4z" />
		<path id="Layer" class="s4" d="m-295.4 43.4c0.7-0.7 1.6-1.1 2.7-1.1c2.2 0 3.9 1.8 3.9 4c0 1.1-0.4 2.1-1.1 2.8" />
	</g>
	<g id="Layer">
		<path id="Layer" class="s3" d="m-277.6 35.9c-1.3 0-2.5-0.5-3.4-1.4c-0.9-0.9-1.5-2.1-1.5-3.4c0-1.3 0.6-2.5 1.5-3.4c0.9-0.9 2.1-1.5 3.4-1.5c1.3 0 2.5 0.6 3.4 1.5c0.9 0.9 1.4 2.1 1.4 3.4c0 1.3-0.5 2.5-1.4 3.4c-0.9 0.9-2.1 1.4-3.4 1.4z" />
		<path id="Layer" class="s4" d="m-280.4 28.2c0.7-0.7 1.6-1.1 2.7-1.1c2.2 0 3.9 1.8 3.9 4c0 1.1-0.4 2.1-1.1 2.8" />
	</g>
	<g id="Layer">
		<path id="Layer" class="s3" d="m-292.6 20.8c-1.3 0-2.5-0.6-3.4-1.5c-0.9-0.9-1.5-2.1-1.5-3.4c0-1.3 0.6-2.5 1.5-3.4c0.9-0.9 2.1-1.4 3.4-1.4c1.3 0 2.5 0.5 3.4 1.4c0.9 0.9 1.4 2.1 1.4 3.4c0 1.3-0.5 2.5-1.4 3.4c-0.9 0.9-2.1 1.5-3.4 1.5z" />
		<path id="Layer" class="s4" d="m-295.4 13c0.7-0.7 1.6-1.1 2.7-1.1c2.2 0 3.9 1.8 3.9 4c0 1.1-0.4 2.1-1.1 2.8" />
	</g>
	<g id="Layer">
		<path id="Layer" class="s3" d="m-262.6 51.1c-1.3 0-2.5-0.5-3.4-1.4c-0.9-0.9-1.5-2.1-1.5-3.4c0-1.3 0.6-2.5 1.5-3.4c0.9-1 2.1-1.5 3.4-1.5c1.3 0 2.5 0.5 3.4 1.5c0.9 0.9 1.4 2.1 1.4 3.4c0 1.3-0.5 2.5-1.4 3.4c-0.9 0.9-2.1 1.4-3.4 1.4z" />
		<path id="Layer" class="s4" d="m-265.4 43.4c0.7-0.7 1.6-1.1 2.7-1.1c2.2 0 3.9 1.8 3.9 4c0 1.1-0.4 2.1-1.1 2.8" />
	</g>
	<g id="Layer">
		<path id="Layer" class="s3" d="m-262.6 20.8c-1.3 0-2.5-0.6-3.4-1.5c-0.9-0.9-1.5-2.1-1.5-3.4c0-1.3 0.6-2.5 1.5-3.4c0.9-0.9 2.1-1.4 3.4-1.4c1.3 0 2.5 0.5 3.4 1.4c0.9 0.9 1.4 2.1 1.4 3.4c0 1.3-0.5 2.5-1.4 3.4c-0.9 0.9-2.1 1.5-3.4 1.5z" />
		<path id="Layer" class="s4" d="m-265.4 13c0.7-0.7 1.6-1.1 2.7-1.1c2.2 0 3.9 1.8 3.9 4c0 1.1-0.4 2.1-1.1 2.8" />
	</g>
	<path id="Layer" class="s0" d="m-308.5-22.1v-110.4q0-1 0.4-2q0.4-0.9 1.1-1.6q0.7-0.7 1.6-1.1q0.9-0.3 1.9-0.3h52.2q1 0 1.9 0.3q0.9 0.4 1.6 1.1q0.7 0.7 1.1 1.6q0.4 1 0.4 2v110.4q0 1-0.4 1.9q-0.4 0.9-1.1 1.6q-0.7 0.7-1.6 1.1q-0.9 0.4-1.9 0.4h-52.2q-1 0-1.9-0.4q-0.9-0.4-1.6-1.1q-0.7-0.7-1.1-1.6q-0.4-0.9-0.4-1.9z" />
	<path id="Layer" class="s0" d="m-302.4-23.6v-50h50v50z" />
	<path id="Layer" class="s0" d="m-302.4-81.2v-50h50v50z" />
	<g id="Layer">
		<path id="Layer" class="s1" d="m-301.9-76.4h47.6" />
		<path id="Layer" class="s2" d="m-301.9-78.4h47.6" />
	</g>
	<g id="Layer">
		<path id="Layer" class="s3" d="m-277.6-40.6c-1.3 0-2.5-0.5-3.4-1.4c-0.9-0.9-1.5-2.1-1.5-3.4c0-1.3 0.6-2.5 1.5-3.4c0.9-1 2.1-1.5 3.4-1.5c1.3 0 2.5 0.5 3.4 1.5c0.9 0.9 1.4 2.1 1.4 3.4c0 1.3-0.5 2.5-1.4 3.4c-0.9 0.9-2.1 1.4-3.4 1.4z" />
		<path id="Layer" class="s4" d="m-280.4-48.3c0.7-0.7 1.6-1.1 2.7-1.1c2.2 0 3.9 1.8 3.9 4c0 1.1-0.4 2.1-1.1 2.8" />
	</g>
	<g id="Layer">
		<path id="Layer" class="s3" d="m-292.6-87c-1.3 0-2.5-0.5-3.4-1.4c-0.9-0.9-1.5-2.1-1.5-3.4c0-1.3 0.6-2.5 1.5-3.4c0.9-1 2.1-1.5 3.4-1.5c1.3 0 2.5 0.5 3.4 1.5c0.9 0.9 1.4 2.1 1.4 3.4c0 1.3-0.5 2.5-1.4 3.4c-0.9 0.9-2.1 1.4-3.4 1.4z" />
		<path id="Layer" class="s4" d="m-295.4-94.7c0.7-0.7 1.6-1.1 2.7-1.1c2.2 0 3.9 1.8 3.9 4c0 1.1-0.4 2.1-1.1 2.8" />
	</g>
	<g id="Layer">
		<path id="Layer" class="s3" d="m-292.6-117.4c-1.3 0-2.5-0.5-3.4-1.4c-0.9-0.9-1.5-2.1-1.5-3.4c0-1.3 0.6-2.5 1.5-3.4c0.9-1 2.1-1.5 3.4-1.5c1.3 0 2.5 0.5 3.4 1.5c0.9 0.9 1.4 2.1 1.4 3.4c0 1.3-0.5 2.5-1.4 3.4c-0.9 0.9-2.1 1.4-3.4 1.4z" />
		<path id="Layer" class="s4" d="m-295.4-125.1c0.7-0.7 1.6-1.1 2.7-1.1c2.2 0 3.9 1.8 3.9 4c0 1.1-0.4 2.1-1.1 2.8" />
	</g>
	<g id="Layer">
		<path id="Layer" class="s3" d="m-292.6-102.2c-1.3 0-2.5-0.5-3.4-1.4c-0.9-0.9-1.5-2.1-1.5-3.4c0-1.3 0.6-2.5 1.5-3.4c0.9-1 2.1-1.5 3.4-1.5c1.3 0 2.5 0.5 3.4 1.5c0.9 0.9 1.4 2.1 1.4 3.4c0 1.3-0.5 2.5-1.4 3.4c-0.9 0.9-2.1 1.4-3.4 1.4z" />
		<path id="Layer" class="s4" d="m-295.4-109.9c0.7-0.7 1.6-1.1 2.7-1.1c2.2 0 3.9 1.8 3.9 4c0 1.1-0.4 2.1-1.1 2.8" />
	</g>
	<g id="Layer">
		<path id="Layer" class="s3" d="m-262.6-87c-1.3 0-2.5-0.5-3.4-1.4c-0.9-0.9-1.5-2.1-1.5-3.4c0-1.3 0.6-2.5 1.5-3.4c0.9-1 2.1-1.5 3.4-1.5c1.3 0 2.5 0.5 3.4 1.5c0.9 0.9 1.4 2.1 1.4 3.4c0 1.3-0.5 2.5-1.4 3.4c-0.9 0.9-2.1 1.4-3.4 1.4z" />
		<path id="Layer" class="s4" d="m-265.4-94.7c0.7-0.7 1.6-1.1 2.7-1.1c2.2 0 3.9 1.8 3.9 4c0 1.1-0.4 2.1-1.1 2.8" />
	</g>
	<g id="Layer">
		<path id="Layer" class="s3" d="m-262.6-117.4c-1.3 0-2.5-0.5-3.4-1.4c-0.9-0.9-1.5-2.1-1.5-3.4c0-1.3 0.6-2.5 1.5-3.4c0.9-1 2.1-1.5 3.4-1.5c1.3 0 2.5 0.5 3.4 1.5c0.9 0.9 1.4 2.1 1.4 3.4c0 1.3-0.5 2.5-1.4 3.4c-0.9 0.9-2.1 1.4-3.4 1.4z" />
		<path id="Layer" class="s4" d="m-265.4-125.1c0.7-0.7 1.6-1.1 2.7-1.1c2.2 0 3.9 1.8 3.9 4c0 1.1-0.4 2.1-1.1 2.8" />
	</g>
	<g id="Layer">
		<path id="Layer" class="s3" d="m-262.6-102.2c-1.3 0-2.5-0.5-3.4-1.4c-0.9-0.9-1.5-2.1-1.5-3.4c0-1.3 0.6-2.5 1.5-3.4c0.9-1 2.1-1.5 3.4-1.5c1.3 0 2.5 0.5 3.4 1.5c0.9 0.9 1.4 2.1 1.4 3.4c0 1.3-0.5 2.5-1.4 3.4c-0.9 0.9-2.1 1.4-3.4 1.4z" />
		<path id="Layer" class="s4" d="m-265.4-109.9c0.7-0.7 1.6-1.1 2.7-1.1c2.2 0 3.9 1.8 3.9 4c0 1.1-0.4 2.1-1.1 2.8" />
	</g>
	<path id="Layer" class="s0" d="m-231.1 392.2v-110.4q0-1 0.4-1.9q0.4-0.9 1.1-1.6q0.7-0.7 1.6-1.1q0.9-0.4 1.9-0.4h52.2q1 0 1.9 0.4q0.9 0.4 1.6 1.1q0.7 0.7 1.1 1.6q0.4 0.9 0.4 1.9v110.4q0 1-0.4 1.9q-0.4 0.9-1.1 1.6q-0.7 0.7-1.6 1.1q-0.9 0.4-1.9 0.4h-52.2q-1 0-1.9-0.4q-0.9-0.4-1.6-1.1q-0.7-0.7-1.1-1.6q-0.4-0.9-0.4-1.9z" />
	<path id="Layer" class="s0" d="m-225 390.7v-50h50v50z" />
	<path id="Layer" class="s0" d="m-225 333.2v-50h50v50z" />
	<g id="Layer">
		<path id="Layer" class="s1" d="m-224.6 338h47.7" />
		<path id="Layer" class="s2" d="m-224.6 336h47.7" />
	</g>
	<g id="Layer">
		<path id="Layer" class="s3" d="m-215.2 389c-1.3 0-2.5-0.5-3.5-1.5c-0.9-0.9-1.4-2.1-1.4-3.4c0-1.3 0.5-2.5 1.4-3.4c1-0.9 2.2-1.4 3.5-1.4c1.3 0 2.5 0.5 3.4 1.4c0.9 0.9 1.4 2.1 1.4 3.4c0 1.3-0.5 2.5-1.4 3.4c-0.9 1-2.1 1.5-3.4 1.5z" />
		<path id="Layer" class="s4" d="m-218.1 381.2c0.7-0.7 1.7-1.1 2.8-1.1c2.1 0 3.9 1.8 3.9 4c0 1.1-0.4 2.1-1.1 2.8" />
	</g>
	<g id="Layer">
		<path id="Layer" class="s3" d="m-185.2 358.6c-1.3 0-2.5-0.5-3.5-1.4c-0.9-1-1.4-2.2-1.4-3.5c0-1.3 0.5-2.5 1.4-3.4c1-0.9 2.2-1.4 3.5-1.4c1.3 0 2.5 0.5 3.4 1.4c0.9 0.9 1.4 2.1 1.4 3.4c0 1.3-0.5 2.5-1.4 3.5c-0.9 0.9-2.1 1.4-3.4 1.4z" />
		<path id="Layer" class="s4" d="m-188.1 350.8c0.7-0.7 1.7-1.1 2.8-1.1c2.1 0 3.9 1.8 3.9 4c0 1.1-0.4 2.1-1.1 2.8" />
	</g>
	<g id="Layer">
		<path id="Layer" class="s3" d="m-215.2 327.4c-1.3 0-2.5-0.5-3.5-1.5c-0.9-0.9-1.4-2.1-1.4-3.4c0-1.3 0.5-2.5 1.4-3.4c1-0.9 2.2-1.4 3.5-1.4c1.3 0 2.5 0.5 3.4 1.4c0.9 0.9 1.4 2.1 1.4 3.4c0 1.3-0.5 2.5-1.4 3.4c-0.9 1-2.1 1.5-3.4 1.5z" />
		<path id="Layer" class="s4" d="m-218.1 319.6c0.7-0.7 1.7-1.1 2.8-1.1c2.1 0 3.9 1.8 3.9 4c0 1.1-0.4 2.1-1.1 2.8" />
	</g>
	<g id="Layer">
		<path id="Layer" class="s3" d="m-200.2 312.2c-1.3 0-2.5-0.5-3.5-1.4c-0.9-1-1.4-2.2-1.4-3.5c0-1.3 0.5-2.5 1.4-3.4c1-0.9 2.2-1.4 3.5-1.4c1.3 0 2.5 0.5 3.4 1.4c0.9 0.9 1.4 2.1 1.4 3.4c0 1.3-0.5 2.5-1.4 3.5c-0.9 0.9-2.1 1.4-3.4 1.4z" />
		<path id="Layer" class="s4" d="m-203.1 304.4c0.7-0.7 1.7-1.1 2.8-1.1c2.1 0 3.9 1.8 3.9 4c0 1.1-0.4 2.1-1.1 2.8" />
	</g>
	<g id="Layer">
		<path id="Layer" class="s3" d="m-185.2 297c-1.3 0-2.5-0.5-3.5-1.4c-0.9-0.9-1.4-2.2-1.4-3.5c0-1.3 0.5-2.5 1.4-3.4c1-0.9 2.2-1.4 3.5-1.4c1.3 0 2.5 0.5 3.4 1.4c0.9 0.9 1.4 2.1 1.4 3.4c0 1.3-0.5 2.6-1.4 3.5c-0.9 0.9-2.1 1.4-3.4 1.4z" />
		<path id="Layer" class="s4" d="m-188.1 289.2c0.7-0.7 1.7-1.1 2.8-1.1c2.1 0 3.9 1.8 3.9 4c0 1.1-0.4 2.1-1.1 2.9" />
	</g>
	<path id="Layer" class="s0" d="m-231.1 254.1v-110.4q0-1 0.4-1.9q0.4-1 1.1-1.7q0.7-0.7 1.6-1q0.9-0.4 1.9-0.4h52.2q1 0 1.9 0.4q0.9 0.3 1.6 1q0.7 0.7 1.1 1.7q0.4 0.9 0.4 1.9v110.4q0 1-0.4 1.9q-0.4 0.9-1.1 1.6q-0.7 0.7-1.6 1.1q-0.9 0.4-1.9 0.4h-52.2q-1 0-1.9-0.4q-0.9-0.4-1.6-1.1q-0.7-0.7-1.1-1.6q-0.4-0.9-0.4-1.9z" />
	<path id="Layer" class="s0" d="m-225 252.6v-50h50v50z" />
	<path id="Layer" class="s0" d="m-225 195v-50h50v50z" />
	<g id="Layer">
		<path id="Layer" class="s1" d="m-224.6 199.9h47.7" />
		<path id="Layer" class="s2" d="m-224.6 197.9h47.7" />
	</g>
	<g id="Layer">
		<path id="Layer" class="s3" d="m-215.2 250.8c-1.3 0-2.5-0.5-3.5-1.4c-0.9-0.9-1.4-2.1-1.4-3.4c0-1.3 0.5-2.5 1.4-3.4c1-0.9 2.2-1.5 3.5-1.5c1.3 0 2.5 0.6 3.4 1.5c0.9 0.9 1.4 2.1 1.4 3.4c0 1.3-0.5 2.5-1.4 3.4c-0.9 0.9-2.1 1.4-3.4 1.4z" />
		<path id="Layer" class="s4" d="m-218.1 243.1c0.7-0.7 1.7-1.1 2.8-1.1c2.1 0 3.9 1.8 3.9 4c0 1.1-0.4 2.1-1.1 2.8" />
	</g>
	<g id="Layer">
		<path id="Layer" class="s3" d="m-185.2 220.5c-1.3 0-2.5-0.5-3.5-1.5c-0.9-0.9-1.4-2.1-1.4-3.4c0-1.3 0.5-2.5 1.4-3.4c1-0.9 2.2-1.4 3.5-1.4c1.3 0 2.5 0.5 3.4 1.4c0.9 0.9 1.4 2.1 1.4 3.4c0 1.3-0.5 2.5-1.4 3.4c-0.9 1-2.1 1.5-3.4 1.5z" />
		<path id="Layer" class="s4" d="m-188.1 212.7c0.7-0.7 1.7-1.1 2.8-1.1c2.1 0 3.9 1.8 3.9 4c0 1.1-0.4 2.1-1.1 2.8" />
	</g>
	<g id="Layer">
		<path id="Layer" class="s3" d="m-215.2 189.3c-1.3 0-2.5-0.6-3.5-1.5c-0.9-0.9-1.4-2.1-1.4-3.4c0-1.3 0.5-2.5 1.4-3.4c1-0.9 2.2-1.4 3.5-1.4c1.3 0 2.5 0.5 3.4 1.4c0.9 0.9 1.4 2.1 1.4 3.4c0 1.3-0.5 2.5-1.4 3.4c-0.9 0.9-2.1 1.5-3.4 1.5z" />
		<path id="Layer" class="s4" d="m-218.1 181.5c0.7-0.7 1.7-1.1 2.8-1.1c2.1 0 3.9 1.8 3.9 4c0 1.1-0.4 2.1-1.1 2.8" />
	</g>
	<g id="Layer">
		<path id="Layer" class="s3" d="m-215.2 158.9c-1.3 0-2.5-0.5-3.5-1.5c-0.9-0.9-1.4-2.1-1.4-3.4c0-1.3 0.5-2.5 1.4-3.4c1-0.9 2.2-1.4 3.5-1.4c1.3 0 2.5 0.5 3.4 1.4c0.9 0.9 1.4 2.1 1.4 3.4c0 1.3-0.5 2.5-1.4 3.4c-0.9 1-2.1 1.5-3.4 1.5z" />
		<path id="Layer" class="s4" d="m-218.1 151.1c0.7-0.7 1.7-1.1 2.8-1.1c2.1 0 3.9 1.8 3.9 4c0 1.1-0.4 2.1-1.1 2.8" />
	</g>
	<g id="Layer">
		<path id="Layer" class="s3" d="m-185.2 189.3c-1.3 0-2.5-0.6-3.5-1.5c-0.9-0.9-1.4-2.1-1.4-3.4c0-1.3 0.5-2.5 1.4-3.4c1-0.9 2.2-1.4 3.5-1.4c1.3 0 2.5 0.5 3.4 1.4c0.9 0.9 1.4 2.1 1.4 3.4c0 1.3-0.5 2.5-1.4 3.4c-0.9 0.9-2.1 1.5-3.4 1.5z" />
		<path id="Layer" class="s4" d="m-188.1 181.5c0.7-0.7 1.7-1.1 2.8-1.1c2.1 0 3.9 1.8 3.9 4c0 1.1-0.4 2.1-1.1 2.8" />
	</g>
	<g id="Layer">
		<path id="Layer" class="s3" d="m-185.2 158.9c-1.3 0-2.5-0.5-3.5-1.5c-0.9-0.9-1.4-2.1-1.4-3.4c0-1.3 0.5-2.5 1.4-3.4c1-0.9 2.2-1.4 3.5-1.4c1.3 0 2.5 0.5 3.4 1.4c0.9 0.9 1.4 2.1 1.4 3.4c0 1.3-0.5 2.5-1.4 3.4c-0.9 1-2.1 1.5-3.4 1.5z" />
		<path id="Layer" class="s4" d="m-188.1 151.1c0.7-0.7 1.7-1.1 2.8-1.1c2.1 0 3.9 1.8 3.9 4c0 1.1-0.4 2.1-1.1 2.8" />
	</g>
	<path id="Layer" class="s0" d="m-153.7 392.2v-110.4q0-1 0.4-1.9q0.3-0.9 1-1.6q0.7-0.7 1.7-1.1q0.9-0.4 1.9-0.4h52.1q1 0 2 0.4q0.9 0.4 1.6 1.1q0.7 0.7 1.1 1.6q0.3 0.9 0.3 1.9v110.4q0 1-0.3 1.9q-0.4 0.9-1.1 1.6q-0.7 0.7-1.6 1.1q-1 0.4-2 0.4h-52.1q-1 0-1.9-0.4q-1-0.4-1.7-1.1q-0.7-0.7-1-1.6q-0.4-0.9-0.4-1.9z" />
	<path id="Layer" class="s0" d="m-147.6 390.7v-50h50v50z" />
	<path id="Layer" class="s0" d="m-147.6 333.2v-50h50v50z" />
	<g id="Layer">
		<path id="Layer" class="s1" d="m-147.2 338h47.7" />
		<path id="Layer" class="s2" d="m-147.2 336h47.7" />
	</g>
	<g id="Layer">
		<path id="Layer" class="s3" d="m-137.8 389c-1.3 0-2.5-0.5-3.5-1.5c-0.9-0.9-1.4-2.1-1.4-3.4c0-1.3 0.5-2.5 1.4-3.4c1-0.9 2.2-1.4 3.5-1.4c1.3 0 2.5 0.5 3.4 1.4c0.9 0.9 1.4 2.1 1.4 3.4c0 1.3-0.5 2.5-1.4 3.4c-0.9 1-2.1 1.5-3.4 1.5z" />
		<path id="Layer" class="s4" d="m-140.7 381.2c0.7-0.7 1.7-1.1 2.8-1.1c2.1 0 3.9 1.8 3.9 4c0 1.1-0.4 2.1-1.1 2.8" />
	</g>
	<g id="Layer">
		<path id="Layer" class="s3" d="m-122.8 373.8c-1.3 0-2.5-0.5-3.5-1.5c-0.9-0.9-1.4-2.1-1.4-3.4c0-1.3 0.5-2.5 1.4-3.4c1-0.9 2.2-1.4 3.5-1.4c1.3 0 2.5 0.5 3.4 1.4c0.9 0.9 1.4 2.1 1.4 3.4c0 1.3-0.5 2.5-1.4 3.4c-0.9 1-2.1 1.5-3.4 1.5z" />
		<path id="Layer" class="s4" d="m-125.7 366c0.7-0.7 1.7-1.1 2.8-1.1c2.1 0 3.9 1.8 3.9 4c0 1.1-0.4 2.1-1.1 2.8" />
	</g>
	<g id="Layer">
		<path id="Layer" class="s3" d="m-107.8 358.6c-1.3 0-2.5-0.5-3.5-1.4c-0.9-1-1.4-2.2-1.4-3.5c0-1.3 0.5-2.5 1.4-3.4c1-0.9 2.2-1.4 3.5-1.4c1.3 0 2.5 0.5 3.4 1.4c0.9 0.9 1.4 2.1 1.4 3.4c0 1.3-0.5 2.5-1.4 3.5c-0.9 0.9-2.1 1.4-3.4 1.4z" />
		<path id="Layer" class="s4" d="m-110.7 350.8c0.7-0.7 1.7-1.1 2.8-1.1c2.1 0 3.9 1.8 3.9 4c0 1.1-0.4 2.1-1.1 2.8" />
	</g>
	<g id="Layer">
		<path id="Layer" class="s3" d="m-137.8 327.4c-1.3 0-2.5-0.5-3.5-1.5c-0.9-0.9-1.4-2.1-1.4-3.4c0-1.3 0.5-2.5 1.4-3.4c1-0.9 2.2-1.4 3.5-1.4c1.3 0 2.5 0.5 3.4 1.4c0.9 0.9 1.4 2.1 1.4 3.4c0 1.3-0.5 2.5-1.4 3.4c-0.9 1-2.1 1.5-3.4 1.5z" />
		<path id="Layer" class="s4" d="m-140.7 319.6c0.7-0.7 1.7-1.1 2.8-1.1c2.1 0 3.9 1.8 3.9 4c0 1.1-0.4 2.1-1.1 2.8" />
	</g>
	<g id="Layer">
		<path id="Layer" class="s3" d="m-137.8 297c-1.3 0-2.5-0.5-3.5-1.4c-0.9-0.9-1.4-2.2-1.4-3.5c0-1.3 0.5-2.5 1.4-3.4c1-0.9 2.2-1.4 3.5-1.4c1.3 0 2.5 0.5 3.4 1.4c0.9 0.9 1.4 2.1 1.4 3.4c0 1.3-0.5 2.6-1.4 3.5c-0.9 0.9-2.1 1.4-3.4 1.4z" />
		<path id="Layer" class="s4" d="m-140.7 289.2c0.7-0.7 1.7-1.1 2.8-1.1c2.1 0 3.9 1.8 3.9 4c0 1.1-0.4 2.1-1.1 2.9" />
	</g>
	<g id="Layer">
		<path id="Layer" class="s3" d="m-107.8 327.4c-1.3 0-2.5-0.5-3.5-1.5c-0.9-0.9-1.4-2.1-1.4-3.4c0-1.3 0.5-2.5 1.4-3.4c1-0.9 2.2-1.4 3.5-1.4c1.3 0 2.5 0.5 3.4 1.4c0.9 0.9 1.4 2.1 1.4 3.4c0 1.3-0.5 2.5-1.4 3.4c-0.9 1-2.1 1.5-3.4 1.5z" />
		<path id="Layer" class="s4" d="m-110.7 319.6c0.7-0.7 1.7-1.1 2.8-1.1c2.1 0 3.9 1.8 3.9 4c0 1.1-0.4 2.1-1.1 2.8" />
	</g>
	<g id="Layer">
		<path id="Layer" class="s3" d="m-107.8 297c-1.3 0-2.5-0.5-3.5-1.4c-0.9-0.9-1.4-2.2-1.4-3.5c0-1.3 0.5-2.5 1.4-3.4c1-0.9 2.2-1.4 3.5-1.4c1.3 0 2.5 0.5 3.4 1.4c0.9 0.9 1.4 2.1 1.4 3.4c0 1.3-0.5 2.6-1.4 3.5c-0.9 0.9-2.1 1.4-3.4 1.4z" />
		<path id="Layer" class="s4" d="m-110.7 289.2c0.7-0.7 1.7-1.1 2.8-1.1c2.1 0 3.9 1.8 3.9 4c0 1.1-0.4 2.1-1.1 2.9" />
	</g>
	<path id="Layer" class="s0" d="m-153.7 254.1v-110.4q0-1 0.4-1.9q0.3-1 1-1.7q0.7-0.7 1.7-1q0.9-0.4 1.9-0.4h52.1q1 0 2 0.4q0.9 0.3 1.6 1q0.7 0.7 1.1 1.7q0.3 0.9 0.3 1.9v110.4q0 1-0.3 1.9q-0.4 0.9-1.1 1.6q-0.7 0.7-1.6 1.1q-1 0.4-2 0.4h-52.1q-1 0-1.9-0.4q-1-0.4-1.7-1.1q-0.7-0.7-1-1.6q-0.4-0.9-0.4-1.9z" />
	<path id="Layer" class="s0" d="m-147.6 252.6v-50h50v50z" />
	<path id="Layer" class="s0" d="m-147.6 195v-50h50v50z" />
	<g id="Layer">
		<path id="Layer" class="s1" d="m-147.2 199.9h47.7" />
		<path id="Layer" class="s2" d="m-147.2 197.9h47.7" />
	</g>
	<g id="Layer">
		<path id="Layer" class="s3" d="m-137.8 250.8c-1.3 0-2.5-0.5-3.5-1.4c-0.9-0.9-1.4-2.1-1.4-3.4c0-1.3 0.5-2.5 1.4-3.4c1-0.9 2.2-1.5 3.5-1.5c1.3 0 2.5 0.6 3.4 1.5c0.9 0.9 1.4 2.1 1.4 3.4c0 1.3-0.5 2.5-1.4 3.4c-0.9 0.9-2.1 1.4-3.4 1.4z" />
		<path id="Layer" class="s4" d="m-140.7 243.1c0.7-0.7 1.7-1.1 2.8-1.1c2.1 0 3.9 1.8 3.9 4c0 1.1-0.4 2.1-1.1 2.8" />
	</g>
	<g id="Layer">
		<path id="Layer" class="s3" d="m-122.8 235.7c-1.3 0-2.5-0.6-3.5-1.5c-0.9-0.9-1.4-2.1-1.4-3.4c0-1.3 0.5-2.5 1.4-3.4c1-0.9 2.2-1.4 3.5-1.4c1.3 0 2.5 0.5 3.4 1.4c0.9 0.9 1.4 2.1 1.4 3.4c0 1.3-0.5 2.5-1.4 3.4c-0.9 0.9-2.1 1.5-3.4 1.5z" />
		<path id="Layer" class="s4" d="m-125.7 227.9c0.7-0.7 1.7-1.1 2.8-1.1c2.1 0 3.9 1.8 3.9 4c0 1.1-0.4 2.1-1.1 2.8" />
	</g>
	<g id="Layer">
		<path id="Layer" class="s3" d="m-107.8 220.5c-1.3 0-2.5-0.5-3.5-1.5c-0.9-0.9-1.4-2.1-1.4-3.4c0-1.3 0.5-2.5 1.4-3.4c1-0.9 2.2-1.4 3.5-1.4c1.3 0 2.5 0.5 3.4 1.4c0.9 0.9 1.4 2.1 1.4 3.4c0 1.3-0.5 2.5-1.4 3.4c-0.9 1-2.1 1.5-3.4 1.5z" />
		<path id="Layer" class="s4" d="m-110.7 212.7c0.7-0.7 1.7-1.1 2.8-1.1c2.1 0 3.9 1.8 3.9 4c0 1.1-0.4 2.1-1.1 2.8" />
	</g>
	<g id="Layer">
		<path id="Layer" class="s3" d="m-137.8 189.3c-1.3 0-2.5-0.6-3.5-1.5c-0.9-0.9-1.4-2.1-1.4-3.4c0-1.3 0.5-2.5 1.4-3.4c1-0.9 2.2-1.4 3.5-1.4c1.3 0 2.5 0.5 3.4 1.4c0.9 0.9 1.4 2.1 1.4 3.4c0 1.3-0.5 2.5-1.4 3.4c-0.9 0.9-2.1 1.5-3.4 1.5z" />
		<path id="Layer" class="s4" d="m-140.7 181.5c0.7-0.7 1.7-1.1 2.8-1.1c2.1 0 3.9 1.8 3.9 4c0 1.1-0.4 2.1-1.1 2.8" />
	</g>
	<g id="Layer">
		<path id="Layer" class="s3" d="m-122.8 174.1c-1.3 0-2.5-0.6-3.5-1.5c-0.9-0.9-1.4-2.1-1.4-3.4c0-1.3 0.5-2.5 1.4-3.4c1-0.9 2.2-1.4 3.5-1.4c1.3 0 2.5 0.5 3.4 1.4c0.9 0.9 1.4 2.1 1.4 3.4c0 1.3-0.5 2.5-1.4 3.4c-0.9 0.9-2.1 1.5-3.4 1.5z" />
		<path id="Layer" class="s4" d="m-125.7 166.3c0.7-0.7 1.7-1.1 2.8-1.1c2.1 0 3.9 1.8 3.9 4c0 1.1-0.4 2.1-1.1 2.8" />
	</g>
	<g id="Layer">
		<path id="Layer" class="s3" d="m-137.8 158.9c-1.3 0-2.5-0.5-3.5-1.5c-0.9-0.9-1.4-2.1-1.4-3.4c0-1.3 0.5-2.5 1.4-3.4c1-0.9 2.2-1.4 3.5-1.4c1.3 0 2.5 0.5 3.4 1.4c0.9 0.9 1.4 2.1 1.4 3.4c0 1.3-0.5 2.5-1.4 3.4c-0.9 1-2.1 1.5-3.4 1.5z" />
		<path id="Layer" class="s4" d="m-140.7 151.1c0.7-0.7 1.7-1.1 2.8-1.1c2.1 0 3.9 1.8 3.9 4c0 1.1-0.4 2.1-1.1 2.8" />
	</g>
	<g id="Layer">
		<path id="Layer" class="s3" d="m-107.8 189.3c-1.3 0-2.5-0.6-3.5-1.5c-0.9-0.9-1.4-2.1-1.4-3.4c0-1.3 0.5-2.5 1.4-3.4c1-0.9 2.2-1.4 3.5-1.4c1.3 0 2.5 0.5 3.4 1.4c0.9 0.9 1.4 2.1 1.4 3.4c0 1.3-0.5 2.5-1.4 3.4c-0.9 0.9-2.1 1.5-3.4 1.5z" />
		<path id="Layer" class="s4" d="m-110.7 181.5c0.7-0.7 1.7-1.1 2.8-1.1c2.1 0 3.9 1.8 3.9 4c0 1.1-0.4 2.1-1.1 2.8" />
	</g>
	<g id="Layer">
		<path id="Layer" class="s3" d="m-107.8 158.9c-1.3 0-2.5-0.5-3.5-1.5c-0.9-0.9-1.4-2.1-1.4-3.4c0-1.3 0.5-2.5 1.4-3.4c1-0.9 2.2-1.4 3.5-1.4c1.3 0 2.5 0.5 3.4 1.4c0.9 0.9 1.4 2.1 1.4 3.4c0 1.3-0.5 2.5-1.4 3.4c-0.9 1-2.1 1.5-3.4 1.5z" />
		<path id="Layer" class="s4" d="m-110.7 151.1c0.7-0.7 1.7-1.1 2.8-1.1c2.1 0 3.9 1.8 3.9 4c0 1.1-0.4 2.1-1.1 2.8" />
	</g>
	<path id="Layer" class="s0" d="m-231.1 116v-110.4q0-1 0.4-2q0.4-0.9 1.1-1.6q0.7-0.7 1.6-1.1q0.9-0.3 1.9-0.3h52.2q1 0 1.9 0.3q0.9 0.4 1.6 1.1q0.7 0.7 1.1 1.6q0.4 1 0.4 2v110.4q0 1-0.4 1.9q-0.4 0.9-1.1 1.6q-0.7 0.7-1.6 1.1q-0.9 0.4-1.9 0.4h-52.2q-1 0-1.9-0.4q-0.9-0.4-1.6-1.1q-0.7-0.7-1.1-1.6q-0.4-0.9-0.4-1.9z" />
	<path id="Layer" class="s0" d="m-225 114.5v-50h50v50z" />
	<path id="Layer" class="s0" d="m-225 56.9v-50h50v50z" />
	<g id="Layer">
		<path id="Layer" class="s1" d="m-224.6 61.8h47.7" />
		<path id="Layer" class="s2" d="m-224.6 59.8h47.7" />
	</g>
	<g id="Layer">
		<path id="Layer" class="s3" d="m-215.2 112.7c-1.3 0-2.5-0.5-3.5-1.4c-0.9-0.9-1.4-2.1-1.4-3.4c0-1.3 0.5-2.5 1.4-3.4c1-1 2.2-1.5 3.5-1.5c1.3 0 2.5 0.5 3.4 1.5c0.9 0.9 1.4 2.1 1.4 3.4c0 1.3-0.5 2.5-1.4 3.4c-0.9 0.9-2.1 1.4-3.4 1.4z" />
		<path id="Layer" class="s4" d="m-218.1 105c0.7-0.7 1.7-1.1 2.8-1.1c2.1 0 3.9 1.8 3.9 4c0 1.1-0.4 2.1-1.1 2.8" />
	</g>
	<g id="Layer">
		<path id="Layer" class="s3" d="m-185.2 82.4c-1.3 0-2.5-0.6-3.5-1.5c-0.9-0.9-1.4-2.1-1.4-3.4c0-1.3 0.5-2.5 1.4-3.4c1-0.9 2.2-1.4 3.5-1.4c1.3 0 2.5 0.5 3.4 1.4c0.9 0.9 1.4 2.1 1.4 3.4c0 1.3-0.5 2.5-1.4 3.4c-0.9 0.9-2.1 1.5-3.4 1.5z" />
		<path id="Layer" class="s4" d="m-188.1 74.6c0.7-0.7 1.7-1.1 2.8-1.1c2.1 0 3.9 1.8 3.9 4c0 1.1-0.4 2.1-1.1 2.8" />
	</g>
	<g id="Layer">
		<path id="Layer" class="s3" d="m-215.2 51.1c-1.3 0-2.5-0.5-3.5-1.4c-0.9-0.9-1.4-2.1-1.4-3.4c0-1.3 0.5-2.5 1.4-3.4c1-1 2.2-1.5 3.5-1.5c1.3 0 2.5 0.5 3.4 1.5c0.9 0.9 1.4 2.1 1.4 3.4c0 1.3-0.5 2.5-1.4 3.4c-0.9 0.9-2.1 1.4-3.4 1.4z" />
		<path id="Layer" class="s4" d="m-218.1 43.4c0.7-0.7 1.7-1.1 2.8-1.1c2.1 0 3.9 1.8 3.9 4c0 1.1-0.4 2.1-1.1 2.8" />
	</g>
	<g id="Layer">
		<path id="Layer" class="s3" d="m-200.2 35.9c-1.3 0-2.5-0.5-3.5-1.4c-0.9-0.9-1.4-2.1-1.4-3.4c0-1.3 0.5-2.5 1.4-3.4c1-0.9 2.2-1.5 3.5-1.5c1.3 0 2.5 0.6 3.4 1.5c0.9 0.9 1.4 2.1 1.4 3.4c0 1.3-0.5 2.5-1.4 3.4c-0.9 0.9-2.1 1.4-3.4 1.4z" />
		<path id="Layer" class="s4" d="m-203.1 28.2c0.7-0.7 1.7-1.1 2.8-1.1c2.1 0 3.9 1.8 3.9 4c0 1.1-0.4 2.1-1.1 2.8" />
	</g>
	<g id="Layer">
		<path id="Layer" class="s3" d="m-215.2 20.8c-1.3 0-2.5-0.6-3.5-1.5c-0.9-0.9-1.4-2.1-1.4-3.4c0-1.3 0.5-2.5 1.4-3.4c1-0.9 2.2-1.4 3.5-1.4c1.3 0 2.5 0.5 3.4 1.4c0.9 0.9 1.4 2.1 1.4 3.4c0 1.3-0.5 2.5-1.4 3.4c-0.9 0.9-2.1 1.5-3.4 1.5z" />
		<path id="Layer" class="s4" d="m-218.1 13c0.7-0.7 1.7-1.1 2.8-1.1c2.1 0 3.9 1.8 3.9 4c0 1.1-0.4 2.1-1.1 2.8" />
	</g>
	<g id="Layer">
		<path id="Layer" class="s3" d="m-185.2 51.1c-1.3 0-2.5-0.5-3.5-1.4c-0.9-0.9-1.4-2.1-1.4-3.4c0-1.3 0.5-2.5 1.4-3.4c1-1 2.2-1.5 3.5-1.5c1.3 0 2.5 0.5 3.4 1.5c0.9 0.9 1.4 2.1 1.4 3.4c0 1.3-0.5 2.5-1.4 3.4c-0.9 0.9-2.1 1.4-3.4 1.4z" />
		<path id="Layer" class="s4" d="m-188.1 43.4c0.7-0.7 1.7-1.1 2.8-1.1c2.1 0 3.9 1.8 3.9 4c0 1.1-0.4 2.1-1.1 2.8" />
	</g>
	<g id="Layer">
		<path id="Layer" class="s3" d="m-185.2 20.8c-1.3 0-2.5-0.6-3.5-1.5c-0.9-0.9-1.4-2.1-1.4-3.4c0-1.3 0.5-2.5 1.4-3.4c1-0.9 2.2-1.4 3.5-1.4c1.3 0 2.5 0.5 3.4 1.4c0.9 0.9 1.4 2.1 1.4 3.4c0 1.3-0.5 2.5-1.4 3.4c-0.9 0.9-2.1 1.5-3.4 1.5z" />
		<path id="Layer" class="s4" d="m-188.1 13c0.7-0.7 1.7-1.1 2.8-1.1c2.1 0 3.9 1.8 3.9 4c0 1.1-0.4 2.1-1.1 2.8" />
	</g>
	<path id="Layer" class="s0" d="m-231.1-22.1v-110.4q0-1 0.4-2q0.4-0.9 1.1-1.6q0.7-0.7 1.6-1.1q0.9-0.3 1.9-0.3h52.2q1 0 1.9 0.3q0.9 0.4 1.6 1.1q0.7 0.7 1.1 1.6q0.4 1 0.4 2v110.4q0 1-0.4 1.9q-0.4 0.9-1.1 1.6q-0.7 0.7-1.6 1.1q-0.9 0.4-1.9 0.4h-52.2q-1 0-1.9-0.4q-0.9-0.4-1.6-1.1q-0.7-0.7-1.1-1.6q-0.4-0.9-0.4-1.9z" />
	<path id="Layer" class="s0" d="m-225-23.6v-50h50v50z" />
	<path id="Layer" class="s0" d="m-225-81.2v-50h50v50z" />
	<g id="Layer">
		<path id="Layer" class="s1" d="m-224.6-76.4h47.7" />
		<path id="Layer" class="s2" d="m-224.6-78.4h47.7" />
	</g>
	<g id="Layer">
		<path id="Layer" class="s3" d="m-215.2-25.4c-1.3 0-2.5-0.5-3.5-1.4c-0.9-0.9-1.4-2.1-1.4-3.4c0-1.3 0.5-2.5 1.4-3.5c1-0.9 2.2-1.4 3.5-1.4c1.3 0 2.5 0.5 3.4 1.4c0.9 1 1.4 2.2 1.4 3.5c0 1.3-0.5 2.5-1.4 3.4c-0.9 0.9-2.1 1.4-3.4 1.4z" />
		<path id="Layer" class="s4" d="m-218.1-33.1c0.7-0.7 1.7-1.1 2.8-1.1c2.1 0 3.9 1.7 3.9 4c0 1.1-0.4 2.1-1.1 2.8" />
	</g>
	<g id="Layer">
		<path id="Layer" class="s3" d="m-185.2-55.8c-1.3 0-2.5-0.5-3.5-1.4c-0.9-0.9-1.4-2.1-1.4-3.4c0-1.3 0.5-2.5 1.4-3.4c1-1 2.2-1.5 3.5-1.5c1.3 0 2.5 0.5 3.4 1.5c0.9 0.9 1.4 2.1 1.4 3.4c0 1.3-0.5 2.5-1.4 3.4c-0.9 0.9-2.1 1.4-3.4 1.4z" />
		<path id="Layer" class="s4" d="m-188.1-63.5c0.7-0.7 1.7-1.1 2.8-1.1c2.1 0 3.9 1.8 3.9 4c0 1.1-0.4 2.1-1.1 2.8" />
	</g>
	<g id="Layer">
		<path id="Layer" class="s3" d="m-215.2-87c-1.3 0-2.5-0.5-3.5-1.4c-0.9-0.9-1.4-2.1-1.4-3.4c0-1.3 0.5-2.5 1.4-3.4c1-1 2.2-1.5 3.5-1.5c1.3 0 2.5 0.5 3.4 1.5c0.9 0.9 1.4 2.1 1.4 3.4c0 1.3-0.5 2.5-1.4 3.4c-0.9 0.9-2.1 1.4-3.4 1.4z" />
		<path id="Layer" class="s4" d="m-218.1-94.7c0.7-0.7 1.7-1.1 2.8-1.1c2.1 0 3.9 1.8 3.9 4c0 1.1-0.4 2.1-1.1 2.8" />
	</g>
	<g id="Layer">
		<path id="Layer" class="s3" d="m-215.2-117.4c-1.3 0-2.5-0.5-3.5-1.4c-0.9-0.9-1.4-2.1-1.4-3.4c0-1.3 0.5-2.5 1.4-3.4c1-1 2.2-1.5 3.5-1.5c1.3 0 2.5 0.5 3.4 1.5c0.9 0.9 1.4 2.1 1.4 3.4c0 1.3-0.5 2.5-1.4 3.4c-0.9 0.9-2.1 1.4-3.4 1.4z" />
		<path id="Layer" class="s4" d="m-218.1-125.1c0.7-0.7 1.7-1.1 2.8-1.1c2.1 0 3.9 1.8 3.9 4c0 1.1-0.4 2.1-1.1 2.8" />
	</g>
	<g id="Layer">
		<path id="Layer" class="s3" d="m-215.2-102.2c-1.3 0-2.5-0.5-3.5-1.4c-0.9-0.9-1.4-2.1-1.4-3.4c0-1.3 0.5-2.5 1.4-3.4c1-1 2.2-1.5 3.5-1.5c1.3 0 2.5 0.5 3.4 1.5c0.9 0.9 1.4 2.1 1.4 3.4c0 1.3-0.5 2.5-1.4 3.4c-0.9 0.9-2.1 1.4-3.4 1.4z" />
		<path id="Layer" class="s4" d="m-218.1-109.9c0.7-0.7 1.7-1.1 2.8-1.1c2.1 0 3.9 1.8 3.9 4c0 1.1-0.4 2.1-1.1 2.8" />
	</g>
	<g id="Layer">
		<path id="Layer" class="s3" d="m-185.2-87c-1.3 0-2.5-0.5-3.5-1.4c-0.9-0.9-1.4-2.1-1.4-3.4c0-1.3 0.5-2.5 1.4-3.4c1-1 2.2-1.5 3.5-1.5c1.3 0 2.5 0.5 3.4 1.5c0.9 0.9 1.4 2.1 1.4 3.4c0 1.3-0.5 2.5-1.4 3.4c-0.9 0.9-2.1 1.4-3.4 1.4z" />
		<path id="Layer" class="s4" d="m-188.1-94.7c0.7-0.7 1.7-1.1 2.8-1.1c2.1 0 3.9 1.8 3.9 4c0 1.1-0.4 2.1-1.1 2.8" />
	</g>
	<g id="Layer">
		<path id="Layer" class="s3" d="m-185.2-117.4c-1.3 0-2.5-0.5-3.5-1.4c-0.9-0.9-1.4-2.1-1.4-3.4c0-1.3 0.5-2.5 1.4-3.4c1-1 2.2-1.5 3.5-1.5c1.3 0 2.5 0.5 3.4 1.5c0.9 0.9 1.4 2.1 1.4 3.4c0 1.3-0.5 2.5-1.4 3.4c-0.9 0.9-2.1 1.4-3.4 1.4z" />
		<path id="Layer" class="s4" d="m-188.1-125.1c0.7-0.7 1.7-1.1 2.8-1.1c2.1 0 3.9 1.8 3.9 4c0 1.1-0.4 2.1-1.1 2.8" />
	</g>
	<g id="Layer">
		<path id="Layer" class="s3" d="m-185.2-102.2c-1.3 0-2.5-0.5-3.5-1.4c-0.9-0.9-1.4-2.1-1.4-3.4c0-1.3 0.5-2.5 1.4-3.4c1-1 2.2-1.5 3.5-1.5c1.3 0 2.5 0.5 3.4 1.5c0.9 0.9 1.4 2.1 1.4 3.4c0 1.3-0.5 2.5-1.4 3.4c-0.9 0.9-2.1 1.4-3.4 1.4z" />
		<path id="Layer" class="s4" d="m-188.1-109.9c0.7-0.7 1.7-1.1 2.8-1.1c2.1 0 3.9 1.8 3.9 4c0 1.1-0.4 2.1-1.1 2.8" />
	</g>
	<path id="Layer" class="s0" d="m-153.7 116v-110.4q0-1 0.4-2q0.3-0.9 1-1.6q0.7-0.7 1.7-1.1q0.9-0.3 1.9-0.3h52.1q1 0 2 0.3q0.9 0.4 1.6 1.1q0.7 0.7 1.1 1.6q0.3 1 0.3 2v110.4q0 1-0.3 1.9q-0.4 0.9-1.1 1.6q-0.7 0.7-1.6 1.1q-1 0.4-2 0.4h-52.1q-1 0-1.9-0.4q-1-0.4-1.7-1.1q-0.7-0.7-1-1.6q-0.4-0.9-0.4-1.9z" />
	<path id="Layer" class="s0" d="m-147.6 114.5v-50h50v50z" />
	<path id="Layer" class="s0" d="m-147.6 56.9v-50h50v50z" />
	<g id="Layer">
		<path id="Layer" class="s1" d="m-147.2 61.8h47.7" />
		<path id="Layer" class="s2" d="m-147.2 59.8h47.7" />
	</g>
	<g id="Layer">
		<path id="Layer" class="s3" d="m-137.8 112.7c-1.3 0-2.5-0.5-3.5-1.4c-0.9-0.9-1.4-2.1-1.4-3.4c0-1.3 0.5-2.5 1.4-3.4c1-1 2.2-1.5 3.5-1.5c1.3 0 2.5 0.5 3.4 1.5c0.9 0.9 1.4 2.1 1.4 3.4c0 1.3-0.5 2.5-1.4 3.4c-0.9 0.9-2.1 1.4-3.4 1.4z" />
		<path id="Layer" class="s4" d="m-140.7 105c0.7-0.7 1.7-1.1 2.8-1.1c2.1 0 3.9 1.8 3.9 4c0 1.1-0.4 2.1-1.1 2.8" />
	</g>
	<g id="Layer">
		<path id="Layer" class="s3" d="m-122.8 97.5c-1.3 0-2.5-0.5-3.5-1.4c-0.9-0.9-1.4-2.1-1.4-3.4c0-1.3 0.5-2.5 1.4-3.4c1-0.9 2.2-1.5 3.5-1.5c1.3 0 2.5 0.6 3.4 1.5c0.9 0.9 1.4 2.1 1.4 3.4c0 1.3-0.5 2.5-1.4 3.4c-0.9 0.9-2.1 1.4-3.4 1.4z" />
		<path id="Layer" class="s4" d="m-125.7 89.8c0.7-0.7 1.7-1.1 2.8-1.1c2.1 0 3.9 1.8 3.9 4c0 1.1-0.4 2.1-1.1 2.8" />
	</g>
	<g id="Layer">
		<path id="Layer" class="s3" d="m-107.8 82.4c-1.3 0-2.5-0.6-3.5-1.5c-0.9-0.9-1.4-2.1-1.4-3.4c0-1.3 0.5-2.5 1.4-3.4c1-0.9 2.2-1.4 3.5-1.4c1.3 0 2.5 0.5 3.4 1.4c0.9 0.9 1.4 2.1 1.4 3.4c0 1.3-0.5 2.5-1.4 3.4c-0.9 0.9-2.1 1.5-3.4 1.5z" />
		<path id="Layer" class="s4" d="m-110.7 74.6c0.7-0.7 1.7-1.1 2.8-1.1c2.1 0 3.9 1.8 3.9 4c0 1.1-0.4 2.1-1.1 2.8" />
	</g>
	<g id="Layer">
		<path id="Layer" class="s3" d="m-137.8 51.1c-1.3 0-2.5-0.5-3.5-1.4c-0.9-0.9-1.4-2.1-1.4-3.4c0-1.3 0.5-2.5 1.4-3.4c1-1 2.2-1.5 3.5-1.5c1.3 0 2.5 0.5 3.4 1.5c0.9 0.9 1.4 2.1 1.4 3.4c0 1.3-0.5 2.5-1.4 3.4c-0.9 0.9-2.1 1.4-3.4 1.4z" />
		<path id="Layer" class="s4" d="m-140.7 43.4c0.7-0.7 1.7-1.1 2.8-1.1c2.1 0 3.9 1.8 3.9 4c0 1.1-0.4 2.1-1.1 2.8" />
	</g>
	<g id="Layer">
		<path id="Layer" class="s3" d="m-137.8 20.8c-1.3 0-2.5-0.6-3.5-1.5c-0.9-0.9-1.4-2.1-1.4-3.4c0-1.3 0.5-2.5 1.4-3.4c1-0.9 2.2-1.4 3.5-1.4c1.3 0 2.5 0.5 3.4 1.4c0.9 0.9 1.4 2.1 1.4 3.4c0 1.3-0.5 2.5-1.4 3.4c-0.9 0.9-2.1 1.5-3.4 1.5z" />
		<path id="Layer" class="s4" d="m-140.7 13c0.7-0.7 1.7-1.1 2.8-1.1c2.1 0 3.9 1.8 3.9 4c0 1.1-0.4 2.1-1.1 2.8" />
	</g>
	<g id="Layer">
		<path id="Layer" class="s3" d="m-137.8 35.9c-1.3 0-2.5-0.5-3.5-1.4c-0.9-0.9-1.4-2.1-1.4-3.4c0-1.3 0.5-2.5 1.4-3.4c1-0.9 2.2-1.5 3.5-1.5c1.3 0 2.5 0.6 3.4 1.5c0.9 0.9 1.4 2.1 1.4 3.4c0 1.3-0.5 2.5-1.4 3.4c-0.9 0.9-2.1 1.4-3.4 1.4z" />
		<path id="Layer" class="s4" d="m-140.7 28.2c0.7-0.7 1.7-1.1 2.8-1.1c2.1 0 3.9 1.8 3.9 4c0 1.1-0.4 2.1-1.1 2.8" />
	</g>
	<g id="Layer">
		<path id="Layer" class="s3" d="m-107.8 51.1c-1.3 0-2.5-0.5-3.5-1.4c-0.9-0.9-1.4-2.1-1.4-3.4c0-1.3 0.5-2.5 1.4-3.4c1-1 2.2-1.5 3.5-1.5c1.3 0 2.5 0.5 3.4 1.5c0.9 0.9 1.4 2.1 1.4 3.4c0 1.3-0.5 2.5-1.4 3.4c-0.9 0.9-2.1 1.4-3.4 1.4z" />
		<path id="Layer" class="s4" d="m-110.7 43.4c0.7-0.7 1.7-1.1 2.8-1.1c2.1 0 3.9 1.8 3.9 4c0 1.1-0.4 2.1-1.1 2.8" />
	</g>
	<g id="Layer">
		<path id="Layer" class="s3" d="m-107.8 20.8c-1.3 0-2.5-0.6-3.5-1.5c-0.9-0.9-1.4-2.1-1.4-3.4c0-1.3 0.5-2.5 1.4-3.4c1-0.9 2.2-1.4 3.5-1.4c1.3 0 2.5 0.5 3.4 1.4c0.9 0.9 1.4 2.1 1.4 3.4c0 1.3-0.5 2.5-1.4 3.4c-0.9 0.9-2.1 1.5-3.4 1.5z" />
		<path id="Layer" class="s4" d="m-110.7 13c0.7-0.7 1.7-1.1 2.8-1.1c2.1 0 3.9 1.8 3.9 4c0 1.1-0.4 2.1-1.1 2.8" />
	</g>
	<g id="Layer">
		<path id="Layer" class="s3" d="m-107.8 35.9c-1.3 0-2.5-0.5-3.5-1.4c-0.9-0.9-1.4-2.1-1.4-3.4c0-1.3 0.5-2.5 1.4-3.4c1-0.9 2.2-1.5 3.5-1.5c1.3 0 2.5 0.6 3.4 1.5c0.9 0.9 1.4 2.1 1.4 3.4c0 1.3-0.5 2.5-1.4 3.4c-0.9 0.9-2.1 1.4-3.4 1.4z" />
		<path id="Layer" class="s4" d="m-110.7 28.2c0.7-0.7 1.7-1.1 2.8-1.1c2.1 0 3.9 1.8 3.9 4c0 1.1-0.4 2.1-1.1 2.8" />
	</g>
	<path id="Layer" class="s0" d="m-153.7-22.1v-110.4q0-1 0.4-2q0.3-0.9 1-1.6q0.7-0.7 1.7-1.1q0.9-0.3 1.9-0.3h52.1q1 0 2 0.3q0.9 0.4 1.6 1.1q0.7 0.7 1.1 1.6q0.3 1 0.3 2v110.4q0 1-0.3 1.9q-0.4 0.9-1.1 1.6q-0.7 0.7-1.6 1.1q-1 0.4-2 0.4h-52.1q-1 0-1.9-0.4q-1-0.4-1.7-1.1q-0.7-0.7-1-1.6q-0.4-0.9-0.4-1.9z" />
	<path id="Layer" class="s0" d="m-147.6-23.6v-50h50v50z" />
	<path id="Layer" class="s0" d="m-147.6-81.2v-50h50v50z" />
	<g id="Layer">
		<path id="Layer" class="s1" d="m-147.2-76.4h47.7" />
		<path id="Layer" class="s2" d="m-147.2-78.4h47.7" />
	</g>
	<g id="Layer">
		<path id="Layer" class="s3" d="m-137.8-25.4c-1.3 0-2.5-0.5-3.5-1.4c-0.9-0.9-1.4-2.1-1.4-3.4c0-1.3 0.5-2.5 1.4-3.5c1-0.9 2.2-1.4 3.5-1.4c1.3 0 2.5 0.5 3.4 1.4c0.9 1 1.4 2.2 1.4 3.5c0 1.3-0.5 2.5-1.4 3.4c-0.9 0.9-2.1 1.4-3.4 1.4z" />
		<path id="Layer" class="s4" d="m-140.7-33.1c0.7-0.7 1.7-1.1 2.8-1.1c2.1 0 3.9 1.7 3.9 4c0 1.1-0.4 2.1-1.1 2.8" />
	</g>
	<g id="Layer">
		<path id="Layer" class="s3" d="m-137.8-55.8c-1.3 0-2.5-0.5-3.5-1.4c-0.9-0.9-1.4-2.1-1.4-3.4c0-1.3 0.5-2.5 1.4-3.4c1-1 2.2-1.5 3.5-1.5c1.3 0 2.5 0.5 3.4 1.5c0.9 0.9 1.4 2.1 1.4 3.4c0 1.3-0.5 2.5-1.4 3.4c-0.9 0.9-2.1 1.4-3.4 1.4z" />
		<path id="Layer" class="s4" d="m-140.7-63.5c0.7-0.7 1.7-1.1 2.8-1.1c2.1 0 3.9 1.8 3.9 4c0 1.1-0.4 2.1-1.1 2.8" />
	</g>
	<g id="Layer">
		<path id="Layer" class="s3" d="m-107.8-25.4c-1.3 0-2.5-0.5-3.5-1.4c-0.9-0.9-1.4-2.1-1.4-3.4c0-1.3 0.5-2.5 1.4-3.5c1-0.9 2.2-1.4 3.5-1.4c1.3 0 2.5 0.5 3.4 1.4c0.9 1 1.4 2.2 1.4 3.5c0 1.3-0.5 2.5-1.4 3.4c-0.9 0.9-2.1 1.4-3.4 1.4z" />
		<path id="Layer" class="s4" d="m-110.7-33.1c0.7-0.7 1.7-1.1 2.8-1.1c2.1 0 3.9 1.7 3.9 4c0 1.1-0.4 2.1-1.1 2.8" />
	</g>
	<g id="Layer">
		<path id="Layer" class="s3" d="m-107.8-55.8c-1.3 0-2.5-0.5-3.5-1.4c-0.9-0.9-1.4-2.1-1.4-3.4c0-1.3 0.5-2.5 1.4-3.4c1-1 2.2-1.5 3.5-1.5c1.3 0 2.5 0.5 3.4 1.5c0.9 0.9 1.4 2.1 1.4 3.4c0 1.3-0.5 2.5-1.4 3.4c-0.9 0.9-2.1 1.4-3.4 1.4z" />
		<path id="Layer" class="s4" d="m-110.7-63.5c0.7-0.7 1.7-1.1 2.8-1.1c2.1 0 3.9 1.8 3.9 4c0 1.1-0.4 2.1-1.1 2.8" />
	</g>
	<g id="Layer">
		<path id="Layer" class="s3" d="m-137.8-87c-1.3 0-2.5-0.5-3.5-1.4c-0.9-0.9-1.4-2.1-1.4-3.4c0-1.3 0.5-2.5 1.4-3.4c1-1 2.2-1.5 3.5-1.5c1.3 0 2.5 0.5 3.4 1.5c0.9 0.9 1.4 2.1 1.4 3.4c0 1.3-0.5 2.5-1.4 3.4c-0.9 0.9-2.1 1.4-3.4 1.4z" />
		<path id="Layer" class="s4" d="m-140.7-94.7c0.7-0.7 1.7-1.1 2.8-1.1c2.1 0 3.9 1.8 3.9 4c0 1.1-0.4 2.1-1.1 2.8" />
	</g>
	<g id="Layer">
		<path id="Layer" class="s3" d="m-122.8-102.2c-1.3 0-2.5-0.5-3.5-1.4c-0.9-0.9-1.4-2.1-1.4-3.4c0-1.3 0.5-2.5 1.4-3.4c1-1 2.2-1.5 3.5-1.5c1.3 0 2.5 0.5 3.4 1.5c0.9 0.9 1.4 2.1 1.4 3.4c0 1.3-0.5 2.5-1.4 3.4c-0.9 0.9-2.1 1.4-3.4 1.4z" />
		<path id="Layer" class="s4" d="m-125.7-109.9c0.7-0.7 1.7-1.1 2.8-1.1c2.1 0 3.9 1.8 3.9 4c0 1.1-0.4 2.1-1.1 2.8" />
	</g>
	<g id="Layer">
		<path id="Layer" class="s3" d="m-137.8-117.4c-1.3 0-2.5-0.5-3.5-1.4c-0.9-0.9-1.4-2.1-1.4-3.4c0-1.3 0.5-2.5 1.4-3.4c1-1 2.2-1.5 3.5-1.5c1.3 0 2.5 0.5 3.4 1.5c0.9 0.9 1.4 2.1 1.4 3.4c0 1.3-0.5 2.5-1.4 3.4c-0.9 0.9-2.1 1.4-3.4 1.4z" />
		<path id="Layer" class="s4" d="m-140.7-125.1c0.7-0.7 1.7-1.1 2.8-1.1c2.1 0 3.9 1.8 3.9 4c0 1.1-0.4 2.1-1.1 2.8" />
	</g>
	<g id="Layer">
		<path id="Layer" class="s3" d="m-107.8-87c-1.3 0-2.5-0.5-3.5-1.4c-0.9-0.9-1.4-2.1-1.4-3.4c0-1.3 0.5-2.5 1.4-3.4c1-1 2.2-1.5 3.5-1.5c1.3 0 2.5 0.5 3.4 1.5c0.9 0.9 1.4 2.1 1.4 3.4c0 1.3-0.5 2.5-1.4 3.4c-0.9 0.9-2.1 1.4-3.4 1.4z" />
		<path id="Layer" class="s4" d="m-110.7-94.7c0.7-0.7 1.7-1.1 2.8-1.1c2.1 0 3.9 1.8 3.9 4c0 1.1-0.4 2.1-1.1 2.8" />
	</g>
	<g id="Layer">
		<path id="Layer" class="s3" d="m-107.8-117.4c-1.3 0-2.5-0.5-3.5-1.4c-0.9-0.9-1.4-2.1-1.4-3.4c0-1.3 0.5-2.5 1.4-3.4c1-1 2.2-1.5 3.5-1.5c1.3 0 2.5 0.5 3.4 1.5c0.9 0.9 1.4 2.1 1.4 3.4c0 1.3-0.5 2.5-1.4 3.4c-0.9 0.9-2.1 1.4-3.4 1.4z" />
		<path id="Layer" class="s4" d="m-110.7-125.1c0.7-0.7 1.7-1.1 2.8-1.1c2.1 0 3.9 1.8 3.9 4c0 1.1-0.4 2.1-1.1 2.8" />
	</g>
	<path id="Layer" class="s0" d="m-76.4 392.2v-110.4q0.1-1 0.4-1.9q0.4-0.9 1.1-1.6q0.7-0.7 1.6-1.1q1-0.4 1.9-0.4h52.2q1 0 1.9 0.4q1 0.4 1.7 1.1q0.7 0.7 1 1.6q0.4 0.9 0.4 1.9v110.4q0 1-0.4 1.9q-0.3 0.9-1 1.6q-0.7 0.7-1.7 1.1q-0.9 0.4-1.9 0.4h-52.2q-0.9 0-1.9-0.4q-0.9-0.4-1.6-1.1q-0.7-0.7-1.1-1.6q-0.3-0.9-0.4-1.9z" />
	<path id="Layer" class="s0" d="m-70.3 390.7v-50h50v50z" />
	<path id="Layer" class="s0" d="m-70.3 333.2v-50h50v50z" />
	<g id="Layer">
		<path id="Layer" class="s1" d="m-69.8 338h47.6" />
		<path id="Layer" class="s2" d="m-69.8 336h47.6" />
	</g>
	<g id="Layer">
		<path id="Layer" class="s3" d="m-60.5 389c-1.3 0-2.5-0.5-3.5-1.5c-0.9-0.9-1.4-2.1-1.4-3.4c0-1.3 0.5-2.5 1.4-3.4c1-0.9 2.2-1.4 3.5-1.4c1.3 0 2.5 0.5 3.4 1.4c0.9 0.9 1.4 2.1 1.4 3.4c0 1.3-0.5 2.5-1.4 3.4c-0.9 1-2.1 1.5-3.4 1.5z" />
		<path id="Layer" class="s4" d="m-63.4 381.2c0.7-0.7 1.7-1.1 2.8-1.1c2.1 0 3.9 1.8 3.9 4c0 1.1-0.4 2.1-1.1 2.8" />
	</g>
	<g id="Layer">
		<path id="Layer" class="s3" d="m-60.5 358.6c-1.3 0-2.5-0.5-3.5-1.4c-0.9-1-1.4-2.2-1.4-3.5c0-1.3 0.5-2.5 1.4-3.4c1-0.9 2.2-1.4 3.5-1.4c1.3 0 2.5 0.5 3.4 1.4c0.9 0.9 1.4 2.1 1.4 3.4c0 1.3-0.5 2.5-1.4 3.5c-0.9 0.9-2.1 1.4-3.4 1.4z" />
		<path id="Layer" class="s4" d="m-63.4 350.8c0.7-0.7 1.7-1.1 2.8-1.1c2.1 0 3.9 1.8 3.9 4c0 1.1-0.4 2.1-1.1 2.8" />
	</g>
	<g id="Layer">
		<path id="Layer" class="s3" d="m-30.5 389c-1.3 0-2.5-0.5-3.5-1.5c-0.9-0.9-1.4-2.1-1.4-3.4c0-1.3 0.5-2.5 1.4-3.4c1-0.9 2.2-1.4 3.5-1.4c1.3 0 2.5 0.5 3.4 1.4c0.9 0.9 1.4 2.1 1.4 3.4c0 1.3-0.5 2.5-1.4 3.4c-0.9 1-2.1 1.5-3.4 1.5z" />
		<path id="Layer" class="s4" d="m-33.4 381.2c0.7-0.7 1.7-1.1 2.8-1.1c2.1 0 3.9 1.8 3.9 4c0 1.1-0.4 2.1-1.1 2.8" />
	</g>
	<g id="Layer">
		<path id="Layer" class="s3" d="m-30.5 358.6c-1.3 0-2.5-0.5-3.5-1.4c-0.9-1-1.4-2.2-1.4-3.5c0-1.3 0.5-2.5 1.4-3.4c1-0.9 2.2-1.4 3.5-1.4c1.3 0 2.5 0.5 3.4 1.4c0.9 0.9 1.4 2.1 1.4 3.4c0 1.3-0.5 2.5-1.4 3.5c-0.9 0.9-2.1 1.4-3.4 1.4z" />
		<path id="Layer" class="s4" d="m-33.4 350.8c0.7-0.7 1.7-1.1 2.8-1.1c2.1 0 3.9 1.8 3.9 4c0 1.1-0.4 2.1-1.1 2.8" />
	</g>
	<g id="Layer">
		<path id="Layer" class="s3" d="m-60.5 327.4c-1.3 0-2.5-0.5-3.5-1.5c-0.9-0.9-1.4-2.1-1.4-3.4c0-1.3 0.5-2.5 1.4-3.4c1-0.9 2.2-1.4 3.5-1.4c1.3 0 2.5 0.5 3.4 1.4c0.9 0.9 1.4 2.1 1.4 3.4c0 1.3-0.5 2.5-1.4 3.4c-0.9 1-2.1 1.5-3.4 1.5z" />
		<path id="Layer" class="s4" d="m-63.4 319.6c0.7-0.7 1.7-1.1 2.8-1.1c2.1 0 3.9 1.8 3.9 4c0 1.1-0.4 2.1-1.1 2.8" />
	</g>
	<g id="Layer">
		<path id="Layer" class="s3" d="m-60.5 297c-1.3 0-2.5-0.5-3.5-1.4c-0.9-0.9-1.4-2.2-1.4-3.5c0-1.3 0.5-2.5 1.4-3.4c1-0.9 2.2-1.4 3.5-1.4c1.3 0 2.5 0.5 3.4 1.4c0.9 0.9 1.4 2.1 1.4 3.4c0 1.3-0.5 2.6-1.4 3.5c-0.9 0.9-2.1 1.4-3.4 1.4z" />
		<path id="Layer" class="s4" d="m-63.4 289.2c0.7-0.7 1.7-1.1 2.8-1.1c2.1 0 3.9 1.8 3.9 4c0 1.1-0.4 2.1-1.1 2.9" />
	</g>
	<g id="Layer">
		<path id="Layer" class="s3" d="m-60.5 312.2c-1.3 0-2.5-0.5-3.5-1.4c-0.9-1-1.4-2.2-1.4-3.5c0-1.3 0.5-2.5 1.4-3.4c1-0.9 2.2-1.4 3.5-1.4c1.3 0 2.5 0.5 3.4 1.4c0.9 0.9 1.4 2.1 1.4 3.4c0 1.3-0.5 2.5-1.4 3.5c-0.9 0.9-2.1 1.4-3.4 1.4z" />
		<path id="Layer" class="s4" d="m-63.4 304.4c0.7-0.7 1.7-1.1 2.8-1.1c2.1 0 3.9 1.8 3.9 4c0 1.1-0.4 2.1-1.1 2.8" />
	</g>
	<g id="Layer">
		<path id="Layer" class="s3" d="m-30.5 327.4c-1.3 0-2.5-0.5-3.5-1.5c-0.9-0.9-1.4-2.1-1.4-3.4c0-1.3 0.5-2.5 1.4-3.4c1-0.9 2.2-1.4 3.5-1.4c1.3 0 2.5 0.5 3.4 1.4c0.9 0.9 1.4 2.1 1.4 3.4c0 1.3-0.5 2.5-1.4 3.4c-0.9 1-2.1 1.5-3.4 1.5z" />
		<path id="Layer" class="s4" d="m-33.4 319.6c0.7-0.7 1.7-1.1 2.8-1.1c2.1 0 3.9 1.8 3.9 4c0 1.1-0.4 2.1-1.1 2.8" />
	</g>
	<g id="Layer">
		<path id="Layer" class="s3" d="m-30.5 297c-1.3 0-2.5-0.5-3.5-1.4c-0.9-0.9-1.4-2.2-1.4-3.5c0-1.3 0.5-2.5 1.4-3.4c1-0.9 2.2-1.4 3.5-1.4c1.3 0 2.5 0.5 3.4 1.4c0.9 0.9 1.4 2.1 1.4 3.4c0 1.3-0.5 2.6-1.4 3.5c-0.9 0.9-2.1 1.4-3.4 1.4z" />
		<path id="Layer" class="s4" d="m-33.4 289.2c0.7-0.7 1.7-1.1 2.8-1.1c2.1 0 3.9 1.8 3.9 4c0 1.1-0.4 2.1-1.1 2.9" />
	</g>
	<g id="Layer">
		<path id="Layer" class="s3" d="m-30.5 312.2c-1.3 0-2.5-0.5-3.5-1.4c-0.9-1-1.4-2.2-1.4-3.5c0-1.3 0.5-2.5 1.4-3.4c1-0.9 2.2-1.4 3.5-1.4c1.3 0 2.5 0.5 3.4 1.4c0.9 0.9 1.4 2.1 1.4 3.4c0 1.3-0.5 2.5-1.4 3.5c-0.9 0.9-2.1 1.4-3.4 1.4z" />
		<path id="Layer" class="s4" d="m-33.4 304.4c0.7-0.7 1.7-1.1 2.8-1.1c2.1 0 3.9 1.8 3.9 4c0 1.1-0.4 2.1-1.1 2.8" />
	</g>
	<path id="Layer" class="s0" d="m-76.4 254.1v-110.4q0.1-1 0.4-1.9q0.4-1 1.1-1.7q0.7-0.7 1.6-1q1-0.4 1.9-0.4h52.2q1 0 1.9 0.4q1 0.3 1.7 1q0.7 0.7 1 1.7q0.4 0.9 0.4 1.9v110.4q0 1-0.4 1.9q-0.3 0.9-1 1.6q-0.7 0.7-1.7 1.1q-0.9 0.4-1.9 0.4h-52.2q-0.9 0-1.9-0.4q-0.9-0.4-1.6-1.1q-0.7-0.7-1.1-1.6q-0.3-0.9-0.4-1.9z" />
	<path id="Layer" class="s0" d="m-70.3 252.6v-50h50v50z" />
	<path id="Layer" class="s0" d="m-70.3 195v-50h50v50z" />
	<g id="Layer">
		<path id="Layer" class="s1" d="m-69.8 199.9h47.6" />
		<path id="Layer" class="s2" d="m-69.8 197.9h47.6" />
	</g>
	<g id="Layer">
		<path id="Layer" class="s3" d="m-60.5 250.8c-1.3 0-2.5-0.5-3.5-1.4c-0.9-0.9-1.4-2.1-1.4-3.4c0-1.3 0.5-2.5 1.4-3.4c1-0.9 2.2-1.5 3.5-1.5c1.3 0 2.5 0.6 3.4 1.5c0.9 0.9 1.4 2.1 1.4 3.4c0 1.3-0.5 2.5-1.4 3.4c-0.9 0.9-2.1 1.4-3.4 1.4z" />
		<path id="Layer" class="s4" d="m-63.4 243.1c0.7-0.7 1.7-1.1 2.8-1.1c2.1 0 3.9 1.8 3.9 4c0 1.1-0.4 2.1-1.1 2.8" />
	</g>
	<g id="Layer">
		<path id="Layer" class="s3" d="m-45.5 235.7c-1.3 0-2.5-0.6-3.5-1.5c-0.9-0.9-1.4-2.1-1.4-3.4c0-1.3 0.5-2.5 1.4-3.4c1-0.9 2.2-1.4 3.5-1.4c1.3 0 2.5 0.5 3.4 1.4c0.9 0.9 1.4 2.1 1.4 3.4c0 1.3-0.5 2.5-1.4 3.4c-0.9 0.9-2.1 1.5-3.4 1.5z" />
		<path id="Layer" class="s4" d="m-48.4 227.9c0.7-0.7 1.7-1.1 2.8-1.1c2.1 0 3.9 1.8 3.9 4c0 1.1-0.4 2.1-1.1 2.8" />
	</g>
	<g id="Layer">
		<path id="Layer" class="s3" d="m-60.5 220.5c-1.3 0-2.5-0.5-3.5-1.5c-0.9-0.9-1.4-2.1-1.4-3.4c0-1.3 0.5-2.5 1.4-3.4c1-0.9 2.2-1.4 3.5-1.4c1.3 0 2.5 0.5 3.4 1.4c0.9 0.9 1.4 2.1 1.4 3.4c0 1.3-0.5 2.5-1.4 3.4c-0.9 1-2.1 1.5-3.4 1.5z" />
		<path id="Layer" class="s4" d="m-63.4 212.7c0.7-0.7 1.7-1.1 2.8-1.1c2.1 0 3.9 1.8 3.9 4c0 1.1-0.4 2.1-1.1 2.8" />
	</g>
	<g id="Layer">
		<path id="Layer" class="s3" d="m-30.5 250.8c-1.3 0-2.5-0.5-3.5-1.4c-0.9-0.9-1.4-2.1-1.4-3.4c0-1.3 0.5-2.5 1.4-3.4c1-0.9 2.2-1.5 3.5-1.5c1.3 0 2.5 0.6 3.4 1.5c0.9 0.9 1.4 2.1 1.4 3.4c0 1.3-0.5 2.5-1.4 3.4c-0.9 0.9-2.1 1.4-3.4 1.4z" />
		<path id="Layer" class="s4" d="m-33.4 243.1c0.7-0.7 1.7-1.1 2.8-1.1c2.1 0 3.9 1.8 3.9 4c0 1.1-0.4 2.1-1.1 2.8" />
	</g>
	<g id="Layer">
		<path id="Layer" class="s3" d="m-30.5 220.5c-1.3 0-2.5-0.5-3.5-1.5c-0.9-0.9-1.4-2.1-1.4-3.4c0-1.3 0.5-2.5 1.4-3.4c1-0.9 2.2-1.4 3.5-1.4c1.3 0 2.5 0.5 3.4 1.4c0.9 0.9 1.4 2.1 1.4 3.4c0 1.3-0.5 2.5-1.4 3.4c-0.9 1-2.1 1.5-3.4 1.5z" />
		<path id="Layer" class="s4" d="m-33.4 212.7c0.7-0.7 1.7-1.1 2.8-1.1c2.1 0 3.9 1.8 3.9 4c0 1.1-0.4 2.1-1.1 2.8" />
	</g>
	<g id="Layer">
		<path id="Layer" class="s3" d="m-60.5 189.3c-1.3 0-2.5-0.6-3.5-1.5c-0.9-0.9-1.4-2.1-1.4-3.4c0-1.3 0.5-2.5 1.4-3.4c1-0.9 2.2-1.4 3.5-1.4c1.3 0 2.5 0.5 3.4 1.4c0.9 0.9 1.4 2.1 1.4 3.4c0 1.3-0.5 2.5-1.4 3.4c-0.9 0.9-2.1 1.5-3.4 1.5z" />
		<path id="Layer" class="s4" d="m-63.4 181.5c0.7-0.7 1.7-1.1 2.8-1.1c2.1 0 3.9 1.8 3.9 4c0 1.1-0.4 2.1-1.1 2.8" />
	</g>
	<g id="Layer">
		<path id="Layer" class="s3" d="m-60.5 158.9c-1.3 0-2.5-0.5-3.5-1.5c-0.9-0.9-1.4-2.1-1.4-3.4c0-1.3 0.5-2.5 1.4-3.4c1-0.9 2.2-1.4 3.5-1.4c1.3 0 2.5 0.5 3.4 1.4c0.9 0.9 1.4 2.1 1.4 3.4c0 1.3-0.5 2.5-1.4 3.4c-0.9 1-2.1 1.5-3.4 1.5z" />
		<path id="Layer" class="s4" d="m-63.4 151.1c0.7-0.7 1.7-1.1 2.8-1.1c2.1 0 3.9 1.8 3.9 4c0 1.1-0.4 2.1-1.1 2.8" />
	</g>
	<g id="Layer">
		<path id="Layer" class="s3" d="m-60.5 174.1c-1.3 0-2.5-0.6-3.5-1.5c-0.9-0.9-1.4-2.1-1.4-3.4c0-1.3 0.5-2.5 1.4-3.4c1-0.9 2.2-1.4 3.5-1.4c1.3 0 2.5 0.5 3.4 1.4c0.9 0.9 1.4 2.1 1.4 3.4c0 1.3-0.5 2.5-1.4 3.4c-0.9 0.9-2.1 1.5-3.4 1.5z" />
		<path id="Layer" class="s4" d="m-63.4 166.3c0.7-0.7 1.7-1.1 2.8-1.1c2.1 0 3.9 1.8 3.9 4c0 1.1-0.4 2.1-1.1 2.8" />
	</g>
	<g id="Layer">
		<path id="Layer" class="s3" d="m-30.5 189.3c-1.3 0-2.5-0.6-3.5-1.5c-0.9-0.9-1.4-2.1-1.4-3.4c0-1.3 0.5-2.5 1.4-3.4c1-0.9 2.2-1.4 3.5-1.4c1.3 0 2.5 0.5 3.4 1.4c0.9 0.9 1.4 2.1 1.4 3.4c0 1.3-0.5 2.5-1.4 3.4c-0.9 0.9-2.1 1.5-3.4 1.5z" />
		<path id="Layer" class="s4" d="m-33.4 181.5c0.7-0.7 1.7-1.1 2.8-1.1c2.1 0 3.9 1.8 3.9 4c0 1.1-0.4 2.1-1.1 2.8" />
	</g>
	<g id="Layer">
		<path id="Layer" class="s3" d="m-30.5 158.9c-1.3 0-2.5-0.5-3.5-1.5c-0.9-0.9-1.4-2.1-1.4-3.4c0-1.3 0.5-2.5 1.4-3.4c1-0.9 2.2-1.4 3.5-1.4c1.3 0 2.5 0.5 3.4 1.4c0.9 0.9 1.4 2.1 1.4 3.4c0 1.3-0.5 2.5-1.4 3.4c-0.9 1-2.1 1.5-3.4 1.5z" />
		<path id="Layer" class="s4" d="m-33.4 151.1c0.7-0.7 1.7-1.1 2.8-1.1c2.1 0 3.9 1.8 3.9 4c0 1.1-0.4 2.1-1.1 2.8" />
	</g>
	<g id="Layer">
		<path id="Layer" class="s3" d="m-30.5 174.1c-1.3 0-2.5-0.6-3.5-1.5c-0.9-0.9-1.4-2.1-1.4-3.4c0-1.3 0.5-2.5 1.4-3.4c1-0.9 2.2-1.4 3.5-1.4c1.3 0 2.5 0.5 3.4 1.4c0.9 0.9 1.4 2.1 1.4 3.4c0 1.3-0.5 2.5-1.4 3.4c-0.9 0.9-2.1 1.5-3.4 1.5z" />
		<path id="Layer" class="s4" d="m-33.4 166.3c0.7-0.7 1.7-1.1 2.8-1.1c2.1 0 3.9 1.8 3.9 4c0 1.1-0.4 2.1-1.1 2.8" />
	</g>
	<path id="Layer" class="s0" d="m1 392.2v-110.4q0-1 0.4-1.9q0.4-0.9 1.1-1.6q0.7-0.7 1.6-1.1q0.9-0.4 1.9-0.4h52.2q1 0 1.9 0.4q0.9 0.4 1.6 1.1q0.7 0.7 1.1 1.6q0.4 0.9 0.4 1.9v110.4q0 1-0.4 1.9q-0.4 0.9-1.1 1.6q-0.7 0.7-1.6 1.1q-0.9 0.4-1.9 0.4h-52.2q-1 0-1.9-0.4q-0.9-0.4-1.6-1.1q-0.7-0.7-1.1-1.6q-0.4-0.9-0.4-1.9z" />
	<path id="Layer" class="s0" d="m7.1 390.7v-50h50v50z" />
	<path id="Layer" class="s0" d="m7.1 333.2v-50h50v50z" />
	<g id="Layer">
		<path id="Layer" class="s1" d="m7.6 338h47.6" />
		<path id="Layer" class="s2" d="m7.6 336h47.6" />
	</g>
	<g id="Layer">
		<path id="Layer" class="s3" d="m16.9 389c-1.3 0-2.5-0.5-3.5-1.5c-0.9-0.9-1.4-2.1-1.4-3.4c0-1.3 0.5-2.5 1.4-3.4c1-0.9 2.2-1.4 3.5-1.4c1.3 0 2.5 0.5 3.4 1.4c0.9 0.9 1.4 2.1 1.4 3.4c0 1.3-0.5 2.5-1.4 3.4c-0.9 1-2.1 1.5-3.4 1.5z" />
		<path id="Layer" class="s4" d="m14 381.2c0.7-0.7 1.7-1.1 2.8-1.1c2.1 0 3.9 1.8 3.9 4c0 1.1-0.4 2.1-1.1 2.8" />
	</g>
	<g id="Layer">
		<path id="Layer" class="s3" d="m31.9 373.8c-1.3 0-2.5-0.5-3.5-1.5c-0.9-0.9-1.4-2.1-1.4-3.4c0-1.3 0.5-2.5 1.4-3.4c1-0.9 2.2-1.4 3.5-1.4c1.3 0 2.5 0.5 3.4 1.4c0.9 0.9 1.4 2.1 1.4 3.4c0 1.3-0.5 2.5-1.4 3.4c-0.9 1-2.1 1.5-3.4 1.5z" />
		<path id="Layer" class="s4" d="m29 366c0.7-0.7 1.7-1.1 2.8-1.1c2.1 0 3.9 1.8 3.9 4c0 1.1-0.4 2.1-1.1 2.8" />
	</g>
	<g id="Layer">
		<path id="Layer" class="s3" d="m46.9 358.6c-1.3 0-2.5-0.5-3.5-1.4c-0.9-1-1.4-2.2-1.4-3.5c0-1.3 0.5-2.5 1.4-3.4c1-0.9 2.2-1.4 3.5-1.4c1.3 0 2.5 0.5 3.4 1.4c0.9 0.9 1.4 2.1 1.4 3.4c0 1.3-0.5 2.5-1.4 3.5c-0.9 0.9-2.1 1.4-3.4 1.4z" />
		<path id="Layer" class="s4" d="m44 350.8c0.7-0.7 1.7-1.1 2.8-1.1c2.1 0 3.9 1.8 3.9 4c0 1.1-0.4 2.1-1.1 2.8" />
	</g>
	<g id="Layer">
		<path id="Layer" class="s3" d="m16.9 327.4c-1.3 0-2.5-0.5-3.5-1.5c-0.9-0.9-1.4-2.1-1.4-3.4c0-1.3 0.5-2.5 1.4-3.4c1-0.9 2.2-1.4 3.5-1.4c1.3 0 2.5 0.5 3.4 1.4c0.9 0.9 1.4 2.1 1.4 3.4c0 1.3-0.5 2.5-1.4 3.4c-0.9 1-2.1 1.5-3.4 1.5z" />
		<path id="Layer" class="s4" d="m14 319.6c0.7-0.7 1.7-1.1 2.8-1.1c2.1 0 3.9 1.8 3.9 4c0 1.1-0.4 2.1-1.1 2.8" />
	</g>
	<g id="Layer">
		<path id="Layer" class="s3" d="m31.9 312.2c-1.3 0-2.5-0.5-3.5-1.4c-0.9-1-1.4-2.2-1.4-3.5c0-1.3 0.5-2.5 1.4-3.4c1-0.9 2.2-1.4 3.5-1.4c1.3 0 2.5 0.5 3.4 1.4c0.9 0.9 1.4 2.1 1.4 3.4c0 1.3-0.5 2.5-1.4 3.5c-0.9 0.9-2.1 1.4-3.4 1.4z" />
		<path id="Layer" class="s4" d="m29 304.4c0.7-0.7 1.7-1.1 2.8-1.1c2.1 0 3.9 1.8 3.9 4c0 1.1-0.4 2.1-1.1 2.8" />
	</g>
	<g id="Layer">
		<path id="Layer" class="s3" d="m46.9 297c-1.3 0-2.5-0.5-3.5-1.4c-0.9-0.9-1.4-2.2-1.4-3.5c0-1.3 0.5-2.5 1.4-3.4c1-0.9 2.2-1.4 3.5-1.4c1.3 0 2.5 0.5 3.4 1.4c0.9 0.9 1.4 2.1 1.4 3.4c0 1.3-0.5 2.6-1.4 3.5c-0.9 0.9-2.1 1.4-3.4 1.4z" />
		<path id="Layer" class="s4" d="m44 289.2c0.7-0.7 1.7-1.1 2.8-1.1c2.1 0 3.9 1.8 3.9 4c0 1.1-0.4 2.1-1.1 2.9" />
	</g>
	<path id="Layer" class="s0" d="m1 254.1v-110.4q0-1 0.4-1.9q0.4-1 1.1-1.7q0.7-0.7 1.6-1q0.9-0.4 1.9-0.4h52.2q1 0 1.9 0.4q0.9 0.3 1.6 1q0.7 0.7 1.1 1.7q0.4 0.9 0.4 1.9v110.4q0 1-0.4 1.9q-0.4 0.9-1.1 1.6q-0.7 0.7-1.6 1.1q-0.9 0.4-1.9 0.4h-52.2q-1 0-1.9-0.4q-0.9-0.4-1.6-1.1q-0.7-0.7-1.1-1.6q-0.4-0.9-0.4-1.9z" />
	<path id="Layer" class="s0" d="m7.1 252.6v-50h50v50z" />
	<path id="Layer" class="s0" d="m7.1 195v-50h50v50z" />
	<g id="Layer">
		<path id="Layer" class="s1" d="m7.6 199.9h47.6" />
		<path id="Layer" class="s2" d="m7.6 197.9h47.6" />
	</g>
	<g id="Layer">
		<path id="Layer" class="s3" d="m16.9 250.8c-1.3 0-2.5-0.5-3.5-1.4c-0.9-0.9-1.4-2.1-1.4-3.4c0-1.3 0.5-2.5 1.4-3.4c1-0.9 2.2-1.5 3.5-1.5c1.3 0 2.5 0.6 3.4 1.5c0.9 0.9 1.4 2.1 1.4 3.4c0 1.3-0.5 2.5-1.4 3.4c-0.9 0.9-2.1 1.4-3.4 1.4z" />
		<path id="Layer" class="s4" d="m14 243.1c0.7-0.7 1.7-1.1 2.8-1.1c2.1 0 3.9 1.8 3.9 4c0 1.1-0.4 2.1-1.1 2.8" />
	</g>
	<g id="Layer">
		<path id="Layer" class="s3" d="m16.9 220.5c-1.3 0-2.5-0.5-3.5-1.5c-0.9-0.9-1.4-2.1-1.4-3.4c0-1.3 0.5-2.5 1.4-3.4c1-0.9 2.2-1.4 3.5-1.4c1.3 0 2.5 0.5 3.4 1.4c0.9 0.9 1.4 2.1 1.4 3.4c0 1.3-0.5 2.5-1.4 3.4c-0.9 1-2.1 1.5-3.4 1.5z" />
		<path id="Layer" class="s4" d="m14 212.7c0.7-0.7 1.7-1.1 2.8-1.1c2.1 0 3.9 1.8 3.9 4c0 1.1-0.4 2.1-1.1 2.8" />
	</g>
	<g id="Layer">
		<path id="Layer" class="s3" d="m46.9 250.8c-1.3 0-2.5-0.5-3.5-1.4c-0.9-0.9-1.4-2.1-1.4-3.4c0-1.3 0.5-2.5 1.4-3.4c1-0.9 2.2-1.5 3.5-1.5c1.3 0 2.5 0.6 3.4 1.5c0.9 0.9 1.4 2.1 1.4 3.4c0 1.3-0.5 2.5-1.4 3.4c-0.9 0.9-2.1 1.4-3.4 1.4z" />
		<path id="Layer" class="s4" d="m44 243.1c0.7-0.7 1.7-1.1 2.8-1.1c2.1 0 3.9 1.8 3.9 4c0 1.1-0.4 2.1-1.1 2.8" />
	</g>
	<g id="Layer">
		<path id="Layer" class="s3" d="m46.9 220.5c-1.3 0-2.5-0.5-3.5-1.5c-0.9-0.9-1.4-2.1-1.4-3.4c0-1.3 0.5-2.5 1.4-3.4c1-0.9 2.2-1.4 3.5-1.4c1.3 0 2.5 0.5 3.4 1.4c0.9 0.9 1.4 2.1 1.4 3.4c0 1.3-0.5 2.5-1.4 3.4c-0.9 1-2.1 1.5-3.4 1.5z" />
		<path id="Layer" class="s4" d="m44 212.7c0.7-0.7 1.7-1.1 2.8-1.1c2.1 0 3.9 1.8 3.9 4c0 1.1-0.4 2.1-1.1 2.8" />
	</g>
	<g id="Layer">
		<path id="Layer" class="s3" d="m16.9 189.3c-1.3 0-2.5-0.6-3.5-1.5c-0.9-0.9-1.4-2.1-1.4-3.4c0-1.3 0.5-2.5 1.4-3.4c1-0.9 2.2-1.4 3.5-1.4c1.3 0 2.5 0.5 3.4 1.4c0.9 0.9 1.4 2.1 1.4 3.4c0 1.3-0.5 2.5-1.4 3.4c-0.9 0.9-2.1 1.5-3.4 1.5z" />
		<path id="Layer" class="s4" d="m14 181.5c0.7-0.7 1.7-1.1 2.8-1.1c2.1 0 3.9 1.8 3.9 4c0 1.1-0.4 2.1-1.1 2.8" />
	</g>
	<g id="Layer">
		<path id="Layer" class="s3" d="m16.9 158.9c-1.3 0-2.5-0.5-3.5-1.5c-0.9-0.9-1.4-2.1-1.4-3.4c0-1.3 0.5-2.5 1.4-3.4c1-0.9 2.2-1.4 3.5-1.4c1.3 0 2.5 0.5 3.4 1.4c0.9 0.9 1.4 2.1 1.4 3.4c0 1.3-0.5 2.5-1.4 3.4c-0.9 1-2.1 1.5-3.4 1.5z" />
		<path id="Layer" class="s4" d="m14 151.1c0.7-0.7 1.7-1.1 2.8-1.1c2.1 0 3.9 1.8 3.9 4c0 1.1-0.4 2.1-1.1 2.8" />
	</g>
	<g id="Layer">
		<path id="Layer" class="s3" d="m46.9 189.3c-1.3 0-2.5-0.6-3.5-1.5c-0.9-0.9-1.4-2.1-1.4-3.4c0-1.3 0.5-2.5 1.4-3.4c1-0.9 2.2-1.4 3.5-1.4c1.3 0 2.5 0.5 3.4 1.4c0.9 0.9 1.4 2.1 1.4 3.4c0 1.3-0.5 2.5-1.4 3.4c-0.9 0.9-2.1 1.5-3.4 1.5z" />
		<path id="Layer" class="s4" d="m44 181.5c0.7-0.7 1.7-1.1 2.8-1.1c2.1 0 3.9 1.8 3.9 4c0 1.1-0.4 2.1-1.1 2.8" />
	</g>
	<g id="Layer">
		<path id="Layer" class="s3" d="m46.9 158.9c-1.3 0-2.5-0.5-3.5-1.5c-0.9-0.9-1.4-2.1-1.4-3.4c0-1.3 0.5-2.5 1.4-3.4c1-0.9 2.2-1.4 3.5-1.4c1.3 0 2.5 0.5 3.4 1.4c0.9 0.9 1.4 2.1 1.4 3.4c0 1.3-0.5 2.5-1.4 3.4c-0.9 1-2.1 1.5-3.4 1.5z" />
		<path id="Layer" class="s4" d="m44 151.1c0.7-0.7 1.7-1.1 2.8-1.1c2.1 0 3.9 1.8 3.9 4c0 1.1-0.4 2.1-1.1 2.8" />
	</g>
	<path id="Layer" class="s0" d="m-76.4 116v-110.4q0.1-1 0.4-2q0.4-0.9 1.1-1.6q0.7-0.7 1.6-1.1q1-0.3 1.9-0.3h52.2q1 0 1.9 0.3q1 0.4 1.7 1.1q0.7 0.7 1 1.6q0.4 1 0.4 2v110.4q0 1-0.4 1.9q-0.3 0.9-1 1.6q-0.7 0.7-1.7 1.1q-0.9 0.4-1.9 0.4h-52.2q-0.9 0-1.9-0.4q-0.9-0.4-1.6-1.1q-0.7-0.7-1.1-1.6q-0.3-0.9-0.4-1.9z" />
	<path id="Layer" class="s0" d="m-70.3 114.5v-50h50v50z" />
	<path id="Layer" class="s0" d="m-70.3 56.9v-50h50v50z" />
	<g id="Layer">
		<path id="Layer" class="s1" d="m-69.8 61.8h47.6" />
		<path id="Layer" class="s2" d="m-69.8 59.8h47.6" />
	</g>
	<g id="Layer">
		<path id="Layer" class="s3" d="m-45.5 97.5c-1.3 0-2.5-0.5-3.5-1.4c-0.9-0.9-1.4-2.1-1.4-3.4c0-1.3 0.5-2.5 1.4-3.4c1-0.9 2.2-1.5 3.5-1.5c1.3 0 2.5 0.6 3.4 1.5c0.9 0.9 1.4 2.1 1.4 3.4c0 1.3-0.5 2.5-1.4 3.4c-0.9 0.9-2.1 1.4-3.4 1.4z" />
		<path id="Layer" class="s4" d="m-48.4 89.8c0.7-0.7 1.7-1.1 2.8-1.1c2.1 0 3.9 1.8 3.9 4c0 1.1-0.4 2.1-1.1 2.8" />
	</g>
	<g id="Layer">
		<path id="Layer" class="s3" d="m-45.5 35.9c-1.3 0-2.5-0.5-3.5-1.4c-0.9-0.9-1.4-2.1-1.4-3.4c0-1.3 0.5-2.5 1.4-3.4c1-0.9 2.2-1.5 3.5-1.5c1.3 0 2.5 0.6 3.4 1.5c0.9 0.9 1.4 2.1 1.4 3.4c0 1.3-0.5 2.5-1.4 3.4c-0.9 0.9-2.1 1.4-3.4 1.4z" />
		<path id="Layer" class="s4" d="m-48.4 28.2c0.7-0.7 1.7-1.1 2.8-1.1c2.1 0 3.9 1.8 3.9 4c0 1.1-0.4 2.1-1.1 2.8" />
	</g>
	<path id="Layer" class="s0" d="m-76.4-22.1v-110.4q0.1-1 0.4-2q0.4-0.9 1.1-1.6q0.7-0.7 1.6-1.1q1-0.3 1.9-0.3h52.2q1 0 1.9 0.3q1 0.4 1.7 1.1q0.7 0.7 1 1.6q0.4 1 0.4 2v110.4q0 1-0.4 1.9q-0.3 0.9-1 1.6q-0.7 0.7-1.7 1.1q-0.9 0.4-1.9 0.4h-52.2q-0.9 0-1.9-0.4q-0.9-0.4-1.6-1.1q-0.7-0.7-1.1-1.6q-0.3-0.9-0.4-1.9z" />
	<path id="Layer" class="s0" d="m-70.3-23.6v-50h50v50z" />
	<path id="Layer" class="s0" d="m-70.3-81.2v-50h50v50z" />
	<g id="Layer">
		<path id="Layer" class="s1" d="m-69.8-76.4h47.6" />
		<path id="Layer" class="s2" d="m-69.8-78.4h47.6" />
	</g>
	<g id="Layer">
		<path id="Layer" class="s3" d="m-60.5-25.4c-1.3 0-2.5-0.5-3.5-1.4c-0.9-0.9-1.4-2.1-1.4-3.4c0-1.3 0.5-2.5 1.4-3.5c1-0.9 2.2-1.4 3.5-1.4c1.3 0 2.5 0.5 3.4 1.4c0.9 1 1.4 2.2 1.4 3.5c0 1.3-0.5 2.5-1.4 3.4c-0.9 0.9-2.1 1.4-3.4 1.4z" />
		<path id="Layer" class="s4" d="m-63.4-33.1c0.7-0.7 1.7-1.1 2.8-1.1c2.1 0 3.9 1.7 3.9 4c0 1.1-0.4 2.1-1.1 2.8" />
	</g>
	<g id="Layer">
		<path id="Layer" class="s3" d="m-30.5-55.8c-1.3 0-2.5-0.5-3.5-1.4c-0.9-0.9-1.4-2.1-1.4-3.4c0-1.3 0.5-2.5 1.4-3.4c1-1 2.2-1.5 3.5-1.5c1.3 0 2.5 0.5 3.4 1.5c0.9 0.9 1.4 2.1 1.4 3.4c0 1.3-0.5 2.5-1.4 3.4c-0.9 0.9-2.1 1.4-3.4 1.4z" />
		<path id="Layer" class="s4" d="m-33.4-63.5c0.7-0.7 1.7-1.1 2.8-1.1c2.1 0 3.9 1.8 3.9 4c0 1.1-0.4 2.1-1.1 2.8" />
	</g>
	<g id="Layer">
		<path id="Layer" class="s3" d="m-60.5-87c-1.3 0-2.5-0.5-3.5-1.4c-0.9-0.9-1.4-2.1-1.4-3.4c0-1.3 0.5-2.5 1.4-3.4c1-1 2.2-1.5 3.5-1.5c1.3 0 2.5 0.5 3.4 1.5c0.9 0.9 1.4 2.1 1.4 3.4c0 1.3-0.5 2.5-1.4 3.4c-0.9 0.9-2.1 1.4-3.4 1.4z" />
		<path id="Layer" class="s4" d="m-63.4-94.7c0.7-0.7 1.7-1.1 2.8-1.1c2.1 0 3.9 1.8 3.9 4c0 1.1-0.4 2.1-1.1 2.8" />
	</g>
	<g id="Layer">
		<path id="Layer" class="s3" d="m-30.5-117.4c-1.3 0-2.5-0.5-3.5-1.4c-0.9-0.9-1.4-2.1-1.4-3.4c0-1.3 0.5-2.5 1.4-3.4c1-1 2.2-1.5 3.5-1.5c1.3 0 2.5 0.5 3.4 1.5c0.9 0.9 1.4 2.1 1.4 3.4c0 1.3-0.5 2.5-1.4 3.4c-0.9 0.9-2.1 1.4-3.4 1.4z" />
		<path id="Layer" class="s4" d="m-33.4-125.1c0.7-0.7 1.7-1.1 2.8-1.1c2.1 0 3.9 1.8 3.9 4c0 1.1-0.4 2.1-1.1 2.8" />
	</g>
	<path id="Layer" class="s0" d="m1 116v-110.4q0-1 0.4-2q0.4-0.9 1.1-1.6q0.7-0.7 1.6-1.1q0.9-0.3 1.9-0.3h52.2q1 0 1.9 0.3q0.9 0.4 1.6 1.1q0.7 0.7 1.1 1.6q0.4 1 0.4 2v110.4q0 1-0.4 1.9q-0.4 0.9-1.1 1.6q-0.7 0.7-1.6 1.1q-0.9 0.4-1.9 0.4h-52.2q-1 0-1.9-0.4q-0.9-0.4-1.6-1.1q-0.7-0.7-1.1-1.6q-0.4-0.9-0.4-1.9z" />
	<path id="Layer" class="s0" d="m7.1 114.5v-50h50v50z" />
	<path id="Layer" class="s0" d="m7.1 56.9v-50h50v50z" />
	<g id="Layer">
		<path id="Layer" class="s1" d="m7.6 61.8h47.6" />
		<path id="Layer" class="s2" d="m7.6 59.8h47.6" />
	</g>
	<g id="Layer">
		<path id="Layer" class="s3" d="m16.9 112.7c-1.3 0-2.5-0.5-3.5-1.4c-0.9-0.9-1.4-2.1-1.4-3.4c0-1.3 0.5-2.5 1.4-3.4c1-1 2.2-1.5 3.5-1.5c1.3 0 2.5 0.5 3.4 1.5c0.9 0.9 1.4 2.1 1.4 3.4c0 1.3-0.5 2.5-1.4 3.4c-0.9 0.9-2.1 1.4-3.4 1.4z" />
		<path id="Layer" class="s4" d="m14 105c0.7-0.7 1.7-1.1 2.8-1.1c2.1 0 3.9 1.8 3.9 4c0 1.1-0.4 2.1-1.1 2.8" />
	</g>
	<g id="Layer">
		<path id="Layer" class="s3" d="m31.9 97.5c-1.3 0-2.5-0.5-3.5-1.4c-0.9-0.9-1.4-2.1-1.4-3.4c0-1.3 0.5-2.5 1.4-3.4c1-0.9 2.2-1.5 3.5-1.5c1.3 0 2.5 0.6 3.4 1.5c0.9 0.9 1.4 2.1 1.4 3.4c0 1.3-0.5 2.5-1.4 3.4c-0.9 0.9-2.1 1.4-3.4 1.4z" />
		<path id="Layer" class="s4" d="m29 89.8c0.7-0.7 1.7-1.1 2.8-1.1c2.1 0 3.9 1.8 3.9 4c0 1.1-0.4 2.1-1.1 2.8" />
	</g>
	<g id="Layer">
		<path id="Layer" class="s3" d="m16.9 82.4c-1.3 0-2.5-0.6-3.5-1.5c-0.9-0.9-1.4-2.1-1.4-3.4c0-1.3 0.5-2.5 1.4-3.4c1-0.9 2.2-1.4 3.5-1.4c1.3 0 2.5 0.5 3.4 1.4c0.9 0.9 1.4 2.1 1.4 3.4c0 1.3-0.5 2.5-1.4 3.4c-0.9 0.9-2.1 1.5-3.4 1.5z" />
		<path id="Layer" class="s4" d="m14 74.6c0.7-0.7 1.7-1.1 2.8-1.1c2.1 0 3.9 1.8 3.9 4c0 1.1-0.4 2.1-1.1 2.8" />
	</g>
	<g id="Layer">
		<path id="Layer" class="s3" d="m46.9 112.7c-1.3 0-2.5-0.5-3.5-1.4c-0.9-0.9-1.4-2.1-1.4-3.4c0-1.3 0.5-2.5 1.4-3.4c1-1 2.2-1.5 3.5-1.5c1.3 0 2.5 0.5 3.4 1.5c0.9 0.9 1.4 2.1 1.4 3.4c0 1.3-0.5 2.5-1.4 3.4c-0.9 0.9-2.1 1.4-3.4 1.4z" />
		<path id="Layer" class="s4" d="m44 105c0.7-0.7 1.7-1.1 2.8-1.1c2.1 0 3.9 1.8 3.9 4c0 1.1-0.4 2.1-1.1 2.8" />
	</g>
	<g id="Layer">
		<path id="Layer" class="s3" d="m46.9 82.4c-1.3 0-2.5-0.6-3.5-1.5c-0.9-0.9-1.4-2.1-1.4-3.4c0-1.3 0.5-2.5 1.4-3.4c1-0.9 2.2-1.4 3.5-1.4c1.3 0 2.5 0.5 3.4 1.4c0.9 0.9 1.4 2.1 1.4 3.4c0 1.3-0.5 2.5-1.4 3.4c-0.9 0.9-2.1 1.5-3.4 1.5z" />
		<path id="Layer" class="s4" d="m44 74.6c0.7-0.7 1.7-1.1 2.8-1.1c2.1 0 3.9 1.8 3.9 4c0 1.1-0.4 2.1-1.1 2.8" />
	</g>
	<g id="Layer">
		<path id="Layer" class="s3" d="m16.9 51.1c-1.3 0-2.5-0.5-3.5-1.4c-0.9-0.9-1.4-2.1-1.4-3.4c0-1.3 0.5-2.5 1.4-3.4c1-1 2.2-1.5 3.5-1.5c1.3 0 2.5 0.5 3.4 1.5c0.9 0.9 1.4 2.1 1.4 3.4c0 1.3-0.5 2.5-1.4 3.4c-0.9 0.9-2.1 1.4-3.4 1.4z" />
		<path id="Layer" class="s4" d="m14 43.4c0.7-0.7 1.7-1.1 2.8-1.1c2.1 0 3.9 1.8 3.9 4c0 1.1-0.4 2.1-1.1 2.8" />
	</g>
	<g id="Layer">
		<path id="Layer" class="s3" d="m31.9 35.9c-1.3 0-2.5-0.5-3.5-1.4c-0.9-0.9-1.4-2.1-1.4-3.4c0-1.3 0.5-2.5 1.4-3.4c1-0.9 2.2-1.5 3.5-1.5c1.3 0 2.5 0.6 3.4 1.5c0.9 0.9 1.4 2.1 1.4 3.4c0 1.3-0.5 2.5-1.4 3.4c-0.9 0.9-2.1 1.4-3.4 1.4z" />
		<path id="Layer" class="s4" d="m29 28.2c0.7-0.7 1.7-1.1 2.8-1.1c2.1 0 3.9 1.8 3.9 4c0 1.1-0.4 2.1-1.1 2.8" />
	</g>
	<g id="Layer">
		<path id="Layer" class="s3" d="m16.9 20.8c-1.3 0-2.5-0.6-3.5-1.5c-0.9-0.9-1.4-2.1-1.4-3.4c0-1.3 0.5-2.5 1.4-3.4c1-0.9 2.2-1.4 3.5-1.4c1.3 0 2.5 0.5 3.4 1.4c0.9 0.9 1.4 2.1 1.4 3.4c0 1.3-0.5 2.5-1.4 3.4c-0.9 0.9-2.1 1.5-3.4 1.5z" />
		<path id="Layer" class="s4" d="m14 13c0.7-0.7 1.7-1.1 2.8-1.1c2.1 0 3.9 1.8 3.9 4c0 1.1-0.4 2.1-1.1 2.8" />
	</g>
	<g id="Layer">
		<path id="Layer" class="s3" d="m46.9 51.1c-1.3 0-2.5-0.5-3.5-1.4c-0.9-0.9-1.4-2.1-1.4-3.4c0-1.3 0.5-2.5 1.4-3.4c1-1 2.2-1.5 3.5-1.5c1.3 0 2.5 0.5 3.4 1.5c0.9 0.9 1.4 2.1 1.4 3.4c0 1.3-0.5 2.5-1.4 3.4c-0.9 0.9-2.1 1.4-3.4 1.4z" />
		<path id="Layer" class="s4" d="m44 43.4c0.7-0.7 1.7-1.1 2.8-1.1c2.1 0 3.9 1.8 3.9 4c0 1.1-0.4 2.1-1.1 2.8" />
	</g>
	<g id="Layer">
		<path id="Layer" class="s3" d="m46.9 20.8c-1.3 0-2.5-0.6-3.5-1.5c-0.9-0.9-1.4-2.1-1.4-3.4c0-1.3 0.5-2.5 1.4-3.4c1-0.9 2.2-1.4 3.5-1.4c1.3 0 2.5 0.5 3.4 1.4c0.9 0.9 1.4 2.1 1.4 3.4c0 1.3-0.5 2.5-1.4 3.4c-0.9 0.9-2.1 1.5-3.4 1.5z" />
		<path id="Layer" class="s4" d="m44 13c0.7-0.7 1.7-1.1 2.8-1.1c2.1 0 3.9 1.8 3.9 4c0 1.1-0.4 2.1-1.1 2.8" />
	</g>
	<path id="Layer" class="s0" d="m1-22.1v-110.4q0-1 0.4-2q0.4-0.9 1.1-1.6q0.7-0.7 1.6-1.1q0.9-0.3 1.9-0.3h52.2q1 0 1.9 0.3q0.9 0.4 1.6 1.1q0.7 0.7 1.1 1.6q0.4 1 0.4 2v110.4q0 1-0.4 1.9q-0.4 0.9-1.1 1.6q-0.7 0.7-1.6 1.1q-0.9 0.4-1.9 0.4h-52.2q-1 0-1.9-0.4q-0.9-0.4-1.6-1.1q-0.7-0.7-1.1-1.6q-0.4-0.9-0.4-1.9z" />
	<path id="Layer" class="s0" d="m7.1-23.6v-50h50v50z" />
	<path id="Layer" class="s0" d="m7.1-81.2v-50h50v50z" />
	<g id="Layer">
		<path id="Layer" class="s1" d="m7.6-76.4h47.6" />
		<path id="Layer" class="s2" d="m7.6-78.4h47.6" />
	</g>
	<g id="Layer">
		<path id="Layer" class="s3" d="m16.9-25.4c-1.3 0-2.5-0.5-3.5-1.4c-0.9-0.9-1.4-2.1-1.4-3.4c0-1.3 0.5-2.5 1.4-3.5c1-0.9 2.2-1.4 3.5-1.4c1.3 0 2.5 0.5 3.4 1.4c0.9 1 1.4 2.2 1.4 3.5c0 1.3-0.5 2.5-1.4 3.4c-0.9 0.9-2.1 1.4-3.4 1.4z" />
		<path id="Layer" class="s4" d="m14-33.1c0.7-0.7 1.7-1.1 2.8-1.1c2.1 0 3.9 1.7 3.9 4c0 1.1-0.4 2.1-1.1 2.8" />
	</g>
	<g id="Layer">
		<path id="Layer" class="s3" d="m16.9-55.8c-1.3 0-2.5-0.5-3.5-1.4c-0.9-0.9-1.4-2.1-1.4-3.4c0-1.3 0.5-2.5 1.4-3.4c1-1 2.2-1.5 3.5-1.5c1.3 0 2.5 0.5 3.4 1.5c0.9 0.9 1.4 2.1 1.4 3.4c0 1.3-0.5 2.5-1.4 3.4c-0.9 0.9-2.1 1.4-3.4 1.4z" />
		<path id="Layer" class="s4" d="m14-63.5c0.7-0.7 1.7-1.1 2.8-1.1c2.1 0 3.9 1.8 3.9 4c0 1.1-0.4 2.1-1.1 2.8" />
	</g>
	<g id="Layer">
		<path id="Layer" class="s3" d="m16.9-40.6c-1.3 0-2.5-0.5-3.5-1.4c-0.9-0.9-1.4-2.1-1.4-3.4c0-1.3 0.5-2.5 1.4-3.4c1-1 2.2-1.5 3.5-1.5c1.3 0 2.5 0.5 3.4 1.5c0.9 0.9 1.4 2.1 1.4 3.4c0 1.3-0.5 2.5-1.4 3.4c-0.9 0.9-2.1 1.4-3.4 1.4z" />
		<path id="Layer" class="s4" d="m14-48.3c0.7-0.7 1.7-1.1 2.8-1.1c2.1 0 3.9 1.8 3.9 4c0 1.1-0.4 2.1-1.1 2.8" />
	</g>
	<g id="Layer">
		<path id="Layer" class="s3" d="m46.9-25.4c-1.3 0-2.5-0.5-3.5-1.4c-0.9-0.9-1.4-2.1-1.4-3.4c0-1.3 0.5-2.5 1.4-3.5c1-0.9 2.2-1.4 3.5-1.4c1.3 0 2.5 0.5 3.4 1.4c0.9 1 1.4 2.2 1.4 3.5c0 1.3-0.5 2.5-1.4 3.4c-0.9 0.9-2.1 1.4-3.4 1.4z" />
		<path id="Layer" class="s4" d="m44-33.1c0.7-0.7 1.7-1.1 2.8-1.1c2.1 0 3.9 1.7 3.9 4c0 1.1-0.4 2.1-1.1 2.8" />
	</g>
	<g id="Layer">
		<path id="Layer" class="s3" d="m46.9-55.8c-1.3 0-2.5-0.5-3.5-1.4c-0.9-0.9-1.4-2.1-1.4-3.4c0-1.3 0.5-2.5 1.4-3.4c1-1 2.2-1.5 3.5-1.5c1.3 0 2.5 0.5 3.4 1.5c0.9 0.9 1.4 2.1 1.4 3.4c0 1.3-0.5 2.5-1.4 3.4c-0.9 0.9-2.1 1.4-3.4 1.4z" />
		<path id="Layer" class="s4" d="m44-63.5c0.7-0.7 1.7-1.1 2.8-1.1c2.1 0 3.9 1.8 3.9 4c0 1.1-0.4 2.1-1.1 2.8" />
	</g>
	<g id="Layer">
		<path id="Layer" class="s3" d="m46.9-40.6c-1.3 0-2.5-0.5-3.5-1.4c-0.9-0.9-1.4-2.1-1.4-3.4c0-1.3 0.5-2.5 1.4-3.4c1-1 2.2-1.5 3.5-1.5c1.3 0 2.5 0.5 3.4 1.5c0.9 0.9 1.4 2.1 1.4 3.4c0 1.3-0.5 2.5-1.4 3.4c-0.9 0.9-2.1 1.4-3.4 1.4z" />
		<path id="Layer" class="s4" d="m44-48.3c0.7-0.7 1.7-1.1 2.8-1.1c2.1 0 3.9 1.8 3.9 4c0 1.1-0.4 2.1-1.1 2.8" />
	</g>
	<g id="Layer">
		<path id="Layer" class="s3" d="m16.9-87c-1.3 0-2.5-0.5-3.5-1.4c-0.9-0.9-1.4-2.1-1.4-3.4c0-1.3 0.5-2.5 1.4-3.4c1-1 2.2-1.5 3.5-1.5c1.3 0 2.5 0.5 3.4 1.5c0.9 0.9 1.4 2.1 1.4 3.4c0 1.3-0.5 2.5-1.4 3.4c-0.9 0.9-2.1 1.4-3.4 1.4z" />
		<path id="Layer" class="s4" d="m14-94.7c0.7-0.7 1.7-1.1 2.8-1.1c2.1 0 3.9 1.8 3.9 4c0 1.1-0.4 2.1-1.1 2.8" />
	</g>
	<g id="Layer">
		<path id="Layer" class="s3" d="m16.9-117.4c-1.3 0-2.5-0.5-3.5-1.4c-0.9-0.9-1.4-2.1-1.4-3.4c0-1.3 0.5-2.5 1.4-3.4c1-1 2.2-1.5 3.5-1.5c1.3 0 2.5 0.5 3.4 1.5c0.9 0.9 1.4 2.1 1.4 3.4c0 1.3-0.5 2.5-1.4 3.4c-0.9 0.9-2.1 1.4-3.4 1.4z" />
		<path id="Layer" class="s4" d="m14-125.1c0.7-0.7 1.7-1.1 2.8-1.1c2.1 0 3.9 1.8 3.9 4c0 1.1-0.4 2.1-1.1 2.8" />
	</g>
	<g id="Layer">
		<path id="Layer" class="s3" d="m16.9-102.2c-1.3 0-2.5-0.5-3.5-1.4c-0.9-0.9-1.4-2.1-1.4-3.4c0-1.3 0.5-2.5 1.4-3.4c1-1 2.2-1.5 3.5-1.5c1.3 0 2.5 0.5 3.4 1.5c0.9 0.9 1.4 2.1 1.4 3.4c0 1.3-0.5 2.5-1.4 3.4c-0.9 0.9-2.1 1.4-3.4 1.4z" />
		<path id="Layer" class="s4" d="m14-109.9c0.7-0.7 1.7-1.1 2.8-1.1c2.1 0 3.9 1.8 3.9 4c0 1.1-0.4 2.1-1.1 2.8" />
	</g>
	<g id="Layer">
		<path id="Layer" class="s3" d="m46.9-87c-1.3 0-2.5-0.5-3.5-1.4c-0.9-0.9-1.4-2.1-1.4-3.4c0-1.3 0.5-2.5 1.4-3.4c1-1 2.2-1.5 3.5-1.5c1.3 0 2.5 0.5 3.4 1.5c0.9 0.9 1.4 2.1 1.4 3.4c0 1.3-0.5 2.5-1.4 3.4c-0.9 0.9-2.1 1.4-3.4 1.4z" />
		<path id="Layer" class="s4" d="m44-94.7c0.7-0.7 1.7-1.1 2.8-1.1c2.1 0 3.9 1.8 3.9 4c0 1.1-0.4 2.1-1.1 2.8" />
	</g>
	<g id="Layer">
		<path id="Layer" class="s3" d="m46.9-117.4c-1.3 0-2.5-0.5-3.5-1.4c-0.9-0.9-1.4-2.1-1.4-3.4c0-1.3 0.5-2.5 1.4-3.4c1-1 2.2-1.5 3.5-1.5c1.3 0 2.5 0.5 3.4 1.5c0.9 0.9 1.4 2.1 1.4 3.4c0 1.3-0.5 2.5-1.4 3.4c-0.9 0.9-2.1 1.4-3.4 1.4z" />
		<path id="Layer" class="s4" d="m44-125.1c0.7-0.7 1.7-1.1 2.8-1.1c2.1 0 3.9 1.8 3.9 4c0 1.1-0.4 2.1-1.1 2.8" />
	</g>
	<g id="Layer">
		<path id="Layer" class="s3" d="m46.9-102.2c-1.3 0-2.5-0.5-3.5-1.4c-0.9-0.9-1.4-2.1-1.4-3.4c0-1.3 0.5-2.5 1.4-3.4c1-1 2.2-1.5 3.5-1.5c1.3 0 2.5 0.5 3.4 1.5c0.9 0.9 1.4 2.1 1.4 3.4c0 1.3-0.5 2.5-1.4 3.4c-0.9 0.9-2.1 1.4-3.4 1.4z" />
		<path id="Layer" class="s4" d="m44-109.9c0.7-0.7 1.7-1.1 2.8-1.1c2.1 0 3.9 1.8 3.9 4c0 1.1-0.4 2.1-1.1 2.8" />
	</g>
</svg>