<svg version="1.2" xmlns="http://www.w3.org/2000/svg" viewBox="0 0 64 122" width="64" height="122">
	<title>domino-161746-svg</title>
	<style>
		.s0 { fill: #000000 } 
		.s1 { fill: none;stroke: #323232;stroke-linecap: round;stroke-width: 2 } 
		.s2 { fill: none;stroke: #969696;stroke-linecap: round;stroke-width: 2 } 
		.s3 { fill: #ffffff;stroke: #323232;stroke-linecap: round;stroke-linejoin: round;stroke-width: 2 } 
		.s4 { fill: none;stroke: #969696;stroke-linecap: round;stroke-linejoin: round;stroke-width: 1.6 } 
	</style>
	<path id="Layer" class="s0" d="m1.1 392.2v-110.4q0.1-1 0.4-1.9q0.4-0.9 1.1-1.6q0.7-0.7 1.6-1.1q1-0.4 1.9-0.4h52.2q1 0 1.9 0.4q1 0.4 1.7 1.1q0.7 0.7 1 1.6q0.4 0.9 0.4 1.9v110.4q0 1-0.4 1.9q-0.3 0.9-1 1.6q-0.7 0.7-1.7 1.1q-0.9 0.4-1.9 0.4h-52.2q-0.9 0-1.9-0.4q-0.9-0.4-1.6-1.1q-0.7-0.7-1.1-1.6q-0.3-0.9-0.4-1.9z" />
	<path id="Layer" class="s0" d="m7.2 333.2v-50h50v50z" />
	<g id="Layer">
		<path id="Layer" class="s1" d="m7.7 338h47.6" />
		<path id="Layer" class="s2" d="m7.7 336h47.6" />
	</g>
	<g id="Layer">
		<path id="Layer" class="s3" d="m17 327.4c-1.3 0-2.5-0.5-3.4-1.5c-0.9-0.9-1.4-2.1-1.4-3.4c0-1.3 0.5-2.5 1.4-3.4c0.9-0.9 2.1-1.4 3.4-1.4c1.3 0 2.5 0.5 3.5 1.4c0.9 0.9 1.4 2.1 1.4 3.4c0 1.3-0.5 2.5-1.4 3.4c-1 1-2.2 1.5-3.5 1.5z" />
		<path id="Layer" class="s4" d="m14.2 319.6c0.7-0.7 1.7-1.1 2.7-1.1c2.2 0 4 1.8 4 4c0 1.1-0.5 2.1-1.2 2.8" />
	</g>
	<g id="Layer">
		<path id="Layer" class="s3" d="m17 297c-1.3 0-2.5-0.5-3.4-1.4c-0.9-0.9-1.4-2.2-1.4-3.5c0-1.3 0.5-2.5 1.4-3.4c0.9-0.9 2.1-1.4 3.4-1.4c1.3 0 2.5 0.5 3.5 1.4c0.9 0.9 1.4 2.1 1.4 3.4c0 1.3-0.5 2.6-1.4 3.5c-1 0.9-2.2 1.4-3.5 1.4z" />
		<path id="Layer" class="s4" d="m14.2 289.2c0.7-0.7 1.7-1.1 2.7-1.1c2.2 0 4 1.8 4 4c0 1.1-0.5 2.1-1.2 2.9" />
	</g>
	<g id="Layer">
		<path id="Layer" class="s3" d="m47 327.4c-1.3 0-2.5-0.5-3.4-1.5c-0.9-0.9-1.4-2.1-1.4-3.4c0-1.3 0.5-2.5 1.4-3.4c0.9-0.9 2.1-1.4 3.4-1.4c1.3 0 2.5 0.5 3.5 1.4c0.9 0.9 1.4 2.1 1.4 3.4c0 1.3-0.5 2.5-1.4 3.4c-1 1-2.2 1.5-3.5 1.5z" />
		<path id="Layer" class="s4" d="m44.2 319.6c0.7-0.7 1.7-1.1 2.7-1.1c2.2 0 4 1.8 4 4c0 1.1-0.5 2.1-1.2 2.8" />
	</g>
	<g id="Layer">
		<path id="Layer" class="s3" d="m47 297c-1.3 0-2.5-0.5-3.4-1.4c-0.9-0.9-1.4-2.2-1.4-3.5c0-1.3 0.5-2.5 1.4-3.4c0.9-0.9 2.1-1.4 3.4-1.4c1.3 0 2.5 0.5 3.5 1.4c0.9 0.9 1.4 2.1 1.4 3.4c0 1.3-0.5 2.6-1.4 3.5c-1 0.9-2.2 1.4-3.5 1.4z" />
		<path id="Layer" class="s4" d="m44.2 289.2c0.7-0.7 1.7-1.1 2.7-1.1c2.2 0 4 1.8 4 4c0 1.1-0.5 2.1-1.2 2.9" />
	</g>
	<path id="Layer" class="s0" d="m-76.2 392.2v-110.4q0-1 0.4-1.9q0.3-0.9 1-1.6q0.7-0.7 1.7-1.1q0.9-0.4 1.9-0.4h52.1q1 0 2 0.4q0.9 0.4 1.6 1.1q0.7 0.7 1.1 1.6q0.3 0.9 0.3 1.9v110.4q0 1-0.3 1.9q-0.4 0.9-1.1 1.6q-0.7 0.7-1.6 1.1q-1 0.4-2 0.4h-52.1q-1 0-1.9-0.4q-1-0.4-1.7-1.1q-0.7-0.7-1-1.6q-0.4-0.9-0.4-1.9z" />
	<path id="Layer" class="s0" d="m-70.1 390.7v-50h50v50z" />
	<path id="Layer" class="s0" d="m-70.1 333.2v-50h50v50z" />
	<g id="Layer">
		<path id="Layer" class="s1" d="m-69.7 338h47.7" />
		<path id="Layer" class="s2" d="m-69.7 336h47.7" />
	</g>
	<path id="Layer" class="s0" d="m-76.2 254.1v-110.4q0-1 0.4-1.9q0.3-1 1-1.7q0.7-0.7 1.7-1q0.9-0.4 1.9-0.4h52.1q1 0 2 0.4q0.9 0.3 1.6 1q0.7 0.7 1.1 1.7q0.3 0.9 0.3 1.9v110.4q0 1-0.3 1.9q-0.4 0.9-1.1 1.6q-0.7 0.7-1.6 1.1q-1 0.4-2 0.4h-52.1q-1 0-1.9-0.4q-1-0.4-1.7-1.1q-0.7-0.7-1-1.6q-0.4-0.9-0.4-1.9z" />
	<path id="Layer" class="s0" d="m-70.1 252.6v-50h50v50z" />
	<path id="Layer" class="s0" d="m-70.1 195v-50h50v50z" />
	<g id="Layer">
		<path id="Layer" class="s1" d="m-69.7 199.9h47.7" />
		<path id="Layer" class="s2" d="m-69.7 197.9h47.7" />
	</g>
	<g id="Layer">
		<path id="Layer" class="s3" d="m-45.4 174.1c-1.2 0-2.5-0.6-3.4-1.5c-0.9-0.9-1.4-2.1-1.4-3.4c0-1.3 0.5-2.5 1.4-3.4c0.9-0.9 2.2-1.4 3.4-1.4c1.3 0 2.6 0.5 3.5 1.4c0.9 0.9 1.4 2.1 1.4 3.4c0 1.3-0.5 2.5-1.4 3.4c-0.9 0.9-2.2 1.5-3.5 1.5z" />
		<path id="Layer" class="s4" d="m-48.2 166.3c0.7-0.7 1.7-1.1 2.7-1.1c2.2 0 4 1.8 4 4c0 1.1-0.5 2.1-1.2 2.8" />
	</g>
	<path id="Layer" class="s0" d="m1.1 254.1v-110.4q0.1-1 0.4-1.9q0.4-1 1.1-1.7q0.7-0.7 1.6-1q1-0.4 1.9-0.4h52.2q1 0 1.9 0.4q1 0.3 1.7 1q0.7 0.7 1 1.7q0.4 0.9 0.4 1.9v110.4q0 1-0.4 1.9q-0.3 0.9-1 1.6q-0.7 0.7-1.7 1.1q-0.9 0.4-1.9 0.4h-52.2q-0.9 0-1.9-0.4q-0.9-0.4-1.6-1.1q-0.7-0.7-1.1-1.6q-0.3-0.9-0.4-1.9z" />
	<path id="Layer" class="s0" d="m7.2 252.6v-50h50v50z" />
	<path id="Layer" class="s0" d="m7.2 195v-50h50v50z" />
	<g id="Layer">
		<path id="Layer" class="s1" d="m7.7 199.9h47.6" />
		<path id="Layer" class="s2" d="m7.7 197.9h47.6" />
	</g>
	<g id="Layer">
		<path id="Layer" class="s3" d="m17 189.3c-1.3 0-2.5-0.6-3.4-1.5c-0.9-0.9-1.4-2.1-1.4-3.4c0-1.3 0.5-2.5 1.4-3.4c0.9-0.9 2.1-1.4 3.4-1.4c1.3 0 2.5 0.5 3.5 1.4c0.9 0.9 1.4 2.1 1.4 3.4c0 1.3-0.5 2.5-1.4 3.4c-1 0.9-2.2 1.5-3.5 1.5z" />
		<path id="Layer" class="s4" d="m14.2 181.5c0.7-0.7 1.7-1.1 2.7-1.1c2.2 0 4 1.8 4 4c0 1.1-0.5 2.1-1.2 2.8" />
	</g>
	<g id="Layer">
		<path id="Layer" class="s3" d="m32 174.1c-1.3 0-2.5-0.6-3.4-1.5c-0.9-0.9-1.4-2.1-1.4-3.4c0-1.3 0.5-2.5 1.4-3.4c0.9-0.9 2.1-1.4 3.4-1.4c1.3 0 2.5 0.5 3.5 1.4c0.9 0.9 1.4 2.1 1.4 3.4c0 1.3-0.5 2.5-1.4 3.4c-1 0.9-2.2 1.5-3.5 1.5z" />
		<path id="Layer" class="s4" d="m29.2 166.3c0.7-0.7 1.7-1.1 2.7-1.1c2.2 0 4 1.8 4 4c0 1.1-0.5 2.1-1.2 2.8" />
	</g>
	<g id="Layer">
		<path id="Layer" class="s3" d="m17 158.9c-1.3 0-2.5-0.5-3.4-1.5c-0.9-0.9-1.4-2.1-1.4-3.4c0-1.3 0.5-2.5 1.4-3.4c0.9-0.9 2.1-1.4 3.4-1.4c1.3 0 2.5 0.5 3.5 1.4c0.9 0.9 1.4 2.1 1.4 3.4c0 1.3-0.5 2.5-1.4 3.4c-1 1-2.2 1.5-3.5 1.5z" />
		<path id="Layer" class="s4" d="m14.2 151.1c0.7-0.7 1.7-1.1 2.7-1.1c2.2 0 4 1.8 4 4c0 1.1-0.5 2.1-1.2 2.8" />
	</g>
	<g id="Layer">
		<path id="Layer" class="s3" d="m47 189.3c-1.3 0-2.5-0.6-3.4-1.5c-0.9-0.9-1.4-2.1-1.4-3.4c0-1.3 0.5-2.5 1.4-3.4c0.9-0.9 2.1-1.4 3.4-1.4c1.3 0 2.5 0.5 3.5 1.4c0.9 0.9 1.4 2.1 1.4 3.4c0 1.3-0.5 2.5-1.4 3.4c-1 0.9-2.2 1.5-3.5 1.5z" />
		<path id="Layer" class="s4" d="m44.2 181.5c0.7-0.7 1.7-1.1 2.7-1.1c2.2 0 4 1.8 4 4c0 1.1-0.5 2.1-1.2 2.8" />
	</g>
	<g id="Layer">
		<path id="Layer" class="s3" d="m47 158.9c-1.3 0-2.5-0.5-3.4-1.5c-0.9-0.9-1.4-2.1-1.4-3.4c0-1.3 0.5-2.5 1.4-3.4c0.9-0.9 2.1-1.4 3.4-1.4c1.3 0 2.5 0.5 3.5 1.4c0.9 0.9 1.4 2.1 1.4 3.4c0 1.3-0.5 2.5-1.4 3.4c-1 1-2.2 1.5-3.5 1.5z" />
		<path id="Layer" class="s4" d="m44.2 151.1c0.7-0.7 1.7-1.1 2.7-1.1c2.2 0 4 1.8 4 4c0 1.1-0.5 2.1-1.2 2.8" />
	</g>
	<path id="Layer" class="s0" d="m78.5 392.2v-110.4q0-1 0.4-1.9q0.4-0.9 1.1-1.6q0.7-0.7 1.6-1.1q0.9-0.4 1.9-0.4h52.2q1 0 1.9 0.4q0.9 0.4 1.6 1.1q0.7 0.7 1.1 1.6q0.4 0.9 0.4 1.9v110.4q0 1-0.4 1.9q-0.4 0.9-1.1 1.6q-0.7 0.7-1.6 1.1q-0.9 0.4-1.9 0.4h-52.2q-1 0-1.9-0.4q-0.9-0.4-1.6-1.1q-0.7-0.7-1.1-1.6q-0.4-0.9-0.4-1.9z" />
	<path id="Layer" class="s0" d="m84.6 390.7v-50h50v50z" />
	<path id="Layer" class="s0" d="m84.6 333.2v-50h50v50z" />
	<g id="Layer">
		<path id="Layer" class="s1" d="m85.1 338h47.6" />
		<path id="Layer" class="s2" d="m85.1 336h47.6" />
	</g>
	<g id="Layer">
		<path id="Layer" class="s3" d="m109.4 373.8c-1.3 0-2.5-0.5-3.4-1.5c-0.9-0.9-1.5-2.1-1.5-3.4c0-1.3 0.6-2.5 1.5-3.4c0.9-0.9 2.1-1.4 3.4-1.4c1.3 0 2.5 0.5 3.4 1.4c0.9 0.9 1.4 2.1 1.4 3.4c0 1.3-0.5 2.5-1.4 3.4c-0.9 1-2.1 1.5-3.4 1.5z" />
		<path id="Layer" class="s4" d="m106.6 366c0.7-0.7 1.6-1.1 2.7-1.1c2.2 0 3.9 1.8 3.9 4c0 1.1-0.4 2.1-1.1 2.8" />
	</g>
	<g id="Layer">
		<path id="Layer" class="s3" d="m94.4 327.4c-1.3 0-2.5-0.5-3.4-1.5c-0.9-0.9-1.5-2.1-1.5-3.4c0-1.3 0.6-2.5 1.5-3.4c0.9-0.9 2.1-1.4 3.4-1.4c1.3 0 2.5 0.5 3.4 1.4c0.9 0.9 1.4 2.1 1.4 3.4c0 1.3-0.5 2.5-1.4 3.4c-0.9 1-2.1 1.5-3.4 1.5z" />
		<path id="Layer" class="s4" d="m91.6 319.6c0.7-0.7 1.6-1.1 2.7-1.1c2.2 0 3.9 1.8 3.9 4c0 1.1-0.4 2.1-1.1 2.8" />
	</g>
	<g id="Layer">
		<path id="Layer" class="s3" d="m109.4 312.2c-1.3 0-2.5-0.5-3.4-1.4c-0.9-1-1.5-2.2-1.5-3.5c0-1.3 0.6-2.5 1.5-3.4c0.9-0.9 2.1-1.4 3.4-1.4c1.3 0 2.5 0.5 3.4 1.4c0.9 0.9 1.4 2.1 1.4 3.4c0 1.3-0.5 2.5-1.4 3.5c-0.9 0.9-2.1 1.4-3.4 1.4z" />
		<path id="Layer" class="s4" d="m106.6 304.4c0.7-0.7 1.6-1.1 2.7-1.1c2.2 0 3.9 1.8 3.9 4c0 1.1-0.4 2.1-1.1 2.8" />
	</g>
	<g id="Layer">
		<path id="Layer" class="s3" d="m124.4 297c-1.3 0-2.5-0.5-3.4-1.4c-0.9-0.9-1.5-2.2-1.5-3.5c0-1.3 0.6-2.5 1.5-3.4c0.9-0.9 2.1-1.4 3.4-1.4c1.3 0 2.5 0.5 3.4 1.4c0.9 0.9 1.4 2.1 1.4 3.4c0 1.3-0.5 2.6-1.4 3.5c-0.9 0.9-2.1 1.4-3.4 1.4z" />
		<path id="Layer" class="s4" d="m121.6 289.2c0.7-0.7 1.6-1.1 2.7-1.1c2.2 0 3.9 1.8 3.9 4c0 1.1-0.4 2.1-1.1 2.9" />
	</g>
	<path id="Layer" class="s0" d="m78.5 254.1v-110.4q0-1 0.4-1.9q0.4-1 1.1-1.7q0.7-0.7 1.6-1q0.9-0.4 1.9-0.4h52.2q1 0 1.9 0.4q0.9 0.3 1.6 1q0.7 0.7 1.1 1.7q0.4 0.9 0.4 1.9v110.4q0 1-0.4 1.9q-0.4 0.9-1.1 1.6q-0.7 0.7-1.6 1.1q-0.9 0.4-1.9 0.4h-52.2q-1 0-1.9-0.4q-0.9-0.4-1.6-1.1q-0.7-0.7-1.1-1.6q-0.4-0.9-0.4-1.9z" />
	<path id="Layer" class="s0" d="m84.6 252.6v-50h50v50z" />
	<path id="Layer" class="s0" d="m84.6 195v-50h50v50z" />
	<g id="Layer">
		<path id="Layer" class="s1" d="m85.1 199.9h47.6" />
		<path id="Layer" class="s2" d="m85.1 197.9h47.6" />
	</g>
	<g id="Layer">
		<path id="Layer" class="s3" d="m109.4 235.7c-1.3 0-2.5-0.6-3.4-1.5c-0.9-0.9-1.5-2.1-1.5-3.4c0-1.3 0.6-2.5 1.5-3.4c0.9-0.9 2.1-1.4 3.4-1.4c1.3 0 2.5 0.5 3.4 1.4c0.9 0.9 1.4 2.1 1.4 3.4c0 1.3-0.5 2.5-1.4 3.4c-0.9 0.9-2.1 1.5-3.4 1.5z" />
		<path id="Layer" class="s4" d="m106.6 227.9c0.7-0.7 1.6-1.1 2.7-1.1c2.2 0 3.9 1.8 3.9 4c0 1.1-0.4 2.1-1.1 2.8" />
	</g>
	<g id="Layer">
		<path id="Layer" class="s3" d="m94.4 189.3c-1.3 0-2.5-0.6-3.4-1.5c-0.9-0.9-1.5-2.1-1.5-3.4c0-1.3 0.6-2.5 1.5-3.4c0.9-0.9 2.1-1.4 3.4-1.4c1.3 0 2.5 0.5 3.4 1.4c0.9 0.9 1.4 2.1 1.4 3.4c0 1.3-0.5 2.5-1.4 3.4c-0.9 0.9-2.1 1.5-3.4 1.5z" />
		<path id="Layer" class="s4" d="m91.6 181.5c0.7-0.7 1.6-1.1 2.7-1.1c2.2 0 3.9 1.8 3.9 4c0 1.1-0.4 2.1-1.1 2.8" />
	</g>
	<g id="Layer">
		<path id="Layer" class="s3" d="m94.4 158.9c-1.3 0-2.5-0.5-3.4-1.5c-0.9-0.9-1.5-2.1-1.5-3.4c0-1.3 0.6-2.5 1.5-3.4c0.9-0.9 2.1-1.4 3.4-1.4c1.3 0 2.5 0.5 3.4 1.4c0.9 0.9 1.4 2.1 1.4 3.4c0 1.3-0.5 2.5-1.4 3.4c-0.9 1-2.1 1.5-3.4 1.5z" />
		<path id="Layer" class="s4" d="m91.6 151.1c0.7-0.7 1.6-1.1 2.7-1.1c2.2 0 3.9 1.8 3.9 4c0 1.1-0.4 2.1-1.1 2.8" />
	</g>
	<g id="Layer">
		<path id="Layer" class="s3" d="m124.4 189.3c-1.3 0-2.5-0.6-3.4-1.5c-0.9-0.9-1.5-2.1-1.5-3.4c0-1.3 0.6-2.5 1.5-3.4c0.9-0.9 2.1-1.4 3.4-1.4c1.3 0 2.5 0.5 3.4 1.4c0.9 0.9 1.4 2.1 1.4 3.4c0 1.3-0.5 2.5-1.4 3.4c-0.9 0.9-2.1 1.5-3.4 1.5z" />
		<path id="Layer" class="s4" d="m121.6 181.5c0.7-0.7 1.6-1.1 2.7-1.1c2.2 0 3.9 1.8 3.9 4c0 1.1-0.4 2.1-1.1 2.8" />
	</g>
	<g id="Layer">
		<path id="Layer" class="s3" d="m124.4 158.9c-1.3 0-2.5-0.5-3.4-1.5c-0.9-0.9-1.5-2.1-1.5-3.4c0-1.3 0.6-2.5 1.5-3.4c0.9-0.9 2.1-1.4 3.4-1.4c1.3 0 2.5 0.5 3.4 1.4c0.9 0.9 1.4 2.1 1.4 3.4c0 1.3-0.5 2.5-1.4 3.4c-0.9 1-2.1 1.5-3.4 1.5z" />
		<path id="Layer" class="s4" d="m121.6 151.1c0.7-0.7 1.6-1.1 2.7-1.1c2.2 0 3.9 1.8 3.9 4c0 1.1-0.4 2.1-1.1 2.8" />
	</g>
	<path id="Layer" class="s0" d="m1.2 116v-110.4q0-1 0.3-2q0.4-0.9 1.1-1.6q0.7-0.7 1.6-1.1q1-0.3 2-0.3h52.1q1 0 1.9 0.3q1 0.4 1.7 1.1q0.7 0.7 1 1.6q0.4 1 0.4 2v110.4q0 1-0.4 1.9q-0.3 0.9-1 1.6q-0.7 0.7-1.7 1.1q-0.9 0.4-1.9 0.4h-52.2q-0.9 0-1.9-0.4q-0.9-0.4-1.6-1.1q-0.7-0.7-1.1-1.6q-0.3-0.9-0.3-1.9z" />
	<path id="Layer" class="s0" d="m7.2 114.5v-50h50v50z" />
	<path id="Layer" class="s0" d="m7.2 56.9v-50h50v50z" />
	<g id="Layer">
		<path id="Layer" class="s1" d="m7.7 61.8h47.6" />
		<path id="Layer" class="s2" d="m7.7 59.8h47.6" />
	</g>
	<g id="Layer">
		<path id="Layer" class="s3" d="m17 51.1c-1.3 0-2.5-0.5-3.4-1.4c-0.9-0.9-1.4-2.1-1.4-3.4c0-1.3 0.5-2.5 1.4-3.4c0.9-1 2.1-1.5 3.4-1.5c1.3 0 2.5 0.5 3.5 1.5c0.9 0.9 1.4 2.1 1.4 3.4c0 1.3-0.5 2.5-1.4 3.4c-1 0.9-2.2 1.4-3.5 1.4z" />
		<path id="Layer" class="s4" d="m14.2 43.4c0.7-0.7 1.7-1.1 2.7-1.1c2.2 0 4 1.8 4 4c0 1.1-0.5 2.1-1.2 2.8" />
	</g>
	<g id="Layer">
		<path id="Layer" class="s3" d="m17 20.8c-1.3 0-2.5-0.6-3.4-1.5c-0.9-0.9-1.4-2.1-1.4-3.4c0-1.3 0.5-2.5 1.4-3.4c0.9-0.9 2.1-1.4 3.4-1.4c1.3 0 2.5 0.5 3.5 1.4c0.9 0.9 1.4 2.1 1.4 3.4c0 1.3-0.5 2.5-1.4 3.4c-1 0.9-2.2 1.5-3.5 1.5z" />
		<path id="Layer" class="s4" d="m14.2 13c0.7-0.7 1.7-1.1 2.7-1.1c2.2 0 4 1.8 4 4c0 1.1-0.5 2.1-1.2 2.8" />
	</g>
	<g id="Layer">
		<path id="Layer" class="s3" d="m17 35.9c-1.3 0-2.5-0.5-3.4-1.4c-0.9-0.9-1.4-2.1-1.4-3.4c0-1.3 0.5-2.5 1.4-3.4c0.9-0.9 2.1-1.5 3.4-1.5c1.3 0 2.5 0.6 3.5 1.5c0.9 0.9 1.4 2.1 1.4 3.4c0 1.3-0.5 2.5-1.4 3.4c-1 0.9-2.2 1.4-3.5 1.4z" />
		<path id="Layer" class="s4" d="m14.2 28.2c0.7-0.7 1.7-1.1 2.7-1.1c2.2 0 4 1.8 4 4c0 1.1-0.5 2.1-1.2 2.8" />
	</g>
	<g id="Layer">
		<path id="Layer" class="s3" d="m47 51.1c-1.3 0-2.5-0.5-3.4-1.4c-0.9-0.9-1.4-2.1-1.4-3.4c0-1.3 0.5-2.5 1.4-3.4c0.9-1 2.1-1.5 3.4-1.5c1.3 0 2.5 0.5 3.5 1.5c0.9 0.9 1.4 2.1 1.4 3.4c0 1.3-0.5 2.5-1.4 3.4c-1 0.9-2.2 1.4-3.5 1.4z" />
		<path id="Layer" class="s4" d="m44.2 43.4c0.7-0.7 1.7-1.1 2.7-1.1c2.2 0 4 1.8 4 4c0 1.1-0.5 2.1-1.2 2.8" />
	</g>
	<g id="Layer">
		<path id="Layer" class="s3" d="m47 20.8c-1.3 0-2.5-0.6-3.4-1.5c-0.9-0.9-1.4-2.1-1.4-3.4c0-1.3 0.5-2.5 1.4-3.4c0.9-0.9 2.1-1.4 3.4-1.4c1.3 0 2.5 0.5 3.5 1.4c0.9 0.9 1.4 2.1 1.4 3.4c0 1.3-0.5 2.5-1.4 3.4c-1 0.9-2.2 1.5-3.5 1.5z" />
		<path id="Layer" class="s4" d="m44.2 13c0.7-0.7 1.7-1.1 2.7-1.1c2.2 0 4 1.8 4 4c0 1.1-0.5 2.1-1.2 2.8" />
	</g>
	<g id="Layer">
		<path id="Layer" class="s3" d="m47 35.9c-1.3 0-2.5-0.5-3.4-1.4c-0.9-0.9-1.4-2.1-1.4-3.4c0-1.3 0.5-2.5 1.4-3.4c0.9-0.9 2.1-1.5 3.4-1.5c1.3 0 2.5 0.6 3.5 1.5c0.9 0.9 1.4 2.1 1.4 3.4c0 1.3-0.5 2.5-1.4 3.4c-1 0.9-2.2 1.4-3.5 1.4z" />
		<path id="Layer" class="s4" d="m44.2 28.2c0.7-0.7 1.7-1.1 2.7-1.1c2.2 0 4 1.8 4 4c0 1.1-0.5 2.1-1.2 2.8" />
	</g>
	<path id="Layer" class="s0" d="m-76.2 116v-110.4q0-1 0.4-2q0.3-0.9 1-1.6q0.7-0.7 1.7-1.1q0.9-0.3 1.9-0.3h52.1q1 0 2 0.3q0.9 0.4 1.6 1.1q0.7 0.7 1.1 1.6q0.3 1 0.3 2v110.4q0 1-0.3 1.9q-0.4 0.9-1.1 1.6q-0.7 0.7-1.6 1.1q-1 0.4-2 0.4h-52.1q-1 0-1.9-0.4q-1-0.4-1.7-1.1q-0.7-0.7-1-1.6q-0.4-0.9-0.4-1.9z" />
	<path id="Layer" class="s0" d="m-70.1 114.5v-50h50v50z" />
	<path id="Layer" class="s0" d="m-70.1 56.9v-50h50v50z" />
	<g id="Layer">
		<path id="Layer" class="s1" d="m-69.7 61.8h47.7" />
		<path id="Layer" class="s2" d="m-69.7 59.8h47.7" />
	</g>
	<g id="Layer">
		<path id="Layer" class="s3" d="m-60.4 51.1c-1.2 0-2.5-0.5-3.4-1.4c-0.9-0.9-1.4-2.1-1.4-3.4c0-1.3 0.5-2.5 1.4-3.4c0.9-1 2.2-1.5 3.4-1.5c1.3 0 2.6 0.5 3.5 1.5c0.9 0.9 1.4 2.1 1.4 3.4c0 1.3-0.5 2.5-1.4 3.4c-0.9 0.9-2.2 1.4-3.5 1.4z" />
		<path id="Layer" class="s4" d="m-63.2 43.4c0.7-0.7 1.7-1.1 2.7-1.1c2.2 0 4 1.8 4 4c0 1.1-0.5 2.1-1.2 2.8" />
	</g>
	<g id="Layer">
		<path id="Layer" class="s3" d="m-30.4 20.8c-1.2 0-2.5-0.6-3.4-1.5c-0.9-0.9-1.4-2.1-1.4-3.4c0-1.3 0.5-2.5 1.4-3.4c0.9-0.9 2.2-1.4 3.4-1.4c1.3 0 2.6 0.5 3.5 1.4c0.9 0.9 1.4 2.1 1.4 3.4c0 1.3-0.5 2.5-1.4 3.4c-0.9 0.9-2.2 1.5-3.5 1.5z" />
		<path id="Layer" class="s4" d="m-33.2 13c0.7-0.7 1.7-1.1 2.7-1.1c2.2 0 4 1.8 4 4c0 1.1-0.5 2.1-1.2 2.8" />
	</g>
	<path id="Layer" class="s0" d="m-76.2-22.1v-110.4q0-1 0.4-2q0.3-0.9 1-1.6q0.7-0.7 1.7-1.1q0.9-0.3 1.9-0.3h52.1q1 0 2 0.3q0.9 0.4 1.6 1.1q0.7 0.7 1.1 1.6q0.3 1 0.3 2v110.4q0 1-0.3 1.9q-0.4 0.9-1.1 1.6q-0.7 0.7-1.6 1.1q-1 0.4-2 0.4h-52.1q-1 0-1.9-0.4q-1-0.4-1.7-1.1q-0.7-0.7-1-1.6q-0.4-0.9-0.4-1.9z" />
	<path id="Layer" class="s0" d="m-70.1-23.6v-50h50v50z" />
	<path id="Layer" class="s0" d="m-70.1-81.2v-50h50v50z" />
	<g id="Layer">
		<path id="Layer" class="s1" d="m-69.7-76.4h47.7" />
		<path id="Layer" class="s2" d="m-69.7-78.4h47.7" />
	</g>
	<g id="Layer">
		<path id="Layer" class="s3" d="m-60.4-87c-1.2 0-2.5-0.5-3.4-1.4c-0.9-0.9-1.4-2.1-1.4-3.4c0-1.3 0.5-2.5 1.4-3.4c0.9-1 2.2-1.5 3.4-1.5c1.3 0 2.6 0.5 3.5 1.5c0.9 0.9 1.4 2.1 1.4 3.4c0 1.3-0.5 2.5-1.4 3.4c-0.9 0.9-2.2 1.4-3.5 1.4z" />
		<path id="Layer" class="s4" d="m-63.2-94.7c0.7-0.7 1.7-1.1 2.7-1.1c2.2 0 4 1.8 4 4c0 1.1-0.5 2.1-1.2 2.8" />
	</g>
	<g id="Layer">
		<path id="Layer" class="s3" d="m-45.4-102.2c-1.2 0-2.5-0.5-3.4-1.4c-0.9-0.9-1.4-2.1-1.4-3.4c0-1.3 0.5-2.5 1.4-3.4c0.9-1 2.2-1.5 3.4-1.5c1.3 0 2.6 0.5 3.5 1.5c0.9 0.9 1.4 2.1 1.4 3.4c0 1.3-0.5 2.5-1.4 3.4c-0.9 0.9-2.2 1.4-3.5 1.4z" />
		<path id="Layer" class="s4" d="m-48.2-109.9c0.7-0.7 1.7-1.1 2.7-1.1c2.2 0 4 1.8 4 4c0 1.1-0.5 2.1-1.2 2.8" />
	</g>
	<g id="Layer">
		<path id="Layer" class="s3" d="m-30.4-117.4c-1.2 0-2.5-0.5-3.4-1.4c-0.9-0.9-1.4-2.1-1.4-3.4c0-1.3 0.5-2.5 1.4-3.4c0.9-1 2.2-1.5 3.4-1.5c1.3 0 2.6 0.5 3.5 1.5c0.9 0.9 1.4 2.1 1.4 3.4c0 1.3-0.5 2.5-1.4 3.4c-0.9 0.9-2.2 1.4-3.5 1.4z" />
		<path id="Layer" class="s4" d="m-33.2-125.1c0.7-0.7 1.7-1.1 2.7-1.1c2.2 0 4 1.8 4 4c0 1.1-0.5 2.1-1.2 2.8" />
	</g>
	<path id="Layer" class="s0" d="m1.2-22.1v-110.4q0-1 0.3-2q0.4-0.9 1.1-1.6q0.7-0.7 1.6-1.1q1-0.3 2-0.3h52.1q1 0 1.9 0.3q1 0.4 1.7 1.1q0.7 0.7 1 1.6q0.4 1 0.4 2v110.4q0 1-0.4 1.9q-0.3 0.9-1 1.6q-0.7 0.7-1.7 1.1q-0.9 0.4-1.9 0.4h-52.1q-1 0-2-0.4q-0.9-0.4-1.6-1.1q-0.7-0.7-1.1-1.6q-0.3-0.9-0.3-1.9z" />
	<path id="Layer" class="s0" d="m7.2-23.6v-50h50v50z" />
	<path id="Layer" class="s0" d="m7.2-81.2v-50h50v50z" />
	<g id="Layer">
		<path id="Layer" class="s1" d="m7.7-76.4h47.6" />
		<path id="Layer" class="s2" d="m7.7-78.4h47.6" />
	</g>
	<g id="Layer">
		<path id="Layer" class="s3" d="m32-40.6c-1.3 0-2.5-0.5-3.4-1.4c-0.9-0.9-1.4-2.1-1.4-3.4c0-1.3 0.5-2.5 1.4-3.4c0.9-1 2.1-1.5 3.4-1.5c1.3 0 2.5 0.5 3.5 1.5c0.9 0.9 1.4 2.1 1.4 3.4c0 1.3-0.5 2.5-1.4 3.4c-1 0.9-2.2 1.4-3.5 1.4z" />
		<path id="Layer" class="s4" d="m29.2-48.3c0.7-0.7 1.7-1.1 2.7-1.1c2.2 0 4 1.8 4 4c0 1.1-0.5 2.1-1.2 2.8" />
	</g>
	<g id="Layer">
		<path id="Layer" class="s3" d="m17-87c-1.3 0-2.5-0.5-3.4-1.4c-0.9-0.9-1.4-2.1-1.4-3.4c0-1.3 0.5-2.5 1.4-3.4c0.9-1 2.1-1.5 3.4-1.5c1.3 0 2.5 0.5 3.5 1.5c0.9 0.9 1.4 2.1 1.4 3.4c0 1.3-0.5 2.5-1.4 3.4c-1 0.9-2.2 1.4-3.5 1.4z" />
		<path id="Layer" class="s4" d="m14.2-94.7c0.7-0.7 1.7-1.1 2.7-1.1c2.2 0 4 1.8 4 4c0 1.1-0.5 2.1-1.2 2.8" />
	</g>
	<g id="Layer">
		<path id="Layer" class="s3" d="m47-117.4c-1.3 0-2.5-0.5-3.4-1.4c-0.9-0.9-1.4-2.1-1.4-3.4c0-1.3 0.5-2.5 1.4-3.4c0.9-1 2.1-1.5 3.4-1.5c1.3 0 2.5 0.5 3.5 1.5c0.9 0.9 1.4 2.1 1.4 3.4c0 1.3-0.5 2.5-1.4 3.4c-1 0.9-2.2 1.4-3.5 1.4z" />
		<path id="Layer" class="s4" d="m44.2-125.1c0.7-0.7 1.7-1.1 2.7-1.1c2.2 0 4 1.8 4 4c0 1.1-0.5 2.1-1.2 2.8" />
	</g>
	<path id="Layer" class="s0" d="m78.5 116v-110.4q0-1 0.4-2q0.4-0.9 1.1-1.6q0.7-0.7 1.6-1.1q0.9-0.3 1.9-0.3h52.2q1 0 1.9 0.3q0.9 0.4 1.6 1.1q0.7 0.7 1.1 1.6q0.4 1 0.4 2v110.4q0 1-0.4 1.9q-0.4 0.9-1.1 1.6q-0.7 0.7-1.6 1.1q-0.9 0.4-1.9 0.4h-52.2q-1 0-1.9-0.4q-0.9-0.4-1.6-1.1q-0.7-0.7-1.1-1.6q-0.4-0.9-0.4-1.9z" />
	<path id="Layer" class="s0" d="m84.6 114.5v-50h50v50z" />
	<path id="Layer" class="s0" d="m84.6 56.9v-50h50v50z" />
	<g id="Layer">
		<path id="Layer" class="s1" d="m85.1 61.8h47.6" />
		<path id="Layer" class="s2" d="m85.1 59.8h47.6" />
	</g>
	<g id="Layer">
		<path id="Layer" class="s3" d="m109.4 97.5c-1.3 0-2.5-0.5-3.4-1.4c-0.9-0.9-1.5-2.1-1.5-3.4c0-1.3 0.6-2.5 1.5-3.4c0.9-0.9 2.1-1.5 3.4-1.5c1.3 0 2.5 0.6 3.4 1.5c0.9 0.9 1.4 2.1 1.4 3.4c0 1.3-0.5 2.5-1.4 3.4c-0.9 0.9-2.1 1.4-3.4 1.4z" />
		<path id="Layer" class="s4" d="m106.6 89.8c0.7-0.7 1.6-1.1 2.7-1.1c2.2 0 3.9 1.8 3.9 4c0 1.1-0.4 2.1-1.1 2.8" />
	</g>
	<g id="Layer">
		<path id="Layer" class="s3" d="m94.4 51.1c-1.3 0-2.5-0.5-3.4-1.4c-0.9-0.9-1.5-2.1-1.5-3.4c0-1.3 0.6-2.5 1.5-3.4c0.9-1 2.1-1.5 3.4-1.5c1.3 0 2.5 0.5 3.4 1.5c0.9 0.9 1.4 2.1 1.4 3.4c0 1.3-0.5 2.5-1.4 3.4c-0.9 0.9-2.1 1.4-3.4 1.4z" />
		<path id="Layer" class="s4" d="m91.6 43.4c0.7-0.7 1.6-1.1 2.7-1.1c2.2 0 3.9 1.8 3.9 4c0 1.1-0.4 2.1-1.1 2.8" />
	</g>
	<g id="Layer">
		<path id="Layer" class="s3" d="m109.4 35.9c-1.3 0-2.5-0.5-3.4-1.4c-0.9-0.9-1.5-2.1-1.5-3.4c0-1.3 0.6-2.5 1.5-3.4c0.9-0.9 2.1-1.5 3.4-1.5c1.3 0 2.5 0.6 3.4 1.5c0.9 0.9 1.4 2.1 1.4 3.4c0 1.3-0.5 2.5-1.4 3.4c-0.9 0.9-2.1 1.4-3.4 1.4z" />
		<path id="Layer" class="s4" d="m106.6 28.2c0.7-0.7 1.6-1.1 2.7-1.1c2.2 0 3.9 1.8 3.9 4c0 1.1-0.4 2.1-1.1 2.8" />
	</g>
	<g id="Layer">
		<path id="Layer" class="s3" d="m94.4 20.8c-1.3 0-2.5-0.6-3.4-1.5c-0.9-0.9-1.5-2.1-1.5-3.4c0-1.3 0.6-2.5 1.5-3.4c0.9-0.9 2.1-1.4 3.4-1.4c1.3 0 2.5 0.5 3.4 1.4c0.9 0.9 1.4 2.1 1.4 3.4c0 1.3-0.5 2.5-1.4 3.4c-0.9 0.9-2.1 1.5-3.4 1.5z" />
		<path id="Layer" class="s4" d="m91.6 13c0.7-0.7 1.6-1.1 2.7-1.1c2.2 0 3.9 1.8 3.9 4c0 1.1-0.4 2.1-1.1 2.8" />
	</g>
	<g id="Layer">
		<path id="Layer" class="s3" d="m124.4 51.1c-1.3 0-2.5-0.5-3.4-1.4c-0.9-0.9-1.5-2.1-1.5-3.4c0-1.3 0.6-2.5 1.5-3.4c0.9-1 2.1-1.5 3.4-1.5c1.3 0 2.5 0.5 3.4 1.5c0.9 0.9 1.4 2.1 1.4 3.4c0 1.3-0.5 2.5-1.4 3.4c-0.9 0.9-2.1 1.4-3.4 1.4z" />
		<path id="Layer" class="s4" d="m121.6 43.4c0.7-0.7 1.6-1.1 2.7-1.1c2.2 0 3.9 1.8 3.9 4c0 1.1-0.4 2.1-1.1 2.8" />
	</g>
	<g id="Layer">
		<path id="Layer" class="s3" d="m124.4 20.8c-1.3 0-2.5-0.6-3.4-1.5c-0.9-0.9-1.5-2.1-1.5-3.4c0-1.3 0.6-2.5 1.5-3.4c0.9-0.9 2.1-1.4 3.4-1.4c1.3 0 2.5 0.5 3.4 1.4c0.9 0.9 1.4 2.1 1.4 3.4c0 1.3-0.5 2.5-1.4 3.4c-0.9 0.9-2.1 1.5-3.4 1.5z" />
		<path id="Layer" class="s4" d="m121.6 13c0.7-0.7 1.6-1.1 2.7-1.1c2.2 0 3.9 1.8 3.9 4c0 1.1-0.4 2.1-1.1 2.8" />
	</g>
	<path id="Layer" class="s0" d="m78.5-22.1v-110.4q0-1 0.4-2q0.4-0.9 1.1-1.6q0.7-0.7 1.6-1.1q0.9-0.3 1.9-0.3h52.2q1 0 1.9 0.3q0.9 0.4 1.6 1.1q0.7 0.7 1.1 1.6q0.4 1 0.4 2v110.4q0 1-0.4 1.9q-0.4 0.9-1.1 1.6q-0.7 0.7-1.6 1.1q-0.9 0.4-1.9 0.4h-52.2q-1 0-1.9-0.4q-0.9-0.4-1.6-1.1q-0.7-0.7-1.1-1.6q-0.4-0.9-0.4-1.9z" />
	<path id="Layer" class="s0" d="m84.6-23.6v-50h50v50z" />
	<path id="Layer" class="s0" d="m84.6-81.2v-50h50v50z" />
	<g id="Layer">
		<path id="Layer" class="s1" d="m85.1-76.4h47.6" />
		<path id="Layer" class="s2" d="m85.1-78.4h47.6" />
	</g>
	<g id="Layer">
		<path id="Layer" class="s3" d="m109.4-40.6c-1.3 0-2.5-0.5-3.4-1.4c-0.9-0.9-1.5-2.1-1.5-3.4c0-1.3 0.6-2.5 1.5-3.4c0.9-1 2.1-1.5 3.4-1.5c1.3 0 2.5 0.5 3.4 1.5c0.9 0.9 1.4 2.1 1.4 3.4c0 1.3-0.5 2.5-1.4 3.4c-0.9 0.9-2.1 1.4-3.4 1.4z" />
		<path id="Layer" class="s4" d="m106.6-48.3c0.7-0.7 1.6-1.1 2.7-1.1c2.2 0 3.9 1.8 3.9 4c0 1.1-0.4 2.1-1.1 2.8" />
	</g>
	<g id="Layer">
		<path id="Layer" class="s3" d="m94.4-87c-1.3 0-2.5-0.5-3.4-1.4c-0.9-0.9-1.5-2.1-1.5-3.4c0-1.3 0.6-2.5 1.5-3.4c0.9-1 2.1-1.5 3.4-1.5c1.3 0 2.5 0.5 3.4 1.5c0.9 0.9 1.4 2.1 1.4 3.4c0 1.3-0.5 2.5-1.4 3.4c-0.9 0.9-2.1 1.4-3.4 1.4z" />
		<path id="Layer" class="s4" d="m91.6-94.7c0.7-0.7 1.6-1.1 2.7-1.1c2.2 0 3.9 1.8 3.9 4c0 1.1-0.4 2.1-1.1 2.8" />
	</g>
	<g id="Layer">
		<path id="Layer" class="s3" d="m94.4-117.4c-1.3 0-2.5-0.5-3.4-1.4c-0.9-0.9-1.5-2.1-1.5-3.4c0-1.3 0.6-2.5 1.5-3.4c0.9-1 2.1-1.5 3.4-1.5c1.3 0 2.5 0.5 3.4 1.5c0.9 0.9 1.4 2.1 1.4 3.4c0 1.3-0.5 2.5-1.4 3.4c-0.9 0.9-2.1 1.4-3.4 1.4z" />
		<path id="Layer" class="s4" d="m91.6-125.1c0.7-0.7 1.6-1.1 2.7-1.1c2.2 0 3.9 1.8 3.9 4c0 1.1-0.4 2.1-1.1 2.8" />
	</g>
	<g id="Layer">
		<path id="Layer" class="s3" d="m94.4-102.2c-1.3 0-2.5-0.5-3.4-1.4c-0.9-0.9-1.5-2.1-1.5-3.4c0-1.3 0.6-2.5 1.5-3.4c0.9-1 2.1-1.5 3.4-1.5c1.3 0 2.5 0.5 3.4 1.5c0.9 0.9 1.4 2.1 1.4 3.4c0 1.3-0.5 2.5-1.4 3.4c-0.9 0.9-2.1 1.4-3.4 1.4z" />
		<path id="Layer" class="s4" d="m91.6-109.9c0.7-0.7 1.6-1.1 2.7-1.1c2.2 0 3.9 1.8 3.9 4c0 1.1-0.4 2.1-1.1 2.8" />
	</g>
	<g id="Layer">
		<path id="Layer" class="s3" d="m124.4-87c-1.3 0-2.5-0.5-3.4-1.4c-0.9-0.9-1.5-2.1-1.5-3.4c0-1.3 0.6-2.5 1.5-3.4c0.9-1 2.1-1.5 3.4-1.5c1.3 0 2.5 0.5 3.4 1.5c0.9 0.9 1.4 2.1 1.4 3.4c0 1.3-0.5 2.5-1.4 3.4c-0.9 0.9-2.1 1.4-3.4 1.4z" />
		<path id="Layer" class="s4" d="m121.6-94.7c0.7-0.7 1.6-1.1 2.7-1.1c2.2 0 3.9 1.8 3.9 4c0 1.1-0.4 2.1-1.1 2.8" />
	</g>
	<g id="Layer">
		<path id="Layer" class="s3" d="m124.4-117.4c-1.3 0-2.5-0.5-3.4-1.4c-0.9-0.9-1.5-2.1-1.5-3.4c0-1.3 0.6-2.5 1.5-3.4c0.9-1 2.1-1.5 3.4-1.5c1.3 0 2.5 0.5 3.4 1.5c0.9 0.9 1.4 2.1 1.4 3.4c0 1.3-0.5 2.5-1.4 3.4c-0.9 0.9-2.1 1.4-3.4 1.4z" />
		<path id="Layer" class="s4" d="m121.6-125.1c0.7-0.7 1.6-1.1 2.7-1.1c2.2 0 3.9 1.8 3.9 4c0 1.1-0.4 2.1-1.1 2.8" />
	</g>
	<g id="Layer">
		<path id="Layer" class="s3" d="m124.4-102.2c-1.3 0-2.5-0.5-3.4-1.4c-0.9-0.9-1.5-2.1-1.5-3.4c0-1.3 0.6-2.5 1.5-3.4c0.9-1 2.1-1.5 3.4-1.5c1.3 0 2.5 0.5 3.4 1.5c0.9 0.9 1.4 2.1 1.4 3.4c0 1.3-0.5 2.5-1.4 3.4c-0.9 0.9-2.1 1.4-3.4 1.4z" />
		<path id="Layer" class="s4" d="m121.6-109.9c0.7-0.7 1.6-1.1 2.7-1.1c2.2 0 3.9 1.8 3.9 4c0 1.1-0.4 2.1-1.1 2.8" />
	</g>
	<path id="Layer" class="s0" d="m155.9 392.2v-110.4q0-1 0.4-1.9q0.4-0.9 1.1-1.6q0.7-0.7 1.6-1.1q0.9-0.4 1.9-0.4h52.2q1 0 1.9 0.4q0.9 0.4 1.6 1.1q0.7 0.7 1.1 1.6q0.4 0.9 0.4 1.9v110.4q0 1-0.4 1.9q-0.4 0.9-1.1 1.6q-0.7 0.7-1.6 1.1q-0.9 0.4-1.9 0.4h-52.2q-1 0-1.9-0.4q-0.9-0.4-1.6-1.1q-0.7-0.7-1.1-1.6q-0.4-0.9-0.4-1.9z" />
	<path id="Layer" class="s0" d="m162 390.7v-50h50v50z" />
	<path id="Layer" class="s0" d="m162 333.2v-50h50v50z" />
	<g id="Layer">
		<path id="Layer" class="s1" d="m162.4 338h47.7" />
		<path id="Layer" class="s2" d="m162.4 336h47.7" />
	</g>
	<g id="Layer">
		<path id="Layer" class="s3" d="m171.8 389c-1.3 0-2.5-0.5-3.5-1.5c-0.9-0.9-1.4-2.1-1.4-3.4c0-1.3 0.5-2.5 1.4-3.4c1-0.9 2.2-1.4 3.5-1.4c1.3 0 2.5 0.5 3.4 1.4c0.9 0.9 1.4 2.1 1.4 3.4c0 1.3-0.5 2.5-1.4 3.4c-0.9 1-2.1 1.5-3.4 1.5z" />
		<path id="Layer" class="s4" d="m168.9 381.2c0.7-0.7 1.7-1.1 2.8-1.1c2.1 0 3.9 1.8 3.9 4c0 1.1-0.4 2.1-1.1 2.8" />
	</g>
	<g id="Layer">
		<path id="Layer" class="s3" d="m201.8 358.6c-1.3 0-2.5-0.5-3.5-1.4c-0.9-1-1.4-2.2-1.4-3.5c0-1.3 0.5-2.5 1.4-3.4c1-0.9 2.2-1.4 3.5-1.4c1.3 0 2.5 0.5 3.4 1.4c0.9 0.9 1.4 2.1 1.4 3.4c0 1.3-0.5 2.5-1.4 3.5c-0.9 0.9-2.1 1.4-3.4 1.4z" />
		<path id="Layer" class="s4" d="m198.9 350.8c0.7-0.7 1.7-1.1 2.8-1.1c2.1 0 3.9 1.8 3.9 4c0 1.1-0.4 2.1-1.1 2.8" />
	</g>
	<g id="Layer">
		<path id="Layer" class="s3" d="m171.8 327.4c-1.3 0-2.5-0.5-3.5-1.5c-0.9-0.9-1.4-2.1-1.4-3.4c0-1.3 0.5-2.5 1.4-3.4c1-0.9 2.2-1.4 3.5-1.4c1.3 0 2.5 0.5 3.4 1.4c0.9 0.9 1.4 2.1 1.4 3.4c0 1.3-0.5 2.5-1.4 3.4c-0.9 1-2.1 1.5-3.4 1.5z" />
		<path id="Layer" class="s4" d="m168.9 319.6c0.7-0.7 1.7-1.1 2.8-1.1c2.1 0 3.9 1.8 3.9 4c0 1.1-0.4 2.1-1.1 2.8" />
	</g>
	<g id="Layer">
		<path id="Layer" class="s3" d="m186.8 312.2c-1.3 0-2.5-0.5-3.5-1.4c-0.9-1-1.4-2.2-1.4-3.5c0-1.3 0.5-2.5 1.4-3.4c1-0.9 2.2-1.4 3.5-1.4c1.3 0 2.5 0.5 3.4 1.4c0.9 0.9 1.4 2.1 1.4 3.4c0 1.3-0.5 2.5-1.4 3.5c-0.9 0.9-2.1 1.4-3.4 1.4z" />
		<path id="Layer" class="s4" d="m183.9 304.4c0.7-0.7 1.7-1.1 2.8-1.1c2.1 0 3.9 1.8 3.9 4c0 1.1-0.4 2.1-1.1 2.8" />
	</g>
	<g id="Layer">
		<path id="Layer" class="s3" d="m201.8 297c-1.3 0-2.5-0.5-3.5-1.4c-0.9-0.9-1.4-2.2-1.4-3.5c0-1.3 0.5-2.5 1.4-3.4c1-0.9 2.2-1.4 3.5-1.4c1.3 0 2.5 0.5 3.4 1.4c0.9 0.9 1.4 2.1 1.4 3.4c0 1.3-0.5 2.6-1.4 3.5c-0.9 0.9-2.1 1.4-3.4 1.4z" />
		<path id="Layer" class="s4" d="m198.9 289.2c0.7-0.7 1.7-1.1 2.8-1.1c2.1 0 3.9 1.8 3.9 4c0 1.1-0.4 2.1-1.1 2.9" />
	</g>
	<path id="Layer" class="s0" d="m155.9 254.1v-110.4q0-1 0.4-1.9q0.4-1 1.1-1.7q0.7-0.7 1.6-1q0.9-0.4 1.9-0.4h52.2q1 0 1.9 0.4q0.9 0.3 1.6 1q0.7 0.7 1.1 1.7q0.4 0.9 0.4 1.9v110.4q0 1-0.4 1.9q-0.4 0.9-1.1 1.6q-0.7 0.7-1.6 1.1q-0.9 0.4-1.9 0.4h-52.2q-1 0-1.9-0.4q-0.9-0.4-1.6-1.1q-0.7-0.7-1.1-1.6q-0.4-0.9-0.4-1.9z" />
	<path id="Layer" class="s0" d="m162 252.6v-50h50v50z" />
	<path id="Layer" class="s0" d="m162 195v-50h50v50z" />
	<g id="Layer">
		<path id="Layer" class="s1" d="m162.4 199.9h47.7" />
		<path id="Layer" class="s2" d="m162.4 197.9h47.7" />
	</g>
	<g id="Layer">
		<path id="Layer" class="s3" d="m171.8 250.8c-1.3 0-2.5-0.5-3.5-1.4c-0.9-0.9-1.4-2.1-1.4-3.4c0-1.3 0.5-2.5 1.4-3.4c1-0.9 2.2-1.5 3.5-1.5c1.3 0 2.5 0.6 3.4 1.5c0.9 0.9 1.4 2.1 1.4 3.4c0 1.3-0.5 2.5-1.4 3.4c-0.9 0.9-2.1 1.4-3.4 1.4z" />
		<path id="Layer" class="s4" d="m168.9 243.1c0.7-0.7 1.7-1.1 2.8-1.1c2.1 0 3.9 1.8 3.9 4c0 1.1-0.4 2.1-1.1 2.8" />
	</g>
	<g id="Layer">
		<path id="Layer" class="s3" d="m201.8 220.5c-1.3 0-2.5-0.5-3.5-1.5c-0.9-0.9-1.4-2.1-1.4-3.4c0-1.3 0.5-2.5 1.4-3.4c1-0.9 2.2-1.4 3.5-1.4c1.3 0 2.5 0.5 3.4 1.4c0.9 0.9 1.4 2.1 1.4 3.4c0 1.3-0.5 2.5-1.4 3.4c-0.9 1-2.1 1.5-3.4 1.5z" />
		<path id="Layer" class="s4" d="m198.9 212.7c0.7-0.7 1.7-1.1 2.8-1.1c2.1 0 3.9 1.8 3.9 4c0 1.1-0.4 2.1-1.1 2.8" />
	</g>
	<g id="Layer">
		<path id="Layer" class="s3" d="m171.8 189.3c-1.3 0-2.5-0.6-3.5-1.5c-0.9-0.9-1.4-2.1-1.4-3.4c0-1.3 0.5-2.5 1.4-3.4c1-0.9 2.2-1.4 3.5-1.4c1.3 0 2.5 0.5 3.4 1.4c0.9 0.9 1.4 2.1 1.4 3.4c0 1.3-0.5 2.5-1.4 3.4c-0.9 0.9-2.1 1.5-3.4 1.5z" />
		<path id="Layer" class="s4" d="m168.9 181.5c0.7-0.7 1.7-1.1 2.8-1.1c2.1 0 3.9 1.8 3.9 4c0 1.1-0.4 2.1-1.1 2.8" />
	</g>
	<g id="Layer">
		<path id="Layer" class="s3" d="m171.8 158.9c-1.3 0-2.5-0.5-3.5-1.5c-0.9-0.9-1.4-2.1-1.4-3.4c0-1.3 0.5-2.5 1.4-3.4c1-0.9 2.2-1.4 3.5-1.4c1.3 0 2.5 0.5 3.4 1.4c0.9 0.9 1.4 2.1 1.4 3.4c0 1.3-0.5 2.5-1.4 3.4c-0.9 1-2.1 1.5-3.4 1.5z" />
		<path id="Layer" class="s4" d="m168.9 151.1c0.7-0.7 1.7-1.1 2.8-1.1c2.1 0 3.9 1.8 3.9 4c0 1.1-0.4 2.1-1.1 2.8" />
	</g>
	<g id="Layer">
		<path id="Layer" class="s3" d="m201.8 189.3c-1.3 0-2.5-0.6-3.5-1.5c-0.9-0.9-1.4-2.1-1.4-3.4c0-1.3 0.5-2.5 1.4-3.4c1-0.9 2.2-1.4 3.5-1.4c1.3 0 2.5 0.5 3.4 1.4c0.9 0.9 1.4 2.1 1.4 3.4c0 1.3-0.5 2.5-1.4 3.4c-0.9 0.9-2.1 1.5-3.4 1.5z" />
		<path id="Layer" class="s4" d="m198.9 181.5c0.7-0.7 1.7-1.1 2.8-1.1c2.1 0 3.9 1.8 3.9 4c0 1.1-0.4 2.1-1.1 2.8" />
	</g>
	<g id="Layer">
		<path id="Layer" class="s3" d="m201.8 158.9c-1.3 0-2.5-0.5-3.5-1.5c-0.9-0.9-1.4-2.1-1.4-3.4c0-1.3 0.5-2.5 1.4-3.4c1-0.9 2.2-1.4 3.5-1.4c1.3 0 2.5 0.5 3.4 1.4c0.9 0.9 1.4 2.1 1.4 3.4c0 1.3-0.5 2.5-1.4 3.4c-0.9 1-2.1 1.5-3.4 1.5z" />
		<path id="Layer" class="s4" d="m198.9 151.1c0.7-0.7 1.7-1.1 2.8-1.1c2.1 0 3.9 1.8 3.9 4c0 1.1-0.4 2.1-1.1 2.8" />
	</g>
	<path id="Layer" class="s0" d="m233.3 392.2v-110.4q0-1 0.4-1.9q0.3-0.9 1-1.6q0.7-0.7 1.7-1.1q0.9-0.4 1.9-0.4h52.1q1 0 2 0.4q0.9 0.4 1.6 1.1q0.7 0.7 1.1 1.6q0.3 0.9 0.3 1.9v110.4q0 1-0.3 1.9q-0.4 0.9-1.1 1.6q-0.7 0.7-1.6 1.1q-1 0.4-2 0.4h-52.1q-1 0-1.9-0.4q-1-0.4-1.7-1.1q-0.7-0.7-1-1.6q-0.4-0.9-0.4-1.9z" />
	<path id="Layer" class="s0" d="m239.4 390.7v-50h50v50z" />
	<path id="Layer" class="s0" d="m239.4 333.2v-50h50v50z" />
	<g id="Layer">
		<path id="Layer" class="s1" d="m239.8 338h47.7" />
		<path id="Layer" class="s2" d="m239.8 336h47.7" />
	</g>
	<g id="Layer">
		<path id="Layer" class="s3" d="m249.2 389c-1.3 0-2.5-0.5-3.5-1.5c-0.9-0.9-1.4-2.1-1.4-3.4c0-1.3 0.5-2.5 1.4-3.4c1-0.9 2.2-1.4 3.5-1.4c1.3 0 2.5 0.5 3.4 1.4c0.9 0.9 1.4 2.1 1.4 3.4c0 1.3-0.5 2.5-1.4 3.4c-0.9 1-2.1 1.5-3.4 1.5z" />
		<path id="Layer" class="s4" d="m246.3 381.2c0.7-0.7 1.7-1.1 2.8-1.1c2.1 0 3.9 1.8 3.9 4c0 1.1-0.4 2.1-1.1 2.8" />
	</g>
	<g id="Layer">
		<path id="Layer" class="s3" d="m264.2 373.8c-1.3 0-2.5-0.5-3.5-1.5c-0.9-0.9-1.4-2.1-1.4-3.4c0-1.3 0.5-2.5 1.4-3.4c1-0.9 2.2-1.4 3.5-1.4c1.3 0 2.5 0.5 3.4 1.4c0.9 0.9 1.4 2.1 1.4 3.4c0 1.3-0.5 2.5-1.4 3.4c-0.9 1-2.1 1.5-3.4 1.5z" />
		<path id="Layer" class="s4" d="m261.3 366c0.7-0.7 1.7-1.1 2.8-1.1c2.1 0 3.9 1.8 3.9 4c0 1.1-0.4 2.1-1.1 2.8" />
	</g>
	<g id="Layer">
		<path id="Layer" class="s3" d="m279.2 358.6c-1.3 0-2.5-0.5-3.5-1.4c-0.9-1-1.4-2.2-1.4-3.5c0-1.3 0.5-2.5 1.4-3.4c1-0.9 2.2-1.4 3.5-1.4c1.3 0 2.5 0.5 3.4 1.4c0.9 0.9 1.4 2.1 1.4 3.4c0 1.3-0.5 2.5-1.4 3.5c-0.9 0.9-2.1 1.4-3.4 1.4z" />
		<path id="Layer" class="s4" d="m276.3 350.8c0.7-0.7 1.7-1.1 2.8-1.1c2.1 0 3.9 1.8 3.9 4c0 1.1-0.4 2.1-1.1 2.8" />
	</g>
	<g id="Layer">
		<path id="Layer" class="s3" d="m249.2 327.4c-1.3 0-2.5-0.5-3.5-1.5c-0.9-0.9-1.4-2.1-1.4-3.4c0-1.3 0.5-2.5 1.4-3.4c1-0.9 2.2-1.4 3.5-1.4c1.3 0 2.5 0.5 3.4 1.4c0.9 0.9 1.4 2.1 1.4 3.4c0 1.3-0.5 2.5-1.4 3.4c-0.9 1-2.1 1.5-3.4 1.5z" />
		<path id="Layer" class="s4" d="m246.3 319.6c0.7-0.7 1.7-1.1 2.8-1.1c2.1 0 3.9 1.8 3.9 4c0 1.1-0.4 2.1-1.1 2.8" />
	</g>
	<g id="Layer">
		<path id="Layer" class="s3" d="m249.2 297c-1.3 0-2.5-0.5-3.5-1.4c-0.9-0.9-1.4-2.2-1.4-3.5c0-1.3 0.5-2.5 1.4-3.4c1-0.9 2.2-1.4 3.5-1.4c1.3 0 2.5 0.5 3.4 1.4c0.9 0.9 1.4 2.1 1.4 3.4c0 1.3-0.5 2.6-1.4 3.5c-0.9 0.9-2.1 1.4-3.4 1.4z" />
		<path id="Layer" class="s4" d="m246.3 289.2c0.7-0.7 1.7-1.1 2.8-1.1c2.1 0 3.9 1.8 3.9 4c0 1.1-0.4 2.1-1.1 2.9" />
	</g>
	<g id="Layer">
		<path id="Layer" class="s3" d="m279.2 327.4c-1.3 0-2.5-0.5-3.5-1.5c-0.9-0.9-1.4-2.1-1.4-3.4c0-1.3 0.5-2.5 1.4-3.4c1-0.9 2.2-1.4 3.5-1.4c1.3 0 2.5 0.5 3.4 1.4c0.9 0.9 1.4 2.1 1.4 3.4c0 1.3-0.5 2.5-1.4 3.4c-0.9 1-2.1 1.5-3.4 1.5z" />
		<path id="Layer" class="s4" d="m276.3 319.6c0.7-0.7 1.7-1.1 2.8-1.1c2.1 0 3.9 1.8 3.9 4c0 1.1-0.4 2.1-1.1 2.8" />
	</g>
	<g id="Layer">
		<path id="Layer" class="s3" d="m279.2 297c-1.3 0-2.5-0.5-3.5-1.4c-0.9-0.9-1.4-2.2-1.4-3.5c0-1.3 0.5-2.5 1.4-3.4c1-0.9 2.2-1.4 3.5-1.4c1.3 0 2.5 0.5 3.4 1.4c0.9 0.9 1.4 2.1 1.4 3.4c0 1.3-0.5 2.6-1.4 3.5c-0.9 0.9-2.1 1.4-3.4 1.4z" />
		<path id="Layer" class="s4" d="m276.3 289.2c0.7-0.7 1.7-1.1 2.8-1.1c2.1 0 3.9 1.8 3.9 4c0 1.1-0.4 2.1-1.1 2.9" />
	</g>
	<path id="Layer" class="s0" d="m233.3 254.1v-110.4q0-1 0.4-1.9q0.3-1 1-1.7q0.7-0.7 1.7-1q0.9-0.4 1.9-0.4h52.1q1 0 2 0.4q0.9 0.3 1.6 1q0.7 0.7 1.1 1.7q0.3 0.9 0.3 1.9v110.4q0 1-0.3 1.9q-0.4 0.9-1.1 1.6q-0.7 0.7-1.6 1.1q-1 0.4-2 0.4h-52.1q-1 0-1.9-0.4q-1-0.4-1.7-1.1q-0.7-0.7-1-1.6q-0.4-0.9-0.4-1.9z" />
	<path id="Layer" class="s0" d="m239.4 252.6v-50h50v50z" />
	<path id="Layer" class="s0" d="m239.4 195v-50h50v50z" />
	<g id="Layer">
		<path id="Layer" class="s1" d="m239.8 199.9h47.7" />
		<path id="Layer" class="s2" d="m239.8 197.9h47.7" />
	</g>
	<g id="Layer">
		<path id="Layer" class="s3" d="m249.2 250.8c-1.3 0-2.5-0.5-3.5-1.4c-0.9-0.9-1.4-2.1-1.4-3.4c0-1.3 0.5-2.5 1.4-3.4c1-0.9 2.2-1.5 3.5-1.5c1.3 0 2.5 0.6 3.4 1.5c0.9 0.9 1.4 2.1 1.4 3.4c0 1.3-0.5 2.5-1.4 3.4c-0.9 0.9-2.1 1.4-3.4 1.4z" />
		<path id="Layer" class="s4" d="m246.3 243.1c0.7-0.7 1.7-1.1 2.8-1.1c2.1 0 3.9 1.8 3.9 4c0 1.1-0.4 2.1-1.1 2.8" />
	</g>
	<g id="Layer">
		<path id="Layer" class="s3" d="m264.2 235.7c-1.3 0-2.5-0.6-3.5-1.5c-0.9-0.9-1.4-2.1-1.4-3.4c0-1.3 0.5-2.5 1.4-3.4c1-0.9 2.2-1.4 3.5-1.4c1.3 0 2.5 0.5 3.4 1.4c0.9 0.9 1.4 2.1 1.4 3.4c0 1.3-0.5 2.5-1.4 3.4c-0.9 0.9-2.1 1.5-3.4 1.5z" />
		<path id="Layer" class="s4" d="m261.3 227.9c0.7-0.7 1.7-1.1 2.8-1.1c2.1 0 3.9 1.8 3.9 4c0 1.1-0.4 2.1-1.1 2.8" />
	</g>
	<g id="Layer">
		<path id="Layer" class="s3" d="m279.2 220.5c-1.3 0-2.5-0.5-3.5-1.5c-0.9-0.9-1.4-2.1-1.4-3.4c0-1.3 0.5-2.5 1.4-3.4c1-0.9 2.2-1.4 3.5-1.4c1.3 0 2.5 0.5 3.4 1.4c0.9 0.9 1.4 2.1 1.4 3.4c0 1.3-0.5 2.5-1.4 3.4c-0.9 1-2.1 1.5-3.4 1.5z" />
		<path id="Layer" class="s4" d="m276.3 212.7c0.7-0.7 1.7-1.1 2.8-1.1c2.1 0 3.9 1.8 3.9 4c0 1.1-0.4 2.1-1.1 2.8" />
	</g>
	<g id="Layer">
		<path id="Layer" class="s3" d="m249.2 189.3c-1.3 0-2.5-0.6-3.5-1.5c-0.9-0.9-1.4-2.1-1.4-3.4c0-1.3 0.5-2.5 1.4-3.4c1-0.9 2.2-1.4 3.5-1.4c1.3 0 2.5 0.5 3.4 1.4c0.9 0.9 1.4 2.1 1.4 3.4c0 1.3-0.5 2.5-1.4 3.4c-0.9 0.9-2.1 1.5-3.4 1.5z" />
		<path id="Layer" class="s4" d="m246.3 181.5c0.7-0.7 1.7-1.1 2.8-1.1c2.1 0 3.9 1.8 3.9 4c0 1.1-0.4 2.1-1.1 2.8" />
	</g>
	<g id="Layer">
		<path id="Layer" class="s3" d="m264.2 174.1c-1.3 0-2.5-0.6-3.5-1.5c-0.9-0.9-1.4-2.1-1.4-3.4c0-1.3 0.5-2.5 1.4-3.4c1-0.9 2.2-1.4 3.5-1.4c1.3 0 2.5 0.5 3.4 1.4c0.9 0.9 1.4 2.1 1.4 3.4c0 1.3-0.5 2.5-1.4 3.4c-0.9 0.9-2.1 1.5-3.4 1.5z" />
		<path id="Layer" class="s4" d="m261.3 166.3c0.7-0.7 1.7-1.1 2.8-1.1c2.1 0 3.9 1.8 3.9 4c0 1.1-0.4 2.1-1.1 2.8" />
	</g>
	<g id="Layer">
		<path id="Layer" class="s3" d="m249.2 158.9c-1.3 0-2.5-0.5-3.5-1.5c-0.9-0.9-1.4-2.1-1.4-3.4c0-1.3 0.5-2.5 1.4-3.4c1-0.9 2.2-1.4 3.5-1.4c1.3 0 2.5 0.5 3.4 1.4c0.9 0.9 1.4 2.1 1.4 3.4c0 1.3-0.5 2.5-1.4 3.4c-0.9 1-2.1 1.5-3.4 1.5z" />
		<path id="Layer" class="s4" d="m246.3 151.1c0.7-0.7 1.7-1.1 2.8-1.1c2.1 0 3.9 1.8 3.9 4c0 1.1-0.4 2.1-1.1 2.8" />
	</g>
	<g id="Layer">
		<path id="Layer" class="s3" d="m279.2 189.3c-1.3 0-2.5-0.6-3.5-1.5c-0.9-0.9-1.4-2.1-1.4-3.4c0-1.3 0.5-2.5 1.4-3.4c1-0.9 2.2-1.4 3.5-1.4c1.3 0 2.5 0.5 3.4 1.4c0.9 0.9 1.4 2.1 1.4 3.4c0 1.3-0.5 2.5-1.4 3.4c-0.9 0.9-2.1 1.5-3.4 1.5z" />
		<path id="Layer" class="s4" d="m276.3 181.5c0.7-0.7 1.7-1.1 2.8-1.1c2.1 0 3.9 1.8 3.9 4c0 1.1-0.4 2.1-1.1 2.8" />
	</g>
	<g id="Layer">
		<path id="Layer" class="s3" d="m279.2 158.9c-1.3 0-2.5-0.5-3.5-1.5c-0.9-0.9-1.4-2.1-1.4-3.4c0-1.3 0.5-2.5 1.4-3.4c1-0.9 2.2-1.4 3.5-1.4c1.3 0 2.5 0.5 3.4 1.4c0.9 0.9 1.4 2.1 1.4 3.4c0 1.3-0.5 2.5-1.4 3.4c-0.9 1-2.1 1.5-3.4 1.5z" />
		<path id="Layer" class="s4" d="m276.3 151.1c0.7-0.7 1.7-1.1 2.8-1.1c2.1 0 3.9 1.8 3.9 4c0 1.1-0.4 2.1-1.1 2.8" />
	</g>
	<path id="Layer" class="s0" d="m155.9 116v-110.4q0-1 0.4-2q0.4-0.9 1.1-1.6q0.7-0.7 1.6-1.1q0.9-0.3 1.9-0.3h52.2q1 0 1.9 0.3q0.9 0.4 1.6 1.1q0.7 0.7 1.1 1.6q0.4 1 0.4 2v110.4q0 1-0.4 1.9q-0.4 0.9-1.1 1.6q-0.7 0.7-1.6 1.1q-0.9 0.4-1.9 0.4h-52.2q-1 0-1.9-0.4q-0.9-0.4-1.6-1.1q-0.7-0.7-1.1-1.6q-0.4-0.9-0.4-1.9z" />
	<path id="Layer" class="s0" d="m162 114.5v-50h50v50z" />
	<path id="Layer" class="s0" d="m162 56.9v-50h50v50z" />
	<g id="Layer">
		<path id="Layer" class="s1" d="m162.4 61.8h47.7" />
		<path id="Layer" class="s2" d="m162.4 59.8h47.7" />
	</g>
	<g id="Layer">
		<path id="Layer" class="s3" d="m171.8 112.7c-1.3 0-2.5-0.5-3.5-1.4c-0.9-0.9-1.4-2.1-1.4-3.4c0-1.3 0.5-2.5 1.4-3.4c1-1 2.2-1.5 3.5-1.5c1.3 0 2.5 0.5 3.4 1.5c0.9 0.9 1.4 2.1 1.4 3.4c0 1.3-0.5 2.5-1.4 3.4c-0.9 0.9-2.1 1.4-3.4 1.4z" />
		<path id="Layer" class="s4" d="m168.9 105c0.7-0.7 1.7-1.1 2.8-1.1c2.1 0 3.9 1.8 3.9 4c0 1.1-0.4 2.1-1.1 2.8" />
	</g>
	<g id="Layer">
		<path id="Layer" class="s3" d="m201.8 82.4c-1.3 0-2.5-0.6-3.5-1.5c-0.9-0.9-1.4-2.1-1.4-3.4c0-1.3 0.5-2.5 1.4-3.4c1-0.9 2.2-1.4 3.5-1.4c1.3 0 2.5 0.5 3.4 1.4c0.9 0.9 1.4 2.1 1.4 3.4c0 1.3-0.5 2.5-1.4 3.4c-0.9 0.9-2.1 1.5-3.4 1.5z" />
		<path id="Layer" class="s4" d="m198.9 74.6c0.7-0.7 1.7-1.1 2.8-1.1c2.1 0 3.9 1.8 3.9 4c0 1.1-0.4 2.1-1.1 2.8" />
	</g>
	<g id="Layer">
		<path id="Layer" class="s3" d="m171.8 51.1c-1.3 0-2.5-0.5-3.5-1.4c-0.9-0.9-1.4-2.1-1.4-3.4c0-1.3 0.5-2.5 1.4-3.4c1-1 2.2-1.5 3.5-1.5c1.3 0 2.5 0.5 3.4 1.5c0.9 0.9 1.4 2.1 1.4 3.4c0 1.3-0.5 2.5-1.4 3.4c-0.9 0.9-2.1 1.4-3.4 1.4z" />
		<path id="Layer" class="s4" d="m168.9 43.4c0.7-0.7 1.7-1.1 2.8-1.1c2.1 0 3.9 1.8 3.9 4c0 1.1-0.4 2.1-1.1 2.8" />
	</g>
	<g id="Layer">
		<path id="Layer" class="s3" d="m186.8 35.9c-1.3 0-2.5-0.5-3.5-1.4c-0.9-0.9-1.4-2.1-1.4-3.4c0-1.3 0.5-2.5 1.4-3.4c1-0.9 2.2-1.5 3.5-1.5c1.3 0 2.5 0.6 3.4 1.5c0.9 0.9 1.4 2.1 1.4 3.4c0 1.3-0.5 2.5-1.4 3.4c-0.9 0.9-2.1 1.4-3.4 1.4z" />
		<path id="Layer" class="s4" d="m183.9 28.2c0.7-0.7 1.7-1.1 2.8-1.1c2.1 0 3.9 1.8 3.9 4c0 1.1-0.4 2.1-1.1 2.8" />
	</g>
	<g id="Layer">
		<path id="Layer" class="s3" d="m171.8 20.8c-1.3 0-2.5-0.6-3.5-1.5c-0.9-0.9-1.4-2.1-1.4-3.4c0-1.3 0.5-2.5 1.4-3.4c1-0.9 2.2-1.4 3.5-1.4c1.3 0 2.5 0.5 3.4 1.4c0.9 0.9 1.4 2.1 1.4 3.4c0 1.3-0.5 2.5-1.4 3.4c-0.9 0.9-2.1 1.5-3.4 1.5z" />
		<path id="Layer" class="s4" d="m168.9 13c0.7-0.7 1.7-1.1 2.8-1.1c2.1 0 3.9 1.8 3.9 4c0 1.1-0.4 2.1-1.1 2.8" />
	</g>
	<g id="Layer">
		<path id="Layer" class="s3" d="m201.8 51.1c-1.3 0-2.5-0.5-3.5-1.4c-0.9-0.9-1.4-2.1-1.4-3.4c0-1.3 0.5-2.5 1.4-3.4c1-1 2.2-1.5 3.5-1.5c1.3 0 2.5 0.5 3.4 1.5c0.9 0.9 1.4 2.1 1.4 3.4c0 1.3-0.5 2.5-1.4 3.4c-0.9 0.9-2.1 1.4-3.4 1.4z" />
		<path id="Layer" class="s4" d="m198.9 43.4c0.7-0.7 1.7-1.1 2.8-1.1c2.1 0 3.9 1.8 3.9 4c0 1.1-0.4 2.1-1.1 2.8" />
	</g>
	<g id="Layer">
		<path id="Layer" class="s3" d="m201.8 20.8c-1.3 0-2.5-0.6-3.5-1.5c-0.9-0.9-1.4-2.1-1.4-3.4c0-1.3 0.5-2.5 1.4-3.4c1-0.9 2.2-1.4 3.5-1.4c1.3 0 2.5 0.5 3.4 1.4c0.9 0.9 1.4 2.1 1.4 3.4c0 1.3-0.5 2.5-1.4 3.4c-0.9 0.9-2.1 1.5-3.4 1.5z" />
		<path id="Layer" class="s4" d="m198.9 13c0.7-0.7 1.7-1.1 2.8-1.1c2.1 0 3.9 1.8 3.9 4c0 1.1-0.4 2.1-1.1 2.8" />
	</g>
	<path id="Layer" class="s0" d="m155.9-22.1v-110.4q0-1 0.4-2q0.4-0.9 1.1-1.6q0.7-0.7 1.6-1.1q0.9-0.3 1.9-0.3h52.2q1 0 1.9 0.3q0.9 0.4 1.6 1.1q0.7 0.7 1.1 1.6q0.4 1 0.4 2v110.4q0 1-0.4 1.9q-0.4 0.9-1.1 1.6q-0.7 0.7-1.6 1.1q-0.9 0.4-1.9 0.4h-52.2q-1 0-1.9-0.4q-0.9-0.4-1.6-1.1q-0.7-0.7-1.1-1.6q-0.4-0.9-0.4-1.9z" />
	<path id="Layer" class="s0" d="m162-23.6v-50h50v50z" />
	<path id="Layer" class="s0" d="m162-81.2v-50h50v50z" />
	<g id="Layer">
		<path id="Layer" class="s1" d="m162.4-76.4h47.7" />
		<path id="Layer" class="s2" d="m162.4-78.4h47.7" />
	</g>
	<g id="Layer">
		<path id="Layer" class="s3" d="m171.8-25.4c-1.3 0-2.5-0.5-3.5-1.4c-0.9-0.9-1.4-2.1-1.4-3.4c0-1.3 0.5-2.5 1.4-3.5c1-0.9 2.2-1.4 3.5-1.4c1.3 0 2.5 0.5 3.4 1.4c0.9 1 1.4 2.2 1.4 3.5c0 1.3-0.5 2.5-1.4 3.4c-0.9 0.9-2.1 1.4-3.4 1.4z" />
		<path id="Layer" class="s4" d="m168.9-33.1c0.7-0.7 1.7-1.1 2.8-1.1c2.1 0 3.9 1.7 3.9 4c0 1.1-0.4 2.1-1.1 2.8" />
	</g>
	<g id="Layer">
		<path id="Layer" class="s3" d="m201.8-55.8c-1.3 0-2.5-0.5-3.5-1.4c-0.9-0.9-1.4-2.1-1.4-3.4c0-1.3 0.5-2.5 1.4-3.4c1-1 2.2-1.5 3.5-1.5c1.3 0 2.5 0.5 3.4 1.5c0.9 0.9 1.4 2.1 1.4 3.4c0 1.3-0.5 2.5-1.4 3.4c-0.9 0.9-2.1 1.4-3.4 1.4z" />
		<path id="Layer" class="s4" d="m198.9-63.5c0.7-0.7 1.7-1.1 2.8-1.1c2.1 0 3.9 1.8 3.9 4c0 1.1-0.4 2.1-1.1 2.8" />
	</g>
	<g id="Layer">
		<path id="Layer" class="s3" d="m171.8-87c-1.3 0-2.5-0.5-3.5-1.4c-0.9-0.9-1.4-2.1-1.4-3.4c0-1.3 0.5-2.5 1.4-3.4c1-1 2.2-1.5 3.5-1.5c1.3 0 2.5 0.5 3.4 1.5c0.9 0.9 1.4 2.1 1.4 3.4c0 1.3-0.5 2.5-1.4 3.4c-0.9 0.9-2.1 1.4-3.4 1.4z" />
		<path id="Layer" class="s4" d="m168.9-94.7c0.7-0.7 1.7-1.1 2.8-1.1c2.1 0 3.9 1.8 3.9 4c0 1.1-0.4 2.1-1.1 2.8" />
	</g>
	<g id="Layer">
		<path id="Layer" class="s3" d="m171.8-117.4c-1.3 0-2.5-0.5-3.5-1.4c-0.9-0.9-1.4-2.1-1.4-3.4c0-1.3 0.5-2.5 1.4-3.4c1-1 2.2-1.5 3.5-1.5c1.3 0 2.5 0.5 3.4 1.5c0.9 0.9 1.4 2.1 1.4 3.4c0 1.3-0.5 2.5-1.4 3.4c-0.9 0.9-2.1 1.4-3.4 1.4z" />
		<path id="Layer" class="s4" d="m168.9-125.1c0.7-0.7 1.7-1.1 2.8-1.1c2.1 0 3.9 1.8 3.9 4c0 1.1-0.4 2.1-1.1 2.8" />
	</g>
	<g id="Layer">
		<path id="Layer" class="s3" d="m171.8-102.2c-1.3 0-2.5-0.5-3.5-1.4c-0.9-0.9-1.4-2.1-1.4-3.4c0-1.3 0.5-2.5 1.4-3.4c1-1 2.2-1.5 3.5-1.5c1.3 0 2.5 0.5 3.4 1.5c0.9 0.9 1.4 2.1 1.4 3.4c0 1.3-0.5 2.5-1.4 3.4c-0.9 0.9-2.1 1.4-3.4 1.4z" />
		<path id="Layer" class="s4" d="m168.9-109.9c0.7-0.7 1.7-1.1 2.8-1.1c2.1 0 3.9 1.8 3.9 4c0 1.1-0.4 2.1-1.1 2.8" />
	</g>
	<g id="Layer">
		<path id="Layer" class="s3" d="m201.8-87c-1.3 0-2.5-0.5-3.5-1.4c-0.9-0.9-1.4-2.1-1.4-3.4c0-1.3 0.5-2.5 1.4-3.4c1-1 2.2-1.5 3.5-1.5c1.3 0 2.5 0.5 3.4 1.5c0.9 0.9 1.4 2.1 1.4 3.4c0 1.3-0.5 2.5-1.4 3.4c-0.9 0.9-2.1 1.4-3.4 1.4z" />
		<path id="Layer" class="s4" d="m198.9-94.7c0.7-0.7 1.7-1.1 2.8-1.1c2.1 0 3.9 1.8 3.9 4c0 1.1-0.4 2.1-1.1 2.8" />
	</g>
	<g id="Layer">
		<path id="Layer" class="s3" d="m201.8-117.4c-1.3 0-2.5-0.5-3.5-1.4c-0.9-0.9-1.4-2.1-1.4-3.4c0-1.3 0.5-2.5 1.4-3.4c1-1 2.2-1.5 3.5-1.5c1.3 0 2.5 0.5 3.4 1.5c0.9 0.9 1.4 2.1 1.4 3.4c0 1.3-0.5 2.5-1.4 3.4c-0.9 0.9-2.1 1.4-3.4 1.4z" />
		<path id="Layer" class="s4" d="m198.9-125.1c0.7-0.7 1.7-1.1 2.8-1.1c2.1 0 3.9 1.8 3.9 4c0 1.1-0.4 2.1-1.1 2.8" />
	</g>
	<g id="Layer">
		<path id="Layer" class="s3" d="m201.8-102.2c-1.3 0-2.5-0.5-3.5-1.4c-0.9-0.9-1.4-2.1-1.4-3.4c0-1.3 0.5-2.5 1.4-3.4c1-1 2.2-1.5 3.5-1.5c1.3 0 2.5 0.5 3.4 1.5c0.9 0.9 1.4 2.1 1.4 3.4c0 1.3-0.5 2.5-1.4 3.4c-0.9 0.9-2.1 1.4-3.4 1.4z" />
		<path id="Layer" class="s4" d="m198.9-109.9c0.7-0.7 1.7-1.1 2.8-1.1c2.1 0 3.9 1.8 3.9 4c0 1.1-0.4 2.1-1.1 2.8" />
	</g>
	<path id="Layer" class="s0" d="m233.3 116v-110.4q0-1 0.4-2q0.3-0.9 1-1.6q0.7-0.7 1.7-1.1q0.9-0.3 1.9-0.3h52.1q1 0 2 0.3q0.9 0.4 1.6 1.1q0.7 0.7 1.1 1.6q0.3 1 0.3 2v110.4q0 1-0.3 1.9q-0.4 0.9-1.1 1.6q-0.7 0.7-1.6 1.1q-1 0.4-2 0.4h-52.1q-1 0-1.9-0.4q-1-0.4-1.7-1.1q-0.7-0.7-1-1.6q-0.4-0.9-0.4-1.9z" />
	<path id="Layer" class="s0" d="m239.4 114.5v-50h50v50z" />
	<path id="Layer" class="s0" d="m239.4 56.9v-50h50v50z" />
	<g id="Layer">
		<path id="Layer" class="s1" d="m239.8 61.8h47.7" />
		<path id="Layer" class="s2" d="m239.8 59.8h47.7" />
	</g>
	<g id="Layer">
		<path id="Layer" class="s3" d="m249.2 112.7c-1.3 0-2.5-0.5-3.5-1.4c-0.9-0.9-1.4-2.1-1.4-3.4c0-1.3 0.5-2.5 1.4-3.4c1-1 2.2-1.5 3.5-1.5c1.3 0 2.5 0.5 3.4 1.5c0.9 0.9 1.4 2.1 1.4 3.4c0 1.3-0.5 2.5-1.4 3.4c-0.9 0.9-2.1 1.4-3.4 1.4z" />
		<path id="Layer" class="s4" d="m246.3 105c0.7-0.7 1.7-1.1 2.8-1.1c2.1 0 3.9 1.8 3.9 4c0 1.1-0.4 2.1-1.1 2.8" />
	</g>
	<g id="Layer">
		<path id="Layer" class="s3" d="m264.2 97.5c-1.3 0-2.5-0.5-3.5-1.4c-0.9-0.9-1.4-2.1-1.4-3.4c0-1.3 0.5-2.5 1.4-3.4c1-0.9 2.2-1.5 3.5-1.5c1.3 0 2.5 0.6 3.4 1.5c0.9 0.9 1.4 2.1 1.4 3.4c0 1.3-0.5 2.5-1.4 3.4c-0.9 0.9-2.1 1.4-3.4 1.4z" />
		<path id="Layer" class="s4" d="m261.3 89.8c0.7-0.7 1.7-1.1 2.8-1.1c2.1 0 3.9 1.8 3.9 4c0 1.1-0.4 2.1-1.1 2.8" />
	</g>
	<g id="Layer">
		<path id="Layer" class="s3" d="m279.2 82.4c-1.3 0-2.5-0.6-3.5-1.5c-0.9-0.9-1.4-2.1-1.4-3.4c0-1.3 0.5-2.5 1.4-3.4c1-0.9 2.2-1.4 3.5-1.4c1.3 0 2.5 0.5 3.4 1.4c0.9 0.9 1.4 2.1 1.4 3.4c0 1.3-0.5 2.5-1.4 3.4c-0.9 0.9-2.1 1.5-3.4 1.5z" />
		<path id="Layer" class="s4" d="m276.3 74.6c0.7-0.7 1.7-1.1 2.8-1.1c2.1 0 3.9 1.8 3.9 4c0 1.1-0.4 2.1-1.1 2.8" />
	</g>
	<g id="Layer">
		<path id="Layer" class="s3" d="m249.2 51.1c-1.3 0-2.5-0.5-3.5-1.4c-0.9-0.9-1.4-2.1-1.4-3.4c0-1.3 0.5-2.5 1.4-3.4c1-1 2.2-1.5 3.5-1.5c1.3 0 2.5 0.5 3.4 1.5c0.9 0.9 1.4 2.1 1.4 3.4c0 1.3-0.5 2.5-1.4 3.4c-0.9 0.9-2.1 1.4-3.4 1.4z" />
		<path id="Layer" class="s4" d="m246.3 43.4c0.7-0.7 1.7-1.1 2.8-1.1c2.1 0 3.9 1.8 3.9 4c0 1.1-0.4 2.1-1.1 2.8" />
	</g>
	<g id="Layer">
		<path id="Layer" class="s3" d="m249.2 20.8c-1.3 0-2.5-0.6-3.5-1.5c-0.9-0.9-1.4-2.1-1.4-3.4c0-1.3 0.5-2.5 1.4-3.4c1-0.9 2.2-1.4 3.5-1.4c1.3 0 2.5 0.5 3.4 1.4c0.9 0.9 1.4 2.1 1.4 3.4c0 1.3-0.5 2.5-1.4 3.4c-0.9 0.9-2.1 1.5-3.4 1.5z" />
		<path id="Layer" class="s4" d="m246.3 13c0.7-0.7 1.7-1.1 2.8-1.1c2.1 0 3.9 1.8 3.9 4c0 1.1-0.4 2.1-1.1 2.8" />
	</g>
	<g id="Layer">
		<path id="Layer" class="s3" d="m249.2 35.9c-1.3 0-2.5-0.5-3.5-1.4c-0.9-0.9-1.4-2.1-1.4-3.4c0-1.3 0.5-2.5 1.4-3.4c1-0.9 2.2-1.5 3.5-1.5c1.3 0 2.5 0.6 3.4 1.5c0.9 0.9 1.4 2.1 1.4 3.4c0 1.3-0.5 2.5-1.4 3.4c-0.9 0.9-2.1 1.4-3.4 1.4z" />
		<path id="Layer" class="s4" d="m246.3 28.2c0.7-0.7 1.7-1.1 2.8-1.1c2.1 0 3.9 1.8 3.9 4c0 1.1-0.4 2.1-1.1 2.8" />
	</g>
	<g id="Layer">
		<path id="Layer" class="s3" d="m279.2 51.1c-1.3 0-2.5-0.5-3.5-1.4c-0.9-0.9-1.4-2.1-1.4-3.4c0-1.3 0.5-2.5 1.4-3.4c1-1 2.2-1.5 3.5-1.5c1.3 0 2.5 0.5 3.4 1.5c0.9 0.9 1.4 2.1 1.4 3.4c0 1.3-0.5 2.5-1.4 3.4c-0.9 0.9-2.1 1.4-3.4 1.4z" />
		<path id="Layer" class="s4" d="m276.3 43.4c0.7-0.7 1.7-1.1 2.8-1.1c2.1 0 3.9 1.8 3.9 4c0 1.1-0.4 2.1-1.1 2.8" />
	</g>
	<g id="Layer">
		<path id="Layer" class="s3" d="m279.2 20.8c-1.3 0-2.5-0.6-3.5-1.5c-0.9-0.9-1.4-2.1-1.4-3.4c0-1.3 0.5-2.5 1.4-3.4c1-0.9 2.2-1.4 3.5-1.4c1.3 0 2.5 0.5 3.4 1.4c0.9 0.9 1.4 2.1 1.4 3.4c0 1.3-0.5 2.5-1.4 3.4c-0.9 0.9-2.1 1.5-3.4 1.5z" />
		<path id="Layer" class="s4" d="m276.3 13c0.7-0.7 1.7-1.1 2.8-1.1c2.1 0 3.9 1.8 3.9 4c0 1.1-0.4 2.1-1.1 2.8" />
	</g>
	<g id="Layer">
		<path id="Layer" class="s3" d="m279.2 35.9c-1.3 0-2.5-0.5-3.5-1.4c-0.9-0.9-1.4-2.1-1.4-3.4c0-1.3 0.5-2.5 1.4-3.4c1-0.9 2.2-1.5 3.5-1.5c1.3 0 2.5 0.6 3.4 1.5c0.9 0.9 1.4 2.1 1.4 3.4c0 1.3-0.5 2.5-1.4 3.4c-0.9 0.9-2.1 1.4-3.4 1.4z" />
		<path id="Layer" class="s4" d="m276.3 28.2c0.7-0.7 1.7-1.1 2.8-1.1c2.1 0 3.9 1.8 3.9 4c0 1.1-0.4 2.1-1.1 2.8" />
	</g>
	<path id="Layer" class="s0" d="m233.3-22.1v-110.4q0-1 0.4-2q0.3-0.9 1-1.6q0.7-0.7 1.7-1.1q0.9-0.3 1.9-0.3h52.1q1 0 2 0.3q0.9 0.4 1.6 1.1q0.7 0.7 1.1 1.6q0.3 1 0.3 2v110.4q0 1-0.3 1.9q-0.4 0.9-1.1 1.6q-0.7 0.7-1.6 1.1q-1 0.4-2 0.4h-52.1q-1 0-1.9-0.4q-1-0.4-1.7-1.1q-0.7-0.7-1-1.6q-0.4-0.9-0.4-1.9z" />
	<path id="Layer" class="s0" d="m239.4-23.6v-50h50v50z" />
	<path id="Layer" class="s0" d="m239.4-81.2v-50h50v50z" />
	<g id="Layer">
		<path id="Layer" class="s1" d="m239.8-76.4h47.7" />
		<path id="Layer" class="s2" d="m239.8-78.4h47.7" />
	</g>
	<g id="Layer">
		<path id="Layer" class="s3" d="m249.2-25.4c-1.3 0-2.5-0.5-3.5-1.4c-0.9-0.9-1.4-2.1-1.4-3.4c0-1.3 0.5-2.5 1.4-3.5c1-0.9 2.2-1.4 3.5-1.4c1.3 0 2.5 0.5 3.4 1.4c0.9 1 1.4 2.2 1.4 3.5c0 1.3-0.5 2.5-1.4 3.4c-0.9 0.9-2.1 1.4-3.4 1.4z" />
		<path id="Layer" class="s4" d="m246.3-33.1c0.7-0.7 1.7-1.1 2.8-1.1c2.1 0 3.9 1.7 3.9 4c0 1.1-0.4 2.1-1.1 2.8" />
	</g>
	<g id="Layer">
		<path id="Layer" class="s3" d="m249.2-55.8c-1.3 0-2.5-0.5-3.5-1.4c-0.9-0.9-1.4-2.1-1.4-3.4c0-1.3 0.5-2.5 1.4-3.4c1-1 2.2-1.5 3.5-1.5c1.3 0 2.5 0.5 3.4 1.5c0.9 0.9 1.4 2.1 1.4 3.4c0 1.3-0.5 2.5-1.4 3.4c-0.9 0.9-2.1 1.4-3.4 1.4z" />
		<path id="Layer" class="s4" d="m246.3-63.5c0.7-0.7 1.7-1.1 2.8-1.1c2.1 0 3.9 1.8 3.9 4c0 1.1-0.4 2.1-1.1 2.8" />
	</g>
	<g id="Layer">
		<path id="Layer" class="s3" d="m279.2-25.4c-1.3 0-2.5-0.5-3.5-1.4c-0.9-0.9-1.4-2.1-1.4-3.4c0-1.3 0.5-2.5 1.4-3.5c1-0.9 2.2-1.4 3.5-1.4c1.3 0 2.5 0.5 3.4 1.4c0.9 1 1.4 2.2 1.4 3.5c0 1.3-0.5 2.5-1.4 3.4c-0.9 0.9-2.1 1.4-3.4 1.4z" />
		<path id="Layer" class="s4" d="m276.3-33.1c0.7-0.7 1.7-1.1 2.8-1.1c2.1 0 3.9 1.7 3.9 4c0 1.1-0.4 2.1-1.1 2.8" />
	</g>
	<g id="Layer">
		<path id="Layer" class="s3" d="m279.2-55.8c-1.3 0-2.5-0.5-3.5-1.4c-0.9-0.9-1.4-2.1-1.4-3.4c0-1.3 0.5-2.5 1.4-3.4c1-1 2.2-1.5 3.5-1.5c1.3 0 2.5 0.5 3.4 1.5c0.9 0.9 1.4 2.1 1.4 3.4c0 1.3-0.5 2.5-1.4 3.4c-0.9 0.9-2.1 1.4-3.4 1.4z" />
		<path id="Layer" class="s4" d="m276.3-63.5c0.7-0.7 1.7-1.1 2.8-1.1c2.1 0 3.9 1.8 3.9 4c0 1.1-0.4 2.1-1.1 2.8" />
	</g>
	<g id="Layer">
		<path id="Layer" class="s3" d="m249.2-87c-1.3 0-2.5-0.5-3.5-1.4c-0.9-0.9-1.4-2.1-1.4-3.4c0-1.3 0.5-2.5 1.4-3.4c1-1 2.2-1.5 3.5-1.5c1.3 0 2.5 0.5 3.4 1.5c0.9 0.9 1.4 2.1 1.4 3.4c0 1.3-0.5 2.5-1.4 3.4c-0.9 0.9-2.1 1.4-3.4 1.4z" />
		<path id="Layer" class="s4" d="m246.3-94.7c0.7-0.7 1.7-1.1 2.8-1.1c2.1 0 3.9 1.8 3.9 4c0 1.1-0.4 2.1-1.1 2.8" />
	</g>
	<g id="Layer">
		<path id="Layer" class="s3" d="m264.2-102.2c-1.3 0-2.5-0.5-3.5-1.4c-0.9-0.9-1.4-2.1-1.4-3.4c0-1.3 0.5-2.5 1.4-3.4c1-1 2.2-1.5 3.5-1.5c1.3 0 2.5 0.5 3.4 1.5c0.9 0.9 1.4 2.1 1.4 3.4c0 1.3-0.5 2.5-1.4 3.4c-0.9 0.9-2.1 1.4-3.4 1.4z" />
		<path id="Layer" class="s4" d="m261.3-109.9c0.7-0.7 1.7-1.1 2.8-1.1c2.1 0 3.9 1.8 3.9 4c0 1.1-0.4 2.1-1.1 2.8" />
	</g>
	<g id="Layer">
		<path id="Layer" class="s3" d="m249.2-117.4c-1.3 0-2.5-0.5-3.5-1.4c-0.9-0.9-1.4-2.1-1.4-3.4c0-1.3 0.5-2.5 1.4-3.4c1-1 2.2-1.5 3.5-1.5c1.3 0 2.5 0.5 3.4 1.5c0.9 0.9 1.4 2.1 1.4 3.4c0 1.3-0.5 2.5-1.4 3.4c-0.9 0.9-2.1 1.4-3.4 1.4z" />
		<path id="Layer" class="s4" d="m246.3-125.1c0.7-0.7 1.7-1.1 2.8-1.1c2.1 0 3.9 1.8 3.9 4c0 1.1-0.4 2.1-1.1 2.8" />
	</g>
	<g id="Layer">
		<path id="Layer" class="s3" d="m279.2-87c-1.3 0-2.5-0.5-3.5-1.4c-0.9-0.9-1.4-2.1-1.4-3.4c0-1.3 0.5-2.5 1.4-3.4c1-1 2.2-1.5 3.5-1.5c1.3 0 2.5 0.5 3.4 1.5c0.9 0.9 1.4 2.1 1.4 3.4c0 1.3-0.5 2.5-1.4 3.4c-0.9 0.9-2.1 1.4-3.4 1.4z" />
		<path id="Layer" class="s4" d="m276.3-94.7c0.7-0.7 1.7-1.1 2.8-1.1c2.1 0 3.9 1.8 3.9 4c0 1.1-0.4 2.1-1.1 2.8" />
	</g>
	<g id="Layer">
		<path id="Layer" class="s3" d="m279.2-117.4c-1.3 0-2.5-0.5-3.5-1.4c-0.9-0.9-1.4-2.1-1.4-3.4c0-1.3 0.5-2.5 1.4-3.4c1-1 2.2-1.5 3.5-1.5c1.3 0 2.5 0.5 3.4 1.5c0.9 0.9 1.4 2.1 1.4 3.4c0 1.3-0.5 2.5-1.4 3.4c-0.9 0.9-2.1 1.4-3.4 1.4z" />
		<path id="Layer" class="s4" d="m276.3-125.1c0.7-0.7 1.7-1.1 2.8-1.1c2.1 0 3.9 1.8 3.9 4c0 1.1-0.4 2.1-1.1 2.8" />
	</g>
	<path id="Layer" class="s0" d="m310.6 392.2v-110.4q0.1-1 0.4-1.9q0.4-0.9 1.1-1.6q0.7-0.7 1.6-1.1q1-0.4 1.9-0.4h52.2q1 0 1.9 0.4q1 0.4 1.7 1.1q0.7 0.7 1 1.6q0.4 0.9 0.4 1.9v110.4q0 1-0.4 1.9q-0.3 0.9-1 1.6q-0.7 0.7-1.7 1.1q-0.9 0.4-1.9 0.4h-52.2q-0.9 0-1.9-0.4q-0.9-0.4-1.6-1.1q-0.7-0.7-1.1-1.6q-0.3-0.9-0.4-1.9z" />
	<path id="Layer" class="s0" d="m316.7 390.7v-50h50v50z" />
	<path id="Layer" class="s0" d="m316.7 333.2v-50h50v50z" />
	<g id="Layer">
		<path id="Layer" class="s1" d="m317.2 338h47.6" />
		<path id="Layer" class="s2" d="m317.2 336h47.6" />
	</g>
	<g id="Layer">
		<path id="Layer" class="s3" d="m326.5 389c-1.3 0-2.5-0.5-3.5-1.5c-0.9-0.9-1.4-2.1-1.4-3.4c0-1.3 0.5-2.5 1.4-3.4c1-0.9 2.2-1.4 3.5-1.4c1.3 0 2.5 0.5 3.4 1.4c0.9 0.9 1.4 2.1 1.4 3.4c0 1.3-0.5 2.5-1.4 3.4c-0.9 1-2.1 1.5-3.4 1.5z" />
		<path id="Layer" class="s4" d="m323.6 381.2c0.7-0.7 1.7-1.1 2.8-1.1c2.1 0 3.9 1.8 3.9 4c0 1.1-0.4 2.1-1.1 2.8" />
	</g>
	<g id="Layer">
		<path id="Layer" class="s3" d="m326.5 358.6c-1.3 0-2.5-0.5-3.5-1.4c-0.9-1-1.4-2.2-1.4-3.5c0-1.3 0.5-2.5 1.4-3.4c1-0.9 2.2-1.4 3.5-1.4c1.3 0 2.5 0.5 3.4 1.4c0.9 0.9 1.4 2.1 1.4 3.4c0 1.3-0.5 2.5-1.4 3.5c-0.9 0.9-2.1 1.4-3.4 1.4z" />
		<path id="Layer" class="s4" d="m323.6 350.8c0.7-0.7 1.7-1.1 2.8-1.1c2.1 0 3.9 1.8 3.9 4c0 1.1-0.4 2.1-1.1 2.8" />
	</g>
	<g id="Layer">
		<path id="Layer" class="s3" d="m356.5 389c-1.3 0-2.5-0.5-3.5-1.5c-0.9-0.9-1.4-2.1-1.4-3.4c0-1.3 0.5-2.5 1.4-3.4c1-0.9 2.2-1.4 3.5-1.4c1.3 0 2.5 0.5 3.4 1.4c0.9 0.9 1.4 2.1 1.4 3.4c0 1.3-0.5 2.5-1.4 3.4c-0.9 1-2.1 1.5-3.4 1.5z" />
		<path id="Layer" class="s4" d="m353.6 381.2c0.7-0.7 1.7-1.1 2.8-1.1c2.1 0 3.9 1.8 3.9 4c0 1.1-0.4 2.1-1.1 2.8" />
	</g>
	<g id="Layer">
		<path id="Layer" class="s3" d="m356.5 358.6c-1.3 0-2.5-0.5-3.5-1.4c-0.9-1-1.4-2.2-1.4-3.5c0-1.3 0.5-2.5 1.4-3.4c1-0.9 2.2-1.4 3.5-1.4c1.3 0 2.5 0.5 3.4 1.4c0.9 0.9 1.4 2.1 1.4 3.4c0 1.3-0.5 2.5-1.4 3.5c-0.9 0.9-2.1 1.4-3.4 1.4z" />
		<path id="Layer" class="s4" d="m353.6 350.8c0.7-0.7 1.7-1.1 2.8-1.1c2.1 0 3.9 1.8 3.9 4c0 1.1-0.4 2.1-1.1 2.8" />
	</g>
	<g id="Layer">
		<path id="Layer" class="s3" d="m326.5 327.4c-1.3 0-2.5-0.5-3.5-1.5c-0.9-0.9-1.4-2.1-1.4-3.4c0-1.3 0.5-2.5 1.4-3.4c1-0.9 2.2-1.4 3.5-1.4c1.3 0 2.5 0.5 3.4 1.4c0.9 0.9 1.4 2.1 1.4 3.4c0 1.3-0.5 2.5-1.4 3.4c-0.9 1-2.1 1.5-3.4 1.5z" />
		<path id="Layer" class="s4" d="m323.6 319.6c0.7-0.7 1.7-1.1 2.8-1.1c2.1 0 3.9 1.8 3.9 4c0 1.1-0.4 2.1-1.1 2.8" />
	</g>
	<g id="Layer">
		<path id="Layer" class="s3" d="m326.5 297c-1.3 0-2.5-0.5-3.5-1.4c-0.9-0.9-1.4-2.2-1.4-3.5c0-1.3 0.5-2.5 1.4-3.4c1-0.9 2.2-1.4 3.5-1.4c1.3 0 2.5 0.5 3.4 1.4c0.9 0.9 1.4 2.1 1.4 3.4c0 1.3-0.5 2.6-1.4 3.5c-0.9 0.9-2.1 1.4-3.4 1.4z" />
		<path id="Layer" class="s4" d="m323.6 289.2c0.7-0.7 1.7-1.1 2.8-1.1c2.1 0 3.9 1.8 3.9 4c0 1.1-0.4 2.1-1.1 2.9" />
	</g>
	<g id="Layer">
		<path id="Layer" class="s3" d="m326.5 312.2c-1.3 0-2.5-0.5-3.5-1.4c-0.9-1-1.4-2.2-1.4-3.5c0-1.3 0.5-2.5 1.4-3.4c1-0.9 2.2-1.4 3.5-1.4c1.3 0 2.5 0.5 3.4 1.4c0.9 0.9 1.4 2.1 1.4 3.4c0 1.3-0.5 2.5-1.4 3.5c-0.9 0.9-2.1 1.4-3.4 1.4z" />
		<path id="Layer" class="s4" d="m323.6 304.4c0.7-0.7 1.7-1.1 2.8-1.1c2.1 0 3.9 1.8 3.9 4c0 1.1-0.4 2.1-1.1 2.8" />
	</g>
	<g id="Layer">
		<path id="Layer" class="s3" d="m356.5 327.4c-1.3 0-2.5-0.5-3.5-1.5c-0.9-0.9-1.4-2.1-1.4-3.4c0-1.3 0.5-2.5 1.4-3.4c1-0.9 2.2-1.4 3.5-1.4c1.3 0 2.5 0.5 3.4 1.4c0.9 0.9 1.4 2.1 1.4 3.4c0 1.3-0.5 2.5-1.4 3.4c-0.9 1-2.1 1.5-3.4 1.5z" />
		<path id="Layer" class="s4" d="m353.6 319.6c0.7-0.7 1.7-1.1 2.8-1.1c2.1 0 3.9 1.8 3.9 4c0 1.1-0.4 2.1-1.1 2.8" />
	</g>
	<g id="Layer">
		<path id="Layer" class="s3" d="m356.5 297c-1.3 0-2.5-0.5-3.5-1.4c-0.9-0.9-1.4-2.2-1.4-3.5c0-1.3 0.5-2.5 1.4-3.4c1-0.9 2.2-1.4 3.5-1.4c1.3 0 2.5 0.5 3.4 1.4c0.9 0.9 1.4 2.1 1.4 3.4c0 1.3-0.5 2.6-1.4 3.5c-0.9 0.9-2.1 1.4-3.4 1.4z" />
		<path id="Layer" class="s4" d="m353.6 289.2c0.7-0.7 1.7-1.1 2.8-1.1c2.1 0 3.9 1.8 3.9 4c0 1.1-0.4 2.1-1.1 2.9" />
	</g>
	<g id="Layer">
		<path id="Layer" class="s3" d="m356.5 312.2c-1.3 0-2.5-0.5-3.5-1.4c-0.9-1-1.4-2.2-1.4-3.5c0-1.3 0.5-2.5 1.4-3.4c1-0.9 2.2-1.4 3.5-1.4c1.3 0 2.5 0.5 3.4 1.4c0.9 0.9 1.4 2.1 1.4 3.4c0 1.3-0.5 2.5-1.4 3.5c-0.9 0.9-2.1 1.4-3.4 1.4z" />
		<path id="Layer" class="s4" d="m353.6 304.4c0.7-0.7 1.7-1.1 2.8-1.1c2.1 0 3.9 1.8 3.9 4c0 1.1-0.4 2.1-1.1 2.8" />
	</g>
	<path id="Layer" class="s0" d="m310.6 254.1v-110.4q0.1-1 0.4-1.9q0.4-1 1.1-1.7q0.7-0.7 1.6-1q1-0.4 1.9-0.4h52.2q1 0 1.9 0.4q1 0.3 1.7 1q0.7 0.7 1 1.7q0.4 0.9 0.4 1.9v110.4q0 1-0.4 1.9q-0.3 0.9-1 1.6q-0.7 0.7-1.7 1.1q-0.9 0.4-1.9 0.4h-52.2q-0.9 0-1.9-0.4q-0.9-0.4-1.6-1.1q-0.7-0.7-1.1-1.6q-0.3-0.9-0.4-1.9z" />
	<path id="Layer" class="s0" d="m316.7 252.6v-50h50v50z" />
	<path id="Layer" class="s0" d="m316.7 195v-50h50v50z" />
	<g id="Layer">
		<path id="Layer" class="s1" d="m317.2 199.9h47.6" />
		<path id="Layer" class="s2" d="m317.2 197.9h47.6" />
	</g>
	<g id="Layer">
		<path id="Layer" class="s3" d="m326.5 250.8c-1.3 0-2.5-0.5-3.5-1.4c-0.9-0.9-1.4-2.1-1.4-3.4c0-1.3 0.5-2.5 1.4-3.4c1-0.9 2.2-1.5 3.5-1.5c1.3 0 2.5 0.6 3.4 1.5c0.9 0.9 1.4 2.1 1.4 3.4c0 1.3-0.5 2.5-1.4 3.4c-0.9 0.9-2.1 1.4-3.4 1.4z" />
		<path id="Layer" class="s4" d="m323.6 243.1c0.7-0.7 1.7-1.1 2.8-1.1c2.1 0 3.9 1.8 3.9 4c0 1.1-0.4 2.1-1.1 2.8" />
	</g>
	<g id="Layer">
		<path id="Layer" class="s3" d="m341.5 235.7c-1.3 0-2.5-0.6-3.5-1.5c-0.9-0.9-1.4-2.1-1.4-3.4c0-1.3 0.5-2.5 1.4-3.4c1-0.9 2.2-1.4 3.5-1.4c1.3 0 2.5 0.5 3.4 1.4c0.9 0.9 1.4 2.1 1.4 3.4c0 1.3-0.5 2.5-1.4 3.4c-0.9 0.9-2.1 1.5-3.4 1.5z" />
		<path id="Layer" class="s4" d="m338.6 227.9c0.7-0.7 1.7-1.1 2.8-1.1c2.1 0 3.9 1.8 3.9 4c0 1.1-0.4 2.1-1.1 2.8" />
	</g>
	<g id="Layer">
		<path id="Layer" class="s3" d="m326.5 220.5c-1.3 0-2.5-0.5-3.5-1.5c-0.9-0.9-1.4-2.1-1.4-3.4c0-1.3 0.5-2.5 1.4-3.4c1-0.9 2.2-1.4 3.5-1.4c1.3 0 2.5 0.5 3.4 1.4c0.9 0.9 1.4 2.1 1.4 3.4c0 1.3-0.5 2.5-1.4 3.4c-0.9 1-2.1 1.5-3.4 1.5z" />
		<path id="Layer" class="s4" d="m323.6 212.7c0.7-0.7 1.7-1.1 2.8-1.1c2.1 0 3.9 1.8 3.9 4c0 1.1-0.4 2.1-1.1 2.8" />
	</g>
	<g id="Layer">
		<path id="Layer" class="s3" d="m356.5 250.8c-1.3 0-2.5-0.5-3.5-1.4c-0.9-0.9-1.4-2.1-1.4-3.4c0-1.3 0.5-2.5 1.4-3.4c1-0.9 2.2-1.5 3.5-1.5c1.3 0 2.5 0.6 3.4 1.5c0.9 0.9 1.4 2.1 1.4 3.4c0 1.3-0.5 2.5-1.4 3.4c-0.9 0.9-2.1 1.4-3.4 1.4z" />
		<path id="Layer" class="s4" d="m353.6 243.1c0.7-0.7 1.7-1.1 2.8-1.1c2.1 0 3.9 1.8 3.9 4c0 1.1-0.4 2.1-1.1 2.8" />
	</g>
	<g id="Layer">
		<path id="Layer" class="s3" d="m356.5 220.5c-1.3 0-2.5-0.5-3.5-1.5c-0.9-0.9-1.4-2.1-1.4-3.4c0-1.3 0.5-2.5 1.4-3.4c1-0.9 2.2-1.4 3.5-1.4c1.3 0 2.5 0.5 3.4 1.4c0.9 0.9 1.4 2.1 1.4 3.4c0 1.3-0.5 2.5-1.4 3.4c-0.9 1-2.1 1.5-3.4 1.5z" />
		<path id="Layer" class="s4" d="m353.6 212.7c0.7-0.7 1.7-1.1 2.8-1.1c2.1 0 3.9 1.8 3.9 4c0 1.1-0.4 2.1-1.1 2.8" />
	</g>
	<g id="Layer">
		<path id="Layer" class="s3" d="m326.5 189.3c-1.3 0-2.5-0.6-3.5-1.5c-0.9-0.9-1.4-2.1-1.4-3.4c0-1.3 0.5-2.5 1.4-3.4c1-0.9 2.2-1.4 3.5-1.4c1.3 0 2.5 0.5 3.4 1.4c0.9 0.9 1.4 2.1 1.4 3.4c0 1.3-0.5 2.5-1.4 3.4c-0.9 0.9-2.1 1.5-3.4 1.5z" />
		<path id="Layer" class="s4" d="m323.6 181.5c0.7-0.7 1.7-1.1 2.8-1.1c2.1 0 3.9 1.8 3.9 4c0 1.1-0.4 2.1-1.1 2.8" />
	</g>
	<g id="Layer">
		<path id="Layer" class="s3" d="m326.5 158.9c-1.3 0-2.5-0.5-3.5-1.5c-0.9-0.9-1.4-2.1-1.4-3.4c0-1.3 0.5-2.5 1.4-3.4c1-0.9 2.2-1.4 3.5-1.4c1.3 0 2.5 0.5 3.4 1.4c0.9 0.9 1.4 2.1 1.4 3.4c0 1.3-0.5 2.5-1.4 3.4c-0.9 1-2.1 1.5-3.4 1.5z" />
		<path id="Layer" class="s4" d="m323.6 151.1c0.7-0.7 1.7-1.1 2.8-1.1c2.1 0 3.9 1.8 3.9 4c0 1.1-0.4 2.1-1.1 2.8" />
	</g>
	<g id="Layer">
		<path id="Layer" class="s3" d="m326.5 174.1c-1.3 0-2.5-0.6-3.5-1.5c-0.9-0.9-1.4-2.1-1.4-3.4c0-1.3 0.5-2.5 1.4-3.4c1-0.9 2.2-1.4 3.5-1.4c1.3 0 2.5 0.5 3.4 1.4c0.9 0.9 1.4 2.1 1.4 3.4c0 1.3-0.5 2.5-1.4 3.4c-0.9 0.9-2.1 1.5-3.4 1.5z" />
		<path id="Layer" class="s4" d="m323.6 166.3c0.7-0.7 1.7-1.1 2.8-1.1c2.1 0 3.9 1.8 3.9 4c0 1.1-0.4 2.1-1.1 2.8" />
	</g>
	<g id="Layer">
		<path id="Layer" class="s3" d="m356.5 189.3c-1.3 0-2.5-0.6-3.5-1.5c-0.9-0.9-1.4-2.1-1.4-3.4c0-1.3 0.5-2.5 1.4-3.4c1-0.9 2.2-1.4 3.5-1.4c1.3 0 2.5 0.5 3.4 1.4c0.9 0.9 1.4 2.1 1.4 3.4c0 1.3-0.5 2.5-1.4 3.4c-0.9 0.9-2.1 1.5-3.4 1.5z" />
		<path id="Layer" class="s4" d="m353.6 181.5c0.7-0.7 1.7-1.1 2.8-1.1c2.1 0 3.9 1.8 3.9 4c0 1.1-0.4 2.1-1.1 2.8" />
	</g>
	<g id="Layer">
		<path id="Layer" class="s3" d="m356.5 158.9c-1.3 0-2.5-0.5-3.5-1.5c-0.9-0.9-1.4-2.1-1.4-3.4c0-1.3 0.5-2.5 1.4-3.4c1-0.9 2.2-1.4 3.5-1.4c1.3 0 2.5 0.5 3.4 1.4c0.9 0.9 1.4 2.1 1.4 3.4c0 1.3-0.5 2.5-1.4 3.4c-0.9 1-2.1 1.5-3.4 1.5z" />
		<path id="Layer" class="s4" d="m353.6 151.1c0.7-0.7 1.7-1.1 2.8-1.1c2.1 0 3.9 1.8 3.9 4c0 1.1-0.4 2.1-1.1 2.8" />
	</g>
	<g id="Layer">
		<path id="Layer" class="s3" d="m356.5 174.1c-1.3 0-2.5-0.6-3.5-1.5c-0.9-0.9-1.4-2.1-1.4-3.4c0-1.3 0.5-2.5 1.4-3.4c1-0.9 2.2-1.4 3.5-1.4c1.3 0 2.5 0.5 3.4 1.4c0.9 0.9 1.4 2.1 1.4 3.4c0 1.3-0.5 2.5-1.4 3.4c-0.9 0.9-2.1 1.5-3.4 1.5z" />
		<path id="Layer" class="s4" d="m353.6 166.3c0.7-0.7 1.7-1.1 2.8-1.1c2.1 0 3.9 1.8 3.9 4c0 1.1-0.4 2.1-1.1 2.8" />
	</g>
	<path id="Layer" class="s0" d="m388 392.2v-110.4q0-1 0.4-1.9q0.4-0.9 1.1-1.6q0.7-0.7 1.6-1.1q0.9-0.4 1.9-0.4h52.2q1 0 1.9 0.4q0.9 0.4 1.6 1.1q0.7 0.7 1.1 1.6q0.4 0.9 0.4 1.9v110.4q0 1-0.4 1.9q-0.4 0.9-1.1 1.6q-0.7 0.7-1.6 1.1q-0.9 0.4-1.9 0.4h-52.2q-1 0-1.9-0.4q-0.9-0.4-1.6-1.1q-0.7-0.7-1.1-1.6q-0.4-0.9-0.4-1.9z" />
	<path id="Layer" class="s0" d="m394.1 390.7v-50h50v50z" />
	<path id="Layer" class="s0" d="m394.1 333.2v-50h50v50z" />
	<g id="Layer">
		<path id="Layer" class="s1" d="m394.6 338h47.6" />
		<path id="Layer" class="s2" d="m394.6 336h47.6" />
	</g>
	<g id="Layer">
		<path id="Layer" class="s3" d="m403.9 389c-1.3 0-2.5-0.5-3.5-1.5c-0.9-0.9-1.4-2.1-1.4-3.4c0-1.3 0.5-2.5 1.4-3.4c1-0.9 2.2-1.4 3.5-1.4c1.3 0 2.5 0.5 3.4 1.4c0.9 0.9 1.4 2.1 1.4 3.4c0 1.3-0.5 2.5-1.4 3.4c-0.9 1-2.1 1.5-3.4 1.5z" />
		<path id="Layer" class="s4" d="m401 381.2c0.7-0.7 1.7-1.1 2.8-1.1c2.1 0 3.9 1.8 3.9 4c0 1.1-0.4 2.1-1.1 2.8" />
	</g>
	<g id="Layer">
		<path id="Layer" class="s3" d="m418.9 373.8c-1.3 0-2.5-0.5-3.5-1.5c-0.9-0.9-1.4-2.1-1.4-3.4c0-1.3 0.5-2.5 1.4-3.4c1-0.9 2.2-1.4 3.5-1.4c1.3 0 2.5 0.5 3.4 1.4c0.9 0.9 1.4 2.1 1.4 3.4c0 1.3-0.5 2.5-1.4 3.4c-0.9 1-2.1 1.5-3.4 1.5z" />
		<path id="Layer" class="s4" d="m416 366c0.7-0.7 1.7-1.1 2.8-1.1c2.1 0 3.9 1.8 3.9 4c0 1.1-0.4 2.1-1.1 2.8" />
	</g>
	<g id="Layer">
		<path id="Layer" class="s3" d="m433.9 358.6c-1.3 0-2.5-0.5-3.5-1.4c-0.9-1-1.4-2.2-1.4-3.5c0-1.3 0.5-2.5 1.4-3.4c1-0.9 2.2-1.4 3.5-1.4c1.3 0 2.5 0.5 3.4 1.4c0.9 0.9 1.4 2.1 1.4 3.4c0 1.3-0.5 2.5-1.4 3.5c-0.9 0.9-2.1 1.4-3.4 1.4z" />
		<path id="Layer" class="s4" d="m431 350.8c0.7-0.7 1.7-1.1 2.8-1.1c2.1 0 3.9 1.8 3.9 4c0 1.1-0.4 2.1-1.1 2.8" />
	</g>
	<g id="Layer">
		<path id="Layer" class="s3" d="m403.9 327.4c-1.3 0-2.5-0.5-3.5-1.5c-0.9-0.9-1.4-2.1-1.4-3.4c0-1.3 0.5-2.5 1.4-3.4c1-0.9 2.2-1.4 3.5-1.4c1.3 0 2.5 0.5 3.4 1.4c0.9 0.9 1.4 2.1 1.4 3.4c0 1.3-0.5 2.5-1.4 3.4c-0.9 1-2.1 1.5-3.4 1.5z" />
		<path id="Layer" class="s4" d="m401 319.6c0.7-0.7 1.7-1.1 2.8-1.1c2.1 0 3.9 1.8 3.9 4c0 1.1-0.4 2.1-1.1 2.8" />
	</g>
	<g id="Layer">
		<path id="Layer" class="s3" d="m418.9 312.2c-1.3 0-2.5-0.5-3.5-1.4c-0.9-1-1.4-2.2-1.4-3.5c0-1.3 0.5-2.5 1.4-3.4c1-0.9 2.2-1.4 3.5-1.4c1.3 0 2.5 0.5 3.4 1.4c0.9 0.9 1.4 2.1 1.4 3.4c0 1.3-0.5 2.5-1.4 3.5c-0.9 0.9-2.1 1.4-3.4 1.4z" />
		<path id="Layer" class="s4" d="m416 304.4c0.7-0.7 1.7-1.1 2.8-1.1c2.1 0 3.9 1.8 3.9 4c0 1.1-0.4 2.1-1.1 2.8" />
	</g>
	<g id="Layer">
		<path id="Layer" class="s3" d="m433.9 297c-1.3 0-2.5-0.5-3.5-1.4c-0.9-0.9-1.4-2.2-1.4-3.5c0-1.3 0.5-2.5 1.4-3.4c1-0.9 2.2-1.4 3.5-1.4c1.3 0 2.5 0.5 3.4 1.4c0.9 0.9 1.4 2.1 1.4 3.4c0 1.3-0.5 2.6-1.4 3.5c-0.9 0.9-2.1 1.4-3.4 1.4z" />
		<path id="Layer" class="s4" d="m431 289.2c0.7-0.7 1.7-1.1 2.8-1.1c2.1 0 3.9 1.8 3.9 4c0 1.1-0.4 2.1-1.1 2.9" />
	</g>
	<path id="Layer" class="s0" d="m388 254.1v-110.4q0-1 0.4-1.9q0.4-1 1.1-1.7q0.7-0.7 1.6-1q0.9-0.4 1.9-0.4h52.2q1 0 1.9 0.4q0.9 0.3 1.6 1q0.7 0.7 1.1 1.7q0.4 0.9 0.4 1.9v110.4q0 1-0.4 1.9q-0.4 0.9-1.1 1.6q-0.7 0.7-1.6 1.1q-0.9 0.4-1.9 0.4h-52.2q-1 0-1.9-0.4q-0.9-0.4-1.6-1.1q-0.7-0.7-1.1-1.6q-0.4-0.9-0.4-1.9z" />
	<path id="Layer" class="s0" d="m394.1 252.6v-50h50v50z" />
	<path id="Layer" class="s0" d="m394.1 195v-50h50v50z" />
	<g id="Layer">
		<path id="Layer" class="s1" d="m394.6 199.9h47.6" />
		<path id="Layer" class="s2" d="m394.6 197.9h47.6" />
	</g>
	<g id="Layer">
		<path id="Layer" class="s3" d="m403.9 250.8c-1.3 0-2.5-0.5-3.5-1.4c-0.9-0.9-1.4-2.1-1.4-3.4c0-1.3 0.5-2.5 1.4-3.4c1-0.9 2.2-1.5 3.5-1.5c1.3 0 2.5 0.6 3.4 1.5c0.9 0.9 1.4 2.1 1.4 3.4c0 1.3-0.5 2.5-1.4 3.4c-0.9 0.9-2.1 1.4-3.4 1.4z" />
		<path id="Layer" class="s4" d="m401 243.1c0.7-0.7 1.7-1.1 2.8-1.1c2.1 0 3.9 1.8 3.9 4c0 1.1-0.4 2.1-1.1 2.8" />
	</g>
	<g id="Layer">
		<path id="Layer" class="s3" d="m403.9 220.5c-1.3 0-2.5-0.5-3.5-1.5c-0.9-0.9-1.4-2.1-1.4-3.4c0-1.3 0.5-2.5 1.4-3.4c1-0.9 2.2-1.4 3.5-1.4c1.3 0 2.5 0.5 3.4 1.4c0.9 0.9 1.4 2.1 1.4 3.4c0 1.3-0.5 2.5-1.4 3.4c-0.9 1-2.1 1.5-3.4 1.5z" />
		<path id="Layer" class="s4" d="m401 212.7c0.7-0.7 1.7-1.1 2.8-1.1c2.1 0 3.9 1.8 3.9 4c0 1.1-0.4 2.1-1.1 2.8" />
	</g>
	<g id="Layer">
		<path id="Layer" class="s3" d="m433.9 250.8c-1.3 0-2.5-0.5-3.5-1.4c-0.9-0.9-1.4-2.1-1.4-3.4c0-1.3 0.5-2.5 1.4-3.4c1-0.9 2.2-1.5 3.5-1.5c1.3 0 2.5 0.6 3.4 1.5c0.9 0.9 1.4 2.1 1.4 3.4c0 1.3-0.5 2.5-1.4 3.4c-0.9 0.9-2.1 1.4-3.4 1.4z" />
		<path id="Layer" class="s4" d="m431 243.1c0.7-0.7 1.7-1.1 2.8-1.1c2.1 0 3.9 1.8 3.9 4c0 1.1-0.4 2.1-1.1 2.8" />
	</g>
	<g id="Layer">
		<path id="Layer" class="s3" d="m433.9 220.5c-1.3 0-2.5-0.5-3.5-1.5c-0.9-0.9-1.4-2.1-1.4-3.4c0-1.3 0.5-2.5 1.4-3.4c1-0.9 2.2-1.4 3.5-1.4c1.3 0 2.5 0.5 3.4 1.4c0.9 0.9 1.4 2.1 1.4 3.4c0 1.3-0.5 2.5-1.4 3.4c-0.9 1-2.1 1.5-3.4 1.5z" />
		<path id="Layer" class="s4" d="m431 212.7c0.7-0.7 1.7-1.1 2.8-1.1c2.1 0 3.9 1.8 3.9 4c0 1.1-0.4 2.1-1.1 2.8" />
	</g>
	<g id="Layer">
		<path id="Layer" class="s3" d="m403.9 189.3c-1.3 0-2.5-0.6-3.5-1.5c-0.9-0.9-1.4-2.1-1.4-3.4c0-1.3 0.5-2.5 1.4-3.4c1-0.9 2.2-1.4 3.5-1.4c1.3 0 2.5 0.5 3.4 1.4c0.9 0.9 1.4 2.1 1.4 3.4c0 1.3-0.5 2.5-1.4 3.4c-0.9 0.9-2.1 1.5-3.4 1.5z" />
		<path id="Layer" class="s4" d="m401 181.5c0.7-0.7 1.7-1.1 2.8-1.1c2.1 0 3.9 1.8 3.9 4c0 1.1-0.4 2.1-1.1 2.8" />
	</g>
	<g id="Layer">
		<path id="Layer" class="s3" d="m403.9 158.9c-1.3 0-2.5-0.5-3.5-1.5c-0.9-0.9-1.4-2.1-1.4-3.4c0-1.3 0.5-2.5 1.4-3.4c1-0.9 2.2-1.4 3.5-1.4c1.3 0 2.5 0.5 3.4 1.4c0.9 0.9 1.4 2.1 1.4 3.4c0 1.3-0.5 2.5-1.4 3.4c-0.9 1-2.1 1.5-3.4 1.5z" />
		<path id="Layer" class="s4" d="m401 151.1c0.7-0.7 1.7-1.1 2.8-1.1c2.1 0 3.9 1.8 3.9 4c0 1.1-0.4 2.1-1.1 2.8" />
	</g>
	<g id="Layer">
		<path id="Layer" class="s3" d="m433.9 189.3c-1.3 0-2.5-0.6-3.5-1.5c-0.9-0.9-1.4-2.1-1.4-3.4c0-1.3 0.5-2.5 1.4-3.4c1-0.9 2.2-1.4 3.5-1.4c1.3 0 2.5 0.5 3.4 1.4c0.9 0.9 1.4 2.1 1.4 3.4c0 1.3-0.5 2.5-1.4 3.4c-0.9 0.9-2.1 1.5-3.4 1.5z" />
		<path id="Layer" class="s4" d="m431 181.5c0.7-0.7 1.7-1.1 2.8-1.1c2.1 0 3.9 1.8 3.9 4c0 1.1-0.4 2.1-1.1 2.8" />
	</g>
	<g id="Layer">
		<path id="Layer" class="s3" d="m433.9 158.9c-1.3 0-2.5-0.5-3.5-1.5c-0.9-0.9-1.4-2.1-1.4-3.4c0-1.3 0.5-2.5 1.4-3.4c1-0.9 2.2-1.4 3.5-1.4c1.3 0 2.5 0.5 3.4 1.4c0.9 0.9 1.4 2.1 1.4 3.4c0 1.3-0.5 2.5-1.4 3.4c-0.9 1-2.1 1.5-3.4 1.5z" />
		<path id="Layer" class="s4" d="m431 151.1c0.7-0.7 1.7-1.1 2.8-1.1c2.1 0 3.9 1.8 3.9 4c0 1.1-0.4 2.1-1.1 2.8" />
	</g>
	<path id="Layer" class="s0" d="m310.6 116v-110.4q0.1-1 0.4-2q0.4-0.9 1.1-1.6q0.7-0.7 1.6-1.1q1-0.3 1.9-0.3h52.2q1 0 1.9 0.3q1 0.4 1.7 1.1q0.7 0.7 1 1.6q0.4 1 0.4 2v110.4q0 1-0.4 1.9q-0.3 0.9-1 1.6q-0.7 0.7-1.7 1.1q-0.9 0.4-1.9 0.4h-52.2q-0.9 0-1.9-0.4q-0.9-0.4-1.6-1.1q-0.7-0.7-1.1-1.6q-0.3-0.9-0.4-1.9z" />
	<path id="Layer" class="s0" d="m316.7 114.5v-50h50v50z" />
	<path id="Layer" class="s0" d="m316.7 56.9v-50h50v50z" />
	<g id="Layer">
		<path id="Layer" class="s1" d="m317.2 61.8h47.6" />
		<path id="Layer" class="s2" d="m317.2 59.8h47.6" />
	</g>
	<g id="Layer">
		<path id="Layer" class="s3" d="m341.5 97.5c-1.3 0-2.5-0.5-3.5-1.4c-0.9-0.9-1.4-2.1-1.4-3.4c0-1.3 0.5-2.5 1.4-3.4c1-0.9 2.2-1.5 3.5-1.5c1.3 0 2.5 0.6 3.4 1.5c0.9 0.9 1.4 2.1 1.4 3.4c0 1.3-0.5 2.5-1.4 3.4c-0.9 0.9-2.1 1.4-3.4 1.4z" />
		<path id="Layer" class="s4" d="m338.6 89.8c0.7-0.7 1.7-1.1 2.8-1.1c2.1 0 3.9 1.8 3.9 4c0 1.1-0.4 2.1-1.1 2.8" />
	</g>
	<g id="Layer">
		<path id="Layer" class="s3" d="m341.5 35.9c-1.3 0-2.5-0.5-3.5-1.4c-0.9-0.9-1.4-2.1-1.4-3.4c0-1.3 0.5-2.5 1.4-3.4c1-0.9 2.2-1.5 3.5-1.5c1.3 0 2.5 0.6 3.4 1.5c0.9 0.9 1.4 2.1 1.4 3.4c0 1.3-0.5 2.5-1.4 3.4c-0.9 0.9-2.1 1.4-3.4 1.4z" />
		<path id="Layer" class="s4" d="m338.6 28.2c0.7-0.7 1.7-1.1 2.8-1.1c2.1 0 3.9 1.8 3.9 4c0 1.1-0.4 2.1-1.1 2.8" />
	</g>
	<path id="Layer" class="s0" d="m310.6-22.1v-110.4q0.1-1 0.4-2q0.4-0.9 1.1-1.6q0.7-0.7 1.6-1.1q1-0.3 1.9-0.3h52.2q1 0 1.9 0.3q1 0.4 1.7 1.1q0.7 0.7 1 1.6q0.4 1 0.4 2v110.4q0 1-0.4 1.9q-0.3 0.9-1 1.6q-0.7 0.7-1.7 1.1q-0.9 0.4-1.9 0.4h-52.2q-0.9 0-1.9-0.4q-0.9-0.4-1.6-1.1q-0.7-0.7-1.1-1.6q-0.3-0.9-0.4-1.9z" />
	<path id="Layer" class="s0" d="m316.7-23.6v-50h50v50z" />
	<path id="Layer" class="s0" d="m316.7-81.2v-50h50v50z" />
	<g id="Layer">
		<path id="Layer" class="s1" d="m317.2-76.4h47.6" />
		<path id="Layer" class="s2" d="m317.2-78.4h47.6" />
	</g>
	<g id="Layer">
		<path id="Layer" class="s3" d="m326.5-25.4c-1.3 0-2.5-0.5-3.5-1.4c-0.9-0.9-1.4-2.1-1.4-3.4c0-1.3 0.5-2.5 1.4-3.5c1-0.9 2.2-1.4 3.5-1.4c1.3 0 2.5 0.5 3.4 1.4c0.9 1 1.4 2.2 1.4 3.5c0 1.3-0.5 2.5-1.4 3.4c-0.9 0.9-2.1 1.4-3.4 1.4z" />
		<path id="Layer" class="s4" d="m323.6-33.1c0.7-0.7 1.7-1.1 2.8-1.1c2.1 0 3.9 1.7 3.9 4c0 1.1-0.4 2.1-1.1 2.8" />
	</g>
	<g id="Layer">
		<path id="Layer" class="s3" d="m356.5-55.8c-1.3 0-2.5-0.5-3.5-1.4c-0.9-0.9-1.4-2.1-1.4-3.4c0-1.3 0.5-2.5 1.4-3.4c1-1 2.2-1.5 3.5-1.5c1.3 0 2.5 0.5 3.4 1.5c0.9 0.9 1.4 2.1 1.4 3.4c0 1.3-0.5 2.5-1.4 3.4c-0.9 0.9-2.1 1.4-3.4 1.4z" />
		<path id="Layer" class="s4" d="m353.6-63.5c0.7-0.7 1.7-1.1 2.8-1.1c2.1 0 3.9 1.8 3.9 4c0 1.1-0.4 2.1-1.1 2.8" />
	</g>
	<g id="Layer">
		<path id="Layer" class="s3" d="m326.5-87c-1.3 0-2.5-0.5-3.5-1.4c-0.9-0.9-1.4-2.1-1.4-3.4c0-1.3 0.5-2.5 1.4-3.4c1-1 2.2-1.5 3.5-1.5c1.3 0 2.5 0.5 3.4 1.5c0.9 0.9 1.4 2.1 1.4 3.4c0 1.3-0.5 2.5-1.4 3.4c-0.9 0.9-2.1 1.4-3.4 1.4z" />
		<path id="Layer" class="s4" d="m323.6-94.7c0.7-0.7 1.7-1.1 2.8-1.1c2.1 0 3.9 1.8 3.9 4c0 1.1-0.4 2.1-1.1 2.8" />
	</g>
	<g id="Layer">
		<path id="Layer" class="s3" d="m356.5-117.4c-1.3 0-2.5-0.5-3.5-1.4c-0.9-0.9-1.4-2.1-1.4-3.4c0-1.3 0.5-2.5 1.4-3.4c1-1 2.2-1.5 3.5-1.5c1.3 0 2.5 0.5 3.4 1.5c0.9 0.9 1.4 2.1 1.4 3.4c0 1.3-0.5 2.5-1.4 3.4c-0.9 0.9-2.1 1.4-3.4 1.4z" />
		<path id="Layer" class="s4" d="m353.6-125.1c0.7-0.7 1.7-1.1 2.8-1.1c2.1 0 3.9 1.8 3.9 4c0 1.1-0.4 2.1-1.1 2.8" />
	</g>
	<path id="Layer" class="s0" d="m388 116v-110.4q0-1 0.4-2q0.4-0.9 1.1-1.6q0.7-0.7 1.6-1.1q0.9-0.3 1.9-0.3h52.2q1 0 1.9 0.3q0.9 0.4 1.6 1.1q0.7 0.7 1.1 1.6q0.4 1 0.4 2v110.4q0 1-0.4 1.9q-0.4 0.9-1.1 1.6q-0.7 0.7-1.6 1.1q-0.9 0.4-1.9 0.4h-52.2q-1 0-1.9-0.4q-0.9-0.4-1.6-1.1q-0.7-0.7-1.1-1.6q-0.4-0.9-0.4-1.9z" />
	<path id="Layer" class="s0" d="m394.1 114.5v-50h50v50z" />
	<path id="Layer" class="s0" d="m394.1 56.9v-50h50v50z" />
	<g id="Layer">
		<path id="Layer" class="s1" d="m394.6 61.8h47.6" />
		<path id="Layer" class="s2" d="m394.6 59.8h47.6" />
	</g>
	<g id="Layer">
		<path id="Layer" class="s3" d="m403.9 112.7c-1.3 0-2.5-0.5-3.5-1.4c-0.9-0.9-1.4-2.1-1.4-3.4c0-1.3 0.5-2.5 1.4-3.4c1-1 2.2-1.5 3.5-1.5c1.3 0 2.5 0.5 3.4 1.5c0.9 0.9 1.4 2.1 1.4 3.4c0 1.3-0.5 2.5-1.4 3.4c-0.9 0.9-2.1 1.4-3.4 1.4z" />
		<path id="Layer" class="s4" d="m401 105c0.7-0.7 1.7-1.1 2.8-1.1c2.1 0 3.9 1.8 3.9 4c0 1.1-0.4 2.1-1.1 2.8" />
	</g>
	<g id="Layer">
		<path id="Layer" class="s3" d="m418.9 97.5c-1.3 0-2.5-0.5-3.5-1.4c-0.9-0.9-1.4-2.1-1.4-3.4c0-1.3 0.5-2.5 1.4-3.4c1-0.9 2.2-1.5 3.5-1.5c1.3 0 2.5 0.6 3.4 1.5c0.9 0.9 1.4 2.1 1.4 3.4c0 1.3-0.5 2.5-1.4 3.4c-0.9 0.9-2.1 1.4-3.4 1.4z" />
		<path id="Layer" class="s4" d="m416 89.8c0.7-0.7 1.7-1.1 2.8-1.1c2.1 0 3.9 1.8 3.9 4c0 1.1-0.4 2.1-1.1 2.8" />
	</g>
	<g id="Layer">
		<path id="Layer" class="s3" d="m403.9 82.4c-1.3 0-2.5-0.6-3.5-1.5c-0.9-0.9-1.4-2.1-1.4-3.4c0-1.3 0.5-2.5 1.4-3.4c1-0.9 2.2-1.4 3.5-1.4c1.3 0 2.5 0.5 3.4 1.4c0.9 0.9 1.4 2.1 1.4 3.4c0 1.3-0.5 2.5-1.4 3.4c-0.9 0.9-2.1 1.5-3.4 1.5z" />
		<path id="Layer" class="s4" d="m401 74.6c0.7-0.7 1.7-1.1 2.8-1.1c2.1 0 3.9 1.8 3.9 4c0 1.1-0.4 2.1-1.1 2.8" />
	</g>
	<g id="Layer">
		<path id="Layer" class="s3" d="m433.9 112.7c-1.3 0-2.5-0.5-3.5-1.4c-0.9-0.9-1.4-2.1-1.4-3.4c0-1.3 0.5-2.5 1.4-3.4c1-1 2.2-1.5 3.5-1.5c1.3 0 2.5 0.5 3.4 1.5c0.9 0.9 1.4 2.1 1.4 3.4c0 1.3-0.5 2.5-1.4 3.4c-0.9 0.9-2.1 1.4-3.4 1.4z" />
		<path id="Layer" class="s4" d="m431 105c0.7-0.7 1.7-1.1 2.8-1.1c2.1 0 3.9 1.8 3.9 4c0 1.1-0.4 2.1-1.1 2.8" />
	</g>
	<g id="Layer">
		<path id="Layer" class="s3" d="m433.9 82.4c-1.3 0-2.5-0.6-3.5-1.5c-0.9-0.9-1.4-2.1-1.4-3.4c0-1.3 0.5-2.5 1.4-3.4c1-0.9 2.2-1.4 3.5-1.4c1.3 0 2.5 0.5 3.4 1.4c0.9 0.9 1.4 2.1 1.4 3.4c0 1.3-0.5 2.5-1.4 3.4c-0.9 0.9-2.1 1.5-3.4 1.5z" />
		<path id="Layer" class="s4" d="m431 74.6c0.7-0.7 1.7-1.1 2.8-1.1c2.1 0 3.9 1.8 3.9 4c0 1.1-0.4 2.1-1.1 2.8" />
	</g>
	<g id="Layer">
		<path id="Layer" class="s3" d="m403.9 51.1c-1.3 0-2.5-0.5-3.5-1.4c-0.9-0.9-1.4-2.1-1.4-3.4c0-1.3 0.5-2.5 1.4-3.4c1-1 2.2-1.5 3.5-1.5c1.3 0 2.5 0.5 3.4 1.5c0.9 0.9 1.4 2.1 1.4 3.4c0 1.3-0.5 2.5-1.4 3.4c-0.9 0.9-2.1 1.4-3.4 1.4z" />
		<path id="Layer" class="s4" d="m401 43.4c0.7-0.7 1.7-1.1 2.8-1.1c2.1 0 3.9 1.8 3.9 4c0 1.1-0.4 2.1-1.1 2.8" />
	</g>
	<g id="Layer">
		<path id="Layer" class="s3" d="m418.9 35.9c-1.3 0-2.5-0.5-3.5-1.4c-0.9-0.9-1.4-2.1-1.4-3.4c0-1.3 0.5-2.5 1.4-3.4c1-0.9 2.2-1.5 3.5-1.5c1.3 0 2.5 0.6 3.4 1.5c0.9 0.9 1.4 2.1 1.4 3.4c0 1.3-0.5 2.5-1.4 3.4c-0.9 0.9-2.1 1.4-3.4 1.4z" />
		<path id="Layer" class="s4" d="m416 28.2c0.7-0.7 1.7-1.1 2.8-1.1c2.1 0 3.9 1.8 3.9 4c0 1.1-0.4 2.1-1.1 2.8" />
	</g>
	<g id="Layer">
		<path id="Layer" class="s3" d="m403.9 20.8c-1.3 0-2.5-0.6-3.5-1.5c-0.9-0.9-1.4-2.1-1.4-3.4c0-1.3 0.5-2.5 1.4-3.4c1-0.9 2.2-1.4 3.5-1.4c1.3 0 2.5 0.5 3.4 1.4c0.9 0.9 1.4 2.1 1.4 3.4c0 1.3-0.5 2.5-1.4 3.4c-0.9 0.9-2.1 1.5-3.4 1.5z" />
		<path id="Layer" class="s4" d="m401 13c0.7-0.7 1.7-1.1 2.8-1.1c2.1 0 3.9 1.8 3.9 4c0 1.1-0.4 2.1-1.1 2.8" />
	</g>
	<g id="Layer">
		<path id="Layer" class="s3" d="m433.9 51.1c-1.3 0-2.5-0.5-3.5-1.4c-0.9-0.9-1.4-2.1-1.4-3.4c0-1.3 0.5-2.5 1.4-3.4c1-1 2.2-1.5 3.5-1.5c1.3 0 2.5 0.5 3.4 1.5c0.9 0.9 1.4 2.1 1.4 3.4c0 1.3-0.5 2.5-1.4 3.4c-0.9 0.9-2.1 1.4-3.4 1.4z" />
		<path id="Layer" class="s4" d="m431 43.4c0.7-0.7 1.7-1.1 2.8-1.1c2.1 0 3.9 1.8 3.9 4c0 1.1-0.4 2.1-1.1 2.8" />
	</g>
	<g id="Layer">
		<path id="Layer" class="s3" d="m433.9 20.8c-1.3 0-2.5-0.6-3.5-1.5c-0.9-0.9-1.4-2.1-1.4-3.4c0-1.3 0.5-2.5 1.4-3.4c1-0.9 2.2-1.4 3.5-1.4c1.3 0 2.5 0.5 3.4 1.4c0.9 0.9 1.4 2.1 1.4 3.4c0 1.3-0.5 2.5-1.4 3.4c-0.9 0.9-2.1 1.5-3.4 1.5z" />
		<path id="Layer" class="s4" d="m431 13c0.7-0.7 1.7-1.1 2.8-1.1c2.1 0 3.9 1.8 3.9 4c0 1.1-0.4 2.1-1.1 2.8" />
	</g>
	<path id="Layer" class="s0" d="m388-22.1v-110.4q0-1 0.4-2q0.4-0.9 1.1-1.6q0.7-0.7 1.6-1.1q0.9-0.3 1.9-0.3h52.2q1 0 1.9 0.3q0.9 0.4 1.6 1.1q0.7 0.7 1.1 1.6q0.4 1 0.4 2v110.4q0 1-0.4 1.9q-0.4 0.9-1.1 1.6q-0.7 0.7-1.6 1.1q-0.9 0.4-1.9 0.4h-52.2q-1 0-1.9-0.4q-0.9-0.4-1.6-1.1q-0.7-0.7-1.1-1.6q-0.4-0.9-0.4-1.9z" />
	<path id="Layer" class="s0" d="m394.1-23.6v-50h50v50z" />
	<path id="Layer" class="s0" d="m394.1-81.2v-50h50v50z" />
	<g id="Layer">
		<path id="Layer" class="s1" d="m394.6-76.4h47.6" />
		<path id="Layer" class="s2" d="m394.6-78.4h47.6" />
	</g>
	<g id="Layer">
		<path id="Layer" class="s3" d="m403.9-25.4c-1.3 0-2.5-0.5-3.5-1.4c-0.9-0.9-1.4-2.1-1.4-3.4c0-1.3 0.5-2.5 1.4-3.5c1-0.9 2.2-1.4 3.5-1.4c1.3 0 2.5 0.5 3.4 1.4c0.9 1 1.4 2.2 1.4 3.5c0 1.3-0.5 2.5-1.4 3.4c-0.9 0.9-2.1 1.4-3.4 1.4z" />
		<path id="Layer" class="s4" d="m401-33.1c0.7-0.7 1.7-1.1 2.8-1.1c2.1 0 3.9 1.7 3.9 4c0 1.1-0.4 2.1-1.1 2.8" />
	</g>
	<g id="Layer">
		<path id="Layer" class="s3" d="m403.9-55.8c-1.3 0-2.5-0.5-3.5-1.4c-0.9-0.9-1.4-2.1-1.4-3.4c0-1.3 0.5-2.5 1.4-3.4c1-1 2.2-1.5 3.5-1.5c1.3 0 2.5 0.5 3.4 1.5c0.9 0.9 1.4 2.1 1.4 3.4c0 1.3-0.5 2.5-1.4 3.4c-0.9 0.9-2.1 1.4-3.4 1.4z" />
		<path id="Layer" class="s4" d="m401-63.5c0.7-0.7 1.7-1.1 2.8-1.1c2.1 0 3.9 1.8 3.9 4c0 1.1-0.4 2.1-1.1 2.8" />
	</g>
	<g id="Layer">
		<path id="Layer" class="s3" d="m403.9-40.6c-1.3 0-2.5-0.5-3.5-1.4c-0.9-0.9-1.4-2.1-1.4-3.4c0-1.3 0.5-2.5 1.4-3.4c1-1 2.2-1.5 3.5-1.5c1.3 0 2.5 0.5 3.4 1.5c0.9 0.9 1.4 2.1 1.4 3.4c0 1.3-0.5 2.5-1.4 3.4c-0.9 0.9-2.1 1.4-3.4 1.4z" />
		<path id="Layer" class="s4" d="m401-48.3c0.7-0.7 1.7-1.1 2.8-1.1c2.1 0 3.9 1.8 3.9 4c0 1.1-0.4 2.1-1.1 2.8" />
	</g>
	<g id="Layer">
		<path id="Layer" class="s3" d="m433.9-25.4c-1.3 0-2.5-0.5-3.5-1.4c-0.9-0.9-1.4-2.1-1.4-3.4c0-1.3 0.5-2.5 1.4-3.5c1-0.9 2.2-1.4 3.5-1.4c1.3 0 2.5 0.5 3.4 1.4c0.9 1 1.4 2.2 1.4 3.5c0 1.3-0.5 2.5-1.4 3.4c-0.9 0.9-2.1 1.4-3.4 1.4z" />
		<path id="Layer" class="s4" d="m431-33.1c0.7-0.7 1.7-1.1 2.8-1.1c2.1 0 3.9 1.7 3.9 4c0 1.1-0.4 2.1-1.1 2.8" />
	</g>
	<g id="Layer">
		<path id="Layer" class="s3" d="m433.9-55.8c-1.3 0-2.5-0.5-3.5-1.4c-0.9-0.9-1.4-2.1-1.4-3.4c0-1.3 0.5-2.5 1.4-3.4c1-1 2.2-1.5 3.5-1.5c1.3 0 2.5 0.5 3.4 1.5c0.9 0.9 1.4 2.1 1.4 3.4c0 1.3-0.5 2.5-1.4 3.4c-0.9 0.9-2.1 1.4-3.4 1.4z" />
		<path id="Layer" class="s4" d="m431-63.5c0.7-0.7 1.7-1.1 2.8-1.1c2.1 0 3.9 1.8 3.9 4c0 1.1-0.4 2.1-1.1 2.8" />
	</g>
	<g id="Layer">
		<path id="Layer" class="s3" d="m433.9-40.6c-1.3 0-2.5-0.5-3.5-1.4c-0.9-0.9-1.4-2.1-1.4-3.4c0-1.3 0.5-2.5 1.4-3.4c1-1 2.2-1.5 3.5-1.5c1.3 0 2.5 0.5 3.4 1.5c0.9 0.9 1.4 2.1 1.4 3.4c0 1.3-0.5 2.5-1.4 3.4c-0.9 0.9-2.1 1.4-3.4 1.4z" />
		<path id="Layer" class="s4" d="m431-48.3c0.7-0.7 1.7-1.1 2.8-1.1c2.1 0 3.9 1.8 3.9 4c0 1.1-0.4 2.1-1.1 2.8" />
	</g>
	<g id="Layer">
		<path id="Layer" class="s3" d="m403.9-87c-1.3 0-2.5-0.5-3.5-1.4c-0.9-0.9-1.4-2.1-1.4-3.4c0-1.3 0.5-2.5 1.4-3.4c1-1 2.2-1.5 3.5-1.5c1.3 0 2.5 0.5 3.4 1.5c0.9 0.9 1.4 2.1 1.4 3.4c0 1.3-0.5 2.5-1.4 3.4c-0.9 0.9-2.1 1.4-3.4 1.4z" />
		<path id="Layer" class="s4" d="m401-94.7c0.7-0.7 1.7-1.1 2.8-1.1c2.1 0 3.9 1.8 3.9 4c0 1.1-0.4 2.1-1.1 2.8" />
	</g>
	<g id="Layer">
		<path id="Layer" class="s3" d="m403.9-117.4c-1.3 0-2.5-0.5-3.5-1.4c-0.9-0.9-1.4-2.1-1.4-3.4c0-1.3 0.5-2.5 1.4-3.4c1-1 2.2-1.5 3.5-1.5c1.3 0 2.5 0.5 3.4 1.5c0.9 0.9 1.4 2.1 1.4 3.4c0 1.3-0.5 2.5-1.4 3.4c-0.9 0.9-2.1 1.4-3.4 1.4z" />
		<path id="Layer" class="s4" d="m401-125.1c0.7-0.7 1.7-1.1 2.8-1.1c2.1 0 3.9 1.8 3.9 4c0 1.1-0.4 2.1-1.1 2.8" />
	</g>
	<g id="Layer">
		<path id="Layer" class="s3" d="m403.9-102.2c-1.3 0-2.5-0.5-3.5-1.4c-0.9-0.9-1.4-2.1-1.4-3.4c0-1.3 0.5-2.5 1.4-3.4c1-1 2.2-1.5 3.5-1.5c1.3 0 2.5 0.5 3.4 1.5c0.9 0.9 1.4 2.1 1.4 3.4c0 1.3-0.5 2.5-1.4 3.4c-0.9 0.9-2.1 1.4-3.4 1.4z" />
		<path id="Layer" class="s4" d="m401-109.9c0.7-0.7 1.7-1.1 2.8-1.1c2.1 0 3.9 1.8 3.9 4c0 1.1-0.4 2.1-1.1 2.8" />
	</g>
	<g id="Layer">
		<path id="Layer" class="s3" d="m433.9-87c-1.3 0-2.5-0.5-3.5-1.4c-0.9-0.9-1.4-2.1-1.4-3.4c0-1.3 0.5-2.5 1.4-3.4c1-1 2.2-1.5 3.5-1.5c1.3 0 2.5 0.5 3.4 1.5c0.9 0.9 1.4 2.1 1.4 3.4c0 1.3-0.5 2.5-1.4 3.4c-0.9 0.9-2.1 1.4-3.4 1.4z" />
		<path id="Layer" class="s4" d="m431-94.7c0.7-0.7 1.7-1.1 2.8-1.1c2.1 0 3.9 1.8 3.9 4c0 1.1-0.4 2.1-1.1 2.8" />
	</g>
	<g id="Layer">
		<path id="Layer" class="s3" d="m433.9-117.4c-1.3 0-2.5-0.5-3.5-1.4c-0.9-0.9-1.4-2.1-1.4-3.4c0-1.3 0.5-2.5 1.4-3.4c1-1 2.2-1.5 3.5-1.5c1.3 0 2.5 0.5 3.4 1.5c0.9 0.9 1.4 2.1 1.4 3.4c0 1.3-0.5 2.5-1.4 3.4c-0.9 0.9-2.1 1.4-3.4 1.4z" />
		<path id="Layer" class="s4" d="m431-125.1c0.7-0.7 1.7-1.1 2.8-1.1c2.1 0 3.9 1.8 3.9 4c0 1.1-0.4 2.1-1.1 2.8" />
	</g>
	<g id="Layer">
		<path id="Layer" class="s3" d="m433.9-102.2c-1.3 0-2.5-0.5-3.5-1.4c-0.9-0.9-1.4-2.1-1.4-3.4c0-1.3 0.5-2.5 1.4-3.4c1-1 2.2-1.5 3.5-1.5c1.3 0 2.5 0.5 3.4 1.5c0.9 0.9 1.4 2.1 1.4 3.4c0 1.3-0.5 2.5-1.4 3.4c-0.9 0.9-2.1 1.4-3.4 1.4z" />
		<path id="Layer" class="s4" d="m431-109.9c0.7-0.7 1.7-1.1 2.8-1.1c2.1 0 3.9 1.8 3.9 4c0 1.1-0.4 2.1-1.1 2.8" />
	</g>
</svg>