<svg version="1.2" xmlns="http://www.w3.org/2000/svg" viewBox="0 0 64 122" width="64" height="122">
	<title>domino-161746-svg</title>
	<style>
		.s0 { fill: #000000 } 
		.s1 { fill: none;stroke: #323232;stroke-linecap: round;stroke-width: 2 } 
		.s2 { fill: none;stroke: #969696;stroke-linecap: round;stroke-width: 2 } 
		.s3 { fill: #ffffff;stroke: #323232;stroke-linecap: round;stroke-linejoin: round;stroke-width: 2 } 
		.s4 { fill: none;stroke: #969696;stroke-linecap: round;stroke-linejoin: round;stroke-width: 1.6 } 
	</style>
	<path id="Layer" class="s0" d="m-153.9 531.2v-110.4q0.1-1 0.4-1.9q0.4-0.9 1.1-1.6q0.7-0.7 1.6-1.1q1-0.4 1.9-0.4h52.2q1 0 1.9 0.4q1 0.4 1.7 1.1q0.7 0.7 1 1.6q0.4 0.9 0.4 1.9v110.4q0 1-0.4 1.9q-0.3 0.9-1 1.6q-0.7 0.7-1.7 1.1q-0.9 0.4-1.9 0.4h-52.2q-0.9 0-1.9-0.4q-0.9-0.4-1.6-1.1q-0.7-0.7-1.1-1.6q-0.3-0.9-0.4-1.9z" />
	<path id="Layer" class="s0" d="m-147.8 472.2v-50h50v50z" />
	<g id="Layer">
		<path id="Layer" class="s1" d="m-147.3 477h47.6" />
		<path id="Layer" class="s2" d="m-147.3 475h47.6" />
	</g>
	<g id="Layer">
		<path id="Layer" class="s3" d="m-138 466.4c-1.3 0-2.5-0.5-3.4-1.5c-0.9-0.9-1.4-2.1-1.4-3.4c0-1.3 0.5-2.5 1.4-3.4c0.9-0.9 2.1-1.4 3.4-1.4c1.3 0 2.5 0.5 3.5 1.4c0.9 0.9 1.4 2.1 1.4 3.4c0 1.3-0.5 2.5-1.4 3.4c-1 1-2.2 1.5-3.5 1.5z" />
		<path id="Layer" class="s4" d="m-140.8 458.6c0.7-0.7 1.7-1.1 2.7-1.1c2.2 0 4 1.8 4 4c0 1.1-0.5 2.1-1.2 2.8" />
	</g>
	<g id="Layer">
		<path id="Layer" class="s3" d="m-138 436c-1.3 0-2.5-0.5-3.4-1.4c-0.9-0.9-1.4-2.2-1.4-3.5c0-1.3 0.5-2.5 1.4-3.4c0.9-0.9 2.1-1.4 3.4-1.4c1.3 0 2.5 0.5 3.5 1.4c0.9 0.9 1.4 2.1 1.4 3.4c0 1.3-0.5 2.6-1.4 3.5c-1 0.9-2.2 1.4-3.5 1.4z" />
		<path id="Layer" class="s4" d="m-140.8 428.2c0.7-0.7 1.7-1.1 2.7-1.1c2.2 0 4 1.8 4 4c0 1.1-0.5 2.1-1.2 2.9" />
	</g>
	<g id="Layer">
		<path id="Layer" class="s3" d="m-108 466.4c-1.3 0-2.5-0.5-3.4-1.5c-0.9-0.9-1.4-2.1-1.4-3.4c0-1.3 0.5-2.5 1.4-3.4c0.9-0.9 2.1-1.4 3.4-1.4c1.3 0 2.5 0.5 3.5 1.4c0.9 0.9 1.4 2.1 1.4 3.4c0 1.3-0.5 2.5-1.4 3.4c-1 1-2.2 1.5-3.5 1.5z" />
		<path id="Layer" class="s4" d="m-110.8 458.6c0.7-0.7 1.7-1.1 2.7-1.1c2.2 0 4 1.8 4 4c0 1.1-0.5 2.1-1.2 2.8" />
	</g>
	<g id="Layer">
		<path id="Layer" class="s3" d="m-108 436c-1.3 0-2.5-0.5-3.4-1.4c-0.9-0.9-1.4-2.2-1.4-3.5c0-1.3 0.5-2.5 1.4-3.4c0.9-0.9 2.1-1.4 3.4-1.4c1.3 0 2.5 0.5 3.5 1.4c0.9 0.9 1.4 2.1 1.4 3.4c0 1.3-0.5 2.6-1.4 3.5c-1 0.9-2.2 1.4-3.5 1.4z" />
		<path id="Layer" class="s4" d="m-110.8 428.2c0.7-0.7 1.7-1.1 2.7-1.1c2.2 0 4 1.8 4 4c0 1.1-0.5 2.1-1.2 2.9" />
	</g>
	<path id="Layer" class="s0" d="m-231.2 531.2v-110.4q0-1 0.4-1.9q0.3-0.9 1-1.6q0.7-0.7 1.7-1.1q0.9-0.4 1.9-0.4h52.1q1 0 2 0.4q0.9 0.4 1.6 1.1q0.7 0.7 1.1 1.6q0.3 0.9 0.3 1.9v110.4q0 1-0.3 1.9q-0.4 0.9-1.1 1.6q-0.7 0.7-1.6 1.1q-1 0.4-2 0.4h-52.1q-1 0-1.9-0.4q-1-0.4-1.7-1.1q-0.7-0.7-1-1.6q-0.4-0.9-0.4-1.9z" />
	<path id="Layer" class="s0" d="m-225.1 529.7v-50h50v50z" />
	<path id="Layer" class="s0" d="m-225.1 472.2v-50h50v50z" />
	<g id="Layer">
		<path id="Layer" class="s1" d="m-224.7 477h47.7" />
		<path id="Layer" class="s2" d="m-224.7 475h47.7" />
	</g>
	<path id="Layer" class="s0" d="m-231.2 393.1v-110.4q0-1 0.4-1.9q0.3-1 1-1.7q0.7-0.7 1.7-1q0.9-0.4 1.9-0.4h52.1q1 0 2 0.4q0.9 0.3 1.6 1q0.7 0.7 1.1 1.7q0.3 0.9 0.3 1.9v110.4q0 1-0.3 1.9q-0.4 0.9-1.1 1.6q-0.7 0.7-1.6 1.1q-1 0.4-2 0.4h-52.1q-1 0-1.9-0.4q-1-0.4-1.7-1.1q-0.7-0.7-1-1.6q-0.4-0.9-0.4-1.9z" />
	<path id="Layer" class="s0" d="m-225.1 391.6v-50h50v50z" />
	<path id="Layer" class="s0" d="m-225.1 334v-50h50v50z" />
	<g id="Layer">
		<path id="Layer" class="s1" d="m-224.7 338.9h47.7" />
		<path id="Layer" class="s2" d="m-224.7 336.9h47.7" />
	</g>
	<g id="Layer">
		<path id="Layer" class="s3" d="m-200.4 313.1c-1.2 0-2.5-0.6-3.4-1.5c-0.9-0.9-1.4-2.1-1.4-3.4c0-1.3 0.5-2.5 1.4-3.4c0.9-0.9 2.2-1.4 3.4-1.4c1.3 0 2.6 0.5 3.5 1.4c0.9 0.9 1.4 2.1 1.4 3.4c0 1.3-0.5 2.5-1.4 3.4c-0.9 0.9-2.2 1.5-3.5 1.5z" />
		<path id="Layer" class="s4" d="m-203.2 305.3c0.7-0.7 1.7-1.1 2.7-1.1c2.2 0 4 1.8 4 4c0 1.1-0.5 2.1-1.2 2.8" />
	</g>
	<path id="Layer" class="s0" d="m-153.9 393.1v-110.4q0.1-1 0.4-1.9q0.4-1 1.1-1.7q0.7-0.7 1.6-1q1-0.4 1.9-0.4h52.2q1 0 1.9 0.4q1 0.3 1.7 1q0.7 0.7 1 1.7q0.4 0.9 0.4 1.9v110.4q0 1-0.4 1.9q-0.3 0.9-1 1.6q-0.7 0.7-1.7 1.1q-0.9 0.4-1.9 0.4h-52.2q-0.9 0-1.9-0.4q-0.9-0.4-1.6-1.1q-0.7-0.7-1.1-1.6q-0.3-0.9-0.4-1.9z" />
	<path id="Layer" class="s0" d="m-147.8 391.6v-50h50v50z" />
	<path id="Layer" class="s0" d="m-147.8 334v-50h50v50z" />
	<g id="Layer">
		<path id="Layer" class="s1" d="m-147.3 338.9h47.6" />
		<path id="Layer" class="s2" d="m-147.3 336.9h47.6" />
	</g>
	<g id="Layer">
		<path id="Layer" class="s3" d="m-138 328.3c-1.3 0-2.5-0.6-3.4-1.5c-0.9-0.9-1.4-2.1-1.4-3.4c0-1.3 0.5-2.5 1.4-3.4c0.9-0.9 2.1-1.4 3.4-1.4c1.3 0 2.5 0.5 3.5 1.4c0.9 0.9 1.4 2.1 1.4 3.4c0 1.3-0.5 2.5-1.4 3.4c-1 0.9-2.2 1.5-3.5 1.5z" />
		<path id="Layer" class="s4" d="m-140.8 320.5c0.7-0.7 1.7-1.1 2.7-1.1c2.2 0 4 1.8 4 4c0 1.1-0.5 2.1-1.2 2.8" />
	</g>
	<g id="Layer">
		<path id="Layer" class="s3" d="m-123 313.1c-1.3 0-2.5-0.6-3.4-1.5c-0.9-0.9-1.4-2.1-1.4-3.4c0-1.3 0.5-2.5 1.4-3.4c0.9-0.9 2.1-1.4 3.4-1.4c1.3 0 2.5 0.5 3.5 1.4c0.9 0.9 1.4 2.1 1.4 3.4c0 1.3-0.5 2.5-1.4 3.4c-1 0.9-2.2 1.5-3.5 1.5z" />
		<path id="Layer" class="s4" d="m-125.8 305.3c0.7-0.7 1.7-1.1 2.7-1.1c2.2 0 4 1.8 4 4c0 1.1-0.5 2.1-1.2 2.8" />
	</g>
	<g id="Layer">
		<path id="Layer" class="s3" d="m-138 297.9c-1.3 0-2.5-0.5-3.4-1.5c-0.9-0.9-1.4-2.1-1.4-3.4c0-1.3 0.5-2.5 1.4-3.4c0.9-0.9 2.1-1.4 3.4-1.4c1.3 0 2.5 0.5 3.5 1.4c0.9 0.9 1.4 2.1 1.4 3.4c0 1.3-0.5 2.5-1.4 3.4c-1 1-2.2 1.5-3.5 1.5z" />
		<path id="Layer" class="s4" d="m-140.8 290.1c0.7-0.7 1.7-1.1 2.7-1.1c2.2 0 4 1.8 4 4c0 1.1-0.5 2.1-1.2 2.8" />
	</g>
	<g id="Layer">
		<path id="Layer" class="s3" d="m-108 328.3c-1.3 0-2.5-0.6-3.4-1.5c-0.9-0.9-1.4-2.1-1.4-3.4c0-1.3 0.5-2.5 1.4-3.4c0.9-0.9 2.1-1.4 3.4-1.4c1.3 0 2.5 0.5 3.5 1.4c0.9 0.9 1.4 2.1 1.4 3.4c0 1.3-0.5 2.5-1.4 3.4c-1 0.9-2.2 1.5-3.5 1.5z" />
		<path id="Layer" class="s4" d="m-110.8 320.5c0.7-0.7 1.7-1.1 2.7-1.1c2.2 0 4 1.8 4 4c0 1.1-0.5 2.1-1.2 2.8" />
	</g>
	<g id="Layer">
		<path id="Layer" class="s3" d="m-108 297.9c-1.3 0-2.5-0.5-3.4-1.5c-0.9-0.9-1.4-2.1-1.4-3.4c0-1.3 0.5-2.5 1.4-3.4c0.9-0.9 2.1-1.4 3.4-1.4c1.3 0 2.5 0.5 3.5 1.4c0.9 0.9 1.4 2.1 1.4 3.4c0 1.3-0.5 2.5-1.4 3.4c-1 1-2.2 1.5-3.5 1.5z" />
		<path id="Layer" class="s4" d="m-110.8 290.1c0.7-0.7 1.7-1.1 2.7-1.1c2.2 0 4 1.8 4 4c0 1.1-0.5 2.1-1.2 2.8" />
	</g>
	<path id="Layer" class="s0" d="m-76.5 531.2v-110.4q0-1 0.4-1.9q0.4-0.9 1.1-1.6q0.7-0.7 1.6-1.1q0.9-0.4 1.9-0.4h52.2q1 0 1.9 0.4q0.9 0.4 1.6 1.1q0.7 0.7 1.1 1.6q0.4 0.9 0.4 1.9v110.4q0 1-0.4 1.9q-0.4 0.9-1.1 1.6q-0.7 0.7-1.6 1.1q-0.9 0.4-1.9 0.4h-52.2q-1 0-1.9-0.4q-0.9-0.4-1.6-1.1q-0.7-0.7-1.1-1.6q-0.4-0.9-0.4-1.9z" />
	<path id="Layer" class="s0" d="m-70.4 529.7v-50h50v50z" />
	<path id="Layer" class="s0" d="m-70.4 472.2v-50h50v50z" />
	<g id="Layer">
		<path id="Layer" class="s1" d="m-69.9 477h47.6" />
		<path id="Layer" class="s2" d="m-69.9 475h47.6" />
	</g>
	<g id="Layer">
		<path id="Layer" class="s3" d="m-45.6 512.8c-1.3 0-2.5-0.5-3.4-1.5c-0.9-0.9-1.5-2.1-1.5-3.4c0-1.3 0.6-2.5 1.5-3.4c0.9-0.9 2.1-1.4 3.4-1.4c1.3 0 2.5 0.5 3.4 1.4c0.9 0.9 1.4 2.1 1.4 3.4c0 1.3-0.5 2.5-1.4 3.4c-0.9 1-2.1 1.5-3.4 1.5z" />
		<path id="Layer" class="s4" d="m-48.4 505c0.7-0.7 1.6-1.1 2.7-1.1c2.2 0 3.9 1.8 3.9 4c0 1.1-0.4 2.1-1.1 2.8" />
	</g>
	<g id="Layer">
		<path id="Layer" class="s3" d="m-60.6 466.4c-1.3 0-2.5-0.5-3.4-1.5c-0.9-0.9-1.5-2.1-1.5-3.4c0-1.3 0.6-2.5 1.5-3.4c0.9-0.9 2.1-1.4 3.4-1.4c1.3 0 2.5 0.5 3.4 1.4c0.9 0.9 1.4 2.1 1.4 3.4c0 1.3-0.5 2.5-1.4 3.4c-0.9 1-2.1 1.5-3.4 1.5z" />
		<path id="Layer" class="s4" d="m-63.4 458.6c0.7-0.7 1.6-1.1 2.7-1.1c2.2 0 3.9 1.8 3.9 4c0 1.1-0.4 2.1-1.1 2.8" />
	</g>
	<g id="Layer">
		<path id="Layer" class="s3" d="m-45.6 451.2c-1.3 0-2.5-0.5-3.4-1.4c-0.9-1-1.5-2.2-1.5-3.5c0-1.3 0.6-2.5 1.5-3.4c0.9-0.9 2.1-1.4 3.4-1.4c1.3 0 2.5 0.5 3.4 1.4c0.9 0.9 1.4 2.1 1.4 3.4c0 1.3-0.5 2.5-1.4 3.5c-0.9 0.9-2.1 1.4-3.4 1.4z" />
		<path id="Layer" class="s4" d="m-48.4 443.4c0.7-0.7 1.6-1.1 2.7-1.1c2.2 0 3.9 1.8 3.9 4c0 1.1-0.4 2.1-1.1 2.8" />
	</g>
	<g id="Layer">
		<path id="Layer" class="s3" d="m-30.6 436c-1.3 0-2.5-0.5-3.4-1.4c-0.9-0.9-1.5-2.2-1.5-3.5c0-1.3 0.6-2.5 1.5-3.4c0.9-0.9 2.1-1.4 3.4-1.4c1.3 0 2.5 0.5 3.4 1.4c0.9 0.9 1.4 2.1 1.4 3.4c0 1.3-0.5 2.6-1.4 3.5c-0.9 0.9-2.1 1.4-3.4 1.4z" />
		<path id="Layer" class="s4" d="m-33.4 428.2c0.7-0.7 1.6-1.1 2.7-1.1c2.2 0 3.9 1.8 3.9 4c0 1.1-0.4 2.1-1.1 2.9" />
	</g>
	<path id="Layer" class="s0" d="m-76.5 393.1v-110.4q0-1 0.4-1.9q0.4-1 1.1-1.7q0.7-0.7 1.6-1q0.9-0.4 1.9-0.4h52.2q1 0 1.9 0.4q0.9 0.3 1.6 1q0.7 0.7 1.1 1.7q0.4 0.9 0.4 1.9v110.4q0 1-0.4 1.9q-0.4 0.9-1.1 1.6q-0.7 0.7-1.6 1.1q-0.9 0.4-1.9 0.4h-52.2q-1 0-1.9-0.4q-0.9-0.4-1.6-1.1q-0.7-0.7-1.1-1.6q-0.4-0.9-0.4-1.9z" />
	<path id="Layer" class="s0" d="m-70.4 391.6v-50h50v50z" />
	<path id="Layer" class="s0" d="m-70.4 334v-50h50v50z" />
	<g id="Layer">
		<path id="Layer" class="s1" d="m-69.9 338.9h47.6" />
		<path id="Layer" class="s2" d="m-69.9 336.9h47.6" />
	</g>
	<g id="Layer">
		<path id="Layer" class="s3" d="m-45.6 374.7c-1.3 0-2.5-0.6-3.4-1.5c-0.9-0.9-1.5-2.1-1.5-3.4c0-1.3 0.6-2.5 1.5-3.4c0.9-0.9 2.1-1.4 3.4-1.4c1.3 0 2.5 0.5 3.4 1.4c0.9 0.9 1.4 2.1 1.4 3.4c0 1.3-0.5 2.5-1.4 3.4c-0.9 0.9-2.1 1.5-3.4 1.5z" />
		<path id="Layer" class="s4" d="m-48.4 366.9c0.7-0.7 1.6-1.1 2.7-1.1c2.2 0 3.9 1.8 3.9 4c0 1.1-0.4 2.1-1.1 2.8" />
	</g>
	<g id="Layer">
		<path id="Layer" class="s3" d="m-60.6 328.3c-1.3 0-2.5-0.6-3.4-1.5c-0.9-0.9-1.5-2.1-1.5-3.4c0-1.3 0.6-2.5 1.5-3.4c0.9-0.9 2.1-1.4 3.4-1.4c1.3 0 2.5 0.5 3.4 1.4c0.9 0.9 1.4 2.1 1.4 3.4c0 1.3-0.5 2.5-1.4 3.4c-0.9 0.9-2.1 1.5-3.4 1.5z" />
		<path id="Layer" class="s4" d="m-63.4 320.5c0.7-0.7 1.6-1.1 2.7-1.1c2.2 0 3.9 1.8 3.9 4c0 1.1-0.4 2.1-1.1 2.8" />
	</g>
	<g id="Layer">
		<path id="Layer" class="s3" d="m-60.6 297.9c-1.3 0-2.5-0.5-3.4-1.5c-0.9-0.9-1.5-2.1-1.5-3.4c0-1.3 0.6-2.5 1.5-3.4c0.9-0.9 2.1-1.4 3.4-1.4c1.3 0 2.5 0.5 3.4 1.4c0.9 0.9 1.4 2.1 1.4 3.4c0 1.3-0.5 2.5-1.4 3.4c-0.9 1-2.1 1.5-3.4 1.5z" />
		<path id="Layer" class="s4" d="m-63.4 290.1c0.7-0.7 1.6-1.1 2.7-1.1c2.2 0 3.9 1.8 3.9 4c0 1.1-0.4 2.1-1.1 2.8" />
	</g>
	<g id="Layer">
		<path id="Layer" class="s3" d="m-30.6 328.3c-1.3 0-2.5-0.6-3.4-1.5c-0.9-0.9-1.5-2.1-1.5-3.4c0-1.3 0.6-2.5 1.5-3.4c0.9-0.9 2.1-1.4 3.4-1.4c1.3 0 2.5 0.5 3.4 1.4c0.9 0.9 1.4 2.1 1.4 3.4c0 1.3-0.5 2.5-1.4 3.4c-0.9 0.9-2.1 1.5-3.4 1.5z" />
		<path id="Layer" class="s4" d="m-33.4 320.5c0.7-0.7 1.6-1.1 2.7-1.1c2.2 0 3.9 1.8 3.9 4c0 1.1-0.4 2.1-1.1 2.8" />
	</g>
	<g id="Layer">
		<path id="Layer" class="s3" d="m-30.6 297.9c-1.3 0-2.5-0.5-3.4-1.5c-0.9-0.9-1.5-2.1-1.5-3.4c0-1.3 0.6-2.5 1.5-3.4c0.9-0.9 2.1-1.4 3.4-1.4c1.3 0 2.5 0.5 3.4 1.4c0.9 0.9 1.4 2.1 1.4 3.4c0 1.3-0.5 2.5-1.4 3.4c-0.9 1-2.1 1.5-3.4 1.5z" />
		<path id="Layer" class="s4" d="m-33.4 290.1c0.7-0.7 1.6-1.1 2.7-1.1c2.2 0 3.9 1.8 3.9 4c0 1.1-0.4 2.1-1.1 2.8" />
	</g>
	<path id="Layer" class="s0" d="m-153.8 255v-110.4q0-1 0.3-2q0.4-0.9 1.1-1.6q0.7-0.7 1.6-1.1q1-0.3 2-0.3h52.1q1 0 1.9 0.3q1 0.4 1.7 1.1q0.7 0.7 1 1.6q0.4 1 0.4 2v110.4q0 1-0.4 1.9q-0.3 0.9-1 1.6q-0.7 0.7-1.7 1.1q-0.9 0.4-1.9 0.4h-52.2q-0.9 0-1.9-0.4q-0.9-0.4-1.6-1.1q-0.7-0.7-1.1-1.6q-0.3-0.9-0.3-1.9z" />
	<path id="Layer" class="s0" d="m-147.8 253.5v-50h50v50z" />
	<path id="Layer" class="s0" d="m-147.8 195.9v-50h50v50z" />
	<g id="Layer">
		<path id="Layer" class="s1" d="m-147.3 200.8l47.6-0.1" />
		<path id="Layer" class="s2" d="m-147.3 198.8l47.6-0.1" />
	</g>
	<g id="Layer">
		<path id="Layer" class="s3" d="m-138 190.1c-1.3 0-2.5-0.5-3.4-1.4c-0.9-0.9-1.4-2.1-1.4-3.4c0-1.3 0.5-2.5 1.4-3.4c0.9-1 2.1-1.5 3.4-1.5c1.3 0 2.5 0.5 3.5 1.5c0.9 0.9 1.4 2.1 1.4 3.4c0 1.3-0.5 2.5-1.4 3.4c-1 0.9-2.2 1.4-3.5 1.4z" />
		<path id="Layer" class="s4" d="m-140.8 182.4c0.7-0.7 1.7-1.1 2.7-1.1c2.2 0 4 1.8 4 4c0 1.1-0.5 2.1-1.2 2.8" />
	</g>
	<g id="Layer">
		<path id="Layer" class="s3" d="m-138 159.8c-1.3 0-2.5-0.6-3.4-1.5c-0.9-0.9-1.4-2.1-1.4-3.4c0-1.3 0.5-2.5 1.4-3.4c0.9-0.9 2.1-1.4 3.4-1.4c1.3 0 2.5 0.5 3.5 1.4c0.9 0.9 1.4 2.1 1.4 3.4c0 1.3-0.5 2.5-1.4 3.4c-1 0.9-2.2 1.5-3.5 1.5z" />
		<path id="Layer" class="s4" d="m-140.8 152c0.7-0.7 1.7-1.1 2.7-1.1c2.2 0 4 1.8 4 4c0 1.1-0.5 2.1-1.2 2.8" />
	</g>
	<g id="Layer">
		<path id="Layer" class="s3" d="m-138 174.9c-1.3 0-2.5-0.5-3.4-1.4c-0.9-0.9-1.4-2.1-1.4-3.4c0-1.3 0.5-2.5 1.4-3.4c0.9-0.9 2.1-1.5 3.4-1.5c1.3 0 2.5 0.6 3.5 1.5c0.9 0.9 1.4 2.1 1.4 3.4c0 1.3-0.5 2.5-1.4 3.4c-1 0.9-2.2 1.4-3.5 1.4z" />
		<path id="Layer" class="s4" d="m-140.8 167.2c0.7-0.7 1.7-1.1 2.7-1.1c2.2 0 4 1.8 4 4c0 1.1-0.5 2.1-1.2 2.8" />
	</g>
	<g id="Layer">
		<path id="Layer" class="s3" d="m-108 190.1c-1.3 0-2.5-0.5-3.4-1.4c-0.9-0.9-1.4-2.1-1.4-3.4c0-1.3 0.5-2.5 1.4-3.4c0.9-1 2.1-1.5 3.4-1.5c1.3 0 2.5 0.5 3.5 1.5c0.9 0.9 1.4 2.1 1.4 3.4c0 1.3-0.5 2.5-1.4 3.4c-1 0.9-2.2 1.4-3.5 1.4z" />
		<path id="Layer" class="s4" d="m-110.8 182.4c0.7-0.7 1.7-1.1 2.7-1.1c2.2 0 4 1.8 4 4c0 1.1-0.5 2.1-1.2 2.8" />
	</g>
	<g id="Layer">
		<path id="Layer" class="s3" d="m-108 159.8c-1.3 0-2.5-0.6-3.4-1.5c-0.9-0.9-1.4-2.1-1.4-3.4c0-1.3 0.5-2.5 1.4-3.4c0.9-0.9 2.1-1.4 3.4-1.4c1.3 0 2.5 0.5 3.5 1.4c0.9 0.9 1.4 2.1 1.4 3.4c0 1.3-0.5 2.5-1.4 3.4c-1 0.9-2.2 1.5-3.5 1.5z" />
		<path id="Layer" class="s4" d="m-110.8 152c0.7-0.7 1.7-1.1 2.7-1.1c2.2 0 4 1.8 4 4c0 1.1-0.5 2.1-1.2 2.8" />
	</g>
	<g id="Layer">
		<path id="Layer" class="s3" d="m-108 174.9c-1.3 0-2.5-0.5-3.4-1.4c-0.9-0.9-1.4-2.1-1.4-3.4c0-1.3 0.5-2.5 1.4-3.4c0.9-0.9 2.1-1.5 3.4-1.5c1.3 0 2.5 0.6 3.5 1.5c0.9 0.9 1.4 2.1 1.4 3.4c0 1.3-0.5 2.5-1.4 3.4c-1 0.9-2.2 1.4-3.5 1.4z" />
		<path id="Layer" class="s4" d="m-110.8 167.2c0.7-0.7 1.7-1.1 2.7-1.1c2.2 0 4 1.8 4 4c0 1.1-0.5 2.1-1.2 2.8" />
	</g>
	<path id="Layer" class="s0" d="m-231.2 255v-110.4q0-1 0.4-2q0.3-0.9 1-1.6q0.7-0.7 1.7-1.1q0.9-0.3 1.9-0.3h52.1q1 0 2 0.3q0.9 0.4 1.6 1.1q0.7 0.7 1.1 1.6q0.3 1 0.3 2v110.4q0 1-0.3 1.9q-0.4 0.9-1.1 1.6q-0.7 0.7-1.6 1.1q-1 0.4-2 0.4h-52.1q-1 0-1.9-0.4q-1-0.4-1.7-1.1q-0.7-0.7-1-1.6q-0.4-0.9-0.4-1.9z" />
	<path id="Layer" class="s0" d="m-225.1 253.5v-50h50v50z" />
	<path id="Layer" class="s0" d="m-225.1 195.9v-50h50v50z" />
	<g id="Layer">
		<path id="Layer" class="s1" d="m-224.7 200.8l47.7-0.1" />
		<path id="Layer" class="s2" d="m-224.7 198.8l47.7-0.1" />
	</g>
	<g id="Layer">
		<path id="Layer" class="s3" d="m-215.4 190.1c-1.2 0-2.5-0.5-3.4-1.4c-0.9-0.9-1.4-2.1-1.4-3.4c0-1.3 0.5-2.5 1.4-3.4c0.9-1 2.2-1.5 3.4-1.5c1.3 0 2.6 0.5 3.5 1.5c0.9 0.9 1.4 2.1 1.4 3.4c0 1.3-0.5 2.5-1.4 3.4c-0.9 0.9-2.2 1.4-3.5 1.4z" />
		<path id="Layer" class="s4" d="m-218.2 182.4c0.7-0.7 1.7-1.1 2.7-1.1c2.2 0 4 1.8 4 4c0 1.1-0.5 2.1-1.2 2.8" />
	</g>
	<g id="Layer">
		<path id="Layer" class="s3" d="m-185.4 159.8c-1.2 0-2.5-0.6-3.4-1.5c-0.9-0.9-1.4-2.1-1.4-3.4c0-1.3 0.5-2.5 1.4-3.4c0.9-0.9 2.2-1.4 3.4-1.4c1.3 0 2.6 0.5 3.5 1.4c0.9 0.9 1.4 2.1 1.4 3.4c0 1.3-0.5 2.5-1.4 3.4c-0.9 0.9-2.2 1.5-3.5 1.5z" />
		<path id="Layer" class="s4" d="m-188.2 152c0.7-0.7 1.7-1.1 2.7-1.1c2.2 0 4 1.8 4 4c0 1.1-0.5 2.1-1.2 2.8" />
	</g>
	<path id="Layer" class="s0" d="m-231.2 116.9v-110.4q0-1 0.4-2q0.3-0.9 1-1.6q0.7-0.7 1.7-1.1q0.9-0.3 1.9-0.3h52.1q1 0 2 0.3q0.9 0.4 1.6 1.1q0.7 0.7 1.1 1.6q0.3 1 0.3 2v110.4q0 1-0.3 1.9q-0.4 0.9-1.1 1.6q-0.7 0.7-1.6 1.1q-1 0.4-2 0.4h-52.1q-1 0-1.9-0.4q-1-0.4-1.7-1.1q-0.7-0.7-1-1.6q-0.4-0.9-0.4-1.9z" />
	<path id="Layer" class="s0" d="m-225.1 115.4v-50h50v50z" />
	<path id="Layer" class="s0" d="m-225.1 57.8v-50h50v50z" />
	<g id="Layer">
		<path id="Layer" class="s1" d="m-224.7 62.6h47.7" />
		<path id="Layer" class="s2" d="m-224.7 60.6h47.7" />
	</g>
	<g id="Layer">
		<path id="Layer" class="s3" d="m-215.4 52c-1.2 0-2.5-0.5-3.4-1.4c-0.9-0.9-1.4-2.1-1.4-3.4c0-1.3 0.5-2.5 1.4-3.4c0.9-1 2.2-1.5 3.4-1.5c1.3 0 2.6 0.5 3.5 1.5c0.9 0.9 1.4 2.1 1.4 3.4c0 1.3-0.5 2.5-1.4 3.4c-0.9 0.9-2.2 1.4-3.5 1.4z" />
		<path id="Layer" class="s4" d="m-218.2 44.3c0.7-0.7 1.7-1.1 2.7-1.1c2.2 0 4 1.8 4 4c0 1.1-0.5 2.1-1.2 2.8" />
	</g>
	<g id="Layer">
		<path id="Layer" class="s3" d="m-200.4 36.8c-1.2 0-2.5-0.5-3.4-1.4c-0.9-0.9-1.4-2.1-1.4-3.4c0-1.3 0.5-2.5 1.4-3.4c0.9-1 2.2-1.5 3.4-1.5c1.3 0 2.6 0.5 3.5 1.5c0.9 0.9 1.4 2.1 1.4 3.4c0 1.3-0.5 2.5-1.4 3.4c-0.9 0.9-2.2 1.4-3.5 1.4z" />
		<path id="Layer" class="s4" d="m-203.2 29.1c0.7-0.7 1.7-1.1 2.7-1.1c2.2 0 4 1.8 4 4c0 1.1-0.5 2.1-1.2 2.8" />
	</g>
	<g id="Layer">
		<path id="Layer" class="s3" d="m-185.4 21.6c-1.2 0-2.5-0.5-3.4-1.4c-0.9-0.9-1.4-2.1-1.4-3.4c0-1.3 0.5-2.5 1.4-3.4c0.9-1 2.2-1.5 3.4-1.5c1.3 0 2.6 0.5 3.5 1.5c0.9 0.9 1.4 2.1 1.4 3.4c0 1.3-0.5 2.5-1.4 3.4c-0.9 0.9-2.2 1.4-3.5 1.4z" />
		<path id="Layer" class="s4" d="m-188.2 13.9c0.7-0.7 1.7-1.1 2.7-1.1c2.2 0 4 1.8 4 4c0 1.1-0.5 2.1-1.2 2.8" />
	</g>
	<path id="Layer" class="s0" d="m-153.8 116.9v-110.4q0-1 0.3-2q0.4-0.9 1.1-1.6q0.7-0.7 1.6-1.1q1-0.3 2-0.3h52.1q1 0 1.9 0.3q1 0.4 1.7 1.1q0.7 0.7 1 1.6q0.4 1 0.4 2v110.4q0 1-0.4 1.9q-0.3 0.9-1 1.6q-0.7 0.7-1.7 1.1q-0.9 0.4-1.9 0.4h-52.1q-1 0-2-0.4q-0.9-0.4-1.6-1.1q-0.7-0.7-1.1-1.6q-0.3-0.9-0.3-1.9z" />
	<path id="Layer" class="s0" d="m-147.8 115.4v-50h50v50z" />
	<path id="Layer" class="s0" d="m-147.8 57.8v-50h50v50z" />
	<g id="Layer">
		<path id="Layer" class="s1" d="m-147.3 62.6h47.6" />
		<path id="Layer" class="s2" d="m-147.3 60.6h47.6" />
	</g>
	<g id="Layer">
		<path id="Layer" class="s3" d="m-123 98.4c-1.3 0-2.5-0.5-3.4-1.4c-0.9-0.9-1.4-2.1-1.4-3.4c0-1.3 0.5-2.5 1.4-3.4c0.9-1 2.1-1.5 3.4-1.5c1.3 0 2.5 0.5 3.5 1.5c0.9 0.9 1.4 2.1 1.4 3.4c0 1.3-0.5 2.5-1.4 3.4c-1 0.9-2.2 1.4-3.5 1.4z" />
		<path id="Layer" class="s4" d="m-125.8 90.7c0.7-0.7 1.7-1.1 2.7-1.1c2.2 0 4 1.8 4 4c0 1.1-0.5 2.1-1.2 2.8" />
	</g>
	<g id="Layer">
		<path id="Layer" class="s3" d="m-138 52c-1.3 0-2.5-0.5-3.4-1.4c-0.9-0.9-1.4-2.1-1.4-3.4c0-1.3 0.5-2.5 1.4-3.4c0.9-1 2.1-1.5 3.4-1.5c1.3 0 2.5 0.5 3.5 1.5c0.9 0.9 1.4 2.1 1.4 3.4c0 1.3-0.5 2.5-1.4 3.4c-1 0.9-2.2 1.4-3.5 1.4z" />
		<path id="Layer" class="s4" d="m-140.8 44.3c0.7-0.7 1.7-1.1 2.7-1.1c2.2 0 4 1.8 4 4c0 1.1-0.5 2.1-1.2 2.8" />
	</g>
	<g id="Layer">
		<path id="Layer" class="s3" d="m-108 21.6c-1.3 0-2.5-0.5-3.4-1.4c-0.9-0.9-1.4-2.1-1.4-3.4c0-1.3 0.5-2.5 1.4-3.4c0.9-1 2.1-1.5 3.4-1.5c1.3 0 2.5 0.5 3.5 1.5c0.9 0.9 1.4 2.1 1.4 3.4c0 1.3-0.5 2.5-1.4 3.4c-1 0.9-2.2 1.4-3.5 1.4z" />
		<path id="Layer" class="s4" d="m-110.8 13.9c0.7-0.7 1.7-1.1 2.7-1.1c2.2 0 4 1.8 4 4c0 1.1-0.5 2.1-1.2 2.8" />
	</g>
	<path id="Layer" class="s0" d="m-76.5 255v-110.4q0-1 0.4-2q0.4-0.9 1.1-1.6q0.7-0.7 1.6-1.1q0.9-0.3 1.9-0.3h52.2q1 0 1.9 0.3q0.9 0.4 1.6 1.1q0.7 0.7 1.1 1.6q0.4 1 0.4 2v110.4q0 1-0.4 1.9q-0.4 0.9-1.1 1.6q-0.7 0.7-1.6 1.1q-0.9 0.4-1.9 0.4h-52.2q-1 0-1.9-0.4q-0.9-0.4-1.6-1.1q-0.7-0.7-1.1-1.6q-0.4-0.9-0.4-1.9z" />
	<path id="Layer" class="s0" d="m-70.4 253.5v-50h50v50z" />
	<path id="Layer" class="s0" d="m-70.4 195.9v-50h50v50z" />
	<g id="Layer">
		<path id="Layer" class="s1" d="m-69.9 200.8l47.6-0.1" />
		<path id="Layer" class="s2" d="m-69.9 198.8l47.6-0.1" />
	</g>
	<g id="Layer">
		<path id="Layer" class="s3" d="m-45.6 236.5c-1.3 0-2.5-0.5-3.4-1.4c-0.9-0.9-1.5-2.1-1.5-3.4c0-1.3 0.6-2.5 1.5-3.4c0.9-0.9 2.1-1.5 3.4-1.5c1.3 0 2.5 0.6 3.4 1.5c0.9 0.9 1.4 2.1 1.4 3.4c0 1.3-0.5 2.5-1.4 3.4c-0.9 0.9-2.1 1.4-3.4 1.4z" />
		<path id="Layer" class="s4" d="m-48.4 228.8c0.7-0.7 1.6-1.1 2.7-1.1c2.2 0 3.9 1.8 3.9 4c0 1.1-0.4 2.1-1.1 2.8" />
	</g>
	<g id="Layer">
		<path id="Layer" class="s3" d="m-60.6 190.1c-1.3 0-2.5-0.5-3.4-1.4c-0.9-0.9-1.5-2.1-1.5-3.4c0-1.3 0.6-2.5 1.5-3.4c0.9-1 2.1-1.5 3.4-1.5c1.3 0 2.5 0.5 3.4 1.5c0.9 0.9 1.4 2.1 1.4 3.4c0 1.3-0.5 2.5-1.4 3.4c-0.9 0.9-2.1 1.4-3.4 1.4z" />
		<path id="Layer" class="s4" d="m-63.4 182.4c0.7-0.7 1.6-1.1 2.7-1.1c2.2 0 3.9 1.8 3.9 4c0 1.1-0.4 2.1-1.1 2.8" />
	</g>
	<g id="Layer">
		<path id="Layer" class="s3" d="m-45.6 174.9c-1.3 0-2.5-0.5-3.4-1.4c-0.9-0.9-1.5-2.1-1.5-3.4c0-1.3 0.6-2.5 1.5-3.4c0.9-0.9 2.1-1.5 3.4-1.5c1.3 0 2.5 0.6 3.4 1.5c0.9 0.9 1.4 2.1 1.4 3.4c0 1.3-0.5 2.5-1.4 3.4c-0.9 0.9-2.1 1.4-3.4 1.4z" />
		<path id="Layer" class="s4" d="m-48.4 167.2c0.7-0.7 1.6-1.1 2.7-1.1c2.2 0 3.9 1.8 3.9 4c0 1.1-0.4 2.1-1.1 2.8" />
	</g>
	<g id="Layer">
		<path id="Layer" class="s3" d="m-60.6 159.8c-1.3 0-2.5-0.6-3.4-1.5c-0.9-0.9-1.5-2.1-1.5-3.4c0-1.3 0.6-2.5 1.5-3.4c0.9-0.9 2.1-1.4 3.4-1.4c1.3 0 2.5 0.5 3.4 1.4c0.9 0.9 1.4 2.1 1.4 3.4c0 1.3-0.5 2.5-1.4 3.4c-0.9 0.9-2.1 1.5-3.4 1.5z" />
		<path id="Layer" class="s4" d="m-63.4 152c0.7-0.7 1.6-1.1 2.7-1.1c2.2 0 3.9 1.8 3.9 4c0 1.1-0.4 2.1-1.1 2.8" />
	</g>
	<g id="Layer">
		<path id="Layer" class="s3" d="m-30.6 190.1c-1.3 0-2.5-0.5-3.4-1.4c-0.9-0.9-1.5-2.1-1.5-3.4c0-1.3 0.6-2.5 1.5-3.4c0.9-1 2.1-1.5 3.4-1.5c1.3 0 2.5 0.5 3.4 1.5c0.9 0.9 1.4 2.1 1.4 3.4c0 1.3-0.5 2.5-1.4 3.4c-0.9 0.9-2.1 1.4-3.4 1.4z" />
		<path id="Layer" class="s4" d="m-33.4 182.4c0.7-0.7 1.6-1.1 2.7-1.1c2.2 0 3.9 1.8 3.9 4c0 1.1-0.4 2.1-1.1 2.8" />
	</g>
	<g id="Layer">
		<path id="Layer" class="s3" d="m-30.6 159.8c-1.3 0-2.5-0.6-3.4-1.5c-0.9-0.9-1.5-2.1-1.5-3.4c0-1.3 0.6-2.5 1.5-3.4c0.9-0.9 2.1-1.4 3.4-1.4c1.3 0 2.5 0.5 3.4 1.4c0.9 0.9 1.4 2.1 1.4 3.4c0 1.3-0.5 2.5-1.4 3.4c-0.9 0.9-2.1 1.5-3.4 1.5z" />
		<path id="Layer" class="s4" d="m-33.4 152c0.7-0.7 1.6-1.1 2.7-1.1c2.2 0 3.9 1.8 3.9 4c0 1.1-0.4 2.1-1.1 2.8" />
	</g>
	<path id="Layer" class="s0" d="m-76.5 116.9v-110.4q0-1 0.4-2q0.4-0.9 1.1-1.6q0.7-0.7 1.6-1.1q0.9-0.3 1.9-0.3h52.2q1 0 1.9 0.3q0.9 0.4 1.6 1.1q0.7 0.7 1.1 1.6q0.4 1 0.4 2v110.4q0 1-0.4 1.9q-0.4 0.9-1.1 1.6q-0.7 0.7-1.6 1.1q-0.9 0.4-1.9 0.4h-52.2q-1 0-1.9-0.4q-0.9-0.4-1.6-1.1q-0.7-0.7-1.1-1.6q-0.4-0.9-0.4-1.9z" />
	<path id="Layer" class="s0" d="m-70.4 115.4v-50h50v50z" />
	<path id="Layer" class="s0" d="m-70.4 57.8v-50h50v50z" />
	<g id="Layer">
		<path id="Layer" class="s1" d="m-69.9 62.6h47.6" />
		<path id="Layer" class="s2" d="m-69.9 60.6h47.6" />
	</g>
	<g id="Layer">
		<path id="Layer" class="s3" d="m-45.6 98.4c-1.3 0-2.5-0.5-3.4-1.4c-0.9-0.9-1.5-2.1-1.5-3.4c0-1.3 0.6-2.5 1.5-3.4c0.9-1 2.1-1.5 3.4-1.5c1.3 0 2.5 0.5 3.4 1.5c0.9 0.9 1.4 2.1 1.4 3.4c0 1.3-0.5 2.5-1.4 3.4c-0.9 0.9-2.1 1.4-3.4 1.4z" />
		<path id="Layer" class="s4" d="m-48.4 90.7c0.7-0.7 1.6-1.1 2.7-1.1c2.2 0 3.9 1.8 3.9 4c0 1.1-0.4 2.1-1.1 2.8" />
	</g>
	<g id="Layer">
		<path id="Layer" class="s3" d="m-60.6 52c-1.3 0-2.5-0.5-3.4-1.4c-0.9-0.9-1.5-2.1-1.5-3.4c0-1.3 0.6-2.5 1.5-3.4c0.9-1 2.1-1.5 3.4-1.5c1.3 0 2.5 0.5 3.4 1.5c0.9 0.9 1.4 2.1 1.4 3.4c0 1.3-0.5 2.5-1.4 3.4c-0.9 0.9-2.1 1.4-3.4 1.4z" />
		<path id="Layer" class="s4" d="m-63.4 44.3c0.7-0.7 1.6-1.1 2.7-1.1c2.2 0 3.9 1.8 3.9 4c0 1.1-0.4 2.1-1.1 2.8" />
	</g>
	<g id="Layer">
		<path id="Layer" class="s3" d="m-60.6 21.6c-1.3 0-2.5-0.5-3.4-1.4c-0.9-0.9-1.5-2.1-1.5-3.4c0-1.3 0.6-2.5 1.5-3.4c0.9-1 2.1-1.5 3.4-1.5c1.3 0 2.5 0.5 3.4 1.5c0.9 0.9 1.4 2.1 1.4 3.4c0 1.3-0.5 2.5-1.4 3.4c-0.9 0.9-2.1 1.4-3.4 1.4z" />
		<path id="Layer" class="s4" d="m-63.4 13.9c0.7-0.7 1.6-1.1 2.7-1.1c2.2 0 3.9 1.8 3.9 4c0 1.1-0.4 2.1-1.1 2.8" />
	</g>
	<g id="Layer">
		<path id="Layer" class="s3" d="m-60.6 36.8c-1.3 0-2.5-0.5-3.4-1.4c-0.9-0.9-1.5-2.1-1.5-3.4c0-1.3 0.6-2.5 1.5-3.4c0.9-1 2.1-1.5 3.4-1.5c1.3 0 2.5 0.5 3.4 1.5c0.9 0.9 1.4 2.1 1.4 3.4c0 1.3-0.5 2.5-1.4 3.4c-0.9 0.9-2.1 1.4-3.4 1.4z" />
		<path id="Layer" class="s4" d="m-63.4 29.1c0.7-0.7 1.6-1.1 2.7-1.1c2.2 0 3.9 1.8 3.9 4c0 1.1-0.4 2.1-1.1 2.8" />
	</g>
	<g id="Layer">
		<path id="Layer" class="s3" d="m-30.6 52c-1.3 0-2.5-0.5-3.4-1.4c-0.9-0.9-1.5-2.1-1.5-3.4c0-1.3 0.6-2.5 1.5-3.4c0.9-1 2.1-1.5 3.4-1.5c1.3 0 2.5 0.5 3.4 1.5c0.9 0.9 1.4 2.1 1.4 3.4c0 1.3-0.5 2.5-1.4 3.4c-0.9 0.9-2.1 1.4-3.4 1.4z" />
		<path id="Layer" class="s4" d="m-33.4 44.3c0.7-0.7 1.6-1.1 2.7-1.1c2.2 0 3.9 1.8 3.9 4c0 1.1-0.4 2.1-1.1 2.8" />
	</g>
	<g id="Layer">
		<path id="Layer" class="s3" d="m-30.6 21.6c-1.3 0-2.5-0.5-3.4-1.4c-0.9-0.9-1.5-2.1-1.5-3.4c0-1.3 0.6-2.5 1.5-3.4c0.9-1 2.1-1.5 3.4-1.5c1.3 0 2.5 0.5 3.4 1.5c0.9 0.9 1.4 2.1 1.4 3.4c0 1.3-0.5 2.5-1.4 3.4c-0.9 0.9-2.1 1.4-3.4 1.4z" />
		<path id="Layer" class="s4" d="m-33.4 13.9c0.7-0.7 1.6-1.1 2.7-1.1c2.2 0 3.9 1.8 3.9 4c0 1.1-0.4 2.1-1.1 2.8" />
	</g>
	<g id="Layer">
		<path id="Layer" class="s3" d="m-30.6 36.8c-1.3 0-2.5-0.5-3.4-1.4c-0.9-0.9-1.5-2.1-1.5-3.4c0-1.3 0.6-2.5 1.5-3.4c0.9-1 2.1-1.5 3.4-1.5c1.3 0 2.5 0.5 3.4 1.5c0.9 0.9 1.4 2.1 1.4 3.4c0 1.3-0.5 2.5-1.4 3.4c-0.9 0.9-2.1 1.4-3.4 1.4z" />
		<path id="Layer" class="s4" d="m-33.4 29.1c0.7-0.7 1.6-1.1 2.7-1.1c2.2 0 3.9 1.8 3.9 4c0 1.1-0.4 2.1-1.1 2.8" />
	</g>
	<path id="Layer" class="s0" d="m0.9 531.2v-110.4q0-1 0.4-1.9q0.4-0.9 1.1-1.6q0.7-0.7 1.6-1.1q0.9-0.4 1.9-0.4h52.2q1 0 1.9 0.4q0.9 0.4 1.6 1.1q0.7 0.7 1.1 1.6q0.4 0.9 0.4 1.9v110.4q0 1-0.4 1.9q-0.4 0.9-1.1 1.6q-0.7 0.7-1.6 1.1q-0.9 0.4-1.9 0.4h-52.2q-1 0-1.9-0.4q-0.9-0.4-1.6-1.1q-0.7-0.7-1.1-1.6q-0.4-0.9-0.4-1.9z" />
	<path id="Layer" class="s0" d="m7 529.7v-50h50v50z" />
	<path id="Layer" class="s0" d="m7 472.2v-50h50v50z" />
	<g id="Layer">
		<path id="Layer" class="s1" d="m7.4 477h47.7" />
		<path id="Layer" class="s2" d="m7.4 475h47.7" />
	</g>
	<g id="Layer">
		<path id="Layer" class="s3" d="m16.8 528c-1.3 0-2.5-0.5-3.5-1.5c-0.9-0.9-1.4-2.1-1.4-3.4c0-1.3 0.5-2.5 1.4-3.4c1-0.9 2.2-1.4 3.5-1.4c1.3 0 2.5 0.5 3.4 1.4c0.9 0.9 1.4 2.1 1.4 3.4c0 1.3-0.5 2.5-1.4 3.4c-0.9 1-2.1 1.5-3.4 1.5z" />
		<path id="Layer" class="s4" d="m13.9 520.2c0.7-0.7 1.7-1.1 2.8-1.1c2.1 0 3.9 1.8 3.9 4c0 1.1-0.4 2.1-1.1 2.8" />
	</g>
	<g id="Layer">
		<path id="Layer" class="s3" d="m46.8 497.6c-1.3 0-2.5-0.5-3.5-1.4c-0.9-1-1.4-2.2-1.4-3.5c0-1.3 0.5-2.5 1.4-3.4c1-0.9 2.2-1.4 3.5-1.4c1.3 0 2.5 0.5 3.4 1.4c0.9 0.9 1.4 2.1 1.4 3.4c0 1.3-0.5 2.5-1.4 3.5c-0.9 0.9-2.1 1.4-3.4 1.4z" />
		<path id="Layer" class="s4" d="m43.9 489.8c0.7-0.7 1.7-1.1 2.8-1.1c2.1 0 3.9 1.8 3.9 4c0 1.1-0.4 2.1-1.1 2.8" />
	</g>
	<g id="Layer">
		<path id="Layer" class="s3" d="m16.8 466.4c-1.3 0-2.5-0.5-3.5-1.5c-0.9-0.9-1.4-2.1-1.4-3.4c0-1.3 0.5-2.5 1.4-3.4c1-0.9 2.2-1.4 3.5-1.4c1.3 0 2.5 0.5 3.4 1.4c0.9 0.9 1.4 2.1 1.4 3.4c0 1.3-0.5 2.5-1.4 3.4c-0.9 1-2.1 1.5-3.4 1.5z" />
		<path id="Layer" class="s4" d="m13.9 458.6c0.7-0.7 1.7-1.1 2.8-1.1c2.1 0 3.9 1.8 3.9 4c0 1.1-0.4 2.1-1.1 2.8" />
	</g>
	<g id="Layer">
		<path id="Layer" class="s3" d="m31.8 451.2c-1.3 0-2.5-0.5-3.5-1.4c-0.9-1-1.4-2.2-1.4-3.5c0-1.3 0.5-2.5 1.4-3.4c1-0.9 2.2-1.4 3.5-1.4c1.3 0 2.5 0.5 3.4 1.4c0.9 0.9 1.4 2.1 1.4 3.4c0 1.3-0.5 2.5-1.4 3.5c-0.9 0.9-2.1 1.4-3.4 1.4z" />
		<path id="Layer" class="s4" d="m28.9 443.4c0.7-0.7 1.7-1.1 2.8-1.1c2.1 0 3.9 1.8 3.9 4c0 1.1-0.4 2.1-1.1 2.8" />
	</g>
	<g id="Layer">
		<path id="Layer" class="s3" d="m46.8 436c-1.3 0-2.5-0.5-3.5-1.4c-0.9-0.9-1.4-2.2-1.4-3.5c0-1.3 0.5-2.5 1.4-3.4c1-0.9 2.2-1.4 3.5-1.4c1.3 0 2.5 0.5 3.4 1.4c0.9 0.9 1.4 2.1 1.4 3.4c0 1.3-0.5 2.6-1.4 3.5c-0.9 0.9-2.1 1.4-3.4 1.4z" />
		<path id="Layer" class="s4" d="m43.9 428.2c0.7-0.7 1.7-1.1 2.8-1.1c2.1 0 3.9 1.8 3.9 4c0 1.1-0.4 2.1-1.1 2.9" />
	</g>
	<path id="Layer" class="s0" d="m0.9 393.1v-110.4q0-1 0.4-1.9q0.4-1 1.1-1.7q0.7-0.7 1.6-1q0.9-0.4 1.9-0.4h52.2q1 0 1.9 0.4q0.9 0.3 1.6 1q0.7 0.7 1.1 1.7q0.4 0.9 0.4 1.9v110.4q0 1-0.4 1.9q-0.4 0.9-1.1 1.6q-0.7 0.7-1.6 1.1q-0.9 0.4-1.9 0.4h-52.2q-1 0-1.9-0.4q-0.9-0.4-1.6-1.1q-0.7-0.7-1.1-1.6q-0.4-0.9-0.4-1.9z" />
	<path id="Layer" class="s0" d="m7 391.6v-50h50v50z" />
	<path id="Layer" class="s0" d="m7 334v-50h50v50z" />
	<g id="Layer">
		<path id="Layer" class="s1" d="m7.4 338.9h47.7" />
		<path id="Layer" class="s2" d="m7.4 336.9h47.7" />
	</g>
	<g id="Layer">
		<path id="Layer" class="s3" d="m16.8 389.8c-1.3 0-2.5-0.5-3.5-1.4c-0.9-0.9-1.4-2.1-1.4-3.4c0-1.3 0.5-2.5 1.4-3.4c1-0.9 2.2-1.5 3.5-1.5c1.3 0 2.5 0.6 3.4 1.5c0.9 0.9 1.4 2.1 1.4 3.4c0 1.3-0.5 2.5-1.4 3.4c-0.9 0.9-2.1 1.4-3.4 1.4z" />
		<path id="Layer" class="s4" d="m13.9 382.1c0.7-0.7 1.7-1.1 2.8-1.1c2.1 0 3.9 1.8 3.9 4c0 1.1-0.4 2.1-1.1 2.8" />
	</g>
	<g id="Layer">
		<path id="Layer" class="s3" d="m46.8 359.5c-1.3 0-2.5-0.5-3.5-1.5c-0.9-0.9-1.4-2.1-1.4-3.4c0-1.3 0.5-2.5 1.4-3.4c1-0.9 2.2-1.4 3.5-1.4c1.3 0 2.5 0.5 3.4 1.4c0.9 0.9 1.4 2.1 1.4 3.4c0 1.3-0.5 2.5-1.4 3.4c-0.9 1-2.1 1.5-3.4 1.5z" />
		<path id="Layer" class="s4" d="m43.9 351.7c0.7-0.7 1.7-1.1 2.8-1.1c2.1 0 3.9 1.8 3.9 4c0 1.1-0.4 2.1-1.1 2.8" />
	</g>
	<g id="Layer">
		<path id="Layer" class="s3" d="m16.8 328.3c-1.3 0-2.5-0.6-3.5-1.5c-0.9-0.9-1.4-2.1-1.4-3.4c0-1.3 0.5-2.5 1.4-3.4c1-0.9 2.2-1.4 3.5-1.4c1.3 0 2.5 0.5 3.4 1.4c0.9 0.9 1.4 2.1 1.4 3.4c0 1.3-0.5 2.5-1.4 3.4c-0.9 0.9-2.1 1.5-3.4 1.5z" />
		<path id="Layer" class="s4" d="m13.9 320.5c0.7-0.7 1.7-1.1 2.8-1.1c2.1 0 3.9 1.8 3.9 4c0 1.1-0.4 2.1-1.1 2.8" />
	</g>
	<g id="Layer">
		<path id="Layer" class="s3" d="m16.8 297.9c-1.3 0-2.5-0.5-3.5-1.5c-0.9-0.9-1.4-2.1-1.4-3.4c0-1.3 0.5-2.5 1.4-3.4c1-0.9 2.2-1.4 3.5-1.4c1.3 0 2.5 0.5 3.4 1.4c0.9 0.9 1.4 2.1 1.4 3.4c0 1.3-0.5 2.5-1.4 3.4c-0.9 1-2.1 1.5-3.4 1.5z" />
		<path id="Layer" class="s4" d="m13.9 290.1c0.7-0.7 1.7-1.1 2.8-1.1c2.1 0 3.9 1.8 3.9 4c0 1.1-0.4 2.1-1.1 2.8" />
	</g>
	<g id="Layer">
		<path id="Layer" class="s3" d="m46.8 328.3c-1.3 0-2.5-0.6-3.5-1.5c-0.9-0.9-1.4-2.1-1.4-3.4c0-1.3 0.5-2.5 1.4-3.4c1-0.9 2.2-1.4 3.5-1.4c1.3 0 2.5 0.5 3.4 1.4c0.9 0.9 1.4 2.1 1.4 3.4c0 1.3-0.5 2.5-1.4 3.4c-0.9 0.9-2.1 1.5-3.4 1.5z" />
		<path id="Layer" class="s4" d="m43.9 320.5c0.7-0.7 1.7-1.1 2.8-1.1c2.1 0 3.9 1.8 3.9 4c0 1.1-0.4 2.1-1.1 2.8" />
	</g>
	<g id="Layer">
		<path id="Layer" class="s3" d="m46.8 297.9c-1.3 0-2.5-0.5-3.5-1.5c-0.9-0.9-1.4-2.1-1.4-3.4c0-1.3 0.5-2.5 1.4-3.4c1-0.9 2.2-1.4 3.5-1.4c1.3 0 2.5 0.5 3.4 1.4c0.9 0.9 1.4 2.1 1.4 3.4c0 1.3-0.5 2.5-1.4 3.4c-0.9 1-2.1 1.5-3.4 1.5z" />
		<path id="Layer" class="s4" d="m43.9 290.1c0.7-0.7 1.7-1.1 2.8-1.1c2.1 0 3.9 1.8 3.9 4c0 1.1-0.4 2.1-1.1 2.8" />
	</g>
	<path id="Layer" class="s0" d="m78.3 531.2v-110.4q0-1 0.4-1.9q0.3-0.9 1-1.6q0.7-0.7 1.7-1.1q0.9-0.4 1.9-0.4h52.1q1 0 2 0.4q0.9 0.4 1.6 1.1q0.7 0.7 1.1 1.6q0.3 0.9 0.3 1.9v110.4q0 1-0.3 1.9q-0.4 0.9-1.1 1.6q-0.7 0.7-1.6 1.1q-1 0.4-2 0.4h-52.1q-1 0-1.9-0.4q-1-0.4-1.7-1.1q-0.7-0.7-1-1.6q-0.4-0.9-0.4-1.9z" />
	<path id="Layer" class="s0" d="m84.4 529.7v-50h50v50z" />
	<path id="Layer" class="s0" d="m84.4 472.2v-50h50v50z" />
	<g id="Layer">
		<path id="Layer" class="s1" d="m84.8 477h47.7" />
		<path id="Layer" class="s2" d="m84.8 475h47.7" />
	</g>
	<g id="Layer">
		<path id="Layer" class="s3" d="m94.2 528c-1.3 0-2.5-0.5-3.5-1.5c-0.9-0.9-1.4-2.1-1.4-3.4c0-1.3 0.5-2.5 1.4-3.4c1-0.9 2.2-1.4 3.5-1.4c1.3 0 2.5 0.5 3.4 1.4c0.9 0.9 1.4 2.1 1.4 3.4c0 1.3-0.5 2.5-1.4 3.4c-0.9 1-2.1 1.5-3.4 1.5z" />
		<path id="Layer" class="s4" d="m91.3 520.2c0.7-0.7 1.7-1.1 2.8-1.1c2.1 0 3.9 1.8 3.9 4c0 1.1-0.4 2.1-1.1 2.8" />
	</g>
	<g id="Layer">
		<path id="Layer" class="s3" d="m109.2 512.8c-1.3 0-2.5-0.5-3.5-1.5c-0.9-0.9-1.4-2.1-1.4-3.4c0-1.3 0.5-2.5 1.4-3.4c1-0.9 2.2-1.4 3.5-1.4c1.3 0 2.5 0.5 3.4 1.4c0.9 0.9 1.4 2.1 1.4 3.4c0 1.3-0.5 2.5-1.4 3.4c-0.9 1-2.1 1.5-3.4 1.5z" />
		<path id="Layer" class="s4" d="m106.3 505c0.7-0.7 1.7-1.1 2.8-1.1c2.1 0 3.9 1.8 3.9 4c0 1.1-0.4 2.1-1.1 2.8" />
	</g>
	<g id="Layer">
		<path id="Layer" class="s3" d="m124.2 497.6c-1.3 0-2.5-0.5-3.5-1.4c-0.9-1-1.4-2.2-1.4-3.5c0-1.3 0.5-2.5 1.4-3.4c1-0.9 2.2-1.4 3.5-1.4c1.3 0 2.5 0.5 3.4 1.4c0.9 0.9 1.4 2.1 1.4 3.4c0 1.3-0.5 2.5-1.4 3.5c-0.9 0.9-2.1 1.4-3.4 1.4z" />
		<path id="Layer" class="s4" d="m121.3 489.8c0.7-0.7 1.7-1.1 2.8-1.1c2.1 0 3.9 1.8 3.9 4c0 1.1-0.4 2.1-1.1 2.8" />
	</g>
	<g id="Layer">
		<path id="Layer" class="s3" d="m94.2 466.4c-1.3 0-2.5-0.5-3.5-1.5c-0.9-0.9-1.4-2.1-1.4-3.4c0-1.3 0.5-2.5 1.4-3.4c1-0.9 2.2-1.4 3.5-1.4c1.3 0 2.5 0.5 3.4 1.4c0.9 0.9 1.4 2.1 1.4 3.4c0 1.3-0.5 2.5-1.4 3.4c-0.9 1-2.1 1.5-3.4 1.5z" />
		<path id="Layer" class="s4" d="m91.3 458.6c0.7-0.7 1.7-1.1 2.8-1.1c2.1 0 3.9 1.8 3.9 4c0 1.1-0.4 2.1-1.1 2.8" />
	</g>
	<g id="Layer">
		<path id="Layer" class="s3" d="m94.2 436c-1.3 0-2.5-0.5-3.5-1.4c-0.9-0.9-1.4-2.2-1.4-3.5c0-1.3 0.5-2.5 1.4-3.4c1-0.9 2.2-1.4 3.5-1.4c1.3 0 2.5 0.5 3.4 1.4c0.9 0.9 1.4 2.1 1.4 3.4c0 1.3-0.5 2.6-1.4 3.5c-0.9 0.9-2.1 1.4-3.4 1.4z" />
		<path id="Layer" class="s4" d="m91.3 428.2c0.7-0.7 1.7-1.1 2.8-1.1c2.1 0 3.9 1.8 3.9 4c0 1.1-0.4 2.1-1.1 2.9" />
	</g>
	<g id="Layer">
		<path id="Layer" class="s3" d="m124.2 466.4c-1.3 0-2.5-0.5-3.5-1.5c-0.9-0.9-1.4-2.1-1.4-3.4c0-1.3 0.5-2.5 1.4-3.4c1-0.9 2.2-1.4 3.5-1.4c1.3 0 2.5 0.5 3.4 1.4c0.9 0.9 1.4 2.1 1.4 3.4c0 1.3-0.5 2.5-1.4 3.4c-0.9 1-2.1 1.5-3.4 1.5z" />
		<path id="Layer" class="s4" d="m121.3 458.6c0.7-0.7 1.7-1.1 2.8-1.1c2.1 0 3.9 1.8 3.9 4c0 1.1-0.4 2.1-1.1 2.8" />
	</g>
	<g id="Layer">
		<path id="Layer" class="s3" d="m124.2 436c-1.3 0-2.5-0.5-3.5-1.4c-0.9-0.9-1.4-2.2-1.4-3.5c0-1.3 0.5-2.5 1.4-3.4c1-0.9 2.2-1.4 3.5-1.4c1.3 0 2.5 0.5 3.4 1.4c0.9 0.9 1.4 2.1 1.4 3.4c0 1.3-0.5 2.6-1.4 3.5c-0.9 0.9-2.1 1.4-3.4 1.4z" />
		<path id="Layer" class="s4" d="m121.3 428.2c0.7-0.7 1.7-1.1 2.8-1.1c2.1 0 3.9 1.8 3.9 4c0 1.1-0.4 2.1-1.1 2.9" />
	</g>
	<path id="Layer" class="s0" d="m78.3 393.1v-110.4q0-1 0.4-1.9q0.3-1 1-1.7q0.7-0.7 1.7-1q0.9-0.4 1.9-0.4h52.1q1 0 2 0.4q0.9 0.3 1.6 1q0.7 0.7 1.1 1.7q0.3 0.9 0.3 1.9v110.4q0 1-0.3 1.9q-0.4 0.9-1.1 1.6q-0.7 0.7-1.6 1.1q-1 0.4-2 0.4h-52.1q-1 0-1.9-0.4q-1-0.4-1.7-1.1q-0.7-0.7-1-1.6q-0.4-0.9-0.4-1.9z" />
	<path id="Layer" class="s0" d="m84.4 391.6v-50h50v50z" />
	<path id="Layer" class="s0" d="m84.4 334v-50h50v50z" />
	<g id="Layer">
		<path id="Layer" class="s1" d="m84.8 338.9h47.7" />
		<path id="Layer" class="s2" d="m84.8 336.9h47.7" />
	</g>
	<g id="Layer">
		<path id="Layer" class="s3" d="m94.2 389.8c-1.3 0-2.5-0.5-3.5-1.4c-0.9-0.9-1.4-2.1-1.4-3.4c0-1.3 0.5-2.5 1.4-3.4c1-0.9 2.2-1.5 3.5-1.5c1.3 0 2.5 0.6 3.4 1.5c0.9 0.9 1.4 2.1 1.4 3.4c0 1.3-0.5 2.5-1.4 3.4c-0.9 0.9-2.1 1.4-3.4 1.4z" />
		<path id="Layer" class="s4" d="m91.3 382.1c0.7-0.7 1.7-1.1 2.8-1.1c2.1 0 3.9 1.8 3.9 4c0 1.1-0.4 2.1-1.1 2.8" />
	</g>
	<g id="Layer">
		<path id="Layer" class="s3" d="m109.2 374.7c-1.3 0-2.5-0.6-3.5-1.5c-0.9-0.9-1.4-2.1-1.4-3.4c0-1.3 0.5-2.5 1.4-3.4c1-0.9 2.2-1.4 3.5-1.4c1.3 0 2.5 0.5 3.4 1.4c0.9 0.9 1.4 2.1 1.4 3.4c0 1.3-0.5 2.5-1.4 3.4c-0.9 0.9-2.1 1.5-3.4 1.5z" />
		<path id="Layer" class="s4" d="m106.3 366.9c0.7-0.7 1.7-1.1 2.8-1.1c2.1 0 3.9 1.8 3.9 4c0 1.1-0.4 2.1-1.1 2.8" />
	</g>
	<g id="Layer">
		<path id="Layer" class="s3" d="m124.2 359.5c-1.3 0-2.5-0.5-3.5-1.5c-0.9-0.9-1.4-2.1-1.4-3.4c0-1.3 0.5-2.5 1.4-3.4c1-0.9 2.2-1.4 3.5-1.4c1.3 0 2.5 0.5 3.4 1.4c0.9 0.9 1.4 2.1 1.4 3.4c0 1.3-0.5 2.5-1.4 3.4c-0.9 1-2.1 1.5-3.4 1.5z" />
		<path id="Layer" class="s4" d="m121.3 351.7c0.7-0.7 1.7-1.1 2.8-1.1c2.1 0 3.9 1.8 3.9 4c0 1.1-0.4 2.1-1.1 2.8" />
	</g>
	<g id="Layer">
		<path id="Layer" class="s3" d="m94.2 328.3c-1.3 0-2.5-0.6-3.5-1.5c-0.9-0.9-1.4-2.1-1.4-3.4c0-1.3 0.5-2.5 1.4-3.4c1-0.9 2.2-1.4 3.5-1.4c1.3 0 2.5 0.5 3.4 1.4c0.9 0.9 1.4 2.1 1.4 3.4c0 1.3-0.5 2.5-1.4 3.4c-0.9 0.9-2.1 1.5-3.4 1.5z" />
		<path id="Layer" class="s4" d="m91.3 320.5c0.7-0.7 1.7-1.1 2.8-1.1c2.1 0 3.9 1.8 3.9 4c0 1.1-0.4 2.1-1.1 2.8" />
	</g>
	<g id="Layer">
		<path id="Layer" class="s3" d="m109.2 313.1c-1.3 0-2.5-0.6-3.5-1.5c-0.9-0.9-1.4-2.1-1.4-3.4c0-1.3 0.5-2.5 1.4-3.4c1-0.9 2.2-1.4 3.5-1.4c1.3 0 2.5 0.5 3.4 1.4c0.9 0.9 1.4 2.1 1.4 3.4c0 1.3-0.5 2.5-1.4 3.4c-0.9 0.9-2.1 1.5-3.4 1.5z" />
		<path id="Layer" class="s4" d="m106.3 305.3c0.7-0.7 1.7-1.1 2.8-1.1c2.1 0 3.9 1.8 3.9 4c0 1.1-0.4 2.1-1.1 2.8" />
	</g>
	<g id="Layer">
		<path id="Layer" class="s3" d="m94.2 297.9c-1.3 0-2.5-0.5-3.5-1.5c-0.9-0.9-1.4-2.1-1.4-3.4c0-1.3 0.5-2.5 1.4-3.4c1-0.9 2.2-1.4 3.5-1.4c1.3 0 2.5 0.5 3.4 1.4c0.9 0.9 1.4 2.1 1.4 3.4c0 1.3-0.5 2.5-1.4 3.4c-0.9 1-2.1 1.5-3.4 1.5z" />
		<path id="Layer" class="s4" d="m91.3 290.1c0.7-0.7 1.7-1.1 2.8-1.1c2.1 0 3.9 1.8 3.9 4c0 1.1-0.4 2.1-1.1 2.8" />
	</g>
	<g id="Layer">
		<path id="Layer" class="s3" d="m124.2 328.3c-1.3 0-2.5-0.6-3.5-1.5c-0.9-0.9-1.4-2.1-1.4-3.4c0-1.3 0.5-2.5 1.4-3.4c1-0.9 2.2-1.4 3.5-1.4c1.3 0 2.5 0.5 3.4 1.4c0.9 0.9 1.4 2.1 1.4 3.4c0 1.3-0.5 2.5-1.4 3.4c-0.9 0.9-2.1 1.5-3.4 1.5z" />
		<path id="Layer" class="s4" d="m121.3 320.5c0.7-0.7 1.7-1.1 2.8-1.1c2.1 0 3.9 1.8 3.9 4c0 1.1-0.4 2.1-1.1 2.8" />
	</g>
	<g id="Layer">
		<path id="Layer" class="s3" d="m124.2 297.9c-1.3 0-2.5-0.5-3.5-1.5c-0.9-0.9-1.4-2.1-1.4-3.4c0-1.3 0.5-2.5 1.4-3.4c1-0.9 2.2-1.4 3.5-1.4c1.3 0 2.5 0.5 3.4 1.4c0.9 0.9 1.4 2.1 1.4 3.4c0 1.3-0.5 2.5-1.4 3.4c-0.9 1-2.1 1.5-3.4 1.5z" />
		<path id="Layer" class="s4" d="m121.3 290.1c0.7-0.7 1.7-1.1 2.8-1.1c2.1 0 3.9 1.8 3.9 4c0 1.1-0.4 2.1-1.1 2.8" />
	</g>
	<path id="Layer" class="s0" d="m0.9 255v-110.4q0-1 0.4-2q0.4-0.9 1.1-1.6q0.7-0.7 1.6-1.1q0.9-0.3 1.9-0.3h52.2q1 0 1.9 0.3q0.9 0.4 1.6 1.1q0.7 0.7 1.1 1.6q0.4 1 0.4 2v110.4q0 1-0.4 1.9q-0.4 0.9-1.1 1.6q-0.7 0.7-1.6 1.1q-0.9 0.4-1.9 0.4h-52.2q-1 0-1.9-0.4q-0.9-0.4-1.6-1.1q-0.7-0.7-1.1-1.6q-0.4-0.9-0.4-1.9z" />
	<path id="Layer" class="s0" d="m7 253.5v-50h50v50z" />
	<path id="Layer" class="s0" d="m7 195.9v-50h50v50z" />
	<g id="Layer">
		<path id="Layer" class="s1" d="m7.4 200.8l47.7-0.1" />
		<path id="Layer" class="s2" d="m7.4 198.8l47.7-0.1" />
	</g>
	<g id="Layer">
		<path id="Layer" class="s3" d="m16.8 251.7c-1.3 0-2.5-0.5-3.5-1.4c-0.9-0.9-1.4-2.1-1.4-3.4c0-1.3 0.5-2.5 1.4-3.4c1-1 2.2-1.5 3.5-1.5c1.3 0 2.5 0.5 3.4 1.5c0.9 0.9 1.4 2.1 1.4 3.4c0 1.3-0.5 2.5-1.4 3.4c-0.9 0.9-2.1 1.4-3.4 1.4z" />
		<path id="Layer" class="s4" d="m13.9 244c0.7-0.7 1.7-1.1 2.8-1.1c2.1 0 3.9 1.8 3.9 4c0 1.1-0.4 2.1-1.1 2.8" />
	</g>
	<g id="Layer">
		<path id="Layer" class="s3" d="m46.8 221.4c-1.3 0-2.5-0.6-3.5-1.5c-0.9-0.9-1.4-2.1-1.4-3.4c0-1.3 0.5-2.5 1.4-3.4c1-0.9 2.2-1.4 3.5-1.4c1.3 0 2.5 0.5 3.4 1.4c0.9 0.9 1.4 2.1 1.4 3.4c0 1.3-0.5 2.5-1.4 3.4c-0.9 0.9-2.1 1.5-3.4 1.5z" />
		<path id="Layer" class="s4" d="m43.9 213.6c0.7-0.7 1.7-1.1 2.8-1.1c2.1 0 3.9 1.8 3.9 4c0 1.1-0.4 2.1-1.1 2.8" />
	</g>
	<g id="Layer">
		<path id="Layer" class="s3" d="m16.8 190.1c-1.3 0-2.5-0.5-3.5-1.4c-0.9-0.9-1.4-2.1-1.4-3.4c0-1.3 0.5-2.5 1.4-3.4c1-1 2.2-1.5 3.5-1.5c1.3 0 2.5 0.5 3.4 1.5c0.9 0.9 1.4 2.1 1.4 3.4c0 1.3-0.5 2.5-1.4 3.4c-0.9 0.9-2.1 1.4-3.4 1.4z" />
		<path id="Layer" class="s4" d="m13.9 182.4c0.7-0.7 1.7-1.1 2.8-1.1c2.1 0 3.9 1.8 3.9 4c0 1.1-0.4 2.1-1.1 2.8" />
	</g>
	<g id="Layer">
		<path id="Layer" class="s3" d="m31.8 174.9c-1.3 0-2.5-0.5-3.5-1.4c-0.9-0.9-1.4-2.1-1.4-3.4c0-1.3 0.5-2.5 1.4-3.4c1-0.9 2.2-1.5 3.5-1.5c1.3 0 2.5 0.6 3.4 1.5c0.9 0.9 1.4 2.1 1.4 3.4c0 1.3-0.5 2.5-1.4 3.4c-0.9 0.9-2.1 1.4-3.4 1.4z" />
		<path id="Layer" class="s4" d="m28.9 167.2c0.7-0.7 1.7-1.1 2.8-1.1c2.1 0 3.9 1.8 3.9 4c0 1.1-0.4 2.1-1.1 2.8" />
	</g>
	<g id="Layer">
		<path id="Layer" class="s3" d="m16.8 159.8c-1.3 0-2.5-0.6-3.5-1.5c-0.9-0.9-1.4-2.1-1.4-3.4c0-1.3 0.5-2.5 1.4-3.4c1-0.9 2.2-1.4 3.5-1.4c1.3 0 2.5 0.5 3.4 1.4c0.9 0.9 1.4 2.1 1.4 3.4c0 1.3-0.5 2.5-1.4 3.4c-0.9 0.9-2.1 1.5-3.4 1.5z" />
		<path id="Layer" class="s4" d="m13.9 152c0.7-0.7 1.7-1.1 2.8-1.1c2.1 0 3.9 1.8 3.9 4c0 1.1-0.4 2.1-1.1 2.8" />
	</g>
	<g id="Layer">
		<path id="Layer" class="s3" d="m46.8 190.1c-1.3 0-2.5-0.5-3.5-1.4c-0.9-0.9-1.4-2.1-1.4-3.4c0-1.3 0.5-2.5 1.4-3.4c1-1 2.2-1.5 3.5-1.5c1.3 0 2.5 0.5 3.4 1.5c0.9 0.9 1.4 2.1 1.4 3.4c0 1.3-0.5 2.5-1.4 3.4c-0.9 0.9-2.1 1.4-3.4 1.4z" />
		<path id="Layer" class="s4" d="m43.9 182.4c0.7-0.7 1.7-1.1 2.8-1.1c2.1 0 3.9 1.8 3.9 4c0 1.1-0.4 2.1-1.1 2.8" />
	</g>
	<g id="Layer">
		<path id="Layer" class="s3" d="m46.8 159.8c-1.3 0-2.5-0.6-3.5-1.5c-0.9-0.9-1.4-2.1-1.4-3.4c0-1.3 0.5-2.5 1.4-3.4c1-0.9 2.2-1.4 3.5-1.4c1.3 0 2.5 0.5 3.4 1.4c0.9 0.9 1.4 2.1 1.4 3.4c0 1.3-0.5 2.5-1.4 3.4c-0.9 0.9-2.1 1.5-3.4 1.5z" />
		<path id="Layer" class="s4" d="m43.9 152c0.7-0.7 1.7-1.1 2.8-1.1c2.1 0 3.9 1.8 3.9 4c0 1.1-0.4 2.1-1.1 2.8" />
	</g>
	<path id="Layer" class="s0" d="m0.9 116.9v-110.4q0-1 0.4-2q0.4-0.9 1.1-1.6q0.7-0.7 1.6-1.1q0.9-0.3 1.9-0.3h52.2q1 0 1.9 0.3q0.9 0.4 1.6 1.1q0.7 0.7 1.1 1.6q0.4 1 0.4 2v110.4q0 1-0.4 1.9q-0.4 0.9-1.1 1.6q-0.7 0.7-1.6 1.1q-0.9 0.4-1.9 0.4h-52.2q-1 0-1.9-0.4q-0.9-0.4-1.6-1.1q-0.7-0.7-1.1-1.6q-0.4-0.9-0.4-1.9z" />
	<path id="Layer" class="s0" d="m7 115.4v-50h50v50z" />
	<path id="Layer" class="s0" d="m7 57.8v-50h50v50z" />
	<g id="Layer">
		<path id="Layer" class="s1" d="m7.4 62.6h47.7" />
		<path id="Layer" class="s2" d="m7.4 60.6h47.7" />
	</g>
	<g id="Layer">
		<path id="Layer" class="s3" d="m16.8 113.6c-1.3 0-2.5-0.5-3.5-1.4c-0.9-0.9-1.4-2.1-1.4-3.4c0-1.3 0.5-2.5 1.4-3.5c1-0.9 2.2-1.4 3.5-1.4c1.3 0 2.5 0.5 3.4 1.4c0.9 1 1.4 2.2 1.4 3.5c0 1.3-0.5 2.5-1.4 3.4c-0.9 0.9-2.1 1.4-3.4 1.4z" />
		<path id="Layer" class="s4" d="m13.9 105.9c0.7-0.7 1.7-1.1 2.8-1.1c2.1 0 3.9 1.7 3.9 4c0 1.1-0.4 2.1-1.1 2.8" />
	</g>
	<g id="Layer">
		<path id="Layer" class="s3" d="m46.8 83.2c-1.3 0-2.5-0.5-3.5-1.4c-0.9-0.9-1.4-2.1-1.4-3.4c0-1.3 0.5-2.5 1.4-3.4c1-1 2.2-1.5 3.5-1.5c1.3 0 2.5 0.5 3.4 1.5c0.9 0.9 1.4 2.1 1.4 3.4c0 1.3-0.5 2.5-1.4 3.4c-0.9 0.9-2.1 1.4-3.4 1.4z" />
		<path id="Layer" class="s4" d="m43.9 75.5c0.7-0.7 1.7-1.1 2.8-1.1c2.1 0 3.9 1.8 3.9 4c0 1.1-0.4 2.1-1.1 2.8" />
	</g>
	<g id="Layer">
		<path id="Layer" class="s3" d="m16.8 52c-1.3 0-2.5-0.5-3.5-1.4c-0.9-0.9-1.4-2.1-1.4-3.4c0-1.3 0.5-2.5 1.4-3.4c1-1 2.2-1.5 3.5-1.5c1.3 0 2.5 0.5 3.4 1.5c0.9 0.9 1.4 2.1 1.4 3.4c0 1.3-0.5 2.5-1.4 3.4c-0.9 0.9-2.1 1.4-3.4 1.4z" />
		<path id="Layer" class="s4" d="m13.9 44.3c0.7-0.7 1.7-1.1 2.8-1.1c2.1 0 3.9 1.8 3.9 4c0 1.1-0.4 2.1-1.1 2.8" />
	</g>
	<g id="Layer">
		<path id="Layer" class="s3" d="m16.8 21.6c-1.3 0-2.5-0.5-3.5-1.4c-0.9-0.9-1.4-2.1-1.4-3.4c0-1.3 0.5-2.5 1.4-3.4c1-1 2.2-1.5 3.5-1.5c1.3 0 2.5 0.5 3.4 1.5c0.9 0.9 1.4 2.1 1.4 3.4c0 1.3-0.5 2.5-1.4 3.4c-0.9 0.9-2.1 1.4-3.4 1.4z" />
		<path id="Layer" class="s4" d="m13.9 13.9c0.7-0.7 1.7-1.1 2.8-1.1c2.1 0 3.9 1.8 3.9 4c0 1.1-0.4 2.1-1.1 2.8" />
	</g>
	<g id="Layer">
		<path id="Layer" class="s3" d="m16.8 36.8c-1.3 0-2.5-0.5-3.5-1.4c-0.9-0.9-1.4-2.1-1.4-3.4c0-1.3 0.5-2.5 1.4-3.4c1-1 2.2-1.5 3.5-1.5c1.3 0 2.5 0.5 3.4 1.5c0.9 0.9 1.4 2.1 1.4 3.4c0 1.3-0.5 2.5-1.4 3.4c-0.9 0.9-2.1 1.4-3.4 1.4z" />
		<path id="Layer" class="s4" d="m13.9 29.1c0.7-0.7 1.7-1.1 2.8-1.1c2.1 0 3.9 1.8 3.9 4c0 1.1-0.4 2.1-1.1 2.8" />
	</g>
	<g id="Layer">
		<path id="Layer" class="s3" d="m46.8 52c-1.3 0-2.5-0.5-3.5-1.4c-0.9-0.9-1.4-2.1-1.4-3.4c0-1.3 0.5-2.5 1.4-3.4c1-1 2.2-1.5 3.5-1.5c1.3 0 2.5 0.5 3.4 1.5c0.9 0.9 1.4 2.1 1.4 3.4c0 1.3-0.5 2.5-1.4 3.4c-0.9 0.9-2.1 1.4-3.4 1.4z" />
		<path id="Layer" class="s4" d="m43.9 44.3c0.7-0.7 1.7-1.1 2.8-1.1c2.1 0 3.9 1.8 3.9 4c0 1.1-0.4 2.1-1.1 2.8" />
	</g>
	<g id="Layer">
		<path id="Layer" class="s3" d="m46.8 21.6c-1.3 0-2.5-0.5-3.5-1.4c-0.9-0.9-1.4-2.1-1.4-3.4c0-1.3 0.5-2.5 1.4-3.4c1-1 2.2-1.5 3.5-1.5c1.3 0 2.5 0.5 3.4 1.5c0.9 0.9 1.4 2.1 1.4 3.4c0 1.3-0.5 2.5-1.4 3.4c-0.9 0.9-2.1 1.4-3.4 1.4z" />
		<path id="Layer" class="s4" d="m43.9 13.9c0.7-0.7 1.7-1.1 2.8-1.1c2.1 0 3.9 1.8 3.9 4c0 1.1-0.4 2.1-1.1 2.8" />
	</g>
	<g id="Layer">
		<path id="Layer" class="s3" d="m46.8 36.8c-1.3 0-2.5-0.5-3.5-1.4c-0.9-0.9-1.4-2.1-1.4-3.4c0-1.3 0.5-2.5 1.4-3.4c1-1 2.2-1.5 3.5-1.5c1.3 0 2.5 0.5 3.4 1.5c0.9 0.9 1.4 2.1 1.4 3.4c0 1.3-0.5 2.5-1.4 3.4c-0.9 0.9-2.1 1.4-3.4 1.4z" />
		<path id="Layer" class="s4" d="m43.9 29.1c0.7-0.7 1.7-1.1 2.8-1.1c2.1 0 3.9 1.8 3.9 4c0 1.1-0.4 2.1-1.1 2.8" />
	</g>
	<path id="Layer" class="s0" d="m78.3 255v-110.4q0-1 0.4-2q0.3-0.9 1-1.6q0.7-0.7 1.7-1.1q0.9-0.3 1.9-0.3h52.1q1 0 2 0.3q0.9 0.4 1.6 1.1q0.7 0.7 1.1 1.6q0.3 1 0.3 2v110.4q0 1-0.3 1.9q-0.4 0.9-1.1 1.6q-0.7 0.7-1.6 1.1q-1 0.4-2 0.4h-52.1q-1 0-1.9-0.4q-1-0.4-1.7-1.1q-0.7-0.7-1-1.6q-0.4-0.9-0.4-1.9z" />
	<path id="Layer" class="s0" d="m84.4 253.5v-50h50v50z" />
	<path id="Layer" class="s0" d="m84.4 195.9v-50h50v50z" />
	<g id="Layer">
		<path id="Layer" class="s1" d="m84.8 200.8l47.7-0.1" />
		<path id="Layer" class="s2" d="m84.8 198.8l47.7-0.1" />
	</g>
	<g id="Layer">
		<path id="Layer" class="s3" d="m94.2 251.7c-1.3 0-2.5-0.5-3.5-1.4c-0.9-0.9-1.4-2.1-1.4-3.4c0-1.3 0.5-2.5 1.4-3.4c1-1 2.2-1.5 3.5-1.5c1.3 0 2.5 0.5 3.4 1.5c0.9 0.9 1.4 2.1 1.4 3.4c0 1.3-0.5 2.5-1.4 3.4c-0.9 0.9-2.1 1.4-3.4 1.4z" />
		<path id="Layer" class="s4" d="m91.3 244c0.7-0.7 1.7-1.1 2.8-1.1c2.1 0 3.9 1.8 3.9 4c0 1.1-0.4 2.1-1.1 2.8" />
	</g>
	<g id="Layer">
		<path id="Layer" class="s3" d="m109.2 236.5c-1.3 0-2.5-0.5-3.5-1.4c-0.9-0.9-1.4-2.1-1.4-3.4c0-1.3 0.5-2.5 1.4-3.4c1-0.9 2.2-1.5 3.5-1.5c1.3 0 2.5 0.6 3.4 1.5c0.9 0.9 1.4 2.1 1.4 3.4c0 1.3-0.5 2.5-1.4 3.4c-0.9 0.9-2.1 1.4-3.4 1.4z" />
		<path id="Layer" class="s4" d="m106.3 228.8c0.7-0.7 1.7-1.1 2.8-1.1c2.1 0 3.9 1.8 3.9 4c0 1.1-0.4 2.1-1.1 2.8" />
	</g>
	<g id="Layer">
		<path id="Layer" class="s3" d="m124.2 221.4c-1.3 0-2.5-0.6-3.5-1.5c-0.9-0.9-1.4-2.1-1.4-3.4c0-1.3 0.5-2.5 1.4-3.4c1-0.9 2.2-1.4 3.5-1.4c1.3 0 2.5 0.5 3.4 1.4c0.9 0.9 1.4 2.1 1.4 3.4c0 1.3-0.5 2.5-1.4 3.4c-0.9 0.9-2.1 1.5-3.4 1.5z" />
		<path id="Layer" class="s4" d="m121.3 213.6c0.7-0.7 1.7-1.1 2.8-1.1c2.1 0 3.9 1.8 3.9 4c0 1.1-0.4 2.1-1.1 2.8" />
	</g>
	<g id="Layer">
		<path id="Layer" class="s3" d="m94.2 190.1c-1.3 0-2.5-0.5-3.5-1.4c-0.9-0.9-1.4-2.1-1.4-3.4c0-1.3 0.5-2.5 1.4-3.4c1-1 2.2-1.5 3.5-1.5c1.3 0 2.5 0.5 3.4 1.5c0.9 0.9 1.4 2.1 1.4 3.4c0 1.3-0.5 2.5-1.4 3.4c-0.9 0.9-2.1 1.4-3.4 1.4z" />
		<path id="Layer" class="s4" d="m91.3 182.4c0.7-0.7 1.7-1.1 2.8-1.1c2.1 0 3.9 1.8 3.9 4c0 1.1-0.4 2.1-1.1 2.8" />
	</g>
	<g id="Layer">
		<path id="Layer" class="s3" d="m94.2 159.8c-1.3 0-2.5-0.6-3.5-1.5c-0.9-0.9-1.4-2.1-1.4-3.4c0-1.3 0.5-2.5 1.4-3.4c1-0.9 2.2-1.4 3.5-1.4c1.3 0 2.5 0.5 3.4 1.4c0.9 0.9 1.4 2.1 1.4 3.4c0 1.3-0.5 2.5-1.4 3.4c-0.9 0.9-2.1 1.5-3.4 1.5z" />
		<path id="Layer" class="s4" d="m91.3 152c0.7-0.7 1.7-1.1 2.8-1.1c2.1 0 3.9 1.8 3.9 4c0 1.1-0.4 2.1-1.1 2.8" />
	</g>
	<g id="Layer">
		<path id="Layer" class="s3" d="m94.2 174.9c-1.3 0-2.5-0.5-3.5-1.4c-0.9-0.9-1.4-2.1-1.4-3.4c0-1.3 0.5-2.5 1.4-3.4c1-0.9 2.2-1.5 3.5-1.5c1.3 0 2.5 0.6 3.4 1.5c0.9 0.9 1.4 2.1 1.4 3.4c0 1.3-0.5 2.5-1.4 3.4c-0.9 0.9-2.1 1.4-3.4 1.4z" />
		<path id="Layer" class="s4" d="m91.3 167.2c0.7-0.7 1.7-1.1 2.8-1.1c2.1 0 3.9 1.8 3.9 4c0 1.1-0.4 2.1-1.1 2.8" />
	</g>
	<g id="Layer">
		<path id="Layer" class="s3" d="m124.2 190.1c-1.3 0-2.5-0.5-3.5-1.4c-0.9-0.9-1.4-2.1-1.4-3.4c0-1.3 0.5-2.5 1.4-3.4c1-1 2.2-1.5 3.5-1.5c1.3 0 2.5 0.5 3.4 1.5c0.9 0.9 1.4 2.1 1.4 3.4c0 1.3-0.5 2.5-1.4 3.4c-0.9 0.9-2.1 1.4-3.4 1.4z" />
		<path id="Layer" class="s4" d="m121.3 182.4c0.7-0.7 1.7-1.1 2.8-1.1c2.1 0 3.9 1.8 3.9 4c0 1.1-0.4 2.1-1.1 2.8" />
	</g>
	<g id="Layer">
		<path id="Layer" class="s3" d="m124.2 159.8c-1.3 0-2.5-0.6-3.5-1.5c-0.9-0.9-1.4-2.1-1.4-3.4c0-1.3 0.5-2.5 1.4-3.4c1-0.9 2.2-1.4 3.5-1.4c1.3 0 2.5 0.5 3.4 1.4c0.9 0.9 1.4 2.1 1.4 3.4c0 1.3-0.5 2.5-1.4 3.4c-0.9 0.9-2.1 1.5-3.4 1.5z" />
		<path id="Layer" class="s4" d="m121.3 152c0.7-0.7 1.7-1.1 2.8-1.1c2.1 0 3.9 1.8 3.9 4c0 1.1-0.4 2.1-1.1 2.8" />
	</g>
	<g id="Layer">
		<path id="Layer" class="s3" d="m124.2 174.9c-1.3 0-2.5-0.5-3.5-1.4c-0.9-0.9-1.4-2.1-1.4-3.4c0-1.3 0.5-2.5 1.4-3.4c1-0.9 2.2-1.5 3.5-1.5c1.3 0 2.5 0.6 3.4 1.5c0.9 0.9 1.4 2.1 1.4 3.4c0 1.3-0.5 2.5-1.4 3.4c-0.9 0.9-2.1 1.4-3.4 1.4z" />
		<path id="Layer" class="s4" d="m121.3 167.2c0.7-0.7 1.7-1.1 2.8-1.1c2.1 0 3.9 1.8 3.9 4c0 1.1-0.4 2.1-1.1 2.8" />
	</g>
	<path id="Layer" class="s0" d="m78.3 116.9v-110.4q0-1 0.4-2q0.3-0.9 1-1.6q0.7-0.7 1.7-1.1q0.9-0.3 1.9-0.3h52.1q1 0 2 0.3q0.9 0.4 1.6 1.1q0.7 0.7 1.1 1.6q0.3 1 0.3 2v110.4q0 1-0.3 1.9q-0.4 0.9-1.1 1.6q-0.7 0.7-1.6 1.1q-1 0.4-2 0.4h-52.1q-1 0-1.9-0.4q-1-0.4-1.7-1.1q-0.7-0.7-1-1.6q-0.4-0.9-0.4-1.9z" />
	<path id="Layer" class="s0" d="m84.4 115.4v-50h50v50z" />
	<path id="Layer" class="s0" d="m84.4 57.8v-50h50v50z" />
	<g id="Layer">
		<path id="Layer" class="s1" d="m84.8 62.6h47.7" />
		<path id="Layer" class="s2" d="m84.8 60.6h47.7" />
	</g>
	<g id="Layer">
		<path id="Layer" class="s3" d="m94.2 113.6c-1.3 0-2.5-0.5-3.5-1.4c-0.9-0.9-1.4-2.1-1.4-3.4c0-1.3 0.5-2.5 1.4-3.5c1-0.9 2.2-1.4 3.5-1.4c1.3 0 2.5 0.5 3.4 1.4c0.9 1 1.4 2.2 1.4 3.5c0 1.3-0.5 2.5-1.4 3.4c-0.9 0.9-2.1 1.4-3.4 1.4z" />
		<path id="Layer" class="s4" d="m91.3 105.9c0.7-0.7 1.7-1.1 2.8-1.1c2.1 0 3.9 1.7 3.9 4c0 1.1-0.4 2.1-1.1 2.8" />
	</g>
	<g id="Layer">
		<path id="Layer" class="s3" d="m94.2 83.2c-1.3 0-2.5-0.5-3.5-1.4c-0.9-0.9-1.4-2.1-1.4-3.4c0-1.3 0.5-2.5 1.4-3.4c1-1 2.2-1.5 3.5-1.5c1.3 0 2.5 0.5 3.4 1.5c0.9 0.9 1.4 2.1 1.4 3.4c0 1.3-0.5 2.5-1.4 3.4c-0.9 0.9-2.1 1.4-3.4 1.4z" />
		<path id="Layer" class="s4" d="m91.3 75.5c0.7-0.7 1.7-1.1 2.8-1.1c2.1 0 3.9 1.8 3.9 4c0 1.1-0.4 2.1-1.1 2.8" />
	</g>
	<g id="Layer">
		<path id="Layer" class="s3" d="m124.2 113.6c-1.3 0-2.5-0.5-3.5-1.4c-0.9-0.9-1.4-2.1-1.4-3.4c0-1.3 0.5-2.5 1.4-3.5c1-0.9 2.2-1.4 3.5-1.4c1.3 0 2.5 0.5 3.4 1.4c0.9 1 1.4 2.2 1.4 3.5c0 1.3-0.5 2.5-1.4 3.4c-0.9 0.9-2.1 1.4-3.4 1.4z" />
		<path id="Layer" class="s4" d="m121.3 105.9c0.7-0.7 1.7-1.1 2.8-1.1c2.1 0 3.9 1.7 3.9 4c0 1.1-0.4 2.1-1.1 2.8" />
	</g>
	<g id="Layer">
		<path id="Layer" class="s3" d="m124.2 83.2c-1.3 0-2.5-0.5-3.5-1.4c-0.9-0.9-1.4-2.1-1.4-3.4c0-1.3 0.5-2.5 1.4-3.4c1-1 2.2-1.5 3.5-1.5c1.3 0 2.5 0.5 3.4 1.5c0.9 0.9 1.4 2.1 1.4 3.4c0 1.3-0.5 2.5-1.4 3.4c-0.9 0.9-2.1 1.4-3.4 1.4z" />
		<path id="Layer" class="s4" d="m121.3 75.5c0.7-0.7 1.7-1.1 2.8-1.1c2.1 0 3.9 1.8 3.9 4c0 1.1-0.4 2.1-1.1 2.8" />
	</g>
	<g id="Layer">
		<path id="Layer" class="s3" d="m94.2 52c-1.3 0-2.5-0.5-3.5-1.4c-0.9-0.9-1.4-2.1-1.4-3.4c0-1.3 0.5-2.5 1.4-3.4c1-1 2.2-1.5 3.5-1.5c1.3 0 2.5 0.5 3.4 1.5c0.9 0.9 1.4 2.1 1.4 3.4c0 1.3-0.5 2.5-1.4 3.4c-0.9 0.9-2.1 1.4-3.4 1.4z" />
		<path id="Layer" class="s4" d="m91.3 44.3c0.7-0.7 1.7-1.1 2.8-1.1c2.1 0 3.9 1.8 3.9 4c0 1.1-0.4 2.1-1.1 2.8" />
	</g>
	<g id="Layer">
		<path id="Layer" class="s3" d="m109.2 36.8c-1.3 0-2.5-0.5-3.5-1.4c-0.9-0.9-1.4-2.1-1.4-3.4c0-1.3 0.5-2.5 1.4-3.4c1-1 2.2-1.5 3.5-1.5c1.3 0 2.5 0.5 3.4 1.5c0.9 0.9 1.4 2.1 1.4 3.4c0 1.3-0.5 2.5-1.4 3.4c-0.9 0.9-2.1 1.4-3.4 1.4z" />
		<path id="Layer" class="s4" d="m106.3 29.1c0.7-0.7 1.7-1.1 2.8-1.1c2.1 0 3.9 1.8 3.9 4c0 1.1-0.4 2.1-1.1 2.8" />
	</g>
	<g id="Layer">
		<path id="Layer" class="s3" d="m94.2 21.6c-1.3 0-2.5-0.5-3.5-1.4c-0.9-0.9-1.4-2.1-1.4-3.4c0-1.3 0.5-2.5 1.4-3.4c1-1 2.2-1.5 3.5-1.5c1.3 0 2.5 0.5 3.4 1.5c0.9 0.9 1.4 2.1 1.4 3.4c0 1.3-0.5 2.5-1.4 3.4c-0.9 0.9-2.1 1.4-3.4 1.4z" />
		<path id="Layer" class="s4" d="m91.3 13.9c0.7-0.7 1.7-1.1 2.8-1.1c2.1 0 3.9 1.8 3.9 4c0 1.1-0.4 2.1-1.1 2.8" />
	</g>
	<g id="Layer">
		<path id="Layer" class="s3" d="m124.2 52c-1.3 0-2.5-0.5-3.5-1.4c-0.9-0.9-1.4-2.1-1.4-3.4c0-1.3 0.5-2.5 1.4-3.4c1-1 2.2-1.5 3.5-1.5c1.3 0 2.5 0.5 3.4 1.5c0.9 0.9 1.4 2.1 1.4 3.4c0 1.3-0.5 2.5-1.4 3.4c-0.9 0.9-2.1 1.4-3.4 1.4z" />
		<path id="Layer" class="s4" d="m121.3 44.3c0.7-0.7 1.7-1.1 2.8-1.1c2.1 0 3.9 1.8 3.9 4c0 1.1-0.4 2.1-1.1 2.8" />
	</g>
	<g id="Layer">
		<path id="Layer" class="s3" d="m124.2 21.6c-1.3 0-2.5-0.5-3.5-1.4c-0.9-0.9-1.4-2.1-1.4-3.4c0-1.3 0.5-2.5 1.4-3.4c1-1 2.2-1.5 3.5-1.5c1.3 0 2.5 0.5 3.4 1.5c0.9 0.9 1.4 2.1 1.4 3.4c0 1.3-0.5 2.5-1.4 3.4c-0.9 0.9-2.1 1.4-3.4 1.4z" />
		<path id="Layer" class="s4" d="m121.3 13.9c0.7-0.7 1.7-1.1 2.8-1.1c2.1 0 3.9 1.8 3.9 4c0 1.1-0.4 2.1-1.1 2.8" />
	</g>
	<path id="Layer" class="s0" d="m155.6 531.2v-110.4q0.1-1 0.4-1.9q0.4-0.9 1.1-1.6q0.7-0.7 1.6-1.1q1-0.4 1.9-0.4h52.2q1 0 1.9 0.4q1 0.4 1.7 1.1q0.7 0.7 1 1.6q0.4 0.9 0.4 1.9v110.4q0 1-0.4 1.9q-0.3 0.9-1 1.6q-0.7 0.7-1.7 1.1q-0.9 0.4-1.9 0.4h-52.2q-0.9 0-1.9-0.4q-0.9-0.4-1.6-1.1q-0.7-0.7-1.1-1.6q-0.3-0.9-0.4-1.9z" />
	<path id="Layer" class="s0" d="m161.7 529.7v-50h50v50z" />
	<path id="Layer" class="s0" d="m161.7 472.2v-50h50v50z" />
	<g id="Layer">
		<path id="Layer" class="s1" d="m162.2 477h47.6" />
		<path id="Layer" class="s2" d="m162.2 475h47.6" />
	</g>
	<g id="Layer">
		<path id="Layer" class="s3" d="m171.5 528c-1.3 0-2.5-0.5-3.5-1.5c-0.9-0.9-1.4-2.1-1.4-3.4c0-1.3 0.5-2.5 1.4-3.4c1-0.9 2.2-1.4 3.5-1.4c1.3 0 2.5 0.5 3.4 1.4c0.9 0.9 1.4 2.1 1.4 3.4c0 1.3-0.5 2.5-1.4 3.4c-0.9 1-2.1 1.5-3.4 1.5z" />
		<path id="Layer" class="s4" d="m168.6 520.2c0.7-0.7 1.7-1.1 2.8-1.1c2.1 0 3.9 1.8 3.9 4c0 1.1-0.4 2.1-1.1 2.8" />
	</g>
	<g id="Layer">
		<path id="Layer" class="s3" d="m171.5 497.6c-1.3 0-2.5-0.5-3.5-1.4c-0.9-1-1.4-2.2-1.4-3.5c0-1.3 0.5-2.5 1.4-3.4c1-0.9 2.2-1.4 3.5-1.4c1.3 0 2.5 0.5 3.4 1.4c0.9 0.9 1.4 2.1 1.4 3.4c0 1.3-0.5 2.5-1.4 3.5c-0.9 0.9-2.1 1.4-3.4 1.4z" />
		<path id="Layer" class="s4" d="m168.6 489.8c0.7-0.7 1.7-1.1 2.8-1.1c2.1 0 3.9 1.8 3.9 4c0 1.1-0.4 2.1-1.1 2.8" />
	</g>
	<g id="Layer">
		<path id="Layer" class="s3" d="m201.5 528c-1.3 0-2.5-0.5-3.5-1.5c-0.9-0.9-1.4-2.1-1.4-3.4c0-1.3 0.5-2.5 1.4-3.4c1-0.9 2.2-1.4 3.5-1.4c1.3 0 2.5 0.5 3.4 1.4c0.9 0.9 1.4 2.1 1.4 3.4c0 1.3-0.5 2.5-1.4 3.4c-0.9 1-2.1 1.5-3.4 1.5z" />
		<path id="Layer" class="s4" d="m198.6 520.2c0.7-0.7 1.7-1.1 2.8-1.1c2.1 0 3.9 1.8 3.9 4c0 1.1-0.4 2.1-1.1 2.8" />
	</g>
	<g id="Layer">
		<path id="Layer" class="s3" d="m201.5 497.6c-1.3 0-2.5-0.5-3.5-1.4c-0.9-1-1.4-2.2-1.4-3.5c0-1.3 0.5-2.5 1.4-3.4c1-0.9 2.2-1.4 3.5-1.4c1.3 0 2.5 0.5 3.4 1.4c0.9 0.9 1.4 2.1 1.4 3.4c0 1.3-0.5 2.5-1.4 3.5c-0.9 0.9-2.1 1.4-3.4 1.4z" />
		<path id="Layer" class="s4" d="m198.6 489.8c0.7-0.7 1.7-1.1 2.8-1.1c2.1 0 3.9 1.8 3.9 4c0 1.1-0.4 2.1-1.1 2.8" />
	</g>
	<g id="Layer">
		<path id="Layer" class="s3" d="m171.5 466.4c-1.3 0-2.5-0.5-3.5-1.5c-0.9-0.9-1.4-2.1-1.4-3.4c0-1.3 0.5-2.5 1.4-3.4c1-0.9 2.2-1.4 3.5-1.4c1.3 0 2.5 0.5 3.4 1.4c0.9 0.9 1.4 2.1 1.4 3.4c0 1.3-0.5 2.5-1.4 3.4c-0.9 1-2.1 1.5-3.4 1.5z" />
		<path id="Layer" class="s4" d="m168.6 458.6c0.7-0.7 1.7-1.1 2.8-1.1c2.1 0 3.9 1.8 3.9 4c0 1.1-0.4 2.1-1.1 2.8" />
	</g>
	<g id="Layer">
		<path id="Layer" class="s3" d="m171.5 436c-1.3 0-2.5-0.5-3.5-1.4c-0.9-0.9-1.4-2.2-1.4-3.5c0-1.3 0.5-2.5 1.4-3.4c1-0.9 2.2-1.4 3.5-1.4c1.3 0 2.5 0.5 3.4 1.4c0.9 0.9 1.4 2.1 1.4 3.4c0 1.3-0.5 2.6-1.4 3.5c-0.9 0.9-2.1 1.4-3.4 1.4z" />
		<path id="Layer" class="s4" d="m168.6 428.2c0.7-0.7 1.7-1.1 2.8-1.1c2.1 0 3.9 1.8 3.9 4c0 1.1-0.4 2.1-1.1 2.9" />
	</g>
	<g id="Layer">
		<path id="Layer" class="s3" d="m171.5 451.2c-1.3 0-2.5-0.5-3.5-1.4c-0.9-1-1.4-2.2-1.4-3.5c0-1.3 0.5-2.5 1.4-3.4c1-0.9 2.2-1.4 3.5-1.4c1.3 0 2.5 0.5 3.4 1.4c0.9 0.9 1.4 2.1 1.4 3.4c0 1.3-0.5 2.5-1.4 3.5c-0.9 0.9-2.1 1.4-3.4 1.4z" />
		<path id="Layer" class="s4" d="m168.6 443.4c0.7-0.7 1.7-1.1 2.8-1.1c2.1 0 3.9 1.8 3.9 4c0 1.1-0.4 2.1-1.1 2.8" />
	</g>
	<g id="Layer">
		<path id="Layer" class="s3" d="m201.5 466.4c-1.3 0-2.5-0.5-3.5-1.5c-0.9-0.9-1.4-2.1-1.4-3.4c0-1.3 0.5-2.5 1.4-3.4c1-0.9 2.2-1.4 3.5-1.4c1.3 0 2.5 0.5 3.4 1.4c0.9 0.9 1.4 2.1 1.4 3.4c0 1.3-0.5 2.5-1.4 3.4c-0.9 1-2.1 1.5-3.4 1.5z" />
		<path id="Layer" class="s4" d="m198.6 458.6c0.7-0.7 1.7-1.1 2.8-1.1c2.1 0 3.9 1.8 3.9 4c0 1.1-0.4 2.1-1.1 2.8" />
	</g>
	<g id="Layer">
		<path id="Layer" class="s3" d="m201.5 436c-1.3 0-2.5-0.5-3.5-1.4c-0.9-0.9-1.4-2.2-1.4-3.5c0-1.3 0.5-2.5 1.4-3.4c1-0.9 2.2-1.4 3.5-1.4c1.3 0 2.5 0.5 3.4 1.4c0.9 0.9 1.4 2.1 1.4 3.4c0 1.3-0.5 2.6-1.4 3.5c-0.9 0.9-2.1 1.4-3.4 1.4z" />
		<path id="Layer" class="s4" d="m198.6 428.2c0.7-0.7 1.7-1.1 2.8-1.1c2.1 0 3.9 1.8 3.9 4c0 1.1-0.4 2.1-1.1 2.9" />
	</g>
	<g id="Layer">
		<path id="Layer" class="s3" d="m201.5 451.2c-1.3 0-2.5-0.5-3.5-1.4c-0.9-1-1.4-2.2-1.4-3.5c0-1.3 0.5-2.5 1.4-3.4c1-0.9 2.2-1.4 3.5-1.4c1.3 0 2.5 0.5 3.4 1.4c0.9 0.9 1.4 2.1 1.4 3.4c0 1.3-0.5 2.5-1.4 3.5c-0.9 0.9-2.1 1.4-3.4 1.4z" />
		<path id="Layer" class="s4" d="m198.6 443.4c0.7-0.7 1.7-1.1 2.8-1.1c2.1 0 3.9 1.8 3.9 4c0 1.1-0.4 2.1-1.1 2.8" />
	</g>
	<path id="Layer" class="s0" d="m155.6 393.1v-110.4q0.1-1 0.4-1.9q0.4-1 1.1-1.7q0.7-0.7 1.6-1q1-0.4 1.9-0.4h52.2q1 0 1.9 0.4q1 0.3 1.7 1q0.7 0.7 1 1.7q0.4 0.9 0.4 1.9v110.4q0 1-0.4 1.9q-0.3 0.9-1 1.6q-0.7 0.7-1.7 1.1q-0.9 0.4-1.9 0.4h-52.2q-0.9 0-1.9-0.4q-0.9-0.4-1.6-1.1q-0.7-0.7-1.1-1.6q-0.3-0.9-0.4-1.9z" />
	<path id="Layer" class="s0" d="m161.7 391.6v-50h50v50z" />
	<path id="Layer" class="s0" d="m161.7 334v-50h50v50z" />
	<g id="Layer">
		<path id="Layer" class="s1" d="m162.2 338.9h47.6" />
		<path id="Layer" class="s2" d="m162.2 336.9h47.6" />
	</g>
	<g id="Layer">
		<path id="Layer" class="s3" d="m171.5 389.8c-1.3 0-2.5-0.5-3.5-1.4c-0.9-0.9-1.4-2.1-1.4-3.4c0-1.3 0.5-2.5 1.4-3.4c1-0.9 2.2-1.5 3.5-1.5c1.3 0 2.5 0.6 3.4 1.5c0.9 0.9 1.4 2.1 1.4 3.4c0 1.3-0.5 2.5-1.4 3.4c-0.9 0.9-2.1 1.4-3.4 1.4z" />
		<path id="Layer" class="s4" d="m168.6 382.1c0.7-0.7 1.7-1.1 2.8-1.1c2.1 0 3.9 1.8 3.9 4c0 1.1-0.4 2.1-1.1 2.8" />
	</g>
	<g id="Layer">
		<path id="Layer" class="s3" d="m186.5 374.7c-1.3 0-2.5-0.6-3.5-1.5c-0.9-0.9-1.4-2.1-1.4-3.4c0-1.3 0.5-2.5 1.4-3.4c1-0.9 2.2-1.4 3.5-1.4c1.3 0 2.5 0.5 3.4 1.4c0.9 0.9 1.4 2.1 1.4 3.4c0 1.3-0.5 2.5-1.4 3.4c-0.9 0.9-2.1 1.5-3.4 1.5z" />
		<path id="Layer" class="s4" d="m183.6 366.9c0.7-0.7 1.7-1.1 2.8-1.1c2.1 0 3.9 1.8 3.9 4c0 1.1-0.4 2.1-1.1 2.8" />
	</g>
	<g id="Layer">
		<path id="Layer" class="s3" d="m171.5 359.5c-1.3 0-2.5-0.5-3.5-1.5c-0.9-0.9-1.4-2.1-1.4-3.4c0-1.3 0.5-2.5 1.4-3.4c1-0.9 2.2-1.4 3.5-1.4c1.3 0 2.5 0.5 3.4 1.4c0.9 0.9 1.4 2.1 1.4 3.4c0 1.3-0.5 2.5-1.4 3.4c-0.9 1-2.1 1.5-3.4 1.5z" />
		<path id="Layer" class="s4" d="m168.6 351.7c0.7-0.7 1.7-1.1 2.8-1.1c2.1 0 3.9 1.8 3.9 4c0 1.1-0.4 2.1-1.1 2.8" />
	</g>
	<g id="Layer">
		<path id="Layer" class="s3" d="m201.5 389.8c-1.3 0-2.5-0.5-3.5-1.4c-0.9-0.9-1.4-2.1-1.4-3.4c0-1.3 0.5-2.5 1.4-3.4c1-0.9 2.2-1.5 3.5-1.5c1.3 0 2.5 0.6 3.4 1.5c0.9 0.9 1.4 2.1 1.4 3.4c0 1.3-0.5 2.5-1.4 3.4c-0.9 0.9-2.1 1.4-3.4 1.4z" />
		<path id="Layer" class="s4" d="m198.6 382.1c0.7-0.7 1.7-1.1 2.8-1.1c2.1 0 3.9 1.8 3.9 4c0 1.1-0.4 2.1-1.1 2.8" />
	</g>
	<g id="Layer">
		<path id="Layer" class="s3" d="m201.5 359.5c-1.3 0-2.5-0.5-3.5-1.5c-0.9-0.9-1.4-2.1-1.4-3.4c0-1.3 0.5-2.5 1.4-3.4c1-0.9 2.2-1.4 3.5-1.4c1.3 0 2.5 0.5 3.4 1.4c0.9 0.9 1.4 2.1 1.4 3.4c0 1.3-0.5 2.5-1.4 3.4c-0.9 1-2.1 1.5-3.4 1.5z" />
		<path id="Layer" class="s4" d="m198.6 351.7c0.7-0.7 1.7-1.1 2.8-1.1c2.1 0 3.9 1.8 3.9 4c0 1.1-0.4 2.1-1.1 2.8" />
	</g>
	<g id="Layer">
		<path id="Layer" class="s3" d="m171.5 328.3c-1.3 0-2.5-0.6-3.5-1.5c-0.9-0.9-1.4-2.1-1.4-3.4c0-1.3 0.5-2.5 1.4-3.4c1-0.9 2.2-1.4 3.5-1.4c1.3 0 2.5 0.5 3.4 1.4c0.9 0.9 1.4 2.1 1.4 3.4c0 1.3-0.5 2.5-1.4 3.4c-0.9 0.9-2.1 1.5-3.4 1.5z" />
		<path id="Layer" class="s4" d="m168.6 320.5c0.7-0.7 1.7-1.1 2.8-1.1c2.1 0 3.9 1.8 3.9 4c0 1.1-0.4 2.1-1.1 2.8" />
	</g>
	<g id="Layer">
		<path id="Layer" class="s3" d="m171.5 297.9c-1.3 0-2.5-0.5-3.5-1.5c-0.9-0.9-1.4-2.1-1.4-3.4c0-1.3 0.5-2.5 1.4-3.4c1-0.9 2.2-1.4 3.5-1.4c1.3 0 2.5 0.5 3.4 1.4c0.9 0.9 1.4 2.1 1.4 3.4c0 1.3-0.5 2.5-1.4 3.4c-0.9 1-2.1 1.5-3.4 1.5z" />
		<path id="Layer" class="s4" d="m168.6 290.1c0.7-0.7 1.7-1.1 2.8-1.1c2.1 0 3.9 1.8 3.9 4c0 1.1-0.4 2.1-1.1 2.8" />
	</g>
	<g id="Layer">
		<path id="Layer" class="s3" d="m171.5 313.1c-1.3 0-2.5-0.6-3.5-1.5c-0.9-0.9-1.4-2.1-1.4-3.4c0-1.3 0.5-2.5 1.4-3.4c1-0.9 2.2-1.4 3.5-1.4c1.3 0 2.5 0.5 3.4 1.4c0.9 0.9 1.4 2.1 1.4 3.4c0 1.3-0.5 2.5-1.4 3.4c-0.9 0.9-2.1 1.5-3.4 1.5z" />
		<path id="Layer" class="s4" d="m168.6 305.3c0.7-0.7 1.7-1.1 2.8-1.1c2.1 0 3.9 1.8 3.9 4c0 1.1-0.4 2.1-1.1 2.8" />
	</g>
	<g id="Layer">
		<path id="Layer" class="s3" d="m201.5 328.3c-1.3 0-2.5-0.6-3.5-1.5c-0.9-0.9-1.4-2.1-1.4-3.4c0-1.3 0.5-2.5 1.4-3.4c1-0.9 2.2-1.4 3.5-1.4c1.3 0 2.5 0.5 3.4 1.4c0.9 0.9 1.4 2.1 1.4 3.4c0 1.3-0.5 2.5-1.4 3.4c-0.9 0.9-2.1 1.5-3.4 1.5z" />
		<path id="Layer" class="s4" d="m198.6 320.5c0.7-0.7 1.7-1.1 2.8-1.1c2.1 0 3.9 1.8 3.9 4c0 1.1-0.4 2.1-1.1 2.8" />
	</g>
	<g id="Layer">
		<path id="Layer" class="s3" d="m201.5 297.9c-1.3 0-2.5-0.5-3.5-1.5c-0.9-0.9-1.4-2.1-1.4-3.4c0-1.3 0.5-2.5 1.4-3.4c1-0.9 2.2-1.4 3.5-1.4c1.3 0 2.5 0.5 3.4 1.4c0.9 0.9 1.4 2.1 1.4 3.4c0 1.3-0.5 2.5-1.4 3.4c-0.9 1-2.1 1.5-3.4 1.5z" />
		<path id="Layer" class="s4" d="m198.6 290.1c0.7-0.7 1.7-1.1 2.8-1.1c2.1 0 3.9 1.8 3.9 4c0 1.1-0.4 2.1-1.1 2.8" />
	</g>
	<g id="Layer">
		<path id="Layer" class="s3" d="m201.5 313.1c-1.3 0-2.5-0.6-3.5-1.5c-0.9-0.9-1.4-2.1-1.4-3.4c0-1.3 0.5-2.5 1.4-3.4c1-0.9 2.2-1.4 3.5-1.4c1.3 0 2.5 0.5 3.4 1.4c0.9 0.9 1.4 2.1 1.4 3.4c0 1.3-0.5 2.5-1.4 3.4c-0.9 0.9-2.1 1.5-3.4 1.5z" />
		<path id="Layer" class="s4" d="m198.6 305.3c0.7-0.7 1.7-1.1 2.8-1.1c2.1 0 3.9 1.8 3.9 4c0 1.1-0.4 2.1-1.1 2.8" />
	</g>
	<path id="Layer" class="s0" d="m233 531.2v-110.4q0-1 0.4-1.9q0.4-0.9 1.1-1.6q0.7-0.7 1.6-1.1q0.9-0.4 1.9-0.4h52.2q1 0 1.9 0.4q0.9 0.4 1.6 1.1q0.7 0.7 1.1 1.6q0.4 0.9 0.4 1.9v110.4q0 1-0.4 1.9q-0.4 0.9-1.1 1.6q-0.7 0.7-1.6 1.1q-0.9 0.4-1.9 0.4h-52.2q-1 0-1.9-0.4q-0.9-0.4-1.6-1.1q-0.7-0.7-1.1-1.6q-0.4-0.9-0.4-1.9z" />
	<path id="Layer" class="s0" d="m239.1 529.7v-50h50v50z" />
	<path id="Layer" class="s0" d="m239.1 472.2v-50h50v50z" />
	<g id="Layer">
		<path id="Layer" class="s1" d="m239.6 477h47.6" />
		<path id="Layer" class="s2" d="m239.6 475h47.6" />
	</g>
	<g id="Layer">
		<path id="Layer" class="s3" d="m248.9 528c-1.3 0-2.5-0.5-3.5-1.5c-0.9-0.9-1.4-2.1-1.4-3.4c0-1.3 0.5-2.5 1.4-3.4c1-0.9 2.2-1.4 3.5-1.4c1.3 0 2.5 0.5 3.4 1.4c0.9 0.9 1.4 2.1 1.4 3.4c0 1.3-0.5 2.5-1.4 3.4c-0.9 1-2.1 1.5-3.4 1.5z" />
		<path id="Layer" class="s4" d="m246 520.2c0.7-0.7 1.7-1.1 2.8-1.1c2.1 0 3.9 1.8 3.9 4c0 1.1-0.4 2.1-1.1 2.8" />
	</g>
	<g id="Layer">
		<path id="Layer" class="s3" d="m263.9 512.8c-1.3 0-2.5-0.5-3.5-1.5c-0.9-0.9-1.4-2.1-1.4-3.4c0-1.3 0.5-2.5 1.4-3.4c1-0.9 2.2-1.4 3.5-1.4c1.3 0 2.5 0.5 3.4 1.4c0.9 0.9 1.4 2.1 1.4 3.4c0 1.3-0.5 2.5-1.4 3.4c-0.9 1-2.1 1.5-3.4 1.5z" />
		<path id="Layer" class="s4" d="m261 505c0.7-0.7 1.7-1.1 2.8-1.1c2.1 0 3.9 1.8 3.9 4c0 1.1-0.4 2.1-1.1 2.8" />
	</g>
	<g id="Layer">
		<path id="Layer" class="s3" d="m278.9 497.6c-1.3 0-2.5-0.5-3.5-1.4c-0.9-1-1.4-2.2-1.4-3.5c0-1.3 0.5-2.5 1.4-3.4c1-0.9 2.2-1.4 3.5-1.4c1.3 0 2.5 0.5 3.4 1.4c0.9 0.9 1.4 2.1 1.4 3.4c0 1.3-0.5 2.5-1.4 3.5c-0.9 0.9-2.1 1.4-3.4 1.4z" />
		<path id="Layer" class="s4" d="m276 489.8c0.7-0.7 1.7-1.1 2.8-1.1c2.1 0 3.9 1.8 3.9 4c0 1.1-0.4 2.1-1.1 2.8" />
	</g>
	<g id="Layer">
		<path id="Layer" class="s3" d="m248.9 466.4c-1.3 0-2.5-0.5-3.5-1.5c-0.9-0.9-1.4-2.1-1.4-3.4c0-1.3 0.5-2.5 1.4-3.4c1-0.9 2.2-1.4 3.5-1.4c1.3 0 2.5 0.5 3.4 1.4c0.9 0.9 1.4 2.1 1.4 3.4c0 1.3-0.5 2.5-1.4 3.4c-0.9 1-2.1 1.5-3.4 1.5z" />
		<path id="Layer" class="s4" d="m246 458.6c0.7-0.7 1.7-1.1 2.8-1.1c2.1 0 3.9 1.8 3.9 4c0 1.1-0.4 2.1-1.1 2.8" />
	</g>
	<g id="Layer">
		<path id="Layer" class="s3" d="m263.9 451.2c-1.3 0-2.5-0.5-3.5-1.4c-0.9-1-1.4-2.2-1.4-3.5c0-1.3 0.5-2.5 1.4-3.4c1-0.9 2.2-1.4 3.5-1.4c1.3 0 2.5 0.5 3.4 1.4c0.9 0.9 1.4 2.1 1.4 3.4c0 1.3-0.5 2.5-1.4 3.5c-0.9 0.9-2.1 1.4-3.4 1.4z" />
		<path id="Layer" class="s4" d="m261 443.4c0.7-0.7 1.7-1.1 2.8-1.1c2.1 0 3.9 1.8 3.9 4c0 1.1-0.4 2.1-1.1 2.8" />
	</g>
	<g id="Layer">
		<path id="Layer" class="s3" d="m278.9 436c-1.3 0-2.5-0.5-3.5-1.4c-0.9-0.9-1.4-2.2-1.4-3.5c0-1.3 0.5-2.5 1.4-3.4c1-0.9 2.2-1.4 3.5-1.4c1.3 0 2.5 0.5 3.4 1.4c0.9 0.9 1.4 2.1 1.4 3.4c0 1.3-0.5 2.6-1.4 3.5c-0.9 0.9-2.1 1.4-3.4 1.4z" />
		<path id="Layer" class="s4" d="m276 428.2c0.7-0.7 1.7-1.1 2.8-1.1c2.1 0 3.9 1.8 3.9 4c0 1.1-0.4 2.1-1.1 2.9" />
	</g>
	<path id="Layer" class="s0" d="m233 393.1v-110.4q0-1 0.4-1.9q0.4-1 1.1-1.7q0.7-0.7 1.6-1q0.9-0.4 1.9-0.4h52.2q1 0 1.9 0.4q0.9 0.3 1.6 1q0.7 0.7 1.1 1.7q0.4 0.9 0.4 1.9v110.4q0 1-0.4 1.9q-0.4 0.9-1.1 1.6q-0.7 0.7-1.6 1.1q-0.9 0.4-1.9 0.4h-52.2q-1 0-1.9-0.4q-0.9-0.4-1.6-1.1q-0.7-0.7-1.1-1.6q-0.4-0.9-0.4-1.9z" />
	<path id="Layer" class="s0" d="m239.1 391.6v-50h50v50z" />
	<path id="Layer" class="s0" d="m239.1 334v-50h50v50z" />
	<g id="Layer">
		<path id="Layer" class="s1" d="m239.6 338.9h47.6" />
		<path id="Layer" class="s2" d="m239.6 336.9h47.6" />
	</g>
	<g id="Layer">
		<path id="Layer" class="s3" d="m248.9 389.8c-1.3 0-2.5-0.5-3.5-1.4c-0.9-0.9-1.4-2.1-1.4-3.4c0-1.3 0.5-2.5 1.4-3.4c1-0.9 2.2-1.5 3.5-1.5c1.3 0 2.5 0.6 3.4 1.5c0.9 0.9 1.4 2.1 1.4 3.4c0 1.3-0.5 2.5-1.4 3.4c-0.9 0.9-2.1 1.4-3.4 1.4z" />
		<path id="Layer" class="s4" d="m246 382.1c0.7-0.7 1.7-1.1 2.8-1.1c2.1 0 3.9 1.8 3.9 4c0 1.1-0.4 2.1-1.1 2.8" />
	</g>
	<g id="Layer">
		<path id="Layer" class="s3" d="m248.9 359.5c-1.3 0-2.5-0.5-3.5-1.5c-0.9-0.9-1.4-2.1-1.4-3.4c0-1.3 0.5-2.5 1.4-3.4c1-0.9 2.2-1.4 3.5-1.4c1.3 0 2.5 0.5 3.4 1.4c0.9 0.9 1.4 2.1 1.4 3.4c0 1.3-0.5 2.5-1.4 3.4c-0.9 1-2.1 1.5-3.4 1.5z" />
		<path id="Layer" class="s4" d="m246 351.7c0.7-0.7 1.7-1.1 2.8-1.1c2.1 0 3.9 1.8 3.9 4c0 1.1-0.4 2.1-1.1 2.8" />
	</g>
	<g id="Layer">
		<path id="Layer" class="s3" d="m278.9 389.8c-1.3 0-2.5-0.5-3.5-1.4c-0.9-0.9-1.4-2.1-1.4-3.4c0-1.3 0.5-2.5 1.4-3.4c1-0.9 2.2-1.5 3.5-1.5c1.3 0 2.5 0.6 3.4 1.5c0.9 0.9 1.4 2.1 1.4 3.4c0 1.3-0.5 2.5-1.4 3.4c-0.9 0.9-2.1 1.4-3.4 1.4z" />
		<path id="Layer" class="s4" d="m276 382.1c0.7-0.7 1.7-1.1 2.8-1.1c2.1 0 3.9 1.8 3.9 4c0 1.1-0.4 2.1-1.1 2.8" />
	</g>
	<g id="Layer">
		<path id="Layer" class="s3" d="m278.9 359.5c-1.3 0-2.5-0.5-3.5-1.5c-0.9-0.9-1.4-2.1-1.4-3.4c0-1.3 0.5-2.5 1.4-3.4c1-0.9 2.2-1.4 3.5-1.4c1.3 0 2.5 0.5 3.4 1.4c0.9 0.9 1.4 2.1 1.4 3.4c0 1.3-0.5 2.5-1.4 3.4c-0.9 1-2.1 1.5-3.4 1.5z" />
		<path id="Layer" class="s4" d="m276 351.7c0.7-0.7 1.7-1.1 2.8-1.1c2.1 0 3.9 1.8 3.9 4c0 1.1-0.4 2.1-1.1 2.8" />
	</g>
	<g id="Layer">
		<path id="Layer" class="s3" d="m248.9 328.3c-1.3 0-2.5-0.6-3.5-1.5c-0.9-0.9-1.4-2.1-1.4-3.4c0-1.3 0.5-2.5 1.4-3.4c1-0.9 2.2-1.4 3.5-1.4c1.3 0 2.5 0.5 3.4 1.4c0.9 0.9 1.4 2.1 1.4 3.4c0 1.3-0.5 2.5-1.4 3.4c-0.9 0.9-2.1 1.5-3.4 1.5z" />
		<path id="Layer" class="s4" d="m246 320.5c0.7-0.7 1.7-1.1 2.8-1.1c2.1 0 3.9 1.8 3.9 4c0 1.1-0.4 2.1-1.1 2.8" />
	</g>
	<g id="Layer">
		<path id="Layer" class="s3" d="m248.9 297.9c-1.3 0-2.5-0.5-3.5-1.5c-0.9-0.9-1.4-2.1-1.4-3.4c0-1.3 0.5-2.5 1.4-3.4c1-0.9 2.2-1.4 3.5-1.4c1.3 0 2.5 0.5 3.4 1.4c0.9 0.9 1.4 2.1 1.4 3.4c0 1.3-0.5 2.5-1.4 3.4c-0.9 1-2.1 1.5-3.4 1.5z" />
		<path id="Layer" class="s4" d="m246 290.1c0.7-0.7 1.7-1.1 2.8-1.1c2.1 0 3.9 1.8 3.9 4c0 1.1-0.4 2.1-1.1 2.8" />
	</g>
	<g id="Layer">
		<path id="Layer" class="s3" d="m278.9 328.3c-1.3 0-2.5-0.6-3.5-1.5c-0.9-0.9-1.4-2.1-1.4-3.4c0-1.3 0.5-2.5 1.4-3.4c1-0.9 2.2-1.4 3.5-1.4c1.3 0 2.5 0.5 3.4 1.4c0.9 0.9 1.4 2.1 1.4 3.4c0 1.3-0.5 2.5-1.4 3.4c-0.9 0.9-2.1 1.5-3.4 1.5z" />
		<path id="Layer" class="s4" d="m276 320.5c0.7-0.7 1.7-1.1 2.8-1.1c2.1 0 3.9 1.8 3.9 4c0 1.1-0.4 2.1-1.1 2.8" />
	</g>
	<g id="Layer">
		<path id="Layer" class="s3" d="m278.9 297.9c-1.3 0-2.5-0.5-3.5-1.5c-0.9-0.9-1.4-2.1-1.4-3.4c0-1.3 0.5-2.5 1.4-3.4c1-0.9 2.2-1.4 3.5-1.4c1.3 0 2.5 0.5 3.4 1.4c0.9 0.9 1.4 2.1 1.4 3.4c0 1.3-0.5 2.5-1.4 3.4c-0.9 1-2.1 1.5-3.4 1.5z" />
		<path id="Layer" class="s4" d="m276 290.1c0.7-0.7 1.7-1.1 2.8-1.1c2.1 0 3.9 1.8 3.9 4c0 1.1-0.4 2.1-1.1 2.8" />
	</g>
	<path id="Layer" class="s0" d="m155.6 255v-110.4q0.1-1 0.4-2q0.4-0.9 1.1-1.6q0.7-0.7 1.6-1.1q1-0.3 1.9-0.3h52.2q1 0 1.9 0.3q1 0.4 1.7 1.1q0.7 0.7 1 1.6q0.4 1 0.4 2v110.4q0 1-0.4 1.9q-0.3 0.9-1 1.6q-0.7 0.7-1.7 1.1q-0.9 0.4-1.9 0.4h-52.2q-0.9 0-1.9-0.4q-0.9-0.4-1.6-1.1q-0.7-0.7-1.1-1.6q-0.3-0.9-0.4-1.9z" />
	<path id="Layer" class="s0" d="m161.7 253.5v-50h50v50z" />
	<path id="Layer" class="s0" d="m161.7 195.9v-50h50v50z" />
	<g id="Layer">
		<path id="Layer" class="s1" d="m162.2 200.8l47.6-0.1" />
		<path id="Layer" class="s2" d="m162.2 198.8l47.6-0.1" />
	</g>
	<g id="Layer">
		<path id="Layer" class="s3" d="m186.5 236.5c-1.3 0-2.5-0.5-3.5-1.4c-0.9-0.9-1.4-2.1-1.4-3.4c0-1.3 0.5-2.5 1.4-3.4c1-0.9 2.2-1.5 3.5-1.5c1.3 0 2.5 0.6 3.4 1.5c0.9 0.9 1.4 2.1 1.4 3.4c0 1.3-0.5 2.5-1.4 3.4c-0.9 0.9-2.1 1.4-3.4 1.4z" />
		<path id="Layer" class="s4" d="m183.6 228.8c0.7-0.7 1.7-1.1 2.8-1.1c2.1 0 3.9 1.8 3.9 4c0 1.1-0.4 2.1-1.1 2.8" />
	</g>
	<g id="Layer">
		<path id="Layer" class="s3" d="m186.5 174.9c-1.3 0-2.5-0.5-3.5-1.4c-0.9-0.9-1.4-2.1-1.4-3.4c0-1.3 0.5-2.5 1.4-3.4c1-0.9 2.2-1.5 3.5-1.5c1.3 0 2.5 0.6 3.4 1.5c0.9 0.9 1.4 2.1 1.4 3.4c0 1.3-0.5 2.5-1.4 3.4c-0.9 0.9-2.1 1.4-3.4 1.4z" />
		<path id="Layer" class="s4" d="m183.6 167.2c0.7-0.7 1.7-1.1 2.8-1.1c2.1 0 3.9 1.8 3.9 4c0 1.1-0.4 2.1-1.1 2.8" />
	</g>
	<path id="Layer" class="s0" d="m155.6 116.9v-110.4q0.1-1 0.4-2q0.4-0.9 1.1-1.6q0.7-0.7 1.6-1.1q1-0.3 1.9-0.3h52.2q1 0 1.9 0.3q1 0.4 1.7 1.1q0.7 0.7 1 1.6q0.4 1 0.4 2v110.4q0 1-0.4 1.9q-0.3 0.9-1 1.6q-0.7 0.7-1.7 1.1q-0.9 0.4-1.9 0.4h-52.2q-0.9 0-1.9-0.4q-0.9-0.4-1.6-1.1q-0.7-0.7-1.1-1.6q-0.3-0.9-0.4-1.9z" />
	<path id="Layer" class="s0" d="m161.7 115.4v-50h50v50z" />
	<path id="Layer" class="s0" d="m161.7 57.8v-50h50v50z" />
	<g id="Layer">
		<path id="Layer" class="s1" d="m162.2 62.6h47.6" />
		<path id="Layer" class="s2" d="m162.2 60.6h47.6" />
	</g>
	<g id="Layer">
		<path id="Layer" class="s3" d="m171.5 113.6c-1.3 0-2.5-0.5-3.5-1.4c-0.9-0.9-1.4-2.1-1.4-3.4c0-1.3 0.5-2.5 1.4-3.5c1-0.9 2.2-1.4 3.5-1.4c1.3 0 2.5 0.5 3.4 1.4c0.9 1 1.4 2.2 1.4 3.5c0 1.3-0.5 2.5-1.4 3.4c-0.9 0.9-2.1 1.4-3.4 1.4z" />
		<path id="Layer" class="s4" d="m168.6 105.9c0.7-0.7 1.7-1.1 2.8-1.1c2.1 0 3.9 1.7 3.9 4c0 1.1-0.4 2.1-1.1 2.8" />
	</g>
	<g id="Layer">
		<path id="Layer" class="s3" d="m201.5 83.2c-1.3 0-2.5-0.5-3.5-1.4c-0.9-0.9-1.4-2.1-1.4-3.4c0-1.3 0.5-2.5 1.4-3.4c1-1 2.2-1.5 3.5-1.5c1.3 0 2.5 0.5 3.4 1.5c0.9 0.9 1.4 2.1 1.4 3.4c0 1.3-0.5 2.5-1.4 3.4c-0.9 0.9-2.1 1.4-3.4 1.4z" />
		<path id="Layer" class="s4" d="m198.6 75.5c0.7-0.7 1.7-1.1 2.8-1.1c2.1 0 3.9 1.8 3.9 4c0 1.1-0.4 2.1-1.1 2.8" />
	</g>
	<g id="Layer">
		<path id="Layer" class="s3" d="m171.5 52c-1.3 0-2.5-0.5-3.5-1.4c-0.9-0.9-1.4-2.1-1.4-3.4c0-1.3 0.5-2.5 1.4-3.4c1-1 2.2-1.5 3.5-1.5c1.3 0 2.5 0.5 3.4 1.5c0.9 0.9 1.4 2.1 1.4 3.4c0 1.3-0.5 2.5-1.4 3.4c-0.9 0.9-2.1 1.4-3.4 1.4z" />
		<path id="Layer" class="s4" d="m168.6 44.3c0.7-0.7 1.7-1.1 2.8-1.1c2.1 0 3.9 1.8 3.9 4c0 1.1-0.4 2.1-1.1 2.8" />
	</g>
	<g id="Layer">
		<path id="Layer" class="s3" d="m201.5 21.6c-1.3 0-2.5-0.5-3.5-1.4c-0.9-0.9-1.4-2.1-1.4-3.4c0-1.3 0.5-2.5 1.4-3.4c1-1 2.2-1.5 3.5-1.5c1.3 0 2.5 0.5 3.4 1.5c0.9 0.9 1.4 2.1 1.4 3.4c0 1.3-0.5 2.5-1.4 3.4c-0.9 0.9-2.1 1.4-3.4 1.4z" />
		<path id="Layer" class="s4" d="m198.6 13.9c0.7-0.7 1.7-1.1 2.8-1.1c2.1 0 3.9 1.8 3.9 4c0 1.1-0.4 2.1-1.1 2.8" />
	</g>
	<path id="Layer" class="s0" d="m233 255v-110.4q0-1 0.4-2q0.4-0.9 1.1-1.6q0.7-0.7 1.6-1.1q0.9-0.3 1.9-0.3h52.2q1 0 1.9 0.3q0.9 0.4 1.6 1.1q0.7 0.7 1.1 1.6q0.4 1 0.4 2v110.4q0 1-0.4 1.9q-0.4 0.9-1.1 1.6q-0.7 0.7-1.6 1.1q-0.9 0.4-1.9 0.4h-52.2q-1 0-1.9-0.4q-0.9-0.4-1.6-1.1q-0.7-0.7-1.1-1.6q-0.4-0.9-0.4-1.9z" />
	<path id="Layer" class="s0" d="m239.1 253.5v-50h50v50z" />
	<path id="Layer" class="s0" d="m239.1 195.9v-50h50v50z" />
	<g id="Layer">
		<path id="Layer" class="s1" d="m239.6 200.8l47.6-0.1" />
		<path id="Layer" class="s2" d="m239.6 198.8l47.6-0.1" />
	</g>
	<g id="Layer">
		<path id="Layer" class="s3" d="m248.9 251.7c-1.3 0-2.5-0.5-3.5-1.4c-0.9-0.9-1.4-2.1-1.4-3.4c0-1.3 0.5-2.5 1.4-3.4c1-1 2.2-1.5 3.5-1.5c1.3 0 2.5 0.5 3.4 1.5c0.9 0.9 1.4 2.1 1.4 3.4c0 1.3-0.5 2.5-1.4 3.4c-0.9 0.9-2.1 1.4-3.4 1.4z" />
		<path id="Layer" class="s4" d="m246 244c0.7-0.7 1.7-1.1 2.8-1.1c2.1 0 3.9 1.8 3.9 4c0 1.1-0.4 2.1-1.1 2.8" />
	</g>
	<g id="Layer">
		<path id="Layer" class="s3" d="m263.9 236.5c-1.3 0-2.5-0.5-3.5-1.4c-0.9-0.9-1.4-2.1-1.4-3.4c0-1.3 0.5-2.5 1.4-3.4c1-0.9 2.2-1.5 3.5-1.5c1.3 0 2.5 0.6 3.4 1.5c0.9 0.9 1.4 2.1 1.4 3.4c0 1.3-0.5 2.5-1.4 3.4c-0.9 0.9-2.1 1.4-3.4 1.4z" />
		<path id="Layer" class="s4" d="m261 228.8c0.7-0.7 1.7-1.1 2.8-1.1c2.1 0 3.9 1.8 3.9 4c0 1.1-0.4 2.1-1.1 2.8" />
	</g>
	<g id="Layer">
		<path id="Layer" class="s3" d="m248.9 221.4c-1.3 0-2.5-0.6-3.5-1.5c-0.9-0.9-1.4-2.1-1.4-3.4c0-1.3 0.5-2.5 1.4-3.4c1-0.9 2.2-1.4 3.5-1.4c1.3 0 2.5 0.5 3.4 1.4c0.9 0.9 1.4 2.1 1.4 3.4c0 1.3-0.5 2.5-1.4 3.4c-0.9 0.9-2.1 1.5-3.4 1.5z" />
		<path id="Layer" class="s4" d="m246 213.6c0.7-0.7 1.7-1.1 2.8-1.1c2.1 0 3.9 1.8 3.9 4c0 1.1-0.4 2.1-1.1 2.8" />
	</g>
	<g id="Layer">
		<path id="Layer" class="s3" d="m278.9 251.7c-1.3 0-2.5-0.5-3.5-1.4c-0.9-0.9-1.4-2.1-1.4-3.4c0-1.3 0.5-2.5 1.4-3.4c1-1 2.2-1.5 3.5-1.5c1.3 0 2.5 0.5 3.4 1.5c0.9 0.9 1.4 2.1 1.4 3.4c0 1.3-0.5 2.5-1.4 3.4c-0.9 0.9-2.1 1.4-3.4 1.4z" />
		<path id="Layer" class="s4" d="m276 244c0.7-0.7 1.7-1.1 2.8-1.1c2.1 0 3.9 1.8 3.9 4c0 1.1-0.4 2.1-1.1 2.8" />
	</g>
	<g id="Layer">
		<path id="Layer" class="s3" d="m278.9 221.4c-1.3 0-2.5-0.6-3.5-1.5c-0.9-0.9-1.4-2.1-1.4-3.4c0-1.3 0.5-2.5 1.4-3.4c1-0.9 2.2-1.4 3.5-1.4c1.3 0 2.5 0.5 3.4 1.4c0.9 0.9 1.4 2.1 1.4 3.4c0 1.3-0.5 2.5-1.4 3.4c-0.9 0.9-2.1 1.5-3.4 1.5z" />
		<path id="Layer" class="s4" d="m276 213.6c0.7-0.7 1.7-1.1 2.8-1.1c2.1 0 3.9 1.8 3.9 4c0 1.1-0.4 2.1-1.1 2.8" />
	</g>
	<g id="Layer">
		<path id="Layer" class="s3" d="m248.9 190.1c-1.3 0-2.5-0.5-3.5-1.4c-0.9-0.9-1.4-2.1-1.4-3.4c0-1.3 0.5-2.5 1.4-3.4c1-1 2.2-1.5 3.5-1.5c1.3 0 2.5 0.5 3.4 1.5c0.9 0.9 1.4 2.1 1.4 3.4c0 1.3-0.5 2.5-1.4 3.4c-0.9 0.9-2.1 1.4-3.4 1.4z" />
		<path id="Layer" class="s4" d="m246 182.4c0.7-0.7 1.7-1.1 2.8-1.1c2.1 0 3.9 1.8 3.9 4c0 1.1-0.4 2.1-1.1 2.8" />
	</g>
	<g id="Layer">
		<path id="Layer" class="s3" d="m263.9 174.9c-1.3 0-2.5-0.5-3.5-1.4c-0.9-0.9-1.4-2.1-1.4-3.4c0-1.3 0.5-2.5 1.4-3.4c1-0.9 2.2-1.5 3.5-1.5c1.3 0 2.5 0.6 3.4 1.5c0.9 0.9 1.4 2.1 1.4 3.4c0 1.3-0.5 2.5-1.4 3.4c-0.9 0.9-2.1 1.4-3.4 1.4z" />
		<path id="Layer" class="s4" d="m261 167.2c0.7-0.7 1.7-1.1 2.8-1.1c2.1 0 3.9 1.8 3.9 4c0 1.1-0.4 2.1-1.1 2.8" />
	</g>
	<g id="Layer">
		<path id="Layer" class="s3" d="m248.9 159.8c-1.3 0-2.5-0.6-3.5-1.5c-0.9-0.9-1.4-2.1-1.4-3.4c0-1.3 0.5-2.5 1.4-3.4c1-0.9 2.2-1.4 3.5-1.4c1.3 0 2.5 0.5 3.4 1.4c0.9 0.9 1.4 2.1 1.4 3.4c0 1.3-0.5 2.5-1.4 3.4c-0.9 0.9-2.1 1.5-3.4 1.5z" />
		<path id="Layer" class="s4" d="m246 152c0.7-0.7 1.7-1.1 2.8-1.1c2.1 0 3.9 1.8 3.9 4c0 1.1-0.4 2.1-1.1 2.8" />
	</g>
	<g id="Layer">
		<path id="Layer" class="s3" d="m278.9 190.1c-1.3 0-2.5-0.5-3.5-1.4c-0.9-0.9-1.4-2.1-1.4-3.4c0-1.3 0.5-2.5 1.4-3.4c1-1 2.2-1.5 3.5-1.5c1.3 0 2.5 0.5 3.4 1.5c0.9 0.9 1.4 2.1 1.4 3.4c0 1.3-0.5 2.5-1.4 3.4c-0.9 0.9-2.1 1.4-3.4 1.4z" />
		<path id="Layer" class="s4" d="m276 182.4c0.7-0.7 1.7-1.1 2.8-1.1c2.1 0 3.9 1.8 3.9 4c0 1.1-0.4 2.1-1.1 2.8" />
	</g>
	<g id="Layer">
		<path id="Layer" class="s3" d="m278.9 159.8c-1.3 0-2.5-0.6-3.5-1.5c-0.9-0.9-1.4-2.1-1.4-3.4c0-1.3 0.5-2.5 1.4-3.4c1-0.9 2.2-1.4 3.5-1.4c1.3 0 2.5 0.5 3.4 1.4c0.9 0.9 1.4 2.1 1.4 3.4c0 1.3-0.5 2.5-1.4 3.4c-0.9 0.9-2.1 1.5-3.4 1.5z" />
		<path id="Layer" class="s4" d="m276 152c0.7-0.7 1.7-1.1 2.8-1.1c2.1 0 3.9 1.8 3.9 4c0 1.1-0.4 2.1-1.1 2.8" />
	</g>
	<path id="Layer" class="s0" d="m233 116.9v-110.4q0-1 0.4-2q0.4-0.9 1.1-1.6q0.7-0.7 1.6-1.1q0.9-0.3 1.9-0.3h52.2q1 0 1.9 0.3q0.9 0.4 1.6 1.1q0.7 0.7 1.1 1.6q0.4 1 0.4 2v110.4q0 1-0.4 1.9q-0.4 0.9-1.1 1.6q-0.7 0.7-1.6 1.1q-0.9 0.4-1.9 0.4h-52.2q-1 0-1.9-0.4q-0.9-0.4-1.6-1.1q-0.7-0.7-1.1-1.6q-0.4-0.9-0.4-1.9z" />
	<path id="Layer" class="s0" d="m239.1 115.4v-50h50v50z" />
	<path id="Layer" class="s0" d="m239.1 57.8v-50h50v50z" />
	<g id="Layer">
		<path id="Layer" class="s1" d="m239.6 62.6h47.6" />
		<path id="Layer" class="s2" d="m239.6 60.6h47.6" />
	</g>
	<g id="Layer">
		<path id="Layer" class="s3" d="m248.9 113.6c-1.3 0-2.5-0.5-3.5-1.4c-0.9-0.9-1.4-2.1-1.4-3.4c0-1.3 0.5-2.5 1.4-3.5c1-0.9 2.2-1.4 3.5-1.4c1.3 0 2.5 0.5 3.4 1.4c0.9 1 1.4 2.2 1.4 3.5c0 1.3-0.5 2.5-1.4 3.4c-0.9 0.9-2.1 1.4-3.4 1.4z" />
		<path id="Layer" class="s4" d="m246 105.9c0.7-0.7 1.7-1.1 2.8-1.1c2.1 0 3.9 1.7 3.9 4c0 1.1-0.4 2.1-1.1 2.8" />
	</g>
	<g id="Layer">
		<path id="Layer" class="s3" d="m248.9 83.2c-1.3 0-2.5-0.5-3.5-1.4c-0.9-0.9-1.4-2.1-1.4-3.4c0-1.3 0.5-2.5 1.4-3.4c1-1 2.2-1.5 3.5-1.5c1.3 0 2.5 0.5 3.4 1.5c0.9 0.9 1.4 2.1 1.4 3.4c0 1.3-0.5 2.5-1.4 3.4c-0.9 0.9-2.1 1.4-3.4 1.4z" />
		<path id="Layer" class="s4" d="m246 75.5c0.7-0.7 1.7-1.1 2.8-1.1c2.1 0 3.9 1.8 3.9 4c0 1.1-0.4 2.1-1.1 2.8" />
	</g>
	<g id="Layer">
		<path id="Layer" class="s3" d="m248.9 98.4c-1.3 0-2.5-0.5-3.5-1.4c-0.9-0.9-1.4-2.1-1.4-3.4c0-1.3 0.5-2.5 1.4-3.4c1-1 2.2-1.5 3.5-1.5c1.3 0 2.5 0.5 3.4 1.5c0.9 0.9 1.4 2.1 1.4 3.4c0 1.3-0.5 2.5-1.4 3.4c-0.9 0.9-2.1 1.4-3.4 1.4z" />
		<path id="Layer" class="s4" d="m246 90.7c0.7-0.7 1.7-1.1 2.8-1.1c2.1 0 3.9 1.8 3.9 4c0 1.1-0.4 2.1-1.1 2.8" />
	</g>
	<g id="Layer">
		<path id="Layer" class="s3" d="m278.9 113.6c-1.3 0-2.5-0.5-3.5-1.4c-0.9-0.9-1.4-2.1-1.4-3.4c0-1.3 0.5-2.5 1.4-3.5c1-0.9 2.2-1.4 3.5-1.4c1.3 0 2.5 0.5 3.4 1.4c0.9 1 1.4 2.2 1.4 3.5c0 1.3-0.5 2.5-1.4 3.4c-0.9 0.9-2.1 1.4-3.4 1.4z" />
		<path id="Layer" class="s4" d="m276 105.9c0.7-0.7 1.7-1.1 2.8-1.1c2.1 0 3.9 1.7 3.9 4c0 1.1-0.4 2.1-1.1 2.8" />
	</g>
	<g id="Layer">
		<path id="Layer" class="s3" d="m278.9 83.2c-1.3 0-2.5-0.5-3.5-1.4c-0.9-0.9-1.4-2.1-1.4-3.4c0-1.3 0.5-2.5 1.4-3.4c1-1 2.2-1.5 3.5-1.5c1.3 0 2.5 0.5 3.4 1.5c0.9 0.9 1.4 2.1 1.4 3.4c0 1.3-0.5 2.5-1.4 3.4c-0.9 0.9-2.1 1.4-3.4 1.4z" />
		<path id="Layer" class="s4" d="m276 75.5c0.7-0.7 1.7-1.1 2.8-1.1c2.1 0 3.9 1.8 3.9 4c0 1.1-0.4 2.1-1.1 2.8" />
	</g>
	<g id="Layer">
		<path id="Layer" class="s3" d="m278.9 98.4c-1.3 0-2.5-0.5-3.5-1.4c-0.9-0.9-1.4-2.1-1.4-3.4c0-1.3 0.5-2.5 1.4-3.4c1-1 2.2-1.5 3.5-1.5c1.3 0 2.5 0.5 3.4 1.5c0.9 0.9 1.4 2.1 1.4 3.4c0 1.3-0.5 2.5-1.4 3.4c-0.9 0.9-2.1 1.4-3.4 1.4z" />
		<path id="Layer" class="s4" d="m276 90.7c0.7-0.7 1.7-1.1 2.8-1.1c2.1 0 3.9 1.8 3.9 4c0 1.1-0.4 2.1-1.1 2.8" />
	</g>
	<g id="Layer">
		<path id="Layer" class="s3" d="m248.9 52c-1.3 0-2.5-0.5-3.5-1.4c-0.9-0.9-1.4-2.1-1.4-3.4c0-1.3 0.5-2.5 1.4-3.4c1-1 2.2-1.5 3.5-1.5c1.3 0 2.5 0.5 3.4 1.5c0.9 0.9 1.4 2.1 1.4 3.4c0 1.3-0.5 2.5-1.4 3.4c-0.9 0.9-2.1 1.4-3.4 1.4z" />
		<path id="Layer" class="s4" d="m246 44.3c0.7-0.7 1.7-1.1 2.8-1.1c2.1 0 3.9 1.8 3.9 4c0 1.1-0.4 2.1-1.1 2.8" />
	</g>
	<g id="Layer">
		<path id="Layer" class="s3" d="m248.9 21.6c-1.3 0-2.5-0.5-3.5-1.4c-0.9-0.9-1.4-2.1-1.4-3.4c0-1.3 0.5-2.5 1.4-3.4c1-1 2.2-1.5 3.5-1.5c1.3 0 2.5 0.5 3.4 1.5c0.9 0.9 1.4 2.1 1.4 3.4c0 1.3-0.5 2.5-1.4 3.4c-0.9 0.9-2.1 1.4-3.4 1.4z" />
		<path id="Layer" class="s4" d="m246 13.9c0.7-0.7 1.7-1.1 2.8-1.1c2.1 0 3.9 1.8 3.9 4c0 1.1-0.4 2.1-1.1 2.8" />
	</g>
	<g id="Layer">
		<path id="Layer" class="s3" d="m248.9 36.8c-1.3 0-2.5-0.5-3.5-1.4c-0.9-0.9-1.4-2.1-1.4-3.4c0-1.3 0.5-2.5 1.4-3.4c1-1 2.2-1.5 3.5-1.5c1.3 0 2.5 0.5 3.4 1.5c0.9 0.9 1.4 2.1 1.4 3.4c0 1.3-0.5 2.5-1.4 3.4c-0.9 0.9-2.1 1.4-3.4 1.4z" />
		<path id="Layer" class="s4" d="m246 29.1c0.7-0.7 1.7-1.1 2.8-1.1c2.1 0 3.9 1.8 3.9 4c0 1.1-0.4 2.1-1.1 2.8" />
	</g>
	<g id="Layer">
		<path id="Layer" class="s3" d="m278.9 52c-1.3 0-2.5-0.5-3.5-1.4c-0.9-0.9-1.4-2.1-1.4-3.4c0-1.3 0.5-2.5 1.4-3.4c1-1 2.2-1.5 3.5-1.5c1.3 0 2.5 0.5 3.4 1.5c0.9 0.9 1.4 2.1 1.4 3.4c0 1.3-0.5 2.5-1.4 3.4c-0.9 0.9-2.1 1.4-3.4 1.4z" />
		<path id="Layer" class="s4" d="m276 44.3c0.7-0.7 1.7-1.1 2.8-1.1c2.1 0 3.9 1.8 3.9 4c0 1.1-0.4 2.1-1.1 2.8" />
	</g>
	<g id="Layer">
		<path id="Layer" class="s3" d="m278.9 21.6c-1.3 0-2.5-0.5-3.5-1.4c-0.9-0.9-1.4-2.1-1.4-3.4c0-1.3 0.5-2.5 1.4-3.4c1-1 2.2-1.5 3.5-1.5c1.3 0 2.5 0.5 3.4 1.5c0.9 0.9 1.4 2.1 1.4 3.4c0 1.3-0.5 2.5-1.4 3.4c-0.9 0.9-2.1 1.4-3.4 1.4z" />
		<path id="Layer" class="s4" d="m276 13.9c0.7-0.7 1.7-1.1 2.8-1.1c2.1 0 3.9 1.8 3.9 4c0 1.1-0.4 2.1-1.1 2.8" />
	</g>
	<g id="Layer">
		<path id="Layer" class="s3" d="m278.9 36.8c-1.3 0-2.5-0.5-3.5-1.4c-0.9-0.9-1.4-2.1-1.4-3.4c0-1.3 0.5-2.5 1.4-3.4c1-1 2.2-1.5 3.5-1.5c1.3 0 2.5 0.5 3.4 1.5c0.9 0.9 1.4 2.1 1.4 3.4c0 1.3-0.5 2.5-1.4 3.4c-0.9 0.9-2.1 1.4-3.4 1.4z" />
		<path id="Layer" class="s4" d="m276 29.1c0.7-0.7 1.7-1.1 2.8-1.1c2.1 0 3.9 1.8 3.9 4c0 1.1-0.4 2.1-1.1 2.8" />
	</g>
</svg>